  0
SECTION
  2
HEADER
  9
$ACADVER
  1
AC1015
  9
$ACADMAINTVER
 70
     6
  9
$DWGCODEPAGE
  3
ANSI_1252
  9
$INSBASE
 10
0.0
 20
0.0
 30
0.0
  9
$EXTMIN
 10
0.0
 20
0.0
 30
0.0
  9
$EXTMAX
 10
210.0
 20
297.0
 30
0.0
  9
$LIMMIN
 10
0.0
 20
0.0
  9
$LIMMAX
 10
210.0
 20
297.0
  9
$ORTHOMODE
 70
     0
  9
$REGENMODE
 70
     1
  9
$FILLMODE
 70
     1
  9
$QTEXTMODE
 70
     0
  9
$MIRRTEXT
 70
     1
  9
$LTSCALE
 40
1.0
  9
$ATTMODE
 70
     1
  9
$TEXTSIZE
 40
3.5
  9
$TRACEWID
 40
1.0
  9
$TEXTSTYLE
  7
Standard
  9
$CLAYER
  8
0
  9
$CELTYPE
  6
ByLayer
  9
$CECOLOR
 62
   256
  9
$CELTSCALE
 40
1.0
  9
$DISPSILH
 70
     0
  9
$DIMSCALE
 40
1.0
  9
$DIMASZ
 40
3.302
  9
$DIMEXO
 40
1.0
  9
$DIMDLI
 40
3.75
  9
$DIMRND
 40
0.0
  9
$DIMDLE
 40
0.0
  9
$DIMEXE
 40
1.0
  9
$DIMTP
 40
0.0
  9
$DIMTM
 40
0.0
  9
$DIMTXT
 40
3.5
  9
$DIMCEN
 40
2.5
  9
$DIMTSZ
 40
0.0
  9
$DIMTOL
 70
     0
  9
$DIMLIM
 70
     0
  9
$DIMTIH
 70
     1
  9
$DIMTOH
 70
     1
  9
$DIMSE1
 70
     0
  9
$DIMSE2
 70
     0
  9
$DIMTAD
 70
     1
  9
$DIMZIN
 70
     1
  9
$DIMBLK
  1

  9
$DIMASO
 70
     1
  9
$DIMSHO
 70
     1
  9
$DIMPOST
  1

  9
$DIMAPOST
  1

  9
$DIMALT
 70
     0
  9
$DIMALTD
 70
     3
  9
$DIMALTF
 40
0.0393700787
  9
$DIMLFAC
 40
2.0
  9
$DIMTOFL
 70
     1
  9
$DIMTVP
 40
0.0
  9
$DIMTIX
 70
     0
  9
$DIMSOXD
 70
     0
  9
$DIMSAH
 70
     0
  9
$DIMBLK1
  1

  9
$DIMBLK2
  1

  9
$DIMSTYLE
  2
ISO-25
  9
$DIMCLRD
 70
     0
  9
$DIMCLRE
 70
     0
  9
$DIMCLRT
 70
     0
  9
$DIMTFAC
 40
1.0
  9
$DIMGAP
 40
1.524
  9
$DIMJUST
 70
     0
  9
$DIMSD1
 70
     0
  9
$DIMSD2
 70
     0
  9
$DIMTOLJ
 70
     0
  9
$DIMTZIN
 70
     1
  9
$DIMALTZ
 70
     0
  9
$DIMALTTZ
 70
     0
  9
$DIMUPT
 70
     0
  9
$DIMDEC
 70
     2
  9
$DIMTDEC
 70
     2
  9
$DIMALTU
 70
     2
  9
$DIMALTTD
 70
     3
  9
$DIMTXSTY
  7
Standard
  9
$DIMAUNIT
 70
     0
  9
$DIMADEC
 70
     2
  9
$DIMALTRND
 40
0.0
  9
$DIMAZIN
 70
     0
  9
$DIMDSEP
 70
    44
  9
$DIMATFIT
 70
     3
  9
$DIMFRAC
 70
     0
  9
$DIMLDRBLK
  1

  9
$DIMLUNIT
 70
     2
  9
$DIMLWD
 70
    -2
  9
$DIMLWE
 70
    -2
  9
$DIMTMOVE
 70
     0
  9
$LUNITS
 70
     2
  9
$LUPREC
 70
     2
  9
$SKETCHINC
 40
1.0
  9
$FILLETRAD
 40
10.0
  9
$AUNITS
 70
     0
  9
$AUPREC
 70
     2
  9
$MENU
  1
.
  9
$ELEVATION
 40
0.0
  9
$PELEVATION
 40
0.0
  9
$THICKNESS
 40
0.0
  9
$LIMCHECK
 70
     0
  9
$CHAMFERA
 40
0.0
  9
$CHAMFERB
 40
0.0
  9
$CHAMFERC
 40
0.0
  9
$CHAMFERD
 40
0.0
  9
$SKPOLY
 70
     0
  9
$TDCREATE
 40
2458726.805443715
  9
$TDUCREATE
 40
2458726.930443715
  9
$TDUPDATE
 40
2458726.80544434
  9
$TDUUPDATE
 40
2458726.93044434
  9
$TDINDWG
 40
0.0000000116
  9
$TDUSRTIMER
 40
0.0000000116
  9
$USRTIMER
 70
     1
  9
$ANGBASE
 50
0.0
  9
$ANGDIR
 70
     0
  9
$PDMODE
 70
     0
  9
$PDSIZE
 40
-1.0
  9
$PLINEWID
 40
0.0
  9
$SPLFRAME
 70
     0
  9
$SPLINETYPE
 70
     6
  9
$SPLINESEGS
 70
     8
  9
$HANDSEED
  5
DF
  9
$SURFTAB1
 70
     6
  9
$SURFTAB2
 70
     6
  9
$SURFTYPE
 70
     6
  9
$SURFU
 70
     6
  9
$SURFV
 70
     6
  9
$UCSBASE
  2

  9
$UCSNAME
  2

  9
$UCSORG
 10
0.0
 20
0.0
 30
0.0
  9
$UCSXDIR
 10
1.0
 20
0.0
 30
0.0
  9
$UCSYDIR
 10
0.0
 20
1.0
 30
0.0
  9
$UCSORTHOREF
  2

  9
$UCSORTHOVIEW
 70
     0
  9
$UCSORGTOP
 10
0.0
 20
0.0
 30
0.0
  9
$UCSORGBOTTOM
 10
0.0
 20
0.0
 30
0.0
  9
$UCSORGLEFT
 10
0.0
 20
0.0
 30
0.0
  9
$UCSORGRIGHT
 10
0.0
 20
0.0
 30
0.0
  9
$UCSORGFRONT
 10
0.0
 20
0.0
 30
0.0
  9
$UCSORGBACK
 10
0.0
 20
0.0
 30
0.0
  9
$PUCSBASE
  2

  9
$PUCSNAME
  2

  9
$PUCSORG
 10
0.0
 20
0.0
 30
0.0
  9
$PUCSXDIR
 10
1.0
 20
0.0
 30
0.0
  9
$PUCSYDIR
 10
0.0
 20
1.0
 30
0.0
  9
$PUCSORTHOREF
  2

  9
$PUCSORTHOVIEW
 70
     0
  9
$PUCSORGTOP
 10
0.0
 20
0.0
 30
0.0
  9
$PUCSORGBOTTOM
 10
0.0
 20
0.0
 30
0.0
  9
$PUCSORGLEFT
 10
0.0
 20
0.0
 30
0.0
  9
$PUCSORGRIGHT
 10
0.0
 20
0.0
 30
0.0
  9
$PUCSORGFRONT
 10
0.0
 20
0.0
 30
0.0
  9
$PUCSORGBACK
 10
0.0
 20
0.0
 30
0.0
  9
$USERI1
 70
     0
  9
$USERI2
 70
     0
  9
$USERI3
 70
     0
  9
$USERI4
 70
     0
  9
$USERI5
 70
     0
  9
$USERR1
 40
0.0
  9
$USERR2
 40
0.0
  9
$USERR3
 40
0.0
  9
$USERR4
 40
0.0
  9
$USERR5
 40
0.0
  9
$WORLDVIEW
 70
     1
  9
$SHADEDGE
 70
     3
  9
$SHADEDIF
 70
    70
  9
$TILEMODE
 70
     1
  9
$MAXACTVP
 70
    64
  9
$PINSBASE
 10
0.0
 20
0.0
 30
0.0
  9
$PLIMCHECK
 70
     0
  9
$PEXTMIN
 10
1.0000000000E+20
 20
1.0000000000E+20
 30
1.0000000000E+20
  9
$PEXTMAX
 10
-1.0000000000E+20
 20
-1.0000000000E+20
 30
-1.0000000000E+20
  9
$PLIMMIN
 10
0.0
 20
0.0
  9
$PLIMMAX
 10
420.0
 20
297.0
  9
$UNITMODE
 70
     0
  9
$VISRETAIN
 70
     1
  9
$PLINEGEN
 70
     0
  9
$PSLTSCALE
 70
     1
  9
$TREEDEPTH
 70
  3020
  9
$CMLSTYLE
  2
Standard
  9
$CMLJUST
 70
     0
  9
$CMLSCALE
 40
20.0
  9
$PROXYGRAPHICS
 70
     1
  9
$MEASUREMENT
 70
     1
  9
$CELWEIGHT
370
    -1
  9
$ENDCAPS
280
     0
  9
$JOINSTYLE
280
     0
  9
$LWDISPLAY
290
     1
  9
$INSUNITS
 70
     4
  9
$HYPERLINKBASE
  1

  9
$STYLESHEET
  1

  9
$XEDIT
290
     1
  9
$CEPSNTYPE
380
     0
  9
$PSTYLEMODE
290
     1
  9
$FINGERPRINTGUID
  2
{6C7A2DDF-A558-4D1E-81E4-A4EF9981AFED}
  9
$VERSIONGUID
  2
{FAEB1C32-E019-11D5-929B-00C0DF256EC4}
  9
$EXTNAMES
290
     1
  9
$PSVPSCALE
 40
0.0
  9
$OLESTARTUP
290
     0
  0
ENDSEC
  0
SECTION
  2
CLASSES
  0
CLASS
  1
ACDBDICTIONARYWDFLT
  2
AcDbDictionaryWithDefault
  3
ObjectDBX Classes
 90
        0
280
     0
281
     0
  0
CLASS
  1
VISUALSTYLE
  2
AcDbVisualStyle
  3
ObjectDBX Classes
 90
     4095
280
     0
281
     0
  0
CLASS
  1
MATERIAL
  2
AcDbMaterial
  3
ObjectDBX Classes
 90
     1153
280
     0
281
     0
  0
CLASS
  1
SCALE
  2
AcDbScale
  3
ObjectDBX Classes
 90
     1153
280
     0
281
     0
  0
CLASS
  1
TABLESTYLE
  2
AcDbTableStyle
  3
ObjectDBX Classes
 90
     4095
280
     0
281
     0
  0
CLASS
  1
MLEADERSTYLE
  2
AcDbMLeaderStyle
  3
ACDB_MLEADERSTYLE_CLASS
 90
     4095
280
     0
281
     0
  0
CLASS
  1
SUN
  2
AcDbSun
  3
SCENEOE
 90
     1153
280
     0
281
     0
  0
CLASS
  1
ACDBPLACEHOLDER
  2
AcDbPlaceHolder
  3
ObjectDBX Classes
 90
        0
280
     0
281
     0
  0
CLASS
  1
LAYOUT
  2
AcDbLayout
  3
ObjectDBX Classes
 90
        0
280
     0
281
     0
  0
ENDSEC
  0
SECTION
  2
TABLES
  0
TABLE
  2
VPORT
  5
8
330
0
100
AcDbSymbolTable
 70
     1
  0
VPORT
  5
29
330
8
100
AcDbSymbolTableRecord
100
AcDbViewportTableRecord
  2
*Active
 70
     0
 10
0.0
 20
0.0
 11
1.0
 21
1.0
 12
105.0
 22
148.5
 13
0.0
 23
0.0
 14
10.0
 24
10.0
 15
10.0
 25
10.0
 16
0.0
 26
0.0
 36
1.0
 17
0.0
 27
0.0
 37
0.0
 40
297.0
 41
0.7070707071
 42
50.0
 43
0.0
 44
0.0
 50
0.0
 51
0.0
 71
     0
 72
  2000
 73
     1
 74
     3
 75
     0
 76
     0
 77
     0
 78
     0
281
     0
 65
     1
110
0.0
120
0.0
130
0.0
111
1.0
121
0.0
131
0.0
112
0.0
122
1.0
132
0.0
 79
     0
146
0.0
  0
ENDTAB
  0
TABLE
  2
LTYPE
  5
5
330
0
100
AcDbSymbolTable
 70
     6
  0
LTYPE
  5
14
330
5
100
AcDbSymbolTableRecord
100
AcDbLinetypeTableRecord
  2
ByBlock
 70
     0
  3

 72
    65
 73
     0
 40
0.0
  0
LTYPE
  5
15
330
5
100
AcDbSymbolTableRecord
100
AcDbLinetypeTableRecord
  2
ByLayer
 70
     0
  3

 72
    65
 73
     0
 40
0.0
  0
LTYPE
  5
16
330
5
100
AcDbSymbolTableRecord
100
AcDbLinetypeTableRecord
  2
Continuous
 70
     0
  3
Solid line
 72
    65
 73
     0
 40
0.0
  0
LTYPE
  5
6E
330
5
100
AcDbSymbolTableRecord
100
AcDbLinetypeTableRecord
  2
HIDDEN
 70
     0
  3
Hidden __ __ __ __ __ __ __ __ __ __ __ __ __ __
 72
    65
 73
     2
 40
1.905
 49
1.27
 74
     0
 49
-0.635
 74
     0
  0
LTYPE
  5
6F
330
5
100
AcDbSymbolTableRecord
100
AcDbLinetypeTableRecord
  2
PHANTOM
 70
     0
  3
Phantom ______  __  __  ______  __  __  ______
 72
    65
 73
     6
 40
12.7
 49
6.35
 74
     0
 49
-1.27
 74
     0
 49
1.27
 74
     0
 49
-1.27
 74
     0
 49
1.27
 74
     0
 49
-1.27
 74
     0
  0
LTYPE
  5
70
330
5
100
AcDbSymbolTableRecord
100
AcDbLinetypeTableRecord
  2
CENTER
 70
     0
  3
Center ____ _ ____ _ ____ _ ____ _ ____ _ ____
 72
    65
 73
     4
 40
10.16
 49
6.35
 74
     0
 49
-1.27
 74
     0
 49
1.27
 74
     0
 49
-1.27
 74
     0
  0
LTYPE
  5
71
330
5
100
AcDbSymbolTableRecord
100
AcDbLinetypeTableRecord
  2
CENTERX2
 70
     0
  3
Center (2x) ________  __  ________  __  _____
 72
    65
 73
     4
 40
20.32
 49
12.7
 74
     0
 49
-2.54
 74
     0
 49
2.54
 74
     0
 49
-2.54
 74
     0
  0
LTYPE
  5
72
330
5
100
AcDbSymbolTableRecord
100
AcDbLinetypeTableRecord
  2
DOT2
 70
     0
  3
Dot (.5x) ........................................
 72
    65
 73
     2
 40
0.635
 49
0.0
 74
     0
 49
-0.635
 74
     0
  0
ENDTAB
  0
TABLE
  2
LAYER
  5
2
330
0
100
AcDbSymbolTable
 70
     1
  0
LAYER
  5
10
330
2
100
AcDbSymbolTableRecord
100
AcDbLayerTableRecord
  2
0
 70
     0
 62
     7
  6
Continuous
370
    -3
390
F
  0
ENDTAB
  0
TABLE
  2
STYLE
  5
3
330
0
100
AcDbSymbolTable
 70
     2
  0
STYLE
  5
11
330
3
100
AcDbSymbolTableRecord
100
AcDbTextStyleTableRecord
  2
Standard
 70
     0
 40
0.0
 41
1.0
 50
0.0
 71
     0
 42
3.5
  3
txt
  4

  0
STYLE
  5
B7
330
3
100
AcDbSymbolTableRecord
100
AcDbTextStyleTableRecord
  2
SLDTEXTSTYLE0
 70
     0
 40
0.0
 41
0.75
 50
0.0
 71
     0
 42
3.5
  3
TXT
  4

  0
ENDTAB
  0
TABLE
  2
VIEW
  5
6
330
0
100
AcDbSymbolTable
 70
     0
  0
ENDTAB
  0
TABLE
  2
UCS
  5
7
330
0
100
AcDbSymbolTable
 70
     0
  0
ENDTAB
  0
TABLE
  2
APPID
  5
9
330
0
100
AcDbSymbolTable
 70
     1
  0
APPID
  5
12
330
9
100
AcDbSymbolTableRecord
100
AcDbRegAppTableRecord
  2
ACAD
 70
     0
  0
ENDTAB
  0
TABLE
  2
DIMSTYLE
  5
A
330
0
100
AcDbSymbolTable
 70
     4
100
AcDbDimStyleTable
  0
DIMSTYLE
105
27
330
A
100
AcDbSymbolTableRecord
100
AcDbDimStyleTableRecord
  2
ISO-25
 70
     0
 41
2.5
 42
0.625
 43
3.75
 44
1.25
 73
     0
 74
     0
 77
     1
 78
     8
140
2.5
141
2.5
143
0.0393700787
147
0.625
171
     3
172
     1
178
     0
271
     2
272
     2
274
     3
278
    44
283
     0
284
     8
340
11
  0
DIMSTYLE
105
B8
102
{ACAD_REACTORS
330
B6
330
C1
102
}
330
A
100
AcDbSymbolTableRecord
100
AcDbDimStyleTableRecord
  2
SLDDIMSTYLE0
 70
     0
 41
3.302
 44
0.0
 45
0.000000001
 73
     0
 74
     0
 77
     1
 78
    12
 79
     3
140
3.5
144
2.0
147
0.875
173
     1
178
     0
271
     2
272
     2
276
     2
284
    12
340
B7
  0
DIMSTYLE
105
CC
102
{ACAD_REACTORS
330
CB
102
}
330
A
100
AcDbSymbolTableRecord
100
AcDbDimStyleTableRecord
  2
SLDDIMSTYLE1
 70
     0
 41
3.302
 44
0.0
 45
0.000000001
 73
     0
 74
     0
 77
     1
 78
    12
 79
     3
140
3.5
141
0.0
144
2.0
147
0.875
173
     1
178
     0
271
     2
272
     2
276
     2
284
    12
340
B7
  0
DIMSTYLE
105
D5
102
{ACAD_REACTORS
330
D4
102
}
330
A
100
AcDbSymbolTableRecord
100
AcDbDimStyleTableRecord
  2
SLDDIMSTYLE2
 70
     0
 41
3.302
 44
0.0
 73
     0
 74
     0
 77
     1
 78
    12
 79
     3
140
3.5
144
2.0
147
0.875
173
     1
178
     0
179
     2
272
     2
276
     2
284
    12
340
B7
  0
ENDTAB
  0
TABLE
  2
BLOCK_RECORD
  5
1
330
0
100
AcDbSymbolTable
 70
     5
  0
BLOCK_RECORD
  5
1F
330
1
100
AcDbSymbolTableRecord
100
AcDbBlockTableRecord
  2
*Model_Space
340
22
  0
BLOCK_RECORD
  5
1B
330
1
100
AcDbSymbolTableRecord
100
AcDbBlockTableRecord
  2
*Paper_Space
340
1E
  0
BLOCK_RECORD
  5
23
330
1
100
AcDbSymbolTableRecord
100
AcDbBlockTableRecord
  2
*Paper_Space0
340
26
  0
BLOCK_RECORD
  5
B9
330
1
100
AcDbSymbolTableRecord
100
AcDbBlockTableRecord
  2
_D
340
0
  0
BLOCK_RECORD
  5
C2
330
1
100
AcDbSymbolTableRecord
100
AcDbBlockTableRecord
  2
_D_1
340
0
  0
BLOCK_RECORD
  5
CD
330
1
100
AcDbSymbolTableRecord
100
AcDbBlockTableRecord
  2
_D_2
340
0
  0
BLOCK_RECORD
  5
D6
330
1
100
AcDbSymbolTableRecord
100
AcDbBlockTableRecord
  2
_D_3
340
0
  0
ENDTAB
  0
ENDSEC
  0
SECTION
  2
BLOCKS
  0
BLOCK
  5
20
330
1F
100
AcDbEntity
  8
0
100
AcDbBlockBegin
  2
*Model_Space
 70
     0
 10
0.0
 20
0.0
 30
0.0
  3
*Model_Space
  1

  0
ENDBLK
  5
21
330
1F
100
AcDbEntity
  8
0
100
AcDbBlockEnd
  0
BLOCK
  5
1C
330
1B
100
AcDbEntity
 67
     1
  8
0
100
AcDbBlockBegin
  2
*Paper_Space
 70
     0
 10
0.0
 20
0.0
 30
0.0
  3
*Paper_Space
  1

  0
ENDBLK
  5
1D
330
1B
100
AcDbEntity
 67
     1
  8
0
100
AcDbBlockEnd
  0
BLOCK
  5
24
330
23
100
AcDbEntity
  8
0
100
AcDbBlockBegin
  2
*Paper_Space0
 70
     0
 10
0.0
 20
0.0
 30
0.0
  3
*Paper_Space0
  1

  0
ENDBLK
  5
25
330
23
100
AcDbEntity
  8
0
100
AcDbBlockEnd
  0
BLOCK
  5
BA
330
B9
100
AcDbEntity
  8
0
100
AcDbBlockBegin
  2
_D
 70
     0
 10
0.0
 20
0.0
 30
0.0
  3
_D
  1

  0
SOLID
  5
BC
330
B9
100
AcDbEntity
  8
0
  6
Continuous
 62
     7
370
    18
100
AcDbTrace
 10
165.1779905993
 20
197.0449532287
 30
0.0
 11
164.6699905993
 21
193.7429532287
 31
0.0
 12
165.6859905993
 22
193.7429532287
 32
0.0
 13
165.6859905993
 23
193.7429532287
 33
0.0
  0
SOLID
  5
BD
330
B9
100
AcDbEntity
  8
0
  6
Continuous
 62
     7
370
    18
100
AcDbTrace
 10
165.1779905993
 20
160.8928437133
 30
0.0
 11
165.6859905993
 21
164.1948437133
 31
0.0
 12
164.6699905993
 22
164.1948437133
 32
0.0
 13
164.6699905993
 23
164.1948437133
 33
0.0
  0
LINE
  5
BE
330
B9
100
AcDbEntity
  8
0
  6
Continuous
 62
     7
370
    18
100
AcDbLine
 10
114.2306070098
 20
160.8928437133
 30
0.0
 11
166.1779905993
 21
160.8928437133
 31
0.0
  0
LINE
  5
BF
330
B9
100
AcDbEntity
  8
0
  6
Continuous
 62
     7
370
    18
100
AcDbLine
 10
165.1779905993
 20
197.0449532287
 30
0.0
 11
165.1779905993
 21
160.8928437133
 31
0.0
  0
MTEXT
  5
C0
330
B9
100
AcDbEntity
  8
0
  6
Continuous
 62
     7
370
    18
100
AcDbMText
 10
160.6662536847
 20
173.5347650073
 30
0.0
 40
3.5
 41
0.0
 71
     1
 72
     1
  1
72,30
  7
SLDTEXTSTYLE0
 11
-7.044195017643634E-15
 21
1.0
 31
0.0
 73
     1
 44
1.0
  0
ENDBLK
  5
BB
330
B9
100
AcDbEntity
  8
0
100
AcDbBlockEnd
  0
BLOCK
  5
C3
330
C2
100
AcDbEntity
  8
0
100
AcDbBlockBegin
  2
_D_1
 70
     0
 10
0.0
 20
0.0
 30
0.0
  3
_D_1
  1

  0
SOLID
  5
C5
330
C2
100
AcDbEntity
  8
0
  6
Continuous
 62
     7
370
    18
100
AcDbTrace
 10
70.1779905993
 20
204.1993969767
 30
0.0
 11
73.4799905993
 21
203.6913969767
 31
0.0
 12
73.4799905993
 22
204.7073969767
 32
0.0
 13
73.4799905993
 23
204.7073969767
 33
0.0
  0
SOLID
  5
C6
330
C2
100
AcDbEntity
  8
0
  6
Continuous
 62
     7
370
    18
100
AcDbTrace
 10
140.1779905993
 20
204.1993969767
 30
0.0
 11
136.8759905993
 21
204.7073969767
 31
0.0
 12
136.8759905993
 22
203.6913969767
 32
0.0
 13
136.8759905993
 23
203.6913969767
 33
0.0
  0
LINE
  5
C7
330
C2
100
AcDbEntity
  8
0
  6
Continuous
 62
     7
370
    18
100
AcDbLine
 10
70.1779905993
 20
189.6747456368
 30
0.0
 11
70.1779905993
 21
205.1993969767
 31
0.0
  0
LINE
  5
C8
330
C2
100
AcDbEntity
  8
0
  6
Continuous
 62
     7
370
    18
100
AcDbLine
 10
140.1779905993
 20
189.6747456368
 30
0.0
 11
140.1779905993
 21
205.1993969767
 31
0.0
  0
LINE
  5
C9
330
C2
100
AcDbEntity
  8
0
  6
Continuous
 62
     7
370
    18
100
AcDbLine
 10
70.1779905993
 20
204.1993969767
 30
0.0
 11
140.1779905993
 21
204.1993969767
 31
0.0
  0
MTEXT
  5
CA
330
C2
100
AcDbEntity
  8
0
  6
Continuous
 62
     7
370
    18
100
AcDbMText
 10
101.527166561
 20
208.7111338913
 30
0.0
 40
3.5
 41
0.0
 71
     1
 72
     1
  1
140,00
  7
SLDTEXTSTYLE0
 73
     1
 44
1.0
  0
ENDBLK
  5
C4
330
C2
100
AcDbEntity
  8
0
100
AcDbBlockEnd
  0
BLOCK
  5
CE
330
CD
100
AcDbEntity
  8
0
100
AcDbBlockBegin
  2
_D_2
 70
     0
 10
0.0
 20
0.0
 30
0.0
  3
_D_2
  1

  0
SOLID
  5
D0
330
CD
100
AcDbEntity
  8
0
  6
Continuous
 62
     7
370
    18
100
AcDbTrace
 10
82.9090273037
 20
194.4095175447
 30
0.0
 11
82.6322341947
 21
197.7388798822
 31
0.0
 12
81.6443006879
 22
197.5017230015
 32
0.0
 13
81.6443006879
 23
197.5017230015
 33
0.0
  0
LINE
  5
D1
330
CD
100
AcDbEntity
  8
0
  6
Continuous
 62
     7
370
    18
100
AcDbLine
 10
82.9090273037
 20
194.4095175447
 30
0.0
 11
77.4846039764
 21
217.0062456835
 31
0.0
  0
LINE
  5
D2
330
CD
100
AcDbEntity
  8
0
  6
Continuous
 62
     7
370
    18
100
AcDbLine
 10
82.9090273037
 20
194.4095175447
 30
0.0
 11
105.1779905993
 21
101.6428437133
 31
0.0
  0
MTEXT
  5
D3
330
CD
100
AcDbEntity
  8
0
  6
Continuous
 62
     7
370
    18
100
AcDbMText
 10
81.87084758
 20
218.0591787442
 30
0.0
 40
3.5
 41
0.0
 71
     1
 72
     1
  1
R190,80
  7
SLDTEXTSTYLE0
 11
0.2334221267086673
 21
-0.9723754988494943
 31
0.0
 73
     1
 44
1.0
  0
ENDBLK
  5
CF
330
CD
100
AcDbEntity
  8
0
100
AcDbBlockEnd
  0
BLOCK
  5
D7
330
D6
100
AcDbEntity
  8
0
100
AcDbBlockBegin
  2
_D_3
 70
     0
 10
0.0
 20
0.0
 30
0.0
  3
_D_3
  1

  0
ARC
  5
D9
330
D6
100
AcDbEntity
  8
0
  6
Continuous
 62
     7
370
    18
100
AcDbCircle
 10
114.1779905993
 20
160.8928437133
 30
0.0
 40
7.831920188839518
100
AcDbArc
 50
41.5087506028
 51
180.0
  0
ARC
  5
DA
330
D6
100
AcDbEntity
  8
0
  6
Continuous
 62
     7
370
    18
100
AcDbCircle
 10
114.1779905993
 20
160.8928437133
 30
0.0
 40
7.831920188839511
100
AcDbArc
 50
358.072852252
 51
41.5087506028
  0
ARC
  5
DB
330
D6
100
AcDbEntity
  8
0
  6
Continuous
 62
     7
370
    18
100
AcDbCircle
 10
114.1779905993
 20
160.8928437133
 30
0.0
 40
7.831920188839518
100
AcDbArc
 50
180.0
 51
223.4358983508
  0
SOLID
  5
DC
330
D6
100
AcDbEntity
  8
0
  6
Continuous
 62
     7
370
    18
100
AcDbTrace
 10
120.0429593719
 20
166.083326845
 30
0.0
 11
121.2582784946
 21
162.9713712815
 31
0.0
 12
122.1374642537
 22
163.4805749745
 32
0.0
 13
122.1374642537
 23
163.4805749745
 33
0.0
  0
SOLID
  5
DD
330
D6
100
AcDbEntity
  8
0
  6
Continuous
 62
     7
370
    18
100
AcDbTrace
 10
106.3460704105
 20
160.8928437133
 30
0.0
 11
106.5025242461
 21
157.55566074
 31
0.0
 12
107.4983732862
 22
157.7570079263
 32
0.0
 13
107.4983732862
 23
157.7570079263
 33
0.0
  0
MTEXT
  5
DE
330
D6
100
AcDbEntity
  8
0
  6
Continuous
 62
     7
370
    18
100
AcDbMText
 10
102.8344728344
 20
170.2957554198
 30
0.0
 40
3.5
 41
0.0
 71
     1
 72
     1
  1
138,49°
  7
SLDTEXTSTYLE0
 11
0.9550249475767671
 21
0.296525461817351
 31
0.0
 73
     1
 44
1.0
  0
ENDBLK
  5
D8
330
D6
100
AcDbEntity
  8
0
100
AcDbBlockEnd
  0
ENDSEC
  0
SECTION
  2
ENTITIES
  0
ARC
  5
73
330
1F
100
AcDbEntity
  8
0
  6
Continuous
 62
     7
370
    25
100
AcDbCircle
 10
72.7224014602
 20
167.8928437133
 30
0.0
 40
10.0
100
AcDbArc
 50
56.8588875332
 51
168.9302656408
  0
SPLINE
  5
74
330
1F
100
AcDbEntity
  8
0
  6
Continuous
 62
     7
370
    25
100
AcDbSpline
210
0.0
220
0.0
230
1.0
 70
     8
 71
     3
 72
    26
 73
    22
 74
     0
 42
0.000000001
 43
0.00000001
 40
0.0
 40
0.0
 40
0.0
 40
0.0
 40
0.1249999999999991
 40
0.1249999999999991
 40
0.1874999999999988
 40
0.1874999999999988
 40
0.2499999999999985
 40
0.2499999999999985
 40
0.3749999999999984
 40
0.3749999999999984
 40
0.4999999999999984
 40
0.4999999999999984
 40
0.6249999999999984
 40
0.6249999999999984
 40
0.7499999999999983
 40
0.7499999999999983
 40
0.8749999999999983
 40
0.8749999999999983
 40
0.9374999999999991
 40
0.9374999999999991
 40
1.0
 40
1.0
 40
1.0
 40
1.0
 10
76.67943751716724
 20
174.2640183023207
 30
0.0
 10
76.67943751716724
 20
174.2640183023207
 30
0.0
 10
76.68916887131184
 20
174.2770887190584
 30
0.0
 10
76.71777448576266
 20
174.3154777041597
 30
0.0
 10
76.72966213095273
 20
174.331427694762
 30
0.0
 10
76.75825487298444
 20
174.3697729469301
 30
0.0
 10
76.7750365852632
 20
174.3922707408785
 30
0.0
 10
76.83158337419985
 20
174.4680326983903
 30
0.0
 10
76.87773541424973
 20
174.5298157508891
 30
0.0
 10
76.98686230066971
 20
174.6756525890382
 30
0.0
 10
77.05038462632147
 20
174.7604329646423
 30
0.0
 10
77.18924921105912
 20
174.9454044604128
 30
0.0
 10
77.2650832104885
 20
175.046254944633
 30
0.0
 10
77.4299334617661
 20
175.2650240806843
 30
0.0
 10
77.5176744720806
 20
175.3812458113267
 30
0.0
 10
77.69940476854225
 20
175.6214619221052
 30
0.0
 10
77.79459919043046
 20
175.7470500956861
 30
0.0
 10
77.94131656382437
 20
175.9402135259612
 30
0.0
 10
77.99053609057958
 20
176.0049506276959
 30
0.0
 10
78.0895971035371
 20
176.1351166106273
 30
0.0
 10
78.14002507008087
 20
176.201309985982
 30
0.0
 10
78.1894306971182
 20
176.2661101800137
 30
0.0
  0
ARC
  5
75
330
1F
100
AcDbEntity
  8
0
  6
Continuous
 62
     7
370
    25
100
AcDbCircle
 10
72.7224014602
 20
167.8928437133
 30
0.0
 40
7.500000000000019
100
AcDbArc
 50
58.156236281
 51
168.1277511038
  0
SPLINE
  5
76
330
1F
100
AcDbEntity
  8
0
  6
Continuous
 62
     7
370
    25
100
AcDbSpline
210
0.0
220
0.0
230
1.0
 70
     8
 71
     3
 72
    26
 73
    22
 74
     0
 42
0.000000001
 43
0.00000001
 40
0.0
 40
0.0
 40
0.0
 40
0.0
 40
0.1250000000000011
 40
0.1250000000000011
 40
0.1875000000000017
 40
0.1875000000000017
 40
0.2500000000000023
 40
0.2500000000000023
 40
0.3750000000000027
 40
0.3750000000000027
 40
0.5000000000000032
 40
0.5000000000000032
 40
0.6250000000000037
 40
0.6250000000000037
 40
0.7500000000000041
 40
0.7500000000000041
 40
0.8750000000000047
 40
0.8750000000000047
 40
0.9375000000000023
 40
0.9375000000000023
 40
1.0
 40
1.0
 40
1.0
 40
1.0
 10
65.38283587321791
 20
169.4358203799921
 30
0.0
 10
65.38283587321791
 20
169.4358203799921
 30
0.0
 10
65.36679880347498
 20
169.438314626031
 30
0.0
 10
65.3196745469451
 20
169.445634101734
 30
0.0
 10
65.30009307114507
 20
169.4486745327638
 30
0.0
 10
65.25300694106242
 20
169.4559800011171
 30
0.0
 10
65.22537134838205
 20
169.4602652876542
 30
0.0
 10
65.13226596392988
 20
169.4746887278054
 30
0.0
 10
65.05630347401653
 20
169.4864406120018
 30
0.0
 10
64.87684709515709
 20
169.5141280043776
 30
0.0
 10
64.77241544871161
 20
169.5302066489167
 30
0.0
 10
64.54431620204834
 20
169.5652158995287
 30
0.0
 10
64.41985876591475
 20
169.5842690388652
 30
0.0
 10
64.14963003387876
 20
169.6255007597036
 30
0.0
 10
64.00579247583674
 20
169.6473828827911
 30
0.0
 10
63.70837505519121
 20
169.6924812620325
 30
0.0
 10
63.55282155881289
 20
169.7159971791613
 30
0.0
 10
63.31315085090672
 20
169.7521143221327
 30
0.0
 10
63.23279297995155
 20
169.7642053599541
 30
0.0
 10
63.07115073149581
 20
169.7884905372067
 30
0.0
 10
62.98897172357434
 20
169.8008169828128
 30
0.0
 10
62.90845922084176
 20
169.812879578061
 30
0.0
  0
LINE
  5
77
330
1F
100
AcDbEntity
  8
0
  6
Continuous
 62
     7
370
    25
100
AcDbLine
 10
78.1894306971
 20
176.26611018
 30
0.0
 11
95.415921713
 21
161.0207074328
 31
0.0
  0
LINE
  5
78
330
1F
100
AcDbEntity
  8
0
  6
Continuous
 62
     7
370
    25
100
AcDbLine
 10
95.415921713
 20
161.0207074328
 30
0.0
 11
93.7590856477
 21
159.1485711523
 31
0.0
  0
LINE
  5
79
330
1F
100
AcDbEntity
  8
0
  6
Continuous
 62
     7
370
    25
100
AcDbLine
 10
93.7590856477
 20
159.1485711523
 30
0.0
 11
76.6794375172
 21
174.2640183023
 31
0.0
  0
ARC
  5
7A
330
1F
100
AcDbEntity
  8
0
  6
Continuous
 62
     7
370
    25
100
AcDbCircle
 10
137.6335797384
 20
167.8928437133
 30
0.0
 40
10.00000000000002
100
AcDbArc
 50
11.0697343592
 51
123.1411124668
  0
SPLINE
  5
7B
330
1F
100
AcDbEntity
  8
0
  6
Continuous
 62
     7
370
    25
100
AcDbSpline
210
0.0
220
0.0
230
1.0
 70
     8
 71
     3
 72
    26
 73
    22
 74
     0
 42
0.000000001
 43
0.00000001
 40
0.0
 40
0.0
 40
0.0
 40
0.0
 40
0.1249999999999996
 40
0.1249999999999996
 40
0.1874999999999993
 40
0.1874999999999993
 40
0.2499999999999991
 40
0.2499999999999991
 40
0.3750000000000001
 40
0.3750000000000001
 40
0.5000000000000011
 40
0.5000000000000011
 40
0.6250000000000021
 40
0.6250000000000021
 40
0.7500000000000031
 40
0.7500000000000031
 40
0.8750000000000041
 40
0.8750000000000041
 40
0.9375000000000021
 40
0.9375000000000021
 40
1.0
 40
1.0
 40
1.0
 40
1.0
 10
144.9731453253719
 20
169.4358203799921
 30
0.0
 10
144.9731453253719
 20
169.4358203799921
 30
0.0
 10
144.9891823951148
 20
169.438314626031
 30
0.0
 10
145.0363066516447
 20
169.445634101734
 30
0.0
 10
145.0558881274447
 20
169.4486745327638
 30
0.0
 10
145.1029742575274
 20
169.455980001117
 30
0.0
 10
145.1306098502078
 20
169.4602652876542
 30
0.0
 10
145.2237152346599
 20
169.4746887278053
 30
0.0
 10
145.2996777245733
 20
169.4864406120017
 30
0.0
 10
145.4791341034328
 20
169.5141280043775
 30
0.0
 10
145.5835657498782
 20
169.5302066489167
 30
0.0
 10
145.8116649965415
 20
169.5652158995287
 30
0.0
 10
145.9361224326751
 20
169.5842690388651
 30
0.0
 10
146.2063511647111
 20
169.6255007597035
 30
0.0
 10
146.3501887227531
 20
169.647382882791
 30
0.0
 10
146.6476061433986
 20
169.6924812620325
 30
0.0
 10
146.8031596397769
 20
169.7159971791612
 30
0.0
 10
147.0428303476831
 20
169.7521143221326
 30
0.0
 10
147.1231882186383
 20
169.7642053599542
 30
0.0
 10
147.284830467094
 20
169.7884905372069
 30
0.0
 10
147.3670094750156
 20
169.8008169828121
 30
0.0
 10
147.4475219777481
 20
169.8128795780609
 30
0.0
  0
ARC
  5
7C
330
1F
100
AcDbEntity
  8
0
  6
Continuous
 62
     7
370
    25
100
AcDbCircle
 10
137.6335797384
 20
167.8928437133
 30
0.0
 40
7.50000000000001
100
AcDbArc
 50
11.8722488962
 51
121.843763719
  0
SPLINE
  5
7D
330
1F
100
AcDbEntity
  8
0
  6
Continuous
 62
     7
370
    25
100
AcDbSpline
210
0.0
220
0.0
230
1.0
 70
     8
 71
     3
 72
    26
 73
    22
 74
     0
 42
0.000000001
 43
0.00000001
 40
0.0
 40
0.0
 40
0.0
 40
0.0
 40
0.1250000000000004
 40
0.1250000000000004
 40
0.1875000000000006
 40
0.1875000000000006
 40
0.2500000000000007
 40
0.2500000000000007
 40
0.3750000000000008
 40
0.3750000000000008
 40
0.500000000000001
 40
0.500000000000001
 40
0.6250000000000011
 40
0.6250000000000011
 40
0.7500000000000012
 40
0.7500000000000012
 40
0.8750000000000014
 40
0.8750000000000014
 40
0.9375000000000007
 40
0.9375000000000007
 40
1.0
 40
1.0
 40
1.0
 40
1.0
 10
133.6765436814226
 20
174.2640183023207
 30
0.0
 10
133.6765436814226
 20
174.2640183023207
 30
0.0
 10
133.6668123272779
 20
174.2770887190584
 30
0.0
 10
133.6382067128271
 20
174.3154777041596
 30
0.0
 10
133.626319067637
 20
174.331427694762
 30
0.0
 10
133.5977263256053
 20
174.3697729469301
 30
0.0
 10
133.5809446133266
 20
174.3922707408785
 30
0.0
 10
133.5243978243899
 20
174.4680326983902
 30
0.0
 10
133.47824578434
 20
174.529815750889
 30
0.0
 10
133.36911889792
 20
174.6756525890381
 30
0.0
 10
133.3055965722683
 20
174.7604329646422
 30
0.0
 10
133.1667319875306
 20
174.9454044604127
 30
0.0
 10
133.0908979881012
 20
175.0462549446329
 30
0.0
 10
132.9260477368236
 20
175.2650240806842
 30
0.0
 10
132.8383067265091
 20
175.3812458113267
 30
0.0
 10
132.6565764300475
 20
175.6214619221052
 30
0.0
 10
132.5613820081593
 20
175.7470500956861
 30
0.0
 10
132.4146646347653
 20
175.9402135259611
 30
0.0
 10
132.3654451080101
 20
176.0049506276959
 30
0.0
 10
132.2663840950526
 20
176.1351166106273
 30
0.0
 10
132.2159561285086
 20
176.2013099859817
 30
0.0
 10
132.1665505014715
 20
176.2661101800137
 30
0.0
  0
LINE
  5
7E
330
1F
100
AcDbEntity
  8
0
  6
Continuous
 62
     7
370
    25
100
AcDbLine
 10
114.9400594856
 20
161.0207074328
 30
0.0
 11
132.1665505015
 21
176.26611018
 31
0.0
  0
LINE
  5
7F
330
1F
100
AcDbEntity
  8
0
  6
Continuous
 62
     7
370
    25
100
AcDbLine
 10
133.6765436814
 20
174.2640183023
 30
0.0
 11
116.5968955509
 21
159.1485711523
 31
0.0
  0
LINE
  5
80
330
1F
100
AcDbEntity
  8
0
  6
Continuous
 62
     7
370
    25
100
AcDbLine
 10
114.9400594856
 20
161.0207074328
 30
0.0
 11
116.5968955509
 21
159.1485711523
 31
0.0
  0
ARC
  5
81
330
1F
100
AcDbEntity
  8
0
  6
Continuous
 62
     7
370
    25
100
AcDbCircle
 10
105.1779905993
 20
165.3928437133
 30
0.0
 40
42.50000000000001
100
AcDbArc
 50
328.0342812492
 51
5.9696039644
  0
SPLINE
  5
82
330
1F
100
AcDbEntity
  8
0
  6
Continuous
 62
     7
370
    25
100
AcDbSpline
210
0.0
220
0.0
230
1.0
 70
     8
 71
     3
 72
    26
 73
    22
 74
     0
 42
0.000000001
 43
0.00000001
 40
0.0
 40
0.0
 40
0.0
 40
0.0
 40
0.0625000000000012
 40
0.0625000000000012
 40
0.1250000000000018
 40
0.1250000000000018
 40
0.1875000000000025
 40
0.1875000000000025
 40
0.2500000000000032
 40
0.2500000000000032
 40
0.3125000000000038
 40
0.3125000000000038
 40
0.3750000000000045
 40
0.3750000000000045
 40
0.5000000000000032
 40
0.5000000000000032
 40
0.6250000000000019
 40
0.6250000000000019
 40
0.7500000000000006
 40
0.7500000000000006
 40
1.0
 40
1.0
 40
1.0
 40
1.0
 10
136.4029805912869
 20
140.3928437132785
 30
0.0
 10
136.4029805912869
 20
140.3928437132785
 30
0.0
 10
136.4262207587779
 20
140.4039980158396
 30
0.0
 10
136.5117489311498
 20
140.4451712704478
 30
0.0
 10
136.5715135012379
 20
140.4739836141557
 30
0.0
 10
136.7142451484463
 20
140.5430764664176
 30
0.0
 10
136.7967312479445
 20
140.5831287682627
 30
0.0
 10
136.9722653883903
 20
140.6687529925545
 30
0.0
 10
137.0661336228146
 20
140.7147205966937
 30
0.0
 10
137.262812492783
 20
140.8115062155275
 30
0.0
 10
137.365302824585
 20
140.8621686216751
 30
0.0
 10
137.5734392870048
 20
140.9655688323654
 30
0.0
 10
137.6796022517307
 20
141.0185601557341
 30
0.0
 10
138.003025161655
 20
141.1808160523097
 30
0.0
 10
138.2251459586472
 20
141.2933285923682
 30
0.0
 10
138.6787672257853
 20
141.5255405710823
 30
0.0
 10
138.9088757998747
 20
141.6445330585815
 30
0.0
 10
139.3693170026027
 20
141.885103710911
 30
0.0
 10
139.6004998221661
 20
142.0071154863686
 30
0.0
 10
140.2964138055977
 20
142.3781391418113
 30
0.0
 10
140.762661938949
 20
142.6316922034131
 30
0.0
 10
141.2335033539348
 20
142.8928437132785
 30
0.0
  0
ARC
  5
83
330
1F
100
AcDbEntity
  8
0
  6
Continuous
 62
     7
370
    25
100
AcDbCircle
 10
105.1779905993
 20
165.3928437133
 30
0.0
 40
39.99999999999999
100
AcDbArc
 50
321.3178125465
 51
5.801043513
  0
ARC
  5
84
330
1F
100
AcDbEntity
  8
0
  6
Continuous
 62
     7
370
    25
100
AcDbCircle
 10
105.1779905993
 20
165.3928437133
 30
0.0
 40
42.5
100
AcDbArc
 50
174.0303960356
 51
211.9657187508
  0
ARC
  5
85
330
1F
100
AcDbEntity
  8
0
  6
Continuous
 62
     7
370
    25
100
AcDbCircle
 10
105.1779905993
 20
165.3928437133
 30
0.0
 40
39.99999999999999
100
AcDbArc
 50
174.198956487
 51
218.6821874535
  0
SPLINE
  5
86
330
1F
100
AcDbEntity
  8
0
  6
Continuous
 62
     7
370
    25
100
AcDbSpline
210
0.0
220
0.0
230
1.0
 70
     8
 71
     3
 72
    26
 73
    22
 74
     0
 42
0.000000001
 43
0.00000001
 40
0.0
 40
0.0
 40
0.0
 40
0.0
 40
0.0625000000000014
 40
0.0625000000000014
 40
0.1250000000000024
 40
0.1250000000000024
 40
0.1875000000000033
 40
0.1875000000000033
 40
0.2500000000000042
 40
0.2500000000000042
 40
0.3125000000000052
 40
0.3125000000000052
 40
0.3750000000000061
 40
0.3750000000000061
 40
0.5000000000000053
 40
0.5000000000000053
 40
0.6250000000000046
 40
0.6250000000000046
 40
0.7500000000000037
 40
0.7500000000000037
 40
1.0
 40
1.0
 40
1.0
 40
1.0
 10
73.95300060730295
 20
140.3928437132785
 30
0.0
 10
73.95300060730295
 20
140.3928437132785
 30
0.0
 10
73.92976043981197
 20
140.4039980158396
 30
0.0
 10
73.84423226744005
 20
140.4451712704478
 30
0.0
 10
73.78446769735194
 20
140.4739836141557
 30
0.0
 10
73.64173605014356
 20
140.5430764664176
 30
0.0
 10
73.55924995064534
 20
140.5831287682627
 30
0.0
 10
73.38371581019955
 20
140.6687529925545
 30
0.0
 10
73.28984757577523
 20
140.7147205966936
 30
0.0
 10
73.09316870580687
 20
140.8115062155275
 30
0.0
 10
72.99067837400486
 20
140.8621686216751
 30
0.0
 10
72.78254191158504
 20
140.9655688323654
 30
0.0
 10
72.67637894685913
 20
141.0185601557341
 30
0.0
 10
72.35295603693484
 20
141.1808160523097
 30
0.0
 10
72.13083523994266
 20
141.2933285923682
 30
0.0
 10
71.67721397280457
 20
141.5255405710823
 30
0.0
 10
71.44710539871518
 20
141.6445330585815
 30
0.0
 10
70.98666419598717
 20
141.885103710911
 30
0.0
 10
70.75548137642382
 20
142.0071154863686
 30
0.0
 10
70.05956739299215
 20
142.3781391418113
 30
0.0
 10
69.59331925963752
 20
142.6316922034072
 30
0.0
 10
69.12247784465504
 20
142.8928437132784
 30
0.0
  0
LINE
  5
87
330
1F
100
AcDbEntity
  8
0
  6
Continuous
 62
     7
370
    25
100
AcDbLine
 10
73.9530006073
 20
140.3928437133
 30
0.0
 11
64.8667018578
 21
140.3928437133
 31
0.0
  0
LINE
  5
88
330
1F
100
AcDbEntity
  8
0
  6
Continuous
 62
     7
370
    25
100
AcDbLine
 10
64.8667018578
 20
140.3928437133
 30
0.0
 11
64.8667018578
 21
142.8928437133
 31
0.0
  0
LINE
  5
89
330
1F
100
AcDbEntity
  8
0
  6
Continuous
 62
     7
370
    25
100
AcDbLine
 10
64.8667018578
 20
142.8928437133
 30
0.0
 11
69.1224778447
 21
142.8928437133
 31
0.0
  0
ARC
  5
8A
330
1F
100
AcDbEntity
  8
0
  6
Continuous
 62
     7
370
    25
100
AcDbCircle
 10
105.1779905993
 20
165.3928437133
 30
0.0
 40
47.50000000000001
100
AcDbArc
 50
333.6122000388
 51
28.0724869359
  0
ARC
  5
8B
330
1F
100
AcDbEntity
  8
0
  6
Continuous
 62
     7
370
    25
100
AcDbCircle
 10
145.4892793408
 20
145.3928437133
 30
0.0
 40
2.5
100
AcDbArc
 50
270.0
 51
333.6122000388
  0
LINE
  5
8C
330
1F
100
AcDbEntity
  8
0
  6
Continuous
 62
     7
370
    25
100
AcDbLine
 10
141.2335033539
 20
142.8928437133
 30
0.0
 11
145.4892793408
 21
142.8928437133
 31
0.0
  0
ARC
  5
8D
330
1F
100
AcDbEntity
  8
0
  6
Continuous
 62
     7
370
    25
100
AcDbCircle
 10
113.2832234203
 20
162.8928437133
 30
0.0
 40
2.5
100
AcDbArc
 50
270.0
 51
311.5087506028
  0
LINE
  5
8E
330
1F
100
AcDbEntity
  8
0
  6
Continuous
 62
     7
370
    25
100
AcDbLine
 10
97.0727577783
 20
160.3928437133
 30
0.0
 11
113.2832234203
 21
160.3928437133
 31
0.0
  0
ARC
  5
8F
330
1F
100
AcDbEntity
  8
0
  6
Continuous
 62
     7
370
    25
100
AcDbCircle
 10
97.0727577783
 20
162.8928437133
 30
0.0
 40
2.5
100
AcDbArc
 50
228.4912493972
 51
270.0
  0
ARC
  5
90
330
1F
100
AcDbEntity
  8
0
  6
Continuous
 62
     7
370
    25
100
AcDbCircle
 10
64.8667018578
 20
145.3928437133
 30
0.0
 40
2.500000000000028
100
AcDbArc
 50
206.3877999612
 51
270.0
  0
ARC
  5
91
330
1F
100
AcDbEntity
  8
0
  6
Continuous
 62
     7
370
    25
100
AcDbCircle
 10
105.1779905993
 20
165.3928437133
 30
0.0
 40
47.50000000000001
100
AcDbArc
 50
151.9275130641
 51
206.3877999612
  0
ARC
  5
92
330
1F
100
AcDbEntity
  8
0
  6
Continuous
 62
     7
370
    25
100
AcDbCircle
 10
65.4721082464
 20
186.5693143015
 30
0.0
 40
2.500000000000009
100
AcDbArc
 50
115.0576154183
 51
151.9275130641
  0
ARC
  5
93
330
1F
100
AcDbEntity
  8
0
  6
Continuous
 62
     7
370
    25
100
AcDbCircle
 10
105.1779905993
 20
101.6428437133
 30
0.0
 40
96.24999999999987
100
AcDbArc
 50
64.9423845817
 51
115.0576154183
  0
ARC
  5
94
330
1F
100
AcDbEntity
  8
0
  6
Continuous
 62
     7
370
    25
100
AcDbCircle
 10
144.8838729522
 20
186.5693143015
 30
0.0
 40
2.499999999999989
100
AcDbArc
 50
28.0724869359
 51
64.9423845817
  0
LINE
  5
95
330
1F
100
AcDbEntity
  8
0
  6
Continuous
 62
     7
370
    25
100
AcDbLine
 10
70.1779905993
 20
188.6747456368
 30
0.0
 11
70.1779905993
 21
185.0287188659
 31
0.0
  0
ARC
  5
96
330
1F
100
AcDbEntity
  8
0
  6
Continuous
 62
     7
370
    25
100
AcDbCircle
 10
72.6779905993
 20
185.0287188659
 30
0.0
 40
2.50000000000002
100
AcDbArc
 50
180.0
 51
228.4912493972
  0
LINE
  5
97
330
1F
100
AcDbEntity
  8
0
  6
Continuous
 62
     7
370
    25
100
AcDbLine
 10
71.021154534
 20
183.1565825854
 30
0.0
 11
95.4685381235
 21
161.5207074328
 31
0.0
  0
ARC
  5
98
330
1F
100
AcDbEntity
  8
0
  6
Continuous
 62
     7
370
    25
100
AcDbCircle
 10
97.1253741888
 20
163.3928437133
 30
0.0
 40
2.5
100
AcDbArc
 50
228.4912493972
 51
270.0
  0
LINE
  5
99
330
1F
100
AcDbEntity
  8
0
  6
Continuous
 62
     7
370
    25
100
AcDbLine
 10
97.1253741888
 20
160.8928437133
 30
0.0
 11
113.2306070098
 21
160.8928437133
 31
0.0
  0
ARC
  5
9A
330
1F
100
AcDbEntity
  8
0
  6
Continuous
 62
     7
370
    25
100
AcDbCircle
 10
113.2306070098
 20
163.3928437133
 30
0.0
 40
2.5
100
AcDbArc
 50
270.0
 51
311.5087506028
  0
LINE
  5
9B
330
1F
100
AcDbEntity
  8
0
  6
Continuous
 62
     7
370
    25
100
AcDbLine
 10
114.8874430751
 20
161.5207074328
 30
0.0
 11
139.3348266646
 21
183.1565825854
 31
0.0
  0
ARC
  5
9C
330
1F
100
AcDbEntity
  8
0
  6
Continuous
 62
     7
370
    25
100
AcDbCircle
 10
137.6779905993
 20
185.0287188659
 30
0.0
 40
2.500000000000032
100
AcDbArc
 50
311.5087506028
 51
0.0
  0
LINE
  5
9D
330
1F
100
AcDbEntity
  8
0
  6
Continuous
 62
     7
370
    25
100
AcDbLine
 10
140.1779905993
 20
185.0287188659
 30
0.0
 11
140.1779905993
 21
188.6747456368
 31
0.0
  0
ARC
  5
9E
330
1F
100
AcDbEntity
  8
0
  6
Continuous
 62
     7
370
    25
100
AcDbCircle
 10
137.6779905993
 20
188.6747456368
 30
0.0
 40
2.5
100
AcDbArc
 50
0.0
 51
69.5230462625
  0
ARC
  5
9F
330
1F
100
AcDbEntity
  8
0
  6
Continuous
 62
     7
370
    25
100
AcDbCircle
 10
105.1779905993
 20
101.6428437133
 30
0.0
 40
95.40210951546081
100
AcDbArc
 50
69.5230462625
 51
110.4769537375
  0
ARC
  5
A0
330
1F
100
AcDbEntity
  8
0
  6
Continuous
 62
     7
370
    25
100
AcDbCircle
 10
72.6779905993
 20
188.6747456368
 30
0.0
 40
2.5
100
AcDbArc
 50
110.4769537375
 51
180.0
  0
ARC
  5
A1
330
1F
100
AcDbEntity
  8
0
  6
Continuous
 62
     7
370
    25
100
AcDbCircle
 10
64.8667018578
 20
145.3928437133
 30
0.0
 40
5.000000000000012
100
AcDbArc
 50
206.3877999612
 51
270.0
  0
LINE
  5
A2
330
1F
100
AcDbEntity
  8
0
  6
Continuous
 62
     7
370
    25
100
AcDbLine
 10
60.3876697754
 20
143.1706214911
 30
0.0
 11
62.6271858166
 21
144.2817326022
 31
0.0
  0
LINE
  5
A3
330
1F
100
AcDbEntity
  8
0
  6
Continuous
 62
     7
370
    25
100
AcDbLine
 10
97.0727577783
 20
160.3928437133
 30
0.0
 11
97.0727577783
 21
157.8928437133
 31
0.0
  0
ARC
  5
A4
330
1F
100
AcDbEntity
  8
0
  6
Continuous
 62
     7
370
    25
100
AcDbCircle
 10
97.0727577783
 20
162.8928437133
 30
0.0
 40
5.000000000000018
100
AcDbArc
 50
228.4912493972
 51
270.0
  0
ARC
  5
A5
330
1F
100
AcDbEntity
  8
0
  6
Continuous
 62
     7
370
    25
100
AcDbCircle
 10
105.1779905993
 20
165.3928437133
 30
0.0
 40
50.00000000000001
100
AcDbArc
 50
151.9275130641
 51
206.3877999612
  0
LINE
  5
A6
330
1F
100
AcDbEntity
  8
0
  6
Continuous
 62
     7
370
    25
100
AcDbLine
 10
61.0603435405
 20
188.922255478
 30
0.0
 11
63.2662258934
 21
187.7457848897
 31
0.0
  0
ARC
  5
A7
330
1F
100
AcDbEntity
  8
0
  6
Continuous
 62
     7
370
    25
100
AcDbCircle
 10
145.4892793408
 20
145.3928437133
 30
0.0
 40
5.000000000000007
100
AcDbArc
 50
270.0
 51
333.6122000388
  0
LINE
  5
A8
330
1F
100
AcDbEntity
  8
0
  6
Continuous
 62
     7
370
    25
100
AcDbLine
 10
145.4892793408
 20
140.3928437133
 30
0.0
 11
145.4892793408
 21
142.8928437133
 31
0.0
  0
LINE
  5
A9
330
1F
100
AcDbEntity
  8
0
  6
Continuous
 62
     7
370
    25
100
AcDbLine
 10
149.9683114232
 20
143.1706214911
 30
0.0
 11
147.728795382
 21
144.2817326022
 31
0.0
  0
ARC
  5
AA
330
1F
100
AcDbEntity
  8
0
  6
Continuous
 62
     7
370
    25
100
AcDbCircle
 10
65.4721082464
 20
186.5693143015
 30
0.0
 40
5.000000000000004
100
AcDbArc
 50
115.0576154183
 51
151.9275130641
  0
LINE
  5
AB
330
1F
100
AcDbEntity
  8
0
  6
Continuous
 62
     7
370
    25
100
AcDbLine
 10
63.3544611875
 20
191.0987260662
 30
0.0
 11
64.4132847169
 21
188.8340201839
 31
0.0
  0
ARC
  5
AC
330
1F
100
AcDbEntity
  8
0
  6
Continuous
 62
     7
370
    25
100
AcDbCircle
 10
113.2832234203
 20
162.8928437133
 30
0.0
 40
5.000000000000009
100
AcDbArc
 50
270.0
 51
311.5087506028
  0
LINE
  5
AD
330
1F
100
AcDbEntity
  8
0
  6
Continuous
 62
     7
370
    25
100
AcDbLine
 10
113.2832234203
 20
160.3928437133
 30
0.0
 11
113.2832234203
 21
157.8928437133
 31
0.0
  0
ARC
  5
AE
330
1F
100
AcDbEntity
  8
0
  6
Continuous
 62
     7
370
    25
100
AcDbCircle
 10
105.1779905993
 20
101.6428437133
 30
0.0
 40
98.74999999999986
100
AcDbArc
 50
64.9423845817
 51
115.0576154183
  0
LINE
  5
AF
330
1F
100
AcDbEntity
  8
0
  6
Continuous
 62
     7
370
    25
100
AcDbLine
 10
147.0015200111
 20
191.0987260662
 30
0.0
 11
145.9426964816
 21
188.8340201839
 31
0.0
  0
LINE
  5
B0
330
1F
100
AcDbEntity
  8
0
  6
Continuous
 62
     7
370
    25
100
AcDbLine
 10
113.2832234203
 20
157.8928437133
 30
0.0
 11
97.0727577783
 21
157.8928437133
 31
0.0
  0
ARC
  5
B1
330
1F
100
AcDbEntity
  8
0
  6
Continuous
 62
     7
370
    25
100
AcDbCircle
 10
144.8838729522
 20
186.5693143015
 30
0.0
 40
5.000000000000004
100
AcDbArc
 50
28.0724869359
 51
64.9423845817
  0
LINE
  5
B2
330
1F
100
AcDbEntity
  8
0
  6
Continuous
 62
     7
370
    25
100
AcDbLine
 10
149.2956376581
 20
188.922255478
 30
0.0
 11
147.0897553052
 21
187.7457848897
 31
0.0
  0
ARC
  5
B3
330
1F
100
AcDbEntity
  8
0
  6
Continuous
 62
     7
370
    25
100
AcDbCircle
 10
105.1779905993
 20
165.3928437133
 30
0.0
 40
50.00000000000002
100
AcDbArc
 50
333.6122000388
 51
28.0724869359
  0
LINE
  5
B4
330
1F
100
AcDbEntity
  8
0
  6
Continuous
 62
     7
370
    25
100
AcDbLine
 10
145.4892793408
 20
140.3928437133
 30
0.0
 11
136.4029805913
 21
140.3928437133
 31
0.0
  0
LINE
  5
B5
330
1F
100
AcDbEntity
  8
0
  6
CENTERX2
 62
     7
370
    18
100
AcDbLine
 10
105.1779905993
 20
197.0449532287
 30
0.0
 11
166.7605886977
 21
197.0449532287
 31
0.0
  0
DIMENSION
  5
B6
330
1F
100
AcDbEntity
  8
0
  6
Continuous
 62
     7
370
    18
100
AcDbDimension
  2
_D
 10
165.1779905993
 20
160.8928437133
 30
0.0
 11
165.1779905993
 21
179.3535152509
 31
0.0
 70
   160
  1
<>
 71
     2
 42
-1.0
  3
SLDDIMSTYLE0
100
AcDbAlignedDimension
 13
166.7605886977
 23
197.0449532287
 33
0.0
 14
113.2306070098
 24
160.8928437133
 34
0.0
 50
90.0
100
AcDbRotatedDimension
  0
DIMENSION
  5
C1
330
1F
100
AcDbEntity
  8
0
  6
Continuous
 62
     7
370
    18
100
AcDbDimension
  2
_D_1
 10
140.1779905993
 20
204.1993969767
 30
0.0
 11
108.6389725178
 21
204.1993969767
 31
0.0
 70
   160
  1
<>
 71
     2
 42
-1.0
  3
SLDDIMSTYLE0
100
AcDbAlignedDimension
 13
70.1779905993
 23
188.6747456368
 33
0.0
 14
140.1779905993
 24
188.6747456368
 34
0.0
100
AcDbRotatedDimension
  0
DIMENSION
  5
CB
330
1F
100
AcDbEntity
  8
0
  6
Continuous
 62
     7
370
    18
100
AcDbDimension
  2
_D_2
 10
105.1779905993
 20
101.6428437133
 30
0.0
 11
79.467255313
 21
208.7470906854
 31
0.0
 70
   164
  1
<>
 71
     1
 42
-1.0
  3
SLDDIMSTYLE1
100
AcDbRadialDimension
 15
82.9090273037
 25
194.4095175447
 35
0.0
 40
0.0
  0
DIMENSION
  5
D4
330
1F
100
AcDbEntity
  8
0
  6
Continuous
 62
     7
370
    18
100
AcDbDimension
  2
_D_3
 10
114.8874430751
 20
161.5207074328
 30
0.0
 11
111.8556268484
 21
168.3725228811
 31
0.0
 70
   162
  1
<>
 71
     1
 42
-1.0
  3
SLDDIMSTYLE2
100
AcDb2LineAngularDimension
 13
113.2306070098
 23
160.8928437133
 33
0.0
 14
97.1253741888
 24
160.8928437133
 34
0.0
 15
139.3348266646
 25
183.1565825854
 35
0.0
 16
111.4026521958
 26
168.2165361283
 36
0.0
  0
ENDSEC
  0
SECTION
  2
OBJECTS
  0
DICTIONARY
  5
C
330
0
100
AcDbDictionary
281
     1
  3
ACAD_GROUP
350
D
  3
ACAD_LAYOUT
350
1A
  3
ACAD_MLINESTYLE
350
17
  3
ACAD_PLOTSETTINGS
350
19
  3
ACAD_PLOTSTYLENAME
350
E
  3
ACAD_SCALELIST
350
47
  0
DICTIONARY
  5
D
102
{ACAD_REACTORS
330
C
102
}
330
C
100
AcDbDictionary
281
     1
  0
DICTIONARY
  5
1A
102
{ACAD_REACTORS
330
C
102
}
330
C
100
AcDbDictionary
281
     1
  3
Layout1
350
1E
  3
Layout2
350
26
  3
Model
350
22
  0
DICTIONARY
  5
17
102
{ACAD_REACTORS
330
C
102
}
330
C
100
AcDbDictionary
281
     1
  3
Standard
350
18
  0
DICTIONARY
  5
19
102
{ACAD_REACTORS
330
C
102
}
330
C
100
AcDbDictionary
281
     1
  0
ACDBDICTIONARYWDFLT
  5
E
102
{ACAD_REACTORS
330
C
102
}
330
C
100
AcDbDictionary
281
     1
  3
Normal
350
F
100
AcDbDictionaryWithDefault
340
F
  0
DICTIONARY
  5
47
102
{ACAD_REACTORS
330
C
102
}
330
C
100
AcDbDictionary
281
     1
  3
A0
350
48
  3
A1
350
49
  3
A2
350
4A
  3
A3
350
4B
  3
A4
350
4C
  3
A5
350
4D
  3
A6
350
4E
  3
A7
350
4F
  3
A8
350
50
  3
A9
350
51
  3
B0
350
52
  3
B1
350
53
  3
B2
350
54
  3
B3
350
55
  3
B4
350
56
  3
B5
350
57
  3
B6
350
58
  3
B7
350
59
  3
B8
350
5A
  3
B9
350
5B
  3
C0
350
5C
  3
C1
350
5D
  3
C2
350
5E
  3
C3
350
5F
  3
C4
350
60
  3
C5
350
61
  3
C6
350
62
  3
C7
350
63
  3
C8
350
64
  3
C9
350
65
  3
D0
350
66
  3
D1
350
67
  3
D2
350
68
  0
LAYOUT
  5
1E
102
{ACAD_REACTORS
330
1A
102
}
330
1A
100
AcDbPlotSettings
  1

  2
none_device
  4

  6

 40
0.0
 41
0.0
 42
0.0
 43
0.0
 44
0.0
 45
0.0
 46
0.0
 47
0.0
 48
0.0
 49
0.0
140
0.0
141
0.0
142
1.0
143
1.0
 70
   688
 72
     1
 73
     0
 74
     5
  7

 75
    16
147
1.0
148
0.0
149
0.0
100
AcDbLayout
  1
Layout1
 70
     1
 71
     1
 10
0.0
 20
0.0
 11
420.0
 21
297.0
 12
0.0
 22
0.0
 32
0.0
 14
1.0000000000E+20
 24
1.0000000000E+20
 34
1.0000000000E+20
 15
-1.0000000000E+20
 25
-1.0000000000E+20
 35
-1.0000000000E+20
146
0.0
 13
0.0
 23
0.0
 33
0.0
 16
1.0
 26
0.0
 36
0.0
 17
0.0
 27
1.0
 37
0.0
 76
     0
330
1B
  0
LAYOUT
  5
26
102
{ACAD_REACTORS
330
1A
102
}
330
1A
100
AcDbPlotSettings
  1

  2
none_device
  4

  6

 40
0.0
 41
0.0
 42
0.0
 43
0.0
 44
0.0
 45
0.0
 46
0.0
 47
0.0
 48
0.0
 49
0.0
140
0.0
141
0.0
142
1.0
143
1.0
 70
   688
 72
     1
 73
     0
 74
     5
  7

 75
    16
147
1.0
148
0.0
149
0.0
100
AcDbLayout
  1
Layout2
 70
     1
 71
     2
 10
0.0
 20
0.0
 11
0.0
 21
0.0
 12
0.0
 22
0.0
 32
0.0
 14
0.0
 24
0.0
 34
0.0
 15
0.0
 25
0.0
 35
0.0
146
0.0
 13
0.0
 23
0.0
 33
0.0
 16
1.0
 26
0.0
 36
0.0
 17
0.0
 27
1.0
 37
0.0
 76
     0
330
23
  0
LAYOUT
  5
22
102
{ACAD_REACTORS
330
1A
102
}
330
1A
100
AcDbPlotSettings
  1

  2
none_device
  4
Letter_(8.50_x_11.00_Inches)
  6

 40
6.35
 41
6.35
 42
6.35000508
 43
6.35000508
 44
215.9
 45
279.4
 46
0.0
 47
0.0
 48
0.0
 49
0.0
140
0.0
141
0.0
142
1.0
143
1.0
 70
  1712
 72
     1
 73
     0
 74
     0
  7

 75
     0
147
1.0
148
0.0
149
0.0
100
AcDbLayout
  1
Model
 70
     1
 71
     0
 10
0.0
 20
0.0
 11
210.0
 21
297.0
 12
0.0
 22
0.0
 32
0.0
 14
0.0
 24
0.0
 34
0.0
 15
210.0
 25
297.0
 35
0.0
146
0.0
 13
0.0
 23
0.0
 33
0.0
 16
1.0
 26
0.0
 36
0.0
 17
0.0
 27
1.0
 37
0.0
 76
     0
330
1F
331
29
  0
MLINESTYLE
  5
18
102
{ACAD_REACTORS
330
17
102
}
330
17
100
AcDbMlineStyle
  2
Standard
 70
     0
  3

 62
   256
 51
90.0
 52
90.0
 71
     2
 49
0.5
 62
   256
  6
BYLAYER
 49
-0.5
 62
   256
  6
BYLAYER
  0
ACDBPLACEHOLDER
  5
F
102
{ACAD_REACTORS
330
E
102
}
330
E
  0
SCALE
  5
48
102
{ACAD_REACTORS
330
47
102
}
330
47
100
AcDbScale
 70
     0
300
1:1
140
1.0
141
1.0
290
     1
  0
SCALE
  5
49
102
{ACAD_REACTORS
330
47
102
}
330
47
100
AcDbScale
 70
     0
300
1:2
140
1.0
141
2.0
290
     0
  0
SCALE
  5
4A
102
{ACAD_REACTORS
330
47
102
}
330
47
100
AcDbScale
 70
     0
300
1:4
140
1.0
141
4.0
290
     0
  0
SCALE
  5
4B
102
{ACAD_REACTORS
330
47
102
}
330
47
100
AcDbScale
 70
     0
300
1:5
140
1.0
141
5.0
290
     0
  0
SCALE
  5
4C
102
{ACAD_REACTORS
330
47
102
}
330
47
100
AcDbScale
 70
     0
300
1:8
140
1.0
141
8.0
290
     0
  0
SCALE
  5
4D
102
{ACAD_REACTORS
330
47
102
}
330
47
100
AcDbScale
 70
     0
300
1:10
140
1.0
141
10.0
290
     0
  0
SCALE
  5
4E
102
{ACAD_REACTORS
330
47
102
}
330
47
100
AcDbScale
 70
     0
300
1:16
140
1.0
141
16.0
290
     0
  0
SCALE
  5
4F
102
{ACAD_REACTORS
330
47
102
}
330
47
100
AcDbScale
 70
     0
300
1:20
140
1.0
141
20.0
290
     0
  0
SCALE
  5
50
102
{ACAD_REACTORS
330
47
102
}
330
47
100
AcDbScale
 70
     0
300
1:30
140
1.0
141
30.0
290
     0
  0
SCALE
  5
51
102
{ACAD_REACTORS
330
47
102
}
330
47
100
AcDbScale
 70
     0
300
1:40
140
1.0
141
40.0
290
     0
  0
SCALE
  5
52
102
{ACAD_REACTORS
330
47
102
}
330
47
100
AcDbScale
 70
     0
300
1:50
140
1.0
141
50.0
290
     0
  0
SCALE
  5
53
102
{ACAD_REACTORS
330
47
102
}
330
47
100
AcDbScale
 70
     0
300
1:100
140
1.0
141
100.0
290
     0
  0
SCALE
  5
54
102
{ACAD_REACTORS
330
47
102
}
330
47
100
AcDbScale
 70
     0
300
2:1
140
2.0
141
1.0
290
     0
  0
SCALE
  5
55
102
{ACAD_REACTORS
330
47
102
}
330
47
100
AcDbScale
 70
     0
300
4:1
140
4.0
141
1.0
290
     0
  0
SCALE
  5
56
102
{ACAD_REACTORS
330
47
102
}
330
47
100
AcDbScale
 70
     0
300
8:1
140
8.0
141
1.0
290
     0
  0
SCALE
  5
57
102
{ACAD_REACTORS
330
47
102
}
330
47
100
AcDbScale
 70
     0
300
10:1
140
10.0
141
1.0
290
     0
  0
SCALE
  5
58
102
{ACAD_REACTORS
330
47
102
}
330
47
100
AcDbScale
 70
     0
300
100:1
140
100.0
141
1.0
290
     0
  0
SCALE
  5
59
102
{ACAD_REACTORS
330
47
102
}
330
47
100
AcDbScale
 70
     0
300
1/128" = 1'-0"
140
0.0078125
141
12.0
290
     0
  0
SCALE
  5
5A
102
{ACAD_REACTORS
330
47
102
}
330
47
100
AcDbScale
 70
     0
300
1/64" = 1'-0"
140
0.015625
141
12.0
290
     0
  0
SCALE
  5
5B
102
{ACAD_REACTORS
330
47
102
}
330
47
100
AcDbScale
 70
     0
300
1/32" = 1'-0"
140
0.03125
141
12.0
290
     0
  0
SCALE
  5
5C
102
{ACAD_REACTORS
330
47
102
}
330
47
100
AcDbScale
 70
     0
300
1/16" = 1'-0"
140
0.0625
141
12.0
290
     0
  0
SCALE
  5
5D
102
{ACAD_REACTORS
330
47
102
}
330
47
100
AcDbScale
 70
     0
300
3/32" = 1'-0"
140
0.09375
141
12.0
290
     0
  0
SCALE
  5
5E
102
{ACAD_REACTORS
330
47
102
}
330
47
100
AcDbScale
 70
     0
300
1/8" = 1'-0"
140
0.125
141
12.0
290
     0
  0
SCALE
  5
5F
102
{ACAD_REACTORS
330
47
102
}
330
47
100
AcDbScale
 70
     0
300
3/16" = 1'-0"
140
0.1875
141
12.0
290
     0
  0
SCALE
  5
60
102
{ACAD_REACTORS
330
47
102
}
330
47
100
AcDbScale
 70
     0
300
1/4" = 1'-0"
140
0.25
141
12.0
290
     0
  0
SCALE
  5
61
102
{ACAD_REACTORS
330
47
102
}
330
47
100
AcDbScale
 70
     0
300
3/8" = 1'-0"
140
0.375
141
12.0
290
     0
  0
SCALE
  5
62
102
{ACAD_REACTORS
330
47
102
}
330
47
100
AcDbScale
 70
     0
300
1/2" = 1'-0"
140
0.5
141
12.0
290
     0
  0
SCALE
  5
63
102
{ACAD_REACTORS
330
47
102
}
330
47
100
AcDbScale
 70
     0
300
3/4" = 1'-0"
140
0.75
141
12.0
290
     0
  0
SCALE
  5
64
102
{ACAD_REACTORS
330
47
102
}
330
47
100
AcDbScale
 70
     0
300
1" = 1'-0"
140
1.0
141
12.0
290
     0
  0
SCALE
  5
65
102
{ACAD_REACTORS
330
47
102
}
330
47
100
AcDbScale
 70
     0
300
1-1/2" = 1'-0"
140
1.5
141
12.0
290
     0
  0
SCALE
  5
66
102
{ACAD_REACTORS
330
47
102
}
330
47
100
AcDbScale
 70
     0
300
3" = 1'-0"
140
3.0
141
12.0
290
     0
  0
SCALE
  5
67
102
{ACAD_REACTORS
330
47
102
}
330
47
100
AcDbScale
 70
     0
300
6" = 1'-0"
140
6.0
141
12.0
290
     0
  0
SCALE
  5
68
102
{ACAD_REACTORS
330
47
102
}
330
47
100
AcDbScale
 70
     0
300
1'-0" = 1'-0"
140
12.0
141
12.0
290
     0
  0
ENDSEC
  0
EOF
