G04 #@! TF.GenerationSoftware,KiCad,Pcbnew,5.1.4*
G04 #@! TF.CreationDate,2019-10-22T01:46:39-03:00*
G04 #@! TF.ProjectId,mswi,6d737769-2e6b-4696-9361-645f70636258,rev?*
G04 #@! TF.SameCoordinates,Original*
G04 #@! TF.FileFunction,Other,User*
%FSLAX46Y46*%
G04 Gerber Fmt 4.6, Leading zero omitted, Abs format (unit mm)*
G04 Created by KiCad (PCBNEW 5.1.4) date 2019-10-22 01:46:39*
%MOMM*%
%LPD*%
G04 APERTURE LIST*
%ADD10C,0.050000*%
G04 APERTURE END LIST*
D10*
X151045981Y-114391997D02*
X138695981Y-114391997D01*
X151045981Y-103191997D02*
X151045981Y-114391997D01*
X138695981Y-103191997D02*
X151045981Y-103191997D01*
X138695981Y-114391997D02*
X138695981Y-103191997D01*
X160287978Y-91087978D02*
X160287978Y-102987978D01*
X154687978Y-91087978D02*
X160287978Y-91087978D01*
X154687978Y-102987978D02*
X154687978Y-91087978D01*
X160287978Y-102987978D02*
X154687978Y-102987978D01*
X131095981Y-102965197D02*
X131095981Y-110165197D01*
X131095981Y-110165197D02*
X122295981Y-110165197D01*
X122295981Y-110165197D02*
X122295981Y-102965197D01*
X122295981Y-102965197D02*
X131095981Y-102965197D01*
X141604644Y-72000320D02*
X133190073Y-80414891D01*
X137644846Y-68040522D02*
X141604644Y-72000320D01*
X129230275Y-76455093D02*
X137644846Y-68040522D01*
X133190073Y-80414891D02*
X129230275Y-76455093D01*
X129633181Y-99177997D02*
X129633181Y-102877997D01*
X131533181Y-99177997D02*
X129633181Y-99177997D01*
X131533181Y-102877997D02*
X131533181Y-99177997D01*
X129633181Y-102877997D02*
X131533181Y-102877997D01*
X118445981Y-103271997D02*
X118445981Y-111111997D01*
X122145981Y-103271997D02*
X118445981Y-103271997D01*
X122145981Y-111111997D02*
X122145981Y-103271997D01*
X118445981Y-111111997D02*
X122145981Y-111111997D01*
X134845981Y-106691997D02*
X131345981Y-106691997D01*
X134845981Y-113691997D02*
X134845981Y-106691997D01*
X131345981Y-113691997D02*
X134845981Y-113691997D01*
X131345981Y-106691997D02*
X131345981Y-113691997D01*
X129349965Y-94691997D02*
X129349965Y-97691997D01*
X129349965Y-94691997D02*
X132349965Y-94691997D01*
X132349965Y-97691997D02*
X129349965Y-97691997D01*
X132349965Y-97691997D02*
X132349965Y-94691997D01*
X144395981Y-101891997D02*
X144395981Y-98891997D01*
X144395981Y-101891997D02*
X141395981Y-101891997D01*
X141395981Y-98891997D02*
X144395981Y-98891997D01*
X141395981Y-98891997D02*
X141395981Y-101891997D01*
X144395981Y-117463197D02*
X144395981Y-114463197D01*
X144395981Y-117463197D02*
X141395981Y-117463197D01*
X141395981Y-114463197D02*
X144395981Y-114463197D01*
X141395981Y-114463197D02*
X141395981Y-117463197D01*
X118036232Y-65397191D02*
X107358382Y-77339716D01*
X118036232Y-65397191D02*
X127354682Y-73728847D01*
X116676832Y-85671372D02*
X107358382Y-77339716D01*
X116676832Y-85671372D02*
X127354682Y-73728847D01*
X162574382Y-74625483D02*
X173252232Y-86568009D01*
X162574382Y-74625483D02*
X171892832Y-66293827D01*
X182570682Y-78236353D02*
X173252232Y-86568009D01*
X182570682Y-78236353D02*
X171892832Y-66293827D01*
X173485194Y-64924154D02*
X184163044Y-76866680D01*
X173485194Y-64924154D02*
X182803644Y-56592498D01*
X193481494Y-68535024D02*
X184163044Y-76866680D01*
X193481494Y-68535024D02*
X182803644Y-56592498D01*
X107189556Y-55699143D02*
X96511706Y-67641668D01*
X107189556Y-55699143D02*
X116508006Y-64030799D01*
X105830156Y-75973324D02*
X96511706Y-67641668D01*
X105830156Y-75973324D02*
X116508006Y-64030799D01*
X127045981Y-114016997D02*
X127045981Y-110316997D01*
X125145981Y-114016997D02*
X127045981Y-114016997D01*
X125145981Y-110316997D02*
X125145981Y-114016997D01*
X127045981Y-110316997D02*
X125145981Y-110316997D01*
X104840664Y-91927189D02*
X107306834Y-89168928D01*
X103424260Y-90660778D02*
X104840664Y-91927189D01*
X105890430Y-87902517D02*
X103424260Y-90660778D01*
X107306834Y-89168928D02*
X105890430Y-87902517D01*
X190315580Y-87984674D02*
X187849410Y-85226413D01*
X188899176Y-89251085D02*
X190315580Y-87984674D01*
X186433006Y-86492824D02*
X188899176Y-89251085D01*
X187849410Y-85226413D02*
X186433006Y-86492824D01*
X83121030Y-72507595D02*
X85587200Y-69749334D01*
X81704626Y-71241184D02*
X83121030Y-72507595D01*
X84170796Y-68482923D02*
X81704626Y-71241184D01*
X85587200Y-69749334D02*
X84170796Y-68482923D01*
X101691900Y-93573514D02*
X104450161Y-96039684D01*
X102958311Y-92157110D02*
X101691900Y-93573514D01*
X105716572Y-94623280D02*
X102958311Y-92157110D01*
X104450161Y-96039684D02*
X105716572Y-94623280D01*
X191600655Y-91297329D02*
X194358916Y-88831159D01*
X190334244Y-89880925D02*
X191600655Y-91297329D01*
X193092505Y-87414755D02*
X190334244Y-89880925D01*
X194358916Y-88831159D02*
X193092505Y-87414755D01*
X79972266Y-74153920D02*
X82730527Y-76620090D01*
X81238677Y-72737516D02*
X79972266Y-74153920D01*
X83996938Y-75203686D02*
X81238677Y-72737516D01*
X82730527Y-76620090D02*
X83996938Y-75203686D01*
X113015195Y-97862510D02*
X115481365Y-95104249D01*
X111598791Y-96596099D02*
X113015195Y-97862510D01*
X114064961Y-93837838D02*
X111598791Y-96596099D01*
X115481365Y-95104249D02*
X114064961Y-93837838D01*
X197125117Y-80522692D02*
X194658947Y-77764431D01*
X195708713Y-81789103D02*
X197125117Y-80522692D01*
X193242543Y-79030842D02*
X195708713Y-81789103D01*
X194658947Y-77764431D02*
X193242543Y-79030842D01*
X91295561Y-78442916D02*
X93761731Y-75684655D01*
X89879157Y-77176505D02*
X91295561Y-78442916D01*
X92345327Y-74418244D02*
X89879157Y-77176505D01*
X93761731Y-75684655D02*
X92345327Y-74418244D01*
X179609244Y-97557244D02*
X177143074Y-94798983D01*
X178192840Y-98823655D02*
X179609244Y-97557244D01*
X175726670Y-96065394D02*
X178192840Y-98823655D01*
X177143074Y-94798983D02*
X175726670Y-96065394D01*
X201092982Y-78348565D02*
X198626812Y-75590304D01*
X199676578Y-79614976D02*
X201092982Y-78348565D01*
X197210408Y-76856715D02*
X199676578Y-79614976D01*
X198626812Y-75590304D02*
X197210408Y-76856715D01*
X93986680Y-82222607D02*
X96452850Y-79464346D01*
X92570276Y-80956196D02*
X93986680Y-82222607D01*
X95036446Y-78197935D02*
X92570276Y-80956196D01*
X96452850Y-79464346D02*
X95036446Y-78197935D01*
X180894319Y-100869899D02*
X183652580Y-98403729D01*
X179627908Y-99453495D02*
X180894319Y-100869899D01*
X182386169Y-96987325D02*
X179627908Y-99453495D01*
X183652580Y-98403729D02*
X182386169Y-96987325D01*
X202378056Y-81661220D02*
X205136317Y-79195050D01*
X201111645Y-80244816D02*
X202378056Y-81661220D01*
X203869906Y-77778646D02*
X201111645Y-80244816D01*
X205136317Y-79195050D02*
X203869906Y-77778646D01*
X90837916Y-83868932D02*
X93596177Y-86335102D01*
X92104327Y-82452528D02*
X90837916Y-83868932D01*
X94862588Y-84918698D02*
X92104327Y-82452528D01*
X93596177Y-86335102D02*
X94862588Y-84918698D01*
X186418781Y-90095262D02*
X183952611Y-87337001D01*
X185002377Y-91361673D02*
X186418781Y-90095262D01*
X182536207Y-88603412D02*
X185002377Y-91361673D01*
X183952611Y-87337001D02*
X182536207Y-88603412D01*
X207902519Y-70886583D02*
X205436349Y-68128322D01*
X206486115Y-72152994D02*
X207902519Y-70886583D01*
X204019945Y-69394733D02*
X206486115Y-72152994D01*
X205436349Y-68128322D02*
X204019945Y-69394733D01*
X102161210Y-88157928D02*
X104627380Y-85399667D01*
X100744806Y-86891517D02*
X102161210Y-88157928D01*
X103210976Y-84133256D02*
X100744806Y-86891517D01*
X104627380Y-85399667D02*
X103210976Y-84133256D01*
X127949965Y-92741997D02*
X124249965Y-92741997D01*
X127949965Y-94641997D02*
X127949965Y-92741997D01*
X124249965Y-94641997D02*
X127949965Y-94641997D01*
X124249965Y-92741997D02*
X124249965Y-94641997D01*
X124949965Y-90241997D02*
X121249965Y-90241997D01*
X124949965Y-92141997D02*
X124949965Y-90241997D01*
X121249965Y-92141997D02*
X124949965Y-92141997D01*
X121249965Y-90241997D02*
X121249965Y-92141997D01*
X145745981Y-58246016D02*
X145745981Y-61946016D01*
X147645981Y-58246016D02*
X145745981Y-58246016D01*
X147645981Y-61946016D02*
X147645981Y-58246016D01*
X145745981Y-61946016D02*
X147645981Y-61946016D01*
X147745981Y-58246016D02*
X147745981Y-61946016D01*
X149645981Y-58246016D02*
X147745981Y-58246016D01*
X149645981Y-61946016D02*
X149645981Y-58246016D01*
X147745981Y-61946016D02*
X149645981Y-61946016D01*
X152345981Y-69137978D02*
X148645981Y-69137978D01*
X152345981Y-71037978D02*
X152345981Y-69137978D01*
X148645981Y-71037978D02*
X152345981Y-71037978D01*
X148645981Y-69137978D02*
X148645981Y-71037978D01*
X155045981Y-58141997D02*
X158745981Y-58141997D01*
X155045981Y-56241997D02*
X155045981Y-58141997D01*
X158745981Y-56241997D02*
X155045981Y-56241997D01*
X158745981Y-58141997D02*
X158745981Y-56241997D01*
X155045981Y-60141997D02*
X158745981Y-60141997D01*
X155045981Y-58241997D02*
X155045981Y-60141997D01*
X158745981Y-58241997D02*
X155045981Y-58241997D01*
X158745981Y-60141997D02*
X158745981Y-58241997D01*
X158745981Y-60241997D02*
X155045981Y-60241997D01*
X158745981Y-62141997D02*
X158745981Y-60241997D01*
X155045981Y-62141997D02*
X158745981Y-62141997D01*
X155045981Y-60241997D02*
X155045981Y-62141997D01*
X159345981Y-82537978D02*
X155645981Y-82537978D01*
X159345981Y-84437978D02*
X159345981Y-82537978D01*
X155645981Y-84437978D02*
X159345981Y-84437978D01*
X155645981Y-82537978D02*
X155645981Y-84437978D01*
X159345981Y-84537978D02*
X155645981Y-84537978D01*
X159345981Y-86437978D02*
X159345981Y-84537978D01*
X155645981Y-86437978D02*
X159345981Y-86437978D01*
X155645981Y-84537978D02*
X155645981Y-86437978D01*
X159345981Y-86537978D02*
X155645981Y-86537978D01*
X159345981Y-88437978D02*
X159345981Y-86537978D01*
X155645981Y-88437978D02*
X159345981Y-88437978D01*
X155645981Y-86537978D02*
X155645981Y-88437978D01*
X159345981Y-88537978D02*
X155645981Y-88537978D01*
X159345981Y-90437978D02*
X159345981Y-88537978D01*
X155645981Y-90437978D02*
X159345981Y-90437978D01*
X155645981Y-88537978D02*
X155645981Y-90437978D01*
X131045981Y-110891997D02*
X127545981Y-110891997D01*
X131045981Y-114291997D02*
X131045981Y-110891997D01*
X127545981Y-114291997D02*
X131045981Y-114291997D01*
X127545981Y-110891997D02*
X127545981Y-114291997D01*
X113372371Y-93787290D02*
X110763205Y-91454426D01*
X111106161Y-96321908D02*
X113372371Y-93787290D01*
X108496995Y-93989044D02*
X111106161Y-96321908D01*
X110763205Y-91454426D02*
X108496995Y-93989044D01*
X193115109Y-79713481D02*
X190505943Y-82046345D01*
X195381319Y-82248099D02*
X193115109Y-79713481D01*
X192772153Y-84580963D02*
X195381319Y-82248099D01*
X190505943Y-82046345D02*
X192772153Y-84580963D01*
X91652737Y-74367696D02*
X89043571Y-72034832D01*
X89386527Y-76902314D02*
X91652737Y-74367696D01*
X86777361Y-74569450D02*
X89386527Y-76902314D01*
X89043571Y-72034832D02*
X86777361Y-74569450D01*
X110706241Y-96769194D02*
X108097075Y-94436330D01*
X108440031Y-99303812D02*
X110706241Y-96769194D01*
X105830865Y-96970948D02*
X108440031Y-99303812D01*
X108097075Y-94436330D02*
X105830865Y-96970948D01*
X195818512Y-82662058D02*
X193209346Y-84994922D01*
X198084722Y-85196676D02*
X195818512Y-82662058D01*
X195475556Y-87529540D02*
X198084722Y-85196676D01*
X193209346Y-84994922D02*
X195475556Y-87529540D01*
X88986607Y-77349600D02*
X86377441Y-75016736D01*
X86720397Y-79884218D02*
X88986607Y-77349600D01*
X84111231Y-77551354D02*
X86720397Y-79884218D01*
X86377441Y-75016736D02*
X84111231Y-77551354D01*
X182408772Y-89286050D02*
X179799606Y-91618914D01*
X184674982Y-91820668D02*
X182408772Y-89286050D01*
X182065816Y-94153532D02*
X184674982Y-91820668D01*
X179799606Y-91618914D02*
X182065816Y-94153532D01*
X203892510Y-70077371D02*
X201283344Y-72410235D01*
X206158720Y-72611989D02*
X203892510Y-70077371D01*
X203549554Y-74944853D02*
X206158720Y-72611989D01*
X201283344Y-72410235D02*
X203549554Y-74944853D01*
X102518387Y-84082708D02*
X99909221Y-81749844D01*
X100252177Y-86617326D02*
X102518387Y-84082708D01*
X97643011Y-84284462D02*
X100252177Y-86617326D01*
X99909221Y-81749844D02*
X97643011Y-84284462D01*
X184974874Y-92357389D02*
X182365708Y-94690253D01*
X187241084Y-94892007D02*
X184974874Y-92357389D01*
X184631918Y-97224871D02*
X187241084Y-94892007D01*
X182365708Y-94690253D02*
X184631918Y-97224871D01*
X206558640Y-73059275D02*
X203949474Y-75392139D01*
X208824850Y-75593893D02*
X206558640Y-73059275D01*
X206215684Y-77926757D02*
X208824850Y-75593893D01*
X203949474Y-75392139D02*
X206215684Y-77926757D01*
X99852257Y-87064612D02*
X97243091Y-84731748D01*
X97586047Y-89599230D02*
X99852257Y-87064612D01*
X94976881Y-87266366D02*
X97586047Y-89599230D01*
X97243091Y-84731748D02*
X94976881Y-87266366D01*
X128399965Y-90191997D02*
X128399965Y-93691997D01*
X131799965Y-90191997D02*
X128399965Y-90191997D01*
X131799965Y-93691997D02*
X131799965Y-90191997D01*
X128399965Y-93691997D02*
X131799965Y-93691997D01*
X149875880Y-80924374D02*
X147259585Y-78308079D01*
X148532377Y-82267877D02*
X149875880Y-80924374D01*
X145916082Y-79651582D02*
X148532377Y-82267877D01*
X147259585Y-78308079D02*
X145916082Y-79651582D01*
X133445981Y-103711997D02*
X138345981Y-103711997D01*
X133445981Y-101471997D02*
X133445981Y-103711997D01*
X138345981Y-101471997D02*
X133445981Y-101471997D01*
X138345981Y-103711997D02*
X138345981Y-101471997D01*
X122345981Y-110241997D02*
X124645981Y-110241997D01*
X124645981Y-114941997D02*
X124645981Y-110241997D01*
X122345981Y-114941997D02*
X124645981Y-114941997D01*
X122345981Y-110241997D02*
X122345981Y-114941997D01*
X145645981Y-71187978D02*
X145645981Y-73387978D01*
X154945981Y-71187978D02*
X145645981Y-71187978D01*
X154945981Y-73387978D02*
X154945981Y-71187978D01*
X145645981Y-73387978D02*
X154945981Y-73387978D01*
X154645981Y-109987978D02*
X151145981Y-109987978D01*
X154645981Y-115387978D02*
X154645981Y-109987978D01*
X151145981Y-115387978D02*
X154645981Y-115387978D01*
X151145981Y-109987978D02*
X151145981Y-115387978D01*
X120337978Y-99141997D02*
X120337978Y-102841997D01*
X122237978Y-99141997D02*
X120337978Y-99141997D01*
X122237978Y-102841997D02*
X122237978Y-99141997D01*
X120337978Y-102841997D02*
X122237978Y-102841997D01*
X122368781Y-99141997D02*
X122368781Y-102841997D01*
X124268781Y-99141997D02*
X122368781Y-99141997D01*
X124268781Y-102841997D02*
X124268781Y-99141997D01*
X122368781Y-102841997D02*
X124268781Y-102841997D01*
X125545981Y-99133994D02*
X125545981Y-102833994D01*
X127445981Y-99133994D02*
X125545981Y-99133994D01*
X127445981Y-102833994D02*
X127445981Y-99133994D01*
X125545981Y-102833994D02*
X127445981Y-102833994D01*
X127601181Y-99177997D02*
X127601181Y-102877997D01*
X129501181Y-99177997D02*
X127601181Y-99177997D01*
X129501181Y-102877997D02*
X129501181Y-99177997D01*
X127601181Y-102877997D02*
X129501181Y-102877997D01*
X107605025Y-89435542D02*
X105138855Y-92193803D01*
X109021429Y-90701953D02*
X107605025Y-89435542D01*
X106555259Y-93460214D02*
X109021429Y-90701953D01*
X105138855Y-92193803D02*
X106555259Y-93460214D01*
X188296696Y-84826493D02*
X190762866Y-87584754D01*
X189713100Y-83560082D02*
X188296696Y-84826493D01*
X192179270Y-86318343D02*
X189713100Y-83560082D01*
X190762866Y-87584754D02*
X192179270Y-86318343D01*
X86034486Y-70149254D02*
X83568316Y-72907515D01*
X87450890Y-71415665D02*
X86034486Y-70149254D01*
X84984720Y-74173926D02*
X87450890Y-71415665D01*
X83568316Y-72907515D02*
X84984720Y-74173926D01*
X177590360Y-94399063D02*
X180056530Y-97157324D01*
X179006764Y-93132652D02*
X177590360Y-94399063D01*
X181472934Y-95890913D02*
X179006764Y-93132652D01*
X180056530Y-97157324D02*
X181472934Y-95890913D01*
X198890801Y-74985377D02*
X201356971Y-77743638D01*
X200307205Y-73718966D02*
X198890801Y-74985377D01*
X202773375Y-76477227D02*
X200307205Y-73718966D01*
X201356971Y-77743638D02*
X202773375Y-76477227D01*
X96900136Y-79864266D02*
X94433966Y-82622527D01*
X98316540Y-81130677D02*
X96900136Y-79864266D01*
X95850370Y-83888938D02*
X98316540Y-81130677D01*
X94433966Y-82622527D02*
X95850370Y-83888938D01*
X138445981Y-59741997D02*
X142145981Y-59741997D01*
X138445981Y-57841997D02*
X138445981Y-59741997D01*
X142145981Y-57841997D02*
X138445981Y-57841997D01*
X142145981Y-59741997D02*
X142145981Y-57841997D01*
X148645981Y-75437978D02*
X152345981Y-75437978D01*
X148645981Y-73537978D02*
X148645981Y-75437978D01*
X152345981Y-73537978D02*
X148645981Y-73537978D01*
X152345981Y-75437978D02*
X152345981Y-73537978D01*
X150259585Y-80467877D02*
X152875880Y-77851582D01*
X148916082Y-79124374D02*
X150259585Y-80467877D01*
X151532377Y-76508079D02*
X148916082Y-79124374D01*
X152875880Y-77851582D02*
X151532377Y-76508079D01*
X163567581Y-78095997D02*
X163567581Y-81795997D01*
X165467581Y-78095997D02*
X163567581Y-78095997D01*
X165467581Y-81795997D02*
X165467581Y-78095997D01*
X163567581Y-81795997D02*
X165467581Y-81795997D01*
X153332377Y-80508079D02*
X150716082Y-83124374D01*
X154675880Y-81851582D02*
X153332377Y-80508079D01*
X152059585Y-84467877D02*
X154675880Y-81851582D01*
X150716082Y-83124374D02*
X152059585Y-84467877D01*
X142851582Y-72667877D02*
X145467877Y-70051582D01*
X141508079Y-71324374D02*
X142851582Y-72667877D01*
X144124374Y-68708079D02*
X141508079Y-71324374D01*
X145467877Y-70051582D02*
X144124374Y-68708079D01*
M02*
