G04 #@! TF.GenerationSoftware,KiCad,Pcbnew,5.1.4*
G04 #@! TF.CreationDate,2019-10-22T01:46:39-03:00*
G04 #@! TF.ProjectId,mswi,6d737769-2e6b-4696-9361-645f70636258,rev?*
G04 #@! TF.SameCoordinates,Original*
G04 #@! TF.FileFunction,Other,User*
%FSLAX46Y46*%
G04 Gerber Fmt 4.6, Leading zero omitted, Abs format (unit mm)*
G04 Created by KiCad (PCBNEW 5.1.4) date 2019-10-22 01:46:39*
%MOMM*%
%LPD*%
G04 APERTURE LIST*
%ADD10C,0.050000*%
G04 APERTURE END LIST*
D10*
X132813965Y-93417997D02*
G75*
G03X132813965Y-93417997I-6250000J0D01*
G01*
X106373525Y-60737654D02*
X108982691Y-63070518D01*
X104107315Y-63272272D02*
X106373525Y-60737654D01*
X106716481Y-65605136D02*
X104107315Y-63272272D01*
X108982691Y-63070518D02*
X106716481Y-65605136D01*
X163295981Y-75687978D02*
X159695981Y-75687978D01*
X163295981Y-91987978D02*
X163295981Y-75687978D01*
X159695981Y-91987978D02*
X163295981Y-91987978D01*
X159695981Y-75687978D02*
X159695981Y-91987978D01*
X131499965Y-86491997D02*
X135199965Y-86491997D01*
X131499965Y-88391997D02*
X131499965Y-86491997D01*
X135199965Y-88391997D02*
X131499965Y-88391997D01*
X135199965Y-86491997D02*
X135199965Y-88391997D01*
X133399965Y-93041997D02*
X133399965Y-89341997D01*
X135299965Y-93041997D02*
X133399965Y-93041997D01*
X135299965Y-89341997D02*
X135299965Y-93041997D01*
X133399965Y-89341997D02*
X135299965Y-89341997D01*
X139767341Y-74673081D02*
X147262673Y-82168413D01*
X147262673Y-67177749D02*
X154758005Y-74673081D01*
X154758005Y-74673081D02*
X147262673Y-82168413D01*
X147262673Y-67177749D02*
X139767341Y-74673081D01*
X141333978Y-104253978D02*
X153193978Y-104253978D01*
X141333978Y-92213978D02*
X141333978Y-104253978D01*
X153193978Y-92213978D02*
X141333978Y-92213978D01*
X153193978Y-104253978D02*
X153193978Y-92213978D01*
X144795981Y-110791997D02*
X152195981Y-110791997D01*
X144795981Y-105391997D02*
X144795981Y-110791997D01*
X152195981Y-105391997D02*
X144795981Y-105391997D01*
X152195981Y-110791997D02*
X152195981Y-105391997D01*
X153987978Y-102787978D02*
X156987978Y-102787978D01*
X153987978Y-102787978D02*
X153987978Y-105787978D01*
X156987978Y-105787978D02*
X156987978Y-102787978D01*
X156987978Y-105787978D02*
X153987978Y-105787978D01*
X153987978Y-105987978D02*
X156987978Y-105987978D01*
X153987978Y-105987978D02*
X153987978Y-108987978D01*
X156987978Y-108987978D02*
X156987978Y-105987978D01*
X156987978Y-108987978D02*
X153987978Y-108987978D01*
X118316984Y-92301123D02*
X107639134Y-104243649D01*
X118316984Y-92301123D02*
X108998534Y-83969467D01*
X98320684Y-95911993D02*
X107639134Y-104243649D01*
X98320684Y-95911993D02*
X108998534Y-83969467D01*
X192320808Y-74536805D02*
X202998658Y-86479330D01*
X192320808Y-74536805D02*
X183002358Y-82868461D01*
X193680208Y-94810986D02*
X202998658Y-86479330D01*
X193680208Y-94810986D02*
X183002358Y-82868461D01*
X96568886Y-72995113D02*
X85891036Y-84937639D01*
X96568886Y-72995113D02*
X87250436Y-64663457D01*
X76572586Y-76605983D02*
X85891036Y-84937639D01*
X76572586Y-76605983D02*
X87250436Y-64663457D01*
X181620808Y-84036805D02*
X192298658Y-95979330D01*
X181620808Y-84036805D02*
X172302358Y-92368461D01*
X182980208Y-104310986D02*
X192298658Y-95979330D01*
X182980208Y-104310986D02*
X172302358Y-92368461D01*
X203076479Y-65038860D02*
X213754329Y-76981385D01*
X203076479Y-65038860D02*
X193758029Y-73370516D01*
X204435879Y-85313041D02*
X213754329Y-76981385D01*
X204435879Y-85313041D02*
X193758029Y-73370516D01*
X107434536Y-82710125D02*
X96756686Y-94652651D01*
X107434536Y-82710125D02*
X98116086Y-74378469D01*
X87438236Y-86320995D02*
X96756686Y-94652651D01*
X87438236Y-86320995D02*
X98116086Y-74378469D01*
X120019729Y-78706895D02*
X122485899Y-75948634D01*
X121436133Y-79973306D02*
X120019729Y-78706895D01*
X123902303Y-77215045D02*
X121436133Y-79973306D01*
X122485899Y-75948634D02*
X123902303Y-77215045D01*
X176049101Y-74168010D02*
X173582931Y-71409749D01*
X177465505Y-72901599D02*
X176049101Y-74168010D01*
X174999335Y-70143338D02*
X177465505Y-72901599D01*
X173582931Y-71409749D02*
X174999335Y-70143338D01*
X118734655Y-82019550D02*
X115976394Y-79553380D01*
X120001066Y-80603146D02*
X118734655Y-82019550D01*
X117242805Y-78136976D02*
X120001066Y-80603146D01*
X115976394Y-79553380D02*
X117242805Y-78136976D01*
X179197865Y-75814334D02*
X176439604Y-78280504D01*
X177931454Y-74397930D02*
X179197865Y-75814334D01*
X175173193Y-76864100D02*
X177931454Y-74397930D01*
X176439604Y-78280504D02*
X175173193Y-76864100D01*
X113210192Y-71244913D02*
X115676362Y-68486652D01*
X114626596Y-72511324D02*
X113210192Y-71244913D01*
X117092766Y-69753063D02*
X114626596Y-72511324D01*
X115676362Y-68486652D02*
X117092766Y-69753063D01*
X167874570Y-80103330D02*
X165408400Y-77345069D01*
X169290974Y-78836919D02*
X167874570Y-80103330D01*
X166824804Y-76078658D02*
X169290974Y-78836919D01*
X165408400Y-77345069D02*
X166824804Y-76078658D01*
X186858503Y-64503289D02*
X184392333Y-61745028D01*
X188274907Y-63236878D02*
X186858503Y-64503289D01*
X185808737Y-60478617D02*
X188274907Y-63236878D01*
X184392333Y-61745028D02*
X185808737Y-60478617D01*
X109173053Y-69008848D02*
X111639223Y-66250587D01*
X110589457Y-70275259D02*
X109173053Y-69008848D01*
X113055627Y-67516998D02*
X110589457Y-70275259D01*
X111639223Y-66250587D02*
X113055627Y-67516998D01*
X190007267Y-66149613D02*
X187249006Y-68615783D01*
X188740856Y-64733209D02*
X190007267Y-66149613D01*
X185982595Y-67199379D02*
X188740856Y-64733209D01*
X187249006Y-68615783D02*
X185982595Y-67199379D01*
X107887979Y-72321503D02*
X105129718Y-69855333D01*
X109154390Y-70905099D02*
X107887979Y-72321503D01*
X106396129Y-68438929D02*
X109154390Y-70905099D01*
X105129718Y-69855333D02*
X106396129Y-68438929D01*
X178683972Y-70438609D02*
X176217802Y-67680348D01*
X180100376Y-69172198D02*
X178683972Y-70438609D01*
X177634206Y-66413937D02*
X180100376Y-69172198D01*
X176217802Y-67680348D02*
X177634206Y-66413937D01*
X102363516Y-61546866D02*
X104829686Y-58788605D01*
X103779920Y-62813277D02*
X102363516Y-61546866D01*
X106246090Y-60055016D02*
X103779920Y-62813277D01*
X104829686Y-58788605D02*
X106246090Y-60055016D01*
X168743562Y-100036397D02*
X165043562Y-100036397D01*
X168743562Y-98136397D02*
X168743562Y-100036397D01*
X165043562Y-98136397D02*
X168743562Y-98136397D01*
X165043562Y-100036397D02*
X165043562Y-98136397D01*
X168743562Y-102595197D02*
X165043562Y-102595197D01*
X168743562Y-100695197D02*
X168743562Y-102595197D01*
X165043562Y-100695197D02*
X168743562Y-100695197D01*
X165043562Y-102595197D02*
X165043562Y-100695197D01*
X168743562Y-105095063D02*
X165043562Y-105095063D01*
X168743562Y-103195063D02*
X168743562Y-105095063D01*
X165043562Y-103195063D02*
X168743562Y-103195063D01*
X165043562Y-105095063D02*
X165043562Y-103195063D01*
X168743562Y-107493330D02*
X165043562Y-107493330D01*
X168743562Y-105593330D02*
X168743562Y-107493330D01*
X165043562Y-105593330D02*
X168743562Y-105593330D01*
X165043562Y-107493330D02*
X165043562Y-105593330D01*
X146545981Y-87937978D02*
X146545981Y-84237978D01*
X148445981Y-87937978D02*
X146545981Y-87937978D01*
X148445981Y-84237978D02*
X148445981Y-87937978D01*
X146545981Y-84237978D02*
X148445981Y-84237978D01*
X144545981Y-87937978D02*
X144545981Y-84237978D01*
X146445981Y-87937978D02*
X144545981Y-87937978D01*
X146445981Y-84237978D02*
X146445981Y-87937978D01*
X144545981Y-84237978D02*
X146445981Y-84237978D01*
X142545981Y-87937978D02*
X142545981Y-84237978D01*
X144445981Y-87937978D02*
X142545981Y-87937978D01*
X144445981Y-84237978D02*
X144445981Y-87937978D01*
X142545981Y-84237978D02*
X144445981Y-84237978D01*
X140187978Y-99467978D02*
X140187978Y-103167978D01*
X138287978Y-99467978D02*
X140187978Y-99467978D01*
X138287978Y-103167978D02*
X138287978Y-99467978D01*
X140187978Y-103167978D02*
X138287978Y-103167978D01*
X142637978Y-111337978D02*
X146337978Y-111337978D01*
X142637978Y-113237978D02*
X142637978Y-111337978D01*
X146337978Y-113237978D02*
X142637978Y-113237978D01*
X146337978Y-111337978D02*
X146337978Y-113237978D01*
X139539181Y-110650397D02*
X139539181Y-106950397D01*
X141439181Y-110650397D02*
X139539181Y-110650397D01*
X141439181Y-106950397D02*
X141439181Y-110650397D01*
X139539181Y-106950397D02*
X141439181Y-106950397D01*
X117220201Y-70435702D02*
X119829367Y-72768566D01*
X114953991Y-72970320D02*
X117220201Y-70435702D01*
X117563157Y-75303184D02*
X114953991Y-72970320D01*
X119829367Y-72768566D02*
X117563157Y-75303184D01*
X167517394Y-76028111D02*
X170126560Y-73695247D01*
X169783604Y-78562729D02*
X167517394Y-76028111D01*
X172392770Y-76229865D02*
X169783604Y-78562729D01*
X170126560Y-73695247D02*
X172392770Y-76229865D01*
X114554071Y-73417606D02*
X117163237Y-75750470D01*
X112287861Y-75952224D02*
X114554071Y-73417606D01*
X114897027Y-78285088D02*
X112287861Y-75952224D01*
X117163237Y-75750470D02*
X114897027Y-78285088D01*
X170183524Y-79010015D02*
X172792690Y-76677151D01*
X172449734Y-81544633D02*
X170183524Y-79010015D01*
X175058900Y-79211769D02*
X172449734Y-81544633D01*
X172792690Y-76677151D02*
X175058900Y-79211769D01*
X178326796Y-66363390D02*
X180935962Y-64030526D01*
X180593006Y-68898008D02*
X178326796Y-66363390D01*
X183202172Y-66565144D02*
X180593006Y-68898008D01*
X180935962Y-64030526D02*
X183202172Y-66565144D01*
X180992926Y-69345294D02*
X183602092Y-67012430D01*
X183259136Y-71879912D02*
X180992926Y-69345294D01*
X185868302Y-69547048D02*
X183259136Y-71879912D01*
X183602092Y-67012430D02*
X185868302Y-69547048D01*
X103707395Y-63719558D02*
X106316561Y-66052422D01*
X101441185Y-66254176D02*
X103707395Y-63719558D01*
X104050351Y-68587040D02*
X101441185Y-66254176D01*
X106316561Y-66052422D02*
X104050351Y-68587040D01*
X139755981Y-53991997D02*
X139755981Y-57591997D01*
X150955981Y-53991997D02*
X139755981Y-53991997D01*
X150955981Y-57591997D02*
X150955981Y-53991997D01*
X139755981Y-57591997D02*
X150955981Y-57591997D01*
X163495981Y-52791997D02*
X159895981Y-52791997D01*
X163495981Y-63991997D02*
X163495981Y-52791997D01*
X159895981Y-63991997D02*
X163495981Y-63991997D01*
X159895981Y-52791997D02*
X159895981Y-63991997D01*
X113978435Y-84632739D02*
X116736696Y-87098909D01*
X112712024Y-86049143D02*
X113978435Y-84632739D01*
X115470285Y-88515313D02*
X112712024Y-86049143D01*
X116736696Y-87098909D02*
X115470285Y-88515313D01*
X184085167Y-78090746D02*
X186843428Y-75624576D01*
X185351578Y-79507150D02*
X184085167Y-78090746D01*
X188109839Y-77040980D02*
X185351578Y-79507150D01*
X186843428Y-75624576D02*
X188109839Y-77040980D01*
X124983732Y-70229371D02*
X122225471Y-67763201D01*
X126250143Y-68812967D02*
X124983732Y-70229371D01*
X123491882Y-66346797D02*
X126250143Y-68812967D01*
X122225471Y-67763201D02*
X123491882Y-66346797D01*
X168177741Y-68289963D02*
X165419480Y-70756133D01*
X166911330Y-66873559D02*
X168177741Y-68289963D01*
X164153069Y-69339729D02*
X166911330Y-66873559D01*
X165419480Y-70756133D02*
X164153069Y-69339729D01*
X92258800Y-65213145D02*
X95017061Y-67679315D01*
X90992389Y-66629549D02*
X92258800Y-65213145D01*
X93750650Y-69095719D02*
X90992389Y-66629549D01*
X95017061Y-67679315D02*
X93750650Y-69095719D01*
X173378831Y-87663316D02*
X176137092Y-85197146D01*
X174645242Y-89079720D02*
X173378831Y-87663316D01*
X177403503Y-86613550D02*
X174645242Y-89079720D01*
X176137092Y-85197146D02*
X177403503Y-86613550D01*
X178960687Y-58595653D02*
X176202426Y-61061823D01*
X177694276Y-57179249D02*
X178960687Y-58595653D01*
X174936015Y-59645419D02*
X177694276Y-57179249D01*
X176202426Y-61061823D02*
X174936015Y-59645419D01*
X114163512Y-60501735D02*
X111405251Y-58035565D01*
X115429923Y-59085331D02*
X114163512Y-60501735D01*
X112671662Y-56619161D02*
X115429923Y-59085331D01*
X111405251Y-58035565D02*
X112671662Y-56619161D01*
X194862568Y-68454637D02*
X197620829Y-65988467D01*
X196128979Y-69871041D02*
X194862568Y-68454637D01*
X198887240Y-67404871D02*
X196128979Y-69871041D01*
X197620829Y-65988467D02*
X198887240Y-67404871D01*
X103181630Y-74979281D02*
X105939891Y-77445451D01*
X101915219Y-76395685D02*
X103181630Y-74979281D01*
X104673480Y-78861855D02*
X101915219Y-76395685D01*
X105939891Y-77445451D02*
X104673480Y-78861855D01*
X168773562Y-98136397D02*
X172473562Y-98136397D01*
X168773562Y-100036397D02*
X168773562Y-98136397D01*
X172473562Y-100036397D02*
X168773562Y-100036397D01*
X172473562Y-98136397D02*
X172473562Y-100036397D01*
X168773562Y-100678194D02*
X172473562Y-100678194D01*
X168773562Y-102578194D02*
X168773562Y-100678194D01*
X172473562Y-102578194D02*
X168773562Y-102578194D01*
X172473562Y-100678194D02*
X172473562Y-102578194D01*
X168773562Y-103183727D02*
X172473562Y-103183727D01*
X168773562Y-105083727D02*
X168773562Y-103183727D01*
X172473562Y-105083727D02*
X168773562Y-105083727D01*
X172473562Y-103183727D02*
X172473562Y-105083727D01*
X168773562Y-105587662D02*
X172473562Y-105587662D01*
X168773562Y-107487662D02*
X168773562Y-105587662D01*
X172473562Y-107487662D02*
X168773562Y-107487662D01*
X172473562Y-105587662D02*
X172473562Y-107487662D01*
X122038613Y-75548714D02*
X119572443Y-78306975D01*
X120622209Y-74282303D02*
X122038613Y-75548714D01*
X118156039Y-77040564D02*
X120622209Y-74282303D01*
X119572443Y-78306975D02*
X118156039Y-77040564D01*
X173135645Y-71809669D02*
X175601815Y-74567930D01*
X171719241Y-73076080D02*
X173135645Y-71809669D01*
X174185411Y-75834341D02*
X171719241Y-73076080D01*
X175601815Y-74567930D02*
X174185411Y-75834341D01*
X183945047Y-62144948D02*
X186411217Y-64903209D01*
X182528643Y-63411359D02*
X183945047Y-62144948D01*
X184994813Y-66169620D02*
X182528643Y-63411359D01*
X186411217Y-64903209D02*
X184994813Y-66169620D01*
X111191937Y-65850667D02*
X108725767Y-68608928D01*
X109775533Y-64584256D02*
X111191937Y-65850667D01*
X107309363Y-67342517D02*
X109775533Y-64584256D01*
X108725767Y-68608928D02*
X107309363Y-67342517D01*
X138705506Y-68889050D02*
X141321801Y-71505345D01*
X137362003Y-70232553D02*
X138705506Y-68889050D01*
X139978298Y-72848848D02*
X137362003Y-70232553D01*
X141321801Y-71505345D02*
X139978298Y-72848848D01*
X135259585Y-72708079D02*
X137875880Y-75324374D01*
X133916082Y-74051582D02*
X135259585Y-72708079D01*
X136532377Y-76667877D02*
X133916082Y-74051582D01*
X137875880Y-75324374D02*
X136532377Y-76667877D01*
X138015981Y-99471997D02*
X138015981Y-103171997D01*
X136115981Y-99471997D02*
X138015981Y-99471997D01*
X136115981Y-103171997D02*
X136115981Y-99471997D01*
X138015981Y-103171997D02*
X136115981Y-103171997D01*
X155837978Y-91437978D02*
X155837978Y-95137978D01*
X153937978Y-91437978D02*
X155837978Y-91437978D01*
X153937978Y-95137978D02*
X153937978Y-91437978D01*
X155837978Y-95137978D02*
X153937978Y-95137978D01*
X160137978Y-98037978D02*
X156437978Y-98037978D01*
X160137978Y-96137978D02*
X160137978Y-98037978D01*
X156437978Y-96137978D02*
X160137978Y-96137978D01*
X156437978Y-98037978D02*
X156437978Y-96137978D01*
X150537978Y-113237978D02*
X146837978Y-113237978D01*
X150537978Y-111337978D02*
X150537978Y-113237978D01*
X146837978Y-111337978D02*
X150537978Y-111337978D01*
X146837978Y-113237978D02*
X146837978Y-111337978D01*
X152537978Y-91837978D02*
X148837978Y-91837978D01*
X152537978Y-89937978D02*
X152537978Y-91837978D01*
X148837978Y-89937978D02*
X152537978Y-89937978D01*
X148837978Y-91837978D02*
X148837978Y-89937978D01*
M02*
