G04 #@! TF.GenerationSoftware,KiCad,Pcbnew,5.1.4*
G04 #@! TF.CreationDate,2019-10-24T14:35:41-03:00*
G04 #@! TF.ProjectId,mswi,6d737769-2e6b-4696-9361-645f70636258,rev?*
G04 #@! TF.SameCoordinates,Original*
G04 #@! TF.FileFunction,Drawing*
%FSLAX46Y46*%
G04 Gerber Fmt 4.6, Leading zero omitted, Abs format (unit mm)*
G04 Created by KiCad (PCBNEW 5.1.4) date 2019-10-24 14:35:41*
%MOMM*%
%LPD*%
G04 APERTURE LIST*
%ADD10C,0.400000*%
%ADD11C,0.875000*%
G04 APERTURE END LIST*
D10*
X164774886Y-121958586D02*
X213669653Y-78686835D01*
X164880118Y-122958586D02*
X199333101Y-92467780D01*
X145355981Y-50910094D02*
X268521177Y-50910094D01*
X225978558Y-164214313D02*
X207805961Y-164214313D01*
X233591275Y-67155490D02*
G75*
G02X234936622Y-158658758I-88235294J-47058823D01*
G01*
X233591275Y-67155490D02*
X229179510Y-69508431D01*
X229003040Y-62802549D02*
G75*
G02X233591275Y-67155490I-4235295J-9058823D01*
G01*
X161566446Y-129214313D02*
X129145515Y-129214313D01*
X229003040Y-62802548D02*
X226885392Y-67331960D01*
X61708922Y-62802548D02*
G75*
G02X229003040Y-62802548I83647059J-178911765D01*
G01*
X161566446Y-124214313D02*
X161566446Y-129214313D01*
X168193790Y-126702858D02*
G75*
G02X161566446Y-129214313I-6627344J7488545D01*
G01*
X61708922Y-62802548D02*
X63826569Y-67331960D01*
X57120687Y-67155489D02*
G75*
G02X61708922Y-62802548I8823529J-4705883D01*
G01*
X234936622Y-158658758D02*
X230457590Y-156436535D01*
X225978558Y-164214313D02*
X225978558Y-159214313D01*
X234936622Y-158658757D02*
G75*
G02X225978558Y-164214313I-8958064J4444444D01*
G01*
X57120687Y-67155490D02*
X61532451Y-69508431D01*
X55775340Y-158658758D02*
G75*
G02X57120687Y-67155490I89580641J44444445D01*
G01*
X129145515Y-129214313D02*
G75*
G02X122518171Y-126702858I0J10000000D01*
G01*
X129145515Y-124214313D02*
X129145515Y-129214313D01*
X55775339Y-158658758D02*
X60254371Y-156436535D01*
X64733404Y-164214313D02*
G75*
G02X55775339Y-158658758I-1J10000000D01*
G01*
X75355981Y-67650509D02*
G75*
G02X78606828Y-62966444I5000000J0D01*
G01*
X78606828Y-62966444D02*
G75*
G02X212105134Y-62966444I66749153J-178747869D01*
G01*
X212105134Y-62966444D02*
G75*
G02X215355981Y-67650509I-1749153J-4684065D01*
G01*
X215355981Y-74942563D02*
X215355981Y-67650509D01*
X215355980Y-74942563D02*
G75*
G02X213669653Y-78686835I-4999999J0D01*
G01*
X164774886Y-121958586D02*
G75*
G02X161461214Y-123214313I-3313672J3744273D01*
G01*
X129250748Y-123214313D02*
X161461214Y-123214313D01*
X129250748Y-123214313D02*
G75*
G02X125937076Y-121958586I0J5000000D01*
G01*
X77042309Y-78686835D02*
X125937076Y-121958586D01*
X77042309Y-78686836D02*
G75*
G02X75355981Y-74942563I3313672J3744273D01*
G01*
X75355981Y-67650509D02*
X75355981Y-74942563D01*
X226885392Y-67331960D02*
G75*
G02X229179510Y-69508431I-2117647J-4529412D01*
G01*
X63826569Y-67331960D02*
G75*
G02X226885392Y-67331960I81529412J-174382353D01*
G01*
X61532451Y-69508431D02*
G75*
G02X63826569Y-67331960I4411765J-2352941D01*
G01*
X60254372Y-156436536D02*
G75*
G02X61532451Y-69508431I85101609J42222223D01*
G01*
X64733403Y-159214313D02*
G75*
G02X60254371Y-156436535I0J5000000D01*
G01*
X129145515Y-124214313D02*
G75*
G02X125831843Y-122958586I0J5000000D01*
G01*
X129145515Y-124214313D02*
X161566446Y-124214313D01*
X164880118Y-122958586D02*
G75*
G02X161566446Y-124214313I-3313672J3744273D01*
G01*
X217467006Y-159214313D02*
X225978558Y-159214313D01*
X230457590Y-156436535D02*
G75*
G02X225978558Y-159214313I-4479032J2222222D01*
G01*
X229179510Y-69508431D02*
G75*
G02X230457590Y-156436535I-83823529J-44705882D01*
G01*
X64733403Y-159214313D02*
X73244955Y-159214313D01*
X64733403Y-164214313D02*
X64733403Y-159214313D01*
X82906001Y-164214313D02*
X64733403Y-164214313D01*
X76047020Y-160738420D02*
X75753268Y-160581474D01*
X75753268Y-160581474D02*
X75491874Y-160441259D01*
X75491874Y-160441259D02*
X75230190Y-160300359D01*
X75230190Y-160300359D02*
X74962729Y-160155804D01*
X74962729Y-160155804D02*
X74700388Y-160013481D01*
X74700388Y-160013481D02*
X74426730Y-159864456D01*
X74426730Y-159864456D02*
X74163630Y-159720637D01*
X74163630Y-159720637D02*
X73900123Y-159576066D01*
X73900123Y-159576066D02*
X73630686Y-159427691D01*
X73630686Y-159427691D02*
X73366291Y-159281555D01*
X73366291Y-159281555D02*
X73244955Y-159214313D01*
X77433769Y-161470364D02*
X77169163Y-161331842D01*
X77169163Y-161331842D02*
X76882500Y-161181168D01*
X76882500Y-161181168D02*
X76606221Y-161035352D01*
X76606221Y-161035352D02*
X76334962Y-160891615D01*
X76334962Y-160891615D02*
X76057893Y-160744216D01*
X76057893Y-160744216D02*
X76047020Y-160738420D01*
X78808049Y-162181131D02*
X78541545Y-162044430D01*
X78541545Y-162044430D02*
X78263088Y-161901015D01*
X78263088Y-161901015D02*
X77983628Y-161756485D01*
X77983628Y-161756485D02*
X77708874Y-161613806D01*
X77708874Y-161613806D02*
X77444560Y-161476001D01*
X77444560Y-161476001D02*
X77433769Y-161470364D01*
X80137142Y-162854710D02*
X79862550Y-162716659D01*
X79862550Y-162716659D02*
X79589863Y-162578991D01*
X79589863Y-162578991D02*
X79303766Y-162433943D01*
X79303766Y-162433943D02*
X79035817Y-162297525D01*
X79035817Y-162297525D02*
X78808049Y-162181131D01*
X80773220Y-163172263D02*
X80487785Y-163030148D01*
X80487785Y-163030148D02*
X80212805Y-162892647D01*
X80212805Y-162892647D02*
X80137142Y-162854710D01*
X81383016Y-163473774D02*
X81106256Y-163337282D01*
X81106256Y-163337282D02*
X80826805Y-163198871D01*
X80826805Y-163198871D02*
X80773220Y-163172263D01*
X81942965Y-163748119D02*
X81666536Y-163612983D01*
X81666536Y-163612983D02*
X81392230Y-163478308D01*
X81392230Y-163478308D02*
X81383016Y-163473774D01*
X82426203Y-163982940D02*
X82154747Y-163851249D01*
X82154747Y-163851249D02*
X81942965Y-163748119D01*
X82773992Y-164150831D02*
X82497692Y-164017525D01*
X82497692Y-164017525D02*
X82426203Y-163982940D01*
X82906001Y-164214313D02*
X82773992Y-164150831D01*
X82906000Y-164214314D02*
G75*
G02X65765671Y-106128360I62449981J50000001D01*
G01*
X73244955Y-159214313D02*
G75*
G02X60816918Y-105374241I72111026J45000000D01*
G01*
X224946290Y-106128360D02*
G75*
G02X207805961Y-164214313I-79590309J-8085953D01*
G01*
X214664942Y-160738420D02*
X214942358Y-160590215D01*
X214942358Y-160590215D02*
X215203735Y-160450042D01*
X215203735Y-160450042D02*
X215465400Y-160309185D01*
X215465400Y-160309185D02*
X215738301Y-160161719D01*
X215738301Y-160161719D02*
X216000630Y-160019426D01*
X216000630Y-160019426D02*
X216268793Y-159873420D01*
X216268793Y-159873420D02*
X216559295Y-159714628D01*
X216559295Y-159714628D02*
X216822820Y-159570025D01*
X216822820Y-159570025D02*
X217081270Y-159427691D01*
X217081270Y-159427691D02*
X217345664Y-159281555D01*
X217345664Y-159281555D02*
X217467006Y-159214313D01*
X213278192Y-161470364D02*
X213542792Y-161331842D01*
X213542792Y-161331842D02*
X213813216Y-161189720D01*
X213813216Y-161189720D02*
X214089471Y-161043952D01*
X214089471Y-161043952D02*
X214355278Y-160903143D01*
X214355278Y-160903143D02*
X214632322Y-160755805D01*
X214632322Y-160755805D02*
X214664942Y-160738420D01*
X211903913Y-162181131D02*
X212170412Y-162044430D01*
X212170412Y-162044430D02*
X212448868Y-161901015D01*
X212448868Y-161901015D02*
X212722946Y-161759274D01*
X212722946Y-161759274D02*
X212986905Y-161622222D01*
X212986905Y-161622222D02*
X213251211Y-161484455D01*
X213251211Y-161484455D02*
X213278192Y-161470364D01*
X210574819Y-162854710D02*
X210849406Y-162716659D01*
X210849406Y-162716659D02*
X211122092Y-162578991D01*
X211122092Y-162578991D02*
X211402962Y-162436599D01*
X211402962Y-162436599D02*
X211676138Y-162297525D01*
X211676138Y-162297525D02*
X211903913Y-162181131D01*
X209938742Y-163172263D02*
X210224170Y-163030148D01*
X210224170Y-163030148D02*
X210499152Y-162892647D01*
X210499152Y-162892647D02*
X210574819Y-162854710D01*
X209328946Y-163473774D02*
X209605700Y-163337282D01*
X209605700Y-163337282D02*
X209875425Y-163203698D01*
X209875425Y-163203698D02*
X209938742Y-163172263D01*
X208768996Y-163748119D02*
X209049807Y-163610835D01*
X209049807Y-163610835D02*
X209319730Y-163478308D01*
X209319730Y-163478308D02*
X209328946Y-163473774D01*
X208285758Y-163982940D02*
X208557208Y-163851249D01*
X208557208Y-163851249D02*
X208768996Y-163748119D01*
X207937969Y-164150831D02*
X208214264Y-164017525D01*
X208214264Y-164017525D02*
X208285758Y-163982940D01*
X207805961Y-164214313D02*
X207937969Y-164150831D01*
X229895044Y-105374242D02*
G75*
G02X217467006Y-159214313I-84539063J-8840071D01*
G01*
X164880118Y-122958586D02*
X168193791Y-126702858D01*
X202353087Y-96471964D02*
X168193791Y-126702858D01*
X199631829Y-92859933D02*
X199449600Y-92620631D01*
X199449600Y-92620631D02*
X199333101Y-92467780D01*
X199927140Y-93248349D02*
X199752249Y-93018230D01*
X199752249Y-93018230D02*
X199631829Y-92859933D01*
X200494883Y-93997293D02*
X200313315Y-93757452D01*
X200313315Y-93757452D02*
X200135860Y-93523338D01*
X200135860Y-93523338D02*
X199954615Y-93284524D01*
X199954615Y-93284524D02*
X199927140Y-93248349D01*
X201016945Y-94688721D02*
X200835300Y-94447837D01*
X200835300Y-94447837D02*
X200654969Y-94209026D01*
X200654969Y-94209026D02*
X200494883Y-93997293D01*
X201472328Y-95294163D02*
X201289713Y-95051102D01*
X201289713Y-95051102D02*
X201115772Y-94819926D01*
X201115772Y-94819926D02*
X201016945Y-94688721D01*
X201847364Y-95794532D02*
X201665105Y-95551162D01*
X201665105Y-95551162D02*
X201491779Y-95320074D01*
X201491779Y-95320074D02*
X201472328Y-95294163D01*
X202124191Y-96164951D02*
X201949350Y-95930890D01*
X201949350Y-95930890D02*
X201847364Y-95794532D01*
X202224045Y-96298800D02*
X202124191Y-96164951D01*
X202295483Y-96394638D02*
X202224045Y-96298800D01*
X202353087Y-96471964D02*
X202295483Y-96394638D01*
X202353087Y-96471964D02*
G75*
G02X224946290Y-106128360I7914072J-12742349D01*
G01*
X229408018Y-105447305D02*
X229788954Y-105390138D01*
X229788954Y-105390138D02*
X229895043Y-105374241D01*
X228925880Y-105519850D02*
X229279404Y-105466633D01*
X229279404Y-105466633D02*
X229408018Y-105447305D01*
X227997794Y-105660136D02*
X228366686Y-105604269D01*
X228366686Y-105604269D02*
X228732234Y-105549047D01*
X228732234Y-105549047D02*
X228925880Y-105519850D01*
X227142473Y-105790231D02*
X227493212Y-105736783D01*
X227493212Y-105736783D02*
X227859110Y-105681173D01*
X227859110Y-105681173D02*
X227997794Y-105660136D01*
X226395230Y-105904578D02*
X226764735Y-105847947D01*
X226764735Y-105847947D02*
X227129816Y-105792161D01*
X227129816Y-105792161D02*
X227142473Y-105790231D01*
X225778811Y-105999432D02*
X226127416Y-105945725D01*
X226127416Y-105945725D02*
X226395230Y-105904578D01*
X225323289Y-106069854D02*
X225672856Y-106015784D01*
X225672856Y-106015784D02*
X225778811Y-105999432D01*
X225158862Y-106095346D02*
X225323289Y-106069854D01*
X225041197Y-106113612D02*
X225158862Y-106095346D01*
X224946290Y-106128360D02*
X225041197Y-106113612D01*
X199333100Y-92467780D02*
G75*
G02X229895043Y-105374241I10934059J-16746533D01*
G01*
X122518171Y-126702858D02*
X88358875Y-96471964D01*
X125831843Y-122958586D02*
X122518171Y-126702858D01*
X91378861Y-92467780D02*
X125831843Y-122958586D01*
X61303943Y-105447305D02*
X60923002Y-105390138D01*
X60923002Y-105390138D02*
X60816918Y-105374241D01*
X61786082Y-105519850D02*
X61432553Y-105466633D01*
X61432553Y-105466633D02*
X61303943Y-105447305D01*
X62714167Y-105660136D02*
X62345272Y-105604269D01*
X62345272Y-105604269D02*
X61979724Y-105549047D01*
X61979724Y-105549047D02*
X61786082Y-105519850D01*
X63569488Y-105790231D02*
X63198780Y-105733745D01*
X63198780Y-105733745D02*
X62839041Y-105679078D01*
X62839041Y-105679078D02*
X62714167Y-105660136D01*
X64316731Y-105904578D02*
X63947222Y-105847947D01*
X63947222Y-105847947D02*
X63582143Y-105792161D01*
X63582143Y-105792161D02*
X63569488Y-105790231D01*
X64933150Y-105999432D02*
X64584541Y-105945725D01*
X64584541Y-105945725D02*
X64316731Y-105904578D01*
X65388672Y-106069854D02*
X65039101Y-106015784D01*
X65039101Y-106015784D02*
X64933150Y-105999432D01*
X65553100Y-106095346D02*
X65388672Y-106069854D01*
X65670765Y-106113612D02*
X65553100Y-106095346D01*
X65765671Y-106128360D02*
X65670765Y-106113612D01*
X65765671Y-106128359D02*
G75*
G02X88358875Y-96471964I14679131J-3085954D01*
G01*
X91080133Y-92859933D02*
X91262358Y-92620631D01*
X91262358Y-92620631D02*
X91378861Y-92467780D01*
X90784821Y-93248349D02*
X90959708Y-93018230D01*
X90959708Y-93018230D02*
X91080133Y-92859933D01*
X90217079Y-93997293D02*
X90398641Y-93757452D01*
X90398641Y-93757452D02*
X90576098Y-93523338D01*
X90576098Y-93523338D02*
X90757344Y-93284524D01*
X90757344Y-93284524D02*
X90784821Y-93248349D01*
X89695016Y-94688721D02*
X89876656Y-94447837D01*
X89876656Y-94447837D02*
X90056987Y-94209026D01*
X90056987Y-94209026D02*
X90217079Y-93997293D01*
X89239633Y-95294163D02*
X89422242Y-95051102D01*
X89422242Y-95051102D02*
X89596183Y-94819926D01*
X89596183Y-94819926D02*
X89695016Y-94688721D01*
X88864597Y-95794532D02*
X89052759Y-95543282D01*
X89052759Y-95543282D02*
X89233129Y-95302825D01*
X89233129Y-95302825D02*
X89239633Y-95294163D01*
X88587771Y-96164951D02*
X88771849Y-95918525D01*
X88771849Y-95918525D02*
X88864597Y-95794532D01*
X88487917Y-96298800D02*
X88587771Y-96164951D01*
X88416478Y-96394638D02*
X88487917Y-96298800D01*
X88358875Y-96471964D02*
X88416478Y-96394638D01*
X60816918Y-105374241D02*
G75*
G02X91378861Y-92467780I19627884J-3840072D01*
G01*
D11*
X143423083Y-34244399D02*
X139823083Y-34244399D01*
X141623083Y-34244399D02*
X141623083Y-27244399D01*
X141023083Y-28244399D01*
X140423083Y-28911066D01*
X139823083Y-29244399D01*
X148823083Y-29577733D02*
X148823083Y-34244399D01*
X147323083Y-26911066D02*
X145823083Y-31911066D01*
X149723083Y-31911066D01*
X153323083Y-27244399D02*
X153923083Y-27244399D01*
X154523083Y-27577733D01*
X154823083Y-27911066D01*
X155123083Y-28577733D01*
X155423083Y-29911066D01*
X155423083Y-31577733D01*
X155123083Y-32911066D01*
X154823083Y-33577733D01*
X154523083Y-33911066D01*
X153923083Y-34244399D01*
X153323083Y-34244399D01*
X152723083Y-33911066D01*
X152423083Y-33577733D01*
X152123083Y-32911066D01*
X151823083Y-31577733D01*
X151823083Y-29911066D01*
X152123083Y-28577733D01*
X152423083Y-27911066D01*
X152723083Y-27577733D01*
X153323083Y-27244399D01*
X158423083Y-33911066D02*
X158423083Y-34244399D01*
X158123083Y-34911066D01*
X157823083Y-35244399D01*
X162323083Y-27244399D02*
X162923083Y-27244399D01*
X163523083Y-27577733D01*
X163823083Y-27911066D01*
X164123083Y-28577733D01*
X164423083Y-29911066D01*
X164423083Y-31577733D01*
X164123083Y-32911066D01*
X163823083Y-33577733D01*
X163523083Y-33911066D01*
X162923083Y-34244399D01*
X162323083Y-34244399D01*
X161723083Y-33911066D01*
X161423083Y-33577733D01*
X161123083Y-32911066D01*
X160823083Y-31577733D01*
X160823083Y-29911066D01*
X161123083Y-28577733D01*
X161423083Y-27911066D01*
X161723083Y-27577733D01*
X162323083Y-27244399D01*
X168323083Y-27244399D02*
X168923083Y-27244399D01*
X169523083Y-27577733D01*
X169823083Y-27911066D01*
X170123083Y-28577733D01*
X170423083Y-29911066D01*
X170423083Y-31577733D01*
X170123083Y-32911066D01*
X169823083Y-33577733D01*
X169523083Y-33911066D01*
X168923083Y-34244399D01*
X168323083Y-34244399D01*
X167723083Y-33911066D01*
X167423083Y-33577733D01*
X167123083Y-32911066D01*
X166823083Y-31577733D01*
X166823083Y-29911066D01*
X167123083Y-28577733D01*
X167423083Y-27911066D01*
X167723083Y-27577733D01*
X168323083Y-27244399D01*
D10*
X75355981Y-36601207D02*
X215355981Y-36601207D01*
X215355981Y-65650509D02*
X215355981Y-34601207D01*
X75355981Y-65650509D02*
X75355981Y-34601207D01*
D11*
X255999173Y-96461720D02*
X255999173Y-92261720D01*
X262999173Y-94961720D01*
X256665840Y-90161720D02*
X256332507Y-89861720D01*
X255999173Y-89261720D01*
X255999173Y-87761720D01*
X256332507Y-87161720D01*
X256665840Y-86861720D01*
X257332507Y-86561720D01*
X257999173Y-86561720D01*
X258999173Y-86861720D01*
X262999173Y-90461720D01*
X262999173Y-86561720D01*
X262665840Y-83561720D02*
X262999173Y-83561720D01*
X263665840Y-83861720D01*
X263999173Y-84161720D01*
X255999173Y-81461720D02*
X255999173Y-77561720D01*
X258665840Y-79661720D01*
X258665840Y-78761720D01*
X258999173Y-78161720D01*
X259332507Y-77861720D01*
X259999173Y-77561720D01*
X261665840Y-77561720D01*
X262332507Y-77861720D01*
X262665840Y-78161720D01*
X262999173Y-78761720D01*
X262999173Y-80561720D01*
X262665840Y-81161720D01*
X262332507Y-81461720D01*
X255999173Y-73661720D02*
X255999173Y-73061720D01*
X256332507Y-72461720D01*
X256665840Y-72161720D01*
X257332507Y-71861720D01*
X258665840Y-71561720D01*
X260332507Y-71561720D01*
X261665840Y-71861720D01*
X262332507Y-72161720D01*
X262665840Y-72461720D01*
X262999173Y-73061720D01*
X262999173Y-73661720D01*
X262665840Y-74261720D01*
X262332507Y-74561720D01*
X261665840Y-74861720D01*
X260332507Y-75161720D01*
X258665840Y-75161720D01*
X257332507Y-74861720D01*
X256665840Y-74561720D01*
X256332507Y-74261720D01*
X255999173Y-73661720D01*
D10*
X265355981Y-50910094D02*
X265355981Y-123214313D01*
X163461214Y-123214313D02*
X267355981Y-123214313D01*
M02*
