M48
; DRILL file {KiCad 5.1.4} date Tue 29 Oct 2019 02:14:08 PM -03
; FORMAT={-:-/ absolute / inch / decimal}
; #@! TF.CreationDate,2019-10-29T14:14:08-03:00
; #@! TF.GenerationSoftware,Kicad,Pcbnew,5.1.4
FMAT,2
INCH
T1C0.0080
T2C0.0160
T3C0.0315
T4C0.0320
T5C0.0394
%
G90
G05
T1
X5.6258Y-4.2438
X5.6258Y-4.323
T2
X3.56Y-2.563
X3.6967Y-2.5509
X3.7635Y-2.7449
X3.9878Y-2.9455
X4.1913Y-3.1274
X4.4122Y-3.3305
X4.5559Y-2.3986
X4.5628Y-2.2674
X4.6022Y-4.1965
X4.6186Y-3.5095
X4.8957Y-3.3737
X4.9306Y-2.6343
X4.9762Y-4.0981
X4.983Y-2.7804
X5.0827Y-3.3737
X5.2571Y-3.7135
X5.2831Y-2.6055
X5.4051Y-3.3495
X5.434Y-2.6949
X5.5776Y-2.9396
X5.5884Y-2.7426
X5.5959Y-3.5654
X5.6071Y-2.6315
X5.6511Y-3.2715
X5.7251Y-3.5375
X5.7282Y-3.2712
X5.7587Y-2.9465
X5.7611Y-2.4915
X5.7991Y-2.7103
X5.8031Y-3.5615
X5.8069Y-3.2712
X5.8145Y-4.5074
X5.8581Y-2.9997
X5.8699Y-4.0548
X5.8742Y-3.4857
X5.8925Y-3.2633
X5.8935Y-4.5074
X5.9662Y-2.4879
X5.9723Y-3.4759
X5.9795Y-3.1787
X5.9959Y-2.6806
X6.0198Y-4.594
X6.0205Y-2.9406
X6.0295Y-3.1272
X6.0353Y-2.2517
X6.0353Y-2.3304
X6.0353Y-2.4091
X6.0368Y-2.4959
X6.1573Y-2.5509
X6.1967Y-3.2182
X6.2941Y-2.8215
X6.2997Y-2.6968
X6.3113Y-2.906
X6.3411Y-4.0895
X6.4231Y-4.0375
X6.5166Y-2.6149
X6.6425Y-2.6272
X6.814Y-3.5232
X6.9081Y-2.2863
X7.0175Y-3.3412
X7.072Y-2.2452
X7.2355Y-3.1463
X7.439Y-2.9644
X7.6416Y-2.6217
X7.6593Y-2.7663
X7.8628Y-2.5844
T3
X5.2632Y-2.9906
X5.399Y-2.8547
X6.2003Y-3.7247
X6.2003Y-3.9168
T4
X7.7843Y-2.8416
X7.931Y-2.7104
X8.1123Y-3.2084
X8.259Y-3.0772
X6.5565Y-2.891
X6.7033Y-2.7598
X6.8846Y-3.2578
X7.0313Y-3.1266
X4.0274Y-3.8225
X4.1741Y-3.9537
X4.3554Y-3.4557
X4.5022Y-3.5869
X3.9562Y-2.7095
X4.1029Y-2.8407
X4.2842Y-2.3426
X4.4309Y-2.4739
X3.1712Y-3.0624
X3.3179Y-3.1936
X3.4992Y-2.6956
X3.6459Y-2.8268
X3.599Y-3.4449
X3.7457Y-3.5761
X3.927Y-3.0781
X4.0737Y-3.2093
X6.9395Y-3.5895
X7.0863Y-3.4583
X7.2676Y-3.9564
X7.4143Y-3.8252
X4.3832Y-3.0913
X4.53Y-3.2225
X4.7112Y-2.7245
X4.858Y-2.8557
X6.9861Y-2.509
X7.1329Y-2.3778
X7.3141Y-2.8759
X7.4609Y-2.7447
X7.3608Y-3.2155
X7.5075Y-3.0843
X7.6888Y-3.5824
X7.8356Y-3.4512
T5
X6.3581Y-3.0507
X6.3581Y-3.1507
X6.3581Y-3.2507
X6.3581Y-3.3507
X6.3581Y-3.4507
X6.3581Y-3.5507
X4.9828Y-3.5283
X4.9828Y-3.8275
X5.5731Y-2.1965
X5.6731Y-2.1965
X5.7731Y-2.1965
X5.8731Y-2.1965
X6.366Y-2.1493
X6.366Y-2.2493
X6.366Y-2.3493
X6.366Y-2.4493
T0
M30
