G04 #@! TF.GenerationSoftware,KiCad,Pcbnew,5.1.4*
G04 #@! TF.CreationDate,2019-10-24T14:35:41-03:00*
G04 #@! TF.ProjectId,mswi,6d737769-2e6b-4696-9361-645f70636258,rev?*
G04 #@! TF.SameCoordinates,Original*
G04 #@! TF.FileFunction,Paste,Bot*
G04 #@! TF.FilePolarity,Positive*
%FSLAX46Y46*%
G04 Gerber Fmt 4.6, Leading zero omitted, Abs format (unit mm)*
G04 Created by KiCad (PCBNEW 5.1.4) date 2019-10-24 14:35:41*
%MOMM*%
%LPD*%
G04 APERTURE LIST*
%ADD10O,5.080000X1.700000*%
%ADD11R,2.000000X1.500000*%
%ADD12R,2.000000X3.800000*%
%ADD13C,0.100000*%
%ADD14C,1.150000*%
%ADD15C,2.250000*%
%ADD16R,1.800000X2.500000*%
%ADD17R,0.800000X0.900000*%
%ADD18C,0.800000*%
%ADD19R,0.900000X0.800000*%
%ADD20C,1.425000*%
%ADD21R,1.200000X0.900000*%
%ADD22R,3.300000X1.700000*%
%ADD23R,0.800000X1.900000*%
G04 APERTURE END LIST*
D10*
X139000000Y-104971997D03*
X138995981Y-107511997D03*
X138995981Y-110051997D03*
X138995981Y-112591997D03*
D11*
X129845981Y-104265197D03*
X129845981Y-108865197D03*
X129845981Y-106565197D03*
D12*
X123545981Y-106565197D03*
D13*
G36*
X131057686Y-99429201D02*
G01*
X131081954Y-99432801D01*
X131105753Y-99438762D01*
X131128852Y-99447027D01*
X131151031Y-99457517D01*
X131172074Y-99470129D01*
X131191780Y-99484744D01*
X131209958Y-99501220D01*
X131226434Y-99519398D01*
X131241049Y-99539104D01*
X131253661Y-99560147D01*
X131264151Y-99582326D01*
X131272416Y-99605425D01*
X131278377Y-99629224D01*
X131281977Y-99653492D01*
X131283181Y-99677996D01*
X131283181Y-100327998D01*
X131281977Y-100352502D01*
X131278377Y-100376770D01*
X131272416Y-100400569D01*
X131264151Y-100423668D01*
X131253661Y-100445847D01*
X131241049Y-100466890D01*
X131226434Y-100486596D01*
X131209958Y-100504774D01*
X131191780Y-100521250D01*
X131172074Y-100535865D01*
X131151031Y-100548477D01*
X131128852Y-100558967D01*
X131105753Y-100567232D01*
X131081954Y-100573193D01*
X131057686Y-100576793D01*
X131033182Y-100577997D01*
X130133180Y-100577997D01*
X130108676Y-100576793D01*
X130084408Y-100573193D01*
X130060609Y-100567232D01*
X130037510Y-100558967D01*
X130015331Y-100548477D01*
X129994288Y-100535865D01*
X129974582Y-100521250D01*
X129956404Y-100504774D01*
X129939928Y-100486596D01*
X129925313Y-100466890D01*
X129912701Y-100445847D01*
X129902211Y-100423668D01*
X129893946Y-100400569D01*
X129887985Y-100376770D01*
X129884385Y-100352502D01*
X129883181Y-100327998D01*
X129883181Y-99677996D01*
X129884385Y-99653492D01*
X129887985Y-99629224D01*
X129893946Y-99605425D01*
X129902211Y-99582326D01*
X129912701Y-99560147D01*
X129925313Y-99539104D01*
X129939928Y-99519398D01*
X129956404Y-99501220D01*
X129974582Y-99484744D01*
X129994288Y-99470129D01*
X130015331Y-99457517D01*
X130037510Y-99447027D01*
X130060609Y-99438762D01*
X130084408Y-99432801D01*
X130108676Y-99429201D01*
X130133180Y-99427997D01*
X131033182Y-99427997D01*
X131057686Y-99429201D01*
X131057686Y-99429201D01*
G37*
D14*
X130583181Y-100002997D03*
D13*
G36*
X131057686Y-101479201D02*
G01*
X131081954Y-101482801D01*
X131105753Y-101488762D01*
X131128852Y-101497027D01*
X131151031Y-101507517D01*
X131172074Y-101520129D01*
X131191780Y-101534744D01*
X131209958Y-101551220D01*
X131226434Y-101569398D01*
X131241049Y-101589104D01*
X131253661Y-101610147D01*
X131264151Y-101632326D01*
X131272416Y-101655425D01*
X131278377Y-101679224D01*
X131281977Y-101703492D01*
X131283181Y-101727996D01*
X131283181Y-102377998D01*
X131281977Y-102402502D01*
X131278377Y-102426770D01*
X131272416Y-102450569D01*
X131264151Y-102473668D01*
X131253661Y-102495847D01*
X131241049Y-102516890D01*
X131226434Y-102536596D01*
X131209958Y-102554774D01*
X131191780Y-102571250D01*
X131172074Y-102585865D01*
X131151031Y-102598477D01*
X131128852Y-102608967D01*
X131105753Y-102617232D01*
X131081954Y-102623193D01*
X131057686Y-102626793D01*
X131033182Y-102627997D01*
X130133180Y-102627997D01*
X130108676Y-102626793D01*
X130084408Y-102623193D01*
X130060609Y-102617232D01*
X130037510Y-102608967D01*
X130015331Y-102598477D01*
X129994288Y-102585865D01*
X129974582Y-102571250D01*
X129956404Y-102554774D01*
X129939928Y-102536596D01*
X129925313Y-102516890D01*
X129912701Y-102495847D01*
X129902211Y-102473668D01*
X129893946Y-102450569D01*
X129887985Y-102426770D01*
X129884385Y-102402502D01*
X129883181Y-102377998D01*
X129883181Y-101727996D01*
X129884385Y-101703492D01*
X129887985Y-101679224D01*
X129893946Y-101655425D01*
X129902211Y-101632326D01*
X129912701Y-101610147D01*
X129925313Y-101589104D01*
X129939928Y-101569398D01*
X129956404Y-101551220D01*
X129974582Y-101534744D01*
X129994288Y-101520129D01*
X130015331Y-101507517D01*
X130037510Y-101497027D01*
X130060609Y-101488762D01*
X130084408Y-101482801D01*
X130108676Y-101479201D01*
X130133180Y-101477997D01*
X131033182Y-101477997D01*
X131057686Y-101479201D01*
X131057686Y-101479201D01*
G37*
D14*
X130583181Y-102052997D03*
D13*
G36*
X121245486Y-103518201D02*
G01*
X121269754Y-103521801D01*
X121293553Y-103527762D01*
X121316652Y-103536027D01*
X121338831Y-103546517D01*
X121359874Y-103559129D01*
X121379580Y-103573744D01*
X121397758Y-103590220D01*
X121414234Y-103608398D01*
X121428849Y-103628104D01*
X121441461Y-103649147D01*
X121451951Y-103671326D01*
X121460216Y-103694425D01*
X121466177Y-103718224D01*
X121469777Y-103742492D01*
X121470981Y-103766996D01*
X121470981Y-105516998D01*
X121469777Y-105541502D01*
X121466177Y-105565770D01*
X121460216Y-105589569D01*
X121451951Y-105612668D01*
X121441461Y-105634847D01*
X121428849Y-105655890D01*
X121414234Y-105675596D01*
X121397758Y-105693774D01*
X121379580Y-105710250D01*
X121359874Y-105724865D01*
X121338831Y-105737477D01*
X121316652Y-105747967D01*
X121293553Y-105756232D01*
X121269754Y-105762193D01*
X121245486Y-105765793D01*
X121220982Y-105766997D01*
X119370980Y-105766997D01*
X119346476Y-105765793D01*
X119322208Y-105762193D01*
X119298409Y-105756232D01*
X119275310Y-105747967D01*
X119253131Y-105737477D01*
X119232088Y-105724865D01*
X119212382Y-105710250D01*
X119194204Y-105693774D01*
X119177728Y-105675596D01*
X119163113Y-105655890D01*
X119150501Y-105634847D01*
X119140011Y-105612668D01*
X119131746Y-105589569D01*
X119125785Y-105565770D01*
X119122185Y-105541502D01*
X119120981Y-105516998D01*
X119120981Y-103766996D01*
X119122185Y-103742492D01*
X119125785Y-103718224D01*
X119131746Y-103694425D01*
X119140011Y-103671326D01*
X119150501Y-103649147D01*
X119163113Y-103628104D01*
X119177728Y-103608398D01*
X119194204Y-103590220D01*
X119212382Y-103573744D01*
X119232088Y-103559129D01*
X119253131Y-103546517D01*
X119275310Y-103536027D01*
X119298409Y-103527762D01*
X119322208Y-103521801D01*
X119346476Y-103518201D01*
X119370980Y-103516997D01*
X121220982Y-103516997D01*
X121245486Y-103518201D01*
X121245486Y-103518201D01*
G37*
D15*
X120295981Y-104641997D03*
D13*
G36*
X121245486Y-108618201D02*
G01*
X121269754Y-108621801D01*
X121293553Y-108627762D01*
X121316652Y-108636027D01*
X121338831Y-108646517D01*
X121359874Y-108659129D01*
X121379580Y-108673744D01*
X121397758Y-108690220D01*
X121414234Y-108708398D01*
X121428849Y-108728104D01*
X121441461Y-108749147D01*
X121451951Y-108771326D01*
X121460216Y-108794425D01*
X121466177Y-108818224D01*
X121469777Y-108842492D01*
X121470981Y-108866996D01*
X121470981Y-110616998D01*
X121469777Y-110641502D01*
X121466177Y-110665770D01*
X121460216Y-110689569D01*
X121451951Y-110712668D01*
X121441461Y-110734847D01*
X121428849Y-110755890D01*
X121414234Y-110775596D01*
X121397758Y-110793774D01*
X121379580Y-110810250D01*
X121359874Y-110824865D01*
X121338831Y-110837477D01*
X121316652Y-110847967D01*
X121293553Y-110856232D01*
X121269754Y-110862193D01*
X121245486Y-110865793D01*
X121220982Y-110866997D01*
X119370980Y-110866997D01*
X119346476Y-110865793D01*
X119322208Y-110862193D01*
X119298409Y-110856232D01*
X119275310Y-110847967D01*
X119253131Y-110837477D01*
X119232088Y-110824865D01*
X119212382Y-110810250D01*
X119194204Y-110793774D01*
X119177728Y-110775596D01*
X119163113Y-110755890D01*
X119150501Y-110734847D01*
X119140011Y-110712668D01*
X119131746Y-110689569D01*
X119125785Y-110665770D01*
X119122185Y-110641502D01*
X119120981Y-110616998D01*
X119120981Y-108866996D01*
X119122185Y-108842492D01*
X119125785Y-108818224D01*
X119131746Y-108794425D01*
X119140011Y-108771326D01*
X119150501Y-108749147D01*
X119163113Y-108728104D01*
X119177728Y-108708398D01*
X119194204Y-108690220D01*
X119212382Y-108673744D01*
X119232088Y-108659129D01*
X119253131Y-108646517D01*
X119275310Y-108636027D01*
X119298409Y-108627762D01*
X119322208Y-108621801D01*
X119346476Y-108618201D01*
X119370980Y-108616997D01*
X121220982Y-108616997D01*
X121245486Y-108618201D01*
X121245486Y-108618201D01*
G37*
D15*
X120295981Y-109741997D03*
D16*
X133095981Y-112191997D03*
X133095981Y-108191997D03*
D13*
G36*
X126570486Y-112618201D02*
G01*
X126594754Y-112621801D01*
X126618553Y-112627762D01*
X126641652Y-112636027D01*
X126663831Y-112646517D01*
X126684874Y-112659129D01*
X126704580Y-112673744D01*
X126722758Y-112690220D01*
X126739234Y-112708398D01*
X126753849Y-112728104D01*
X126766461Y-112749147D01*
X126776951Y-112771326D01*
X126785216Y-112794425D01*
X126791177Y-112818224D01*
X126794777Y-112842492D01*
X126795981Y-112866996D01*
X126795981Y-113516998D01*
X126794777Y-113541502D01*
X126791177Y-113565770D01*
X126785216Y-113589569D01*
X126776951Y-113612668D01*
X126766461Y-113634847D01*
X126753849Y-113655890D01*
X126739234Y-113675596D01*
X126722758Y-113693774D01*
X126704580Y-113710250D01*
X126684874Y-113724865D01*
X126663831Y-113737477D01*
X126641652Y-113747967D01*
X126618553Y-113756232D01*
X126594754Y-113762193D01*
X126570486Y-113765793D01*
X126545982Y-113766997D01*
X125645980Y-113766997D01*
X125621476Y-113765793D01*
X125597208Y-113762193D01*
X125573409Y-113756232D01*
X125550310Y-113747967D01*
X125528131Y-113737477D01*
X125507088Y-113724865D01*
X125487382Y-113710250D01*
X125469204Y-113693774D01*
X125452728Y-113675596D01*
X125438113Y-113655890D01*
X125425501Y-113634847D01*
X125415011Y-113612668D01*
X125406746Y-113589569D01*
X125400785Y-113565770D01*
X125397185Y-113541502D01*
X125395981Y-113516998D01*
X125395981Y-112866996D01*
X125397185Y-112842492D01*
X125400785Y-112818224D01*
X125406746Y-112794425D01*
X125415011Y-112771326D01*
X125425501Y-112749147D01*
X125438113Y-112728104D01*
X125452728Y-112708398D01*
X125469204Y-112690220D01*
X125487382Y-112673744D01*
X125507088Y-112659129D01*
X125528131Y-112646517D01*
X125550310Y-112636027D01*
X125573409Y-112627762D01*
X125597208Y-112621801D01*
X125621476Y-112618201D01*
X125645980Y-112616997D01*
X126545982Y-112616997D01*
X126570486Y-112618201D01*
X126570486Y-112618201D01*
G37*
D14*
X126095981Y-113191997D03*
D13*
G36*
X126570486Y-110568201D02*
G01*
X126594754Y-110571801D01*
X126618553Y-110577762D01*
X126641652Y-110586027D01*
X126663831Y-110596517D01*
X126684874Y-110609129D01*
X126704580Y-110623744D01*
X126722758Y-110640220D01*
X126739234Y-110658398D01*
X126753849Y-110678104D01*
X126766461Y-110699147D01*
X126776951Y-110721326D01*
X126785216Y-110744425D01*
X126791177Y-110768224D01*
X126794777Y-110792492D01*
X126795981Y-110816996D01*
X126795981Y-111466998D01*
X126794777Y-111491502D01*
X126791177Y-111515770D01*
X126785216Y-111539569D01*
X126776951Y-111562668D01*
X126766461Y-111584847D01*
X126753849Y-111605890D01*
X126739234Y-111625596D01*
X126722758Y-111643774D01*
X126704580Y-111660250D01*
X126684874Y-111674865D01*
X126663831Y-111687477D01*
X126641652Y-111697967D01*
X126618553Y-111706232D01*
X126594754Y-111712193D01*
X126570486Y-111715793D01*
X126545982Y-111716997D01*
X125645980Y-111716997D01*
X125621476Y-111715793D01*
X125597208Y-111712193D01*
X125573409Y-111706232D01*
X125550310Y-111697967D01*
X125528131Y-111687477D01*
X125507088Y-111674865D01*
X125487382Y-111660250D01*
X125469204Y-111643774D01*
X125452728Y-111625596D01*
X125438113Y-111605890D01*
X125425501Y-111584847D01*
X125415011Y-111562668D01*
X125406746Y-111539569D01*
X125400785Y-111515770D01*
X125397185Y-111491502D01*
X125395981Y-111466998D01*
X125395981Y-110816996D01*
X125397185Y-110792492D01*
X125400785Y-110768224D01*
X125406746Y-110744425D01*
X125415011Y-110721326D01*
X125425501Y-110699147D01*
X125438113Y-110678104D01*
X125452728Y-110658398D01*
X125469204Y-110640220D01*
X125487382Y-110623744D01*
X125507088Y-110609129D01*
X125528131Y-110596517D01*
X125550310Y-110586027D01*
X125573409Y-110577762D01*
X125597208Y-110571801D01*
X125621476Y-110568201D01*
X125645980Y-110566997D01*
X126545982Y-110566997D01*
X126570486Y-110568201D01*
X126570486Y-110568201D01*
G37*
D14*
X126095981Y-111141997D03*
D13*
G36*
X104598519Y-89889209D02*
G01*
X104622613Y-89893833D01*
X104646138Y-89900796D01*
X104668868Y-89910031D01*
X104690582Y-89921449D01*
X104711073Y-89934941D01*
X104730143Y-89950377D01*
X105401073Y-90550258D01*
X105418537Y-90567488D01*
X105434229Y-90586347D01*
X105447997Y-90606654D01*
X105459708Y-90628212D01*
X105469250Y-90650814D01*
X105476530Y-90674243D01*
X105481479Y-90698272D01*
X105484049Y-90722671D01*
X105484215Y-90747204D01*
X105481976Y-90771635D01*
X105477352Y-90795729D01*
X105470389Y-90819254D01*
X105461154Y-90841984D01*
X105449736Y-90863698D01*
X105436244Y-90884189D01*
X105420808Y-90903259D01*
X104987560Y-91387820D01*
X104970330Y-91405284D01*
X104951471Y-91420976D01*
X104931164Y-91434744D01*
X104909606Y-91446455D01*
X104887004Y-91455997D01*
X104863575Y-91463278D01*
X104839546Y-91468226D01*
X104815147Y-91470796D01*
X104790614Y-91470962D01*
X104766183Y-91468723D01*
X104742089Y-91464099D01*
X104718564Y-91457136D01*
X104695834Y-91447901D01*
X104674120Y-91436483D01*
X104653629Y-91422991D01*
X104634559Y-91407555D01*
X103963629Y-90807674D01*
X103946165Y-90790444D01*
X103930473Y-90771585D01*
X103916705Y-90751278D01*
X103904994Y-90729720D01*
X103895452Y-90707118D01*
X103888172Y-90683689D01*
X103883223Y-90659660D01*
X103880653Y-90635261D01*
X103880487Y-90610728D01*
X103882726Y-90586297D01*
X103887350Y-90562203D01*
X103894313Y-90538678D01*
X103903548Y-90515948D01*
X103914966Y-90494234D01*
X103928458Y-90473743D01*
X103943894Y-90454673D01*
X104377142Y-89970112D01*
X104394372Y-89952648D01*
X104413231Y-89936956D01*
X104433538Y-89923188D01*
X104455096Y-89911477D01*
X104477698Y-89901935D01*
X104501127Y-89894654D01*
X104525156Y-89889706D01*
X104549555Y-89887136D01*
X104574088Y-89886970D01*
X104598519Y-89889209D01*
X104598519Y-89889209D01*
G37*
D14*
X104682351Y-90678966D03*
D13*
G36*
X105964911Y-88360983D02*
G01*
X105989005Y-88365607D01*
X106012530Y-88372570D01*
X106035260Y-88381805D01*
X106056974Y-88393223D01*
X106077465Y-88406715D01*
X106096535Y-88422151D01*
X106767465Y-89022032D01*
X106784929Y-89039262D01*
X106800621Y-89058121D01*
X106814389Y-89078428D01*
X106826100Y-89099986D01*
X106835642Y-89122588D01*
X106842922Y-89146017D01*
X106847871Y-89170046D01*
X106850441Y-89194445D01*
X106850607Y-89218978D01*
X106848368Y-89243409D01*
X106843744Y-89267503D01*
X106836781Y-89291028D01*
X106827546Y-89313758D01*
X106816128Y-89335472D01*
X106802636Y-89355963D01*
X106787200Y-89375033D01*
X106353952Y-89859594D01*
X106336722Y-89877058D01*
X106317863Y-89892750D01*
X106297556Y-89906518D01*
X106275998Y-89918229D01*
X106253396Y-89927771D01*
X106229967Y-89935052D01*
X106205938Y-89940000D01*
X106181539Y-89942570D01*
X106157006Y-89942736D01*
X106132575Y-89940497D01*
X106108481Y-89935873D01*
X106084956Y-89928910D01*
X106062226Y-89919675D01*
X106040512Y-89908257D01*
X106020021Y-89894765D01*
X106000951Y-89879329D01*
X105330021Y-89279448D01*
X105312557Y-89262218D01*
X105296865Y-89243359D01*
X105283097Y-89223052D01*
X105271386Y-89201494D01*
X105261844Y-89178892D01*
X105254564Y-89155463D01*
X105249615Y-89131434D01*
X105247045Y-89107035D01*
X105246879Y-89082502D01*
X105249118Y-89058071D01*
X105253742Y-89033977D01*
X105260705Y-89010452D01*
X105269940Y-88987722D01*
X105281358Y-88966008D01*
X105294850Y-88945517D01*
X105310286Y-88926447D01*
X105743534Y-88441886D01*
X105760764Y-88424422D01*
X105779623Y-88408730D01*
X105799930Y-88394962D01*
X105821488Y-88383251D01*
X105844090Y-88373709D01*
X105867519Y-88366428D01*
X105891548Y-88361480D01*
X105915947Y-88358910D01*
X105940480Y-88358744D01*
X105964911Y-88360983D01*
X105964911Y-88360983D01*
G37*
D14*
X106048743Y-89150740D03*
D13*
G36*
X189190285Y-87211032D02*
G01*
X189214684Y-87213602D01*
X189238713Y-87218551D01*
X189262142Y-87225831D01*
X189284744Y-87235373D01*
X189306302Y-87247084D01*
X189326609Y-87260852D01*
X189345468Y-87276544D01*
X189362698Y-87294008D01*
X189795946Y-87778569D01*
X189811382Y-87797639D01*
X189824874Y-87818130D01*
X189836292Y-87839844D01*
X189845527Y-87862574D01*
X189852490Y-87886099D01*
X189857114Y-87910193D01*
X189859353Y-87934624D01*
X189859187Y-87959157D01*
X189856617Y-87983556D01*
X189851669Y-88007585D01*
X189844388Y-88031014D01*
X189834846Y-88053616D01*
X189823135Y-88075174D01*
X189809367Y-88095481D01*
X189793675Y-88114340D01*
X189776211Y-88131570D01*
X189105281Y-88731451D01*
X189086211Y-88746887D01*
X189065720Y-88760379D01*
X189044006Y-88771797D01*
X189021276Y-88781032D01*
X188997751Y-88787995D01*
X188973657Y-88792619D01*
X188949226Y-88794858D01*
X188924693Y-88794692D01*
X188900294Y-88792122D01*
X188876265Y-88787173D01*
X188852836Y-88779893D01*
X188830234Y-88770351D01*
X188808676Y-88758640D01*
X188788369Y-88744872D01*
X188769510Y-88729180D01*
X188752280Y-88711716D01*
X188319032Y-88227155D01*
X188303596Y-88208085D01*
X188290104Y-88187594D01*
X188278686Y-88165880D01*
X188269451Y-88143150D01*
X188262488Y-88119625D01*
X188257864Y-88095531D01*
X188255625Y-88071100D01*
X188255791Y-88046567D01*
X188258361Y-88022168D01*
X188263309Y-87998139D01*
X188270590Y-87974710D01*
X188280132Y-87952108D01*
X188291843Y-87930550D01*
X188305611Y-87910243D01*
X188321303Y-87891384D01*
X188338767Y-87874154D01*
X189009697Y-87274273D01*
X189028767Y-87258837D01*
X189049258Y-87245345D01*
X189070972Y-87233927D01*
X189093702Y-87224692D01*
X189117227Y-87217729D01*
X189141321Y-87213105D01*
X189165752Y-87210866D01*
X189190285Y-87211032D01*
X189190285Y-87211032D01*
G37*
D14*
X189057489Y-88002862D03*
D13*
G36*
X187823893Y-85682806D02*
G01*
X187848292Y-85685376D01*
X187872321Y-85690325D01*
X187895750Y-85697605D01*
X187918352Y-85707147D01*
X187939910Y-85718858D01*
X187960217Y-85732626D01*
X187979076Y-85748318D01*
X187996306Y-85765782D01*
X188429554Y-86250343D01*
X188444990Y-86269413D01*
X188458482Y-86289904D01*
X188469900Y-86311618D01*
X188479135Y-86334348D01*
X188486098Y-86357873D01*
X188490722Y-86381967D01*
X188492961Y-86406398D01*
X188492795Y-86430931D01*
X188490225Y-86455330D01*
X188485277Y-86479359D01*
X188477996Y-86502788D01*
X188468454Y-86525390D01*
X188456743Y-86546948D01*
X188442975Y-86567255D01*
X188427283Y-86586114D01*
X188409819Y-86603344D01*
X187738889Y-87203225D01*
X187719819Y-87218661D01*
X187699328Y-87232153D01*
X187677614Y-87243571D01*
X187654884Y-87252806D01*
X187631359Y-87259769D01*
X187607265Y-87264393D01*
X187582834Y-87266632D01*
X187558301Y-87266466D01*
X187533902Y-87263896D01*
X187509873Y-87258947D01*
X187486444Y-87251667D01*
X187463842Y-87242125D01*
X187442284Y-87230414D01*
X187421977Y-87216646D01*
X187403118Y-87200954D01*
X187385888Y-87183490D01*
X186952640Y-86698929D01*
X186937204Y-86679859D01*
X186923712Y-86659368D01*
X186912294Y-86637654D01*
X186903059Y-86614924D01*
X186896096Y-86591399D01*
X186891472Y-86567305D01*
X186889233Y-86542874D01*
X186889399Y-86518341D01*
X186891969Y-86493942D01*
X186896917Y-86469913D01*
X186904198Y-86446484D01*
X186913740Y-86423882D01*
X186925451Y-86402324D01*
X186939219Y-86382017D01*
X186954911Y-86363158D01*
X186972375Y-86345928D01*
X187643305Y-85746047D01*
X187662375Y-85730611D01*
X187682866Y-85717119D01*
X187704580Y-85705701D01*
X187727310Y-85696466D01*
X187750835Y-85689503D01*
X187774929Y-85684879D01*
X187799360Y-85682640D01*
X187823893Y-85682806D01*
X187823893Y-85682806D01*
G37*
D14*
X187691097Y-86474636D03*
D13*
G36*
X82878885Y-70469615D02*
G01*
X82902979Y-70474239D01*
X82926504Y-70481202D01*
X82949234Y-70490437D01*
X82970948Y-70501855D01*
X82991439Y-70515347D01*
X83010509Y-70530783D01*
X83681439Y-71130664D01*
X83698903Y-71147894D01*
X83714595Y-71166753D01*
X83728363Y-71187060D01*
X83740074Y-71208618D01*
X83749616Y-71231220D01*
X83756896Y-71254649D01*
X83761845Y-71278678D01*
X83764415Y-71303077D01*
X83764581Y-71327610D01*
X83762342Y-71352041D01*
X83757718Y-71376135D01*
X83750755Y-71399660D01*
X83741520Y-71422390D01*
X83730102Y-71444104D01*
X83716610Y-71464595D01*
X83701174Y-71483665D01*
X83267926Y-71968226D01*
X83250696Y-71985690D01*
X83231837Y-72001382D01*
X83211530Y-72015150D01*
X83189972Y-72026861D01*
X83167370Y-72036403D01*
X83143941Y-72043684D01*
X83119912Y-72048632D01*
X83095513Y-72051202D01*
X83070980Y-72051368D01*
X83046549Y-72049129D01*
X83022455Y-72044505D01*
X82998930Y-72037542D01*
X82976200Y-72028307D01*
X82954486Y-72016889D01*
X82933995Y-72003397D01*
X82914925Y-71987961D01*
X82243995Y-71388080D01*
X82226531Y-71370850D01*
X82210839Y-71351991D01*
X82197071Y-71331684D01*
X82185360Y-71310126D01*
X82175818Y-71287524D01*
X82168538Y-71264095D01*
X82163589Y-71240066D01*
X82161019Y-71215667D01*
X82160853Y-71191134D01*
X82163092Y-71166703D01*
X82167716Y-71142609D01*
X82174679Y-71119084D01*
X82183914Y-71096354D01*
X82195332Y-71074640D01*
X82208824Y-71054149D01*
X82224260Y-71035079D01*
X82657508Y-70550518D01*
X82674738Y-70533054D01*
X82693597Y-70517362D01*
X82713904Y-70503594D01*
X82735462Y-70491883D01*
X82758064Y-70482341D01*
X82781493Y-70475060D01*
X82805522Y-70470112D01*
X82829921Y-70467542D01*
X82854454Y-70467376D01*
X82878885Y-70469615D01*
X82878885Y-70469615D01*
G37*
D14*
X82962717Y-71259372D03*
D13*
G36*
X84245277Y-68941389D02*
G01*
X84269371Y-68946013D01*
X84292896Y-68952976D01*
X84315626Y-68962211D01*
X84337340Y-68973629D01*
X84357831Y-68987121D01*
X84376901Y-69002557D01*
X85047831Y-69602438D01*
X85065295Y-69619668D01*
X85080987Y-69638527D01*
X85094755Y-69658834D01*
X85106466Y-69680392D01*
X85116008Y-69702994D01*
X85123288Y-69726423D01*
X85128237Y-69750452D01*
X85130807Y-69774851D01*
X85130973Y-69799384D01*
X85128734Y-69823815D01*
X85124110Y-69847909D01*
X85117147Y-69871434D01*
X85107912Y-69894164D01*
X85096494Y-69915878D01*
X85083002Y-69936369D01*
X85067566Y-69955439D01*
X84634318Y-70440000D01*
X84617088Y-70457464D01*
X84598229Y-70473156D01*
X84577922Y-70486924D01*
X84556364Y-70498635D01*
X84533762Y-70508177D01*
X84510333Y-70515458D01*
X84486304Y-70520406D01*
X84461905Y-70522976D01*
X84437372Y-70523142D01*
X84412941Y-70520903D01*
X84388847Y-70516279D01*
X84365322Y-70509316D01*
X84342592Y-70500081D01*
X84320878Y-70488663D01*
X84300387Y-70475171D01*
X84281317Y-70459735D01*
X83610387Y-69859854D01*
X83592923Y-69842624D01*
X83577231Y-69823765D01*
X83563463Y-69803458D01*
X83551752Y-69781900D01*
X83542210Y-69759298D01*
X83534930Y-69735869D01*
X83529981Y-69711840D01*
X83527411Y-69687441D01*
X83527245Y-69662908D01*
X83529484Y-69638477D01*
X83534108Y-69614383D01*
X83541071Y-69590858D01*
X83550306Y-69568128D01*
X83561724Y-69546414D01*
X83575216Y-69525923D01*
X83590652Y-69506853D01*
X84023900Y-69022292D01*
X84041130Y-69004828D01*
X84059989Y-68989136D01*
X84080296Y-68975368D01*
X84101854Y-68963657D01*
X84124456Y-68954115D01*
X84147885Y-68946834D01*
X84171914Y-68941886D01*
X84196313Y-68939316D01*
X84220846Y-68939150D01*
X84245277Y-68941389D01*
X84245277Y-68941389D01*
G37*
D14*
X84329109Y-69731146D03*
D13*
G36*
X103032792Y-92615576D02*
G01*
X103056886Y-92620200D01*
X103080411Y-92627163D01*
X103103141Y-92636398D01*
X103124855Y-92647816D01*
X103145346Y-92661308D01*
X103164416Y-92676744D01*
X103648977Y-93109992D01*
X103666441Y-93127222D01*
X103682133Y-93146081D01*
X103695901Y-93166388D01*
X103707612Y-93187946D01*
X103717154Y-93210548D01*
X103724435Y-93233977D01*
X103729383Y-93258006D01*
X103731953Y-93282405D01*
X103732119Y-93306938D01*
X103729880Y-93331369D01*
X103725256Y-93355463D01*
X103718293Y-93378988D01*
X103709058Y-93401718D01*
X103697640Y-93423432D01*
X103684148Y-93443923D01*
X103668712Y-93462993D01*
X103068831Y-94133923D01*
X103051601Y-94151387D01*
X103032742Y-94167079D01*
X103012435Y-94180847D01*
X102990877Y-94192558D01*
X102968275Y-94202100D01*
X102944846Y-94209380D01*
X102920817Y-94214329D01*
X102896418Y-94216899D01*
X102871885Y-94217065D01*
X102847454Y-94214826D01*
X102823360Y-94210202D01*
X102799835Y-94203239D01*
X102777105Y-94194004D01*
X102755391Y-94182586D01*
X102734900Y-94169094D01*
X102715830Y-94153658D01*
X102231269Y-93720410D01*
X102213805Y-93703180D01*
X102198113Y-93684321D01*
X102184345Y-93664014D01*
X102172634Y-93642456D01*
X102163092Y-93619854D01*
X102155811Y-93596425D01*
X102150863Y-93572396D01*
X102148293Y-93547997D01*
X102148127Y-93523464D01*
X102150366Y-93499033D01*
X102154990Y-93474939D01*
X102161953Y-93451414D01*
X102171188Y-93428684D01*
X102182606Y-93406970D01*
X102196098Y-93386479D01*
X102211534Y-93367409D01*
X102811415Y-92696479D01*
X102828645Y-92679015D01*
X102847504Y-92663323D01*
X102867811Y-92649555D01*
X102889369Y-92637844D01*
X102911971Y-92628302D01*
X102935400Y-92621022D01*
X102959429Y-92616073D01*
X102983828Y-92613503D01*
X103008361Y-92613337D01*
X103032792Y-92615576D01*
X103032792Y-92615576D01*
G37*
D14*
X102940123Y-93415201D03*
D13*
G36*
X104561018Y-93981968D02*
G01*
X104585112Y-93986592D01*
X104608637Y-93993555D01*
X104631367Y-94002790D01*
X104653081Y-94014208D01*
X104673572Y-94027700D01*
X104692642Y-94043136D01*
X105177203Y-94476384D01*
X105194667Y-94493614D01*
X105210359Y-94512473D01*
X105224127Y-94532780D01*
X105235838Y-94554338D01*
X105245380Y-94576940D01*
X105252661Y-94600369D01*
X105257609Y-94624398D01*
X105260179Y-94648797D01*
X105260345Y-94673330D01*
X105258106Y-94697761D01*
X105253482Y-94721855D01*
X105246519Y-94745380D01*
X105237284Y-94768110D01*
X105225866Y-94789824D01*
X105212374Y-94810315D01*
X105196938Y-94829385D01*
X104597057Y-95500315D01*
X104579827Y-95517779D01*
X104560968Y-95533471D01*
X104540661Y-95547239D01*
X104519103Y-95558950D01*
X104496501Y-95568492D01*
X104473072Y-95575772D01*
X104449043Y-95580721D01*
X104424644Y-95583291D01*
X104400111Y-95583457D01*
X104375680Y-95581218D01*
X104351586Y-95576594D01*
X104328061Y-95569631D01*
X104305331Y-95560396D01*
X104283617Y-95548978D01*
X104263126Y-95535486D01*
X104244056Y-95520050D01*
X103759495Y-95086802D01*
X103742031Y-95069572D01*
X103726339Y-95050713D01*
X103712571Y-95030406D01*
X103700860Y-95008848D01*
X103691318Y-94986246D01*
X103684037Y-94962817D01*
X103679089Y-94938788D01*
X103676519Y-94914389D01*
X103676353Y-94889856D01*
X103678592Y-94865425D01*
X103683216Y-94841331D01*
X103690179Y-94817806D01*
X103699414Y-94795076D01*
X103710832Y-94773362D01*
X103724324Y-94752871D01*
X103739760Y-94733801D01*
X104339641Y-94062871D01*
X104356871Y-94045407D01*
X104375730Y-94029715D01*
X104396037Y-94015947D01*
X104417595Y-94004236D01*
X104440197Y-93994694D01*
X104463626Y-93987414D01*
X104487655Y-93982465D01*
X104512054Y-93979895D01*
X104536587Y-93979729D01*
X104561018Y-93981968D01*
X104561018Y-93981968D01*
G37*
D14*
X104468349Y-94781593D03*
D13*
G36*
X191538762Y-89237540D02*
G01*
X191563161Y-89240110D01*
X191587190Y-89245058D01*
X191610619Y-89252339D01*
X191633221Y-89261881D01*
X191654779Y-89273592D01*
X191675086Y-89287360D01*
X191693945Y-89303052D01*
X191711175Y-89320516D01*
X192311056Y-89991446D01*
X192326492Y-90010516D01*
X192339984Y-90031007D01*
X192351402Y-90052721D01*
X192360637Y-90075451D01*
X192367600Y-90098976D01*
X192372224Y-90123070D01*
X192374463Y-90147501D01*
X192374297Y-90172034D01*
X192371727Y-90196433D01*
X192366778Y-90220462D01*
X192359498Y-90243891D01*
X192349956Y-90266493D01*
X192338245Y-90288051D01*
X192324477Y-90308358D01*
X192308785Y-90327217D01*
X192291321Y-90344447D01*
X191806760Y-90777695D01*
X191787690Y-90793131D01*
X191767199Y-90806623D01*
X191745485Y-90818041D01*
X191722755Y-90827276D01*
X191699230Y-90834239D01*
X191675136Y-90838863D01*
X191650705Y-90841102D01*
X191626172Y-90840936D01*
X191601773Y-90838366D01*
X191577744Y-90833418D01*
X191554315Y-90826137D01*
X191531713Y-90816595D01*
X191510155Y-90804884D01*
X191489848Y-90791116D01*
X191470989Y-90775424D01*
X191453759Y-90757960D01*
X190853878Y-90087030D01*
X190838442Y-90067960D01*
X190824950Y-90047469D01*
X190813532Y-90025755D01*
X190804297Y-90003025D01*
X190797334Y-89979500D01*
X190792710Y-89955406D01*
X190790471Y-89930975D01*
X190790637Y-89906442D01*
X190793207Y-89882043D01*
X190798156Y-89858014D01*
X190805436Y-89834585D01*
X190814978Y-89811983D01*
X190826689Y-89790425D01*
X190840457Y-89770118D01*
X190856149Y-89751259D01*
X190873613Y-89734029D01*
X191358174Y-89300781D01*
X191377244Y-89285345D01*
X191397735Y-89271853D01*
X191419449Y-89260435D01*
X191442179Y-89251200D01*
X191465704Y-89244237D01*
X191489798Y-89239613D01*
X191514229Y-89237374D01*
X191538762Y-89237540D01*
X191538762Y-89237540D01*
G37*
D14*
X191582467Y-90039238D03*
D13*
G36*
X193066988Y-87871148D02*
G01*
X193091387Y-87873718D01*
X193115416Y-87878666D01*
X193138845Y-87885947D01*
X193161447Y-87895489D01*
X193183005Y-87907200D01*
X193203312Y-87920968D01*
X193222171Y-87936660D01*
X193239401Y-87954124D01*
X193839282Y-88625054D01*
X193854718Y-88644124D01*
X193868210Y-88664615D01*
X193879628Y-88686329D01*
X193888863Y-88709059D01*
X193895826Y-88732584D01*
X193900450Y-88756678D01*
X193902689Y-88781109D01*
X193902523Y-88805642D01*
X193899953Y-88830041D01*
X193895004Y-88854070D01*
X193887724Y-88877499D01*
X193878182Y-88900101D01*
X193866471Y-88921659D01*
X193852703Y-88941966D01*
X193837011Y-88960825D01*
X193819547Y-88978055D01*
X193334986Y-89411303D01*
X193315916Y-89426739D01*
X193295425Y-89440231D01*
X193273711Y-89451649D01*
X193250981Y-89460884D01*
X193227456Y-89467847D01*
X193203362Y-89472471D01*
X193178931Y-89474710D01*
X193154398Y-89474544D01*
X193129999Y-89471974D01*
X193105970Y-89467026D01*
X193082541Y-89459745D01*
X193059939Y-89450203D01*
X193038381Y-89438492D01*
X193018074Y-89424724D01*
X192999215Y-89409032D01*
X192981985Y-89391568D01*
X192382104Y-88720638D01*
X192366668Y-88701568D01*
X192353176Y-88681077D01*
X192341758Y-88659363D01*
X192332523Y-88636633D01*
X192325560Y-88613108D01*
X192320936Y-88589014D01*
X192318697Y-88564583D01*
X192318863Y-88540050D01*
X192321433Y-88515651D01*
X192326382Y-88491622D01*
X192333662Y-88468193D01*
X192343204Y-88445591D01*
X192354915Y-88424033D01*
X192368683Y-88403726D01*
X192384375Y-88384867D01*
X192401839Y-88367637D01*
X192886400Y-87934389D01*
X192905470Y-87918953D01*
X192925961Y-87905461D01*
X192947675Y-87894043D01*
X192970405Y-87884808D01*
X192993930Y-87877845D01*
X193018024Y-87873221D01*
X193042455Y-87870982D01*
X193066988Y-87871148D01*
X193066988Y-87871148D01*
G37*
D14*
X193110693Y-88672846D03*
D13*
G36*
X81313158Y-73195982D02*
G01*
X81337252Y-73200606D01*
X81360777Y-73207569D01*
X81383507Y-73216804D01*
X81405221Y-73228222D01*
X81425712Y-73241714D01*
X81444782Y-73257150D01*
X81929343Y-73690398D01*
X81946807Y-73707628D01*
X81962499Y-73726487D01*
X81976267Y-73746794D01*
X81987978Y-73768352D01*
X81997520Y-73790954D01*
X82004801Y-73814383D01*
X82009749Y-73838412D01*
X82012319Y-73862811D01*
X82012485Y-73887344D01*
X82010246Y-73911775D01*
X82005622Y-73935869D01*
X81998659Y-73959394D01*
X81989424Y-73982124D01*
X81978006Y-74003838D01*
X81964514Y-74024329D01*
X81949078Y-74043399D01*
X81349197Y-74714329D01*
X81331967Y-74731793D01*
X81313108Y-74747485D01*
X81292801Y-74761253D01*
X81271243Y-74772964D01*
X81248641Y-74782506D01*
X81225212Y-74789786D01*
X81201183Y-74794735D01*
X81176784Y-74797305D01*
X81152251Y-74797471D01*
X81127820Y-74795232D01*
X81103726Y-74790608D01*
X81080201Y-74783645D01*
X81057471Y-74774410D01*
X81035757Y-74762992D01*
X81015266Y-74749500D01*
X80996196Y-74734064D01*
X80511635Y-74300816D01*
X80494171Y-74283586D01*
X80478479Y-74264727D01*
X80464711Y-74244420D01*
X80453000Y-74222862D01*
X80443458Y-74200260D01*
X80436177Y-74176831D01*
X80431229Y-74152802D01*
X80428659Y-74128403D01*
X80428493Y-74103870D01*
X80430732Y-74079439D01*
X80435356Y-74055345D01*
X80442319Y-74031820D01*
X80451554Y-74009090D01*
X80462972Y-73987376D01*
X80476464Y-73966885D01*
X80491900Y-73947815D01*
X81091781Y-73276885D01*
X81109011Y-73259421D01*
X81127870Y-73243729D01*
X81148177Y-73229961D01*
X81169735Y-73218250D01*
X81192337Y-73208708D01*
X81215766Y-73201428D01*
X81239795Y-73196479D01*
X81264194Y-73193909D01*
X81288727Y-73193743D01*
X81313158Y-73195982D01*
X81313158Y-73195982D01*
G37*
D14*
X81220489Y-73995607D03*
D13*
G36*
X82841384Y-74562374D02*
G01*
X82865478Y-74566998D01*
X82889003Y-74573961D01*
X82911733Y-74583196D01*
X82933447Y-74594614D01*
X82953938Y-74608106D01*
X82973008Y-74623542D01*
X83457569Y-75056790D01*
X83475033Y-75074020D01*
X83490725Y-75092879D01*
X83504493Y-75113186D01*
X83516204Y-75134744D01*
X83525746Y-75157346D01*
X83533027Y-75180775D01*
X83537975Y-75204804D01*
X83540545Y-75229203D01*
X83540711Y-75253736D01*
X83538472Y-75278167D01*
X83533848Y-75302261D01*
X83526885Y-75325786D01*
X83517650Y-75348516D01*
X83506232Y-75370230D01*
X83492740Y-75390721D01*
X83477304Y-75409791D01*
X82877423Y-76080721D01*
X82860193Y-76098185D01*
X82841334Y-76113877D01*
X82821027Y-76127645D01*
X82799469Y-76139356D01*
X82776867Y-76148898D01*
X82753438Y-76156178D01*
X82729409Y-76161127D01*
X82705010Y-76163697D01*
X82680477Y-76163863D01*
X82656046Y-76161624D01*
X82631952Y-76157000D01*
X82608427Y-76150037D01*
X82585697Y-76140802D01*
X82563983Y-76129384D01*
X82543492Y-76115892D01*
X82524422Y-76100456D01*
X82039861Y-75667208D01*
X82022397Y-75649978D01*
X82006705Y-75631119D01*
X81992937Y-75610812D01*
X81981226Y-75589254D01*
X81971684Y-75566652D01*
X81964403Y-75543223D01*
X81959455Y-75519194D01*
X81956885Y-75494795D01*
X81956719Y-75470262D01*
X81958958Y-75445831D01*
X81963582Y-75421737D01*
X81970545Y-75398212D01*
X81979780Y-75375482D01*
X81991198Y-75353768D01*
X82004690Y-75333277D01*
X82020126Y-75314207D01*
X82620007Y-74643277D01*
X82637237Y-74625813D01*
X82656096Y-74610121D01*
X82676403Y-74596353D01*
X82697961Y-74584642D01*
X82720563Y-74575100D01*
X82743992Y-74567820D01*
X82768021Y-74562871D01*
X82792420Y-74560301D01*
X82816953Y-74560135D01*
X82841384Y-74562374D01*
X82841384Y-74562374D01*
G37*
D14*
X82748715Y-75361999D03*
D13*
G36*
X112773050Y-95824530D02*
G01*
X112797144Y-95829154D01*
X112820669Y-95836117D01*
X112843399Y-95845352D01*
X112865113Y-95856770D01*
X112885604Y-95870262D01*
X112904674Y-95885698D01*
X113575604Y-96485579D01*
X113593068Y-96502809D01*
X113608760Y-96521668D01*
X113622528Y-96541975D01*
X113634239Y-96563533D01*
X113643781Y-96586135D01*
X113651061Y-96609564D01*
X113656010Y-96633593D01*
X113658580Y-96657992D01*
X113658746Y-96682525D01*
X113656507Y-96706956D01*
X113651883Y-96731050D01*
X113644920Y-96754575D01*
X113635685Y-96777305D01*
X113624267Y-96799019D01*
X113610775Y-96819510D01*
X113595339Y-96838580D01*
X113162091Y-97323141D01*
X113144861Y-97340605D01*
X113126002Y-97356297D01*
X113105695Y-97370065D01*
X113084137Y-97381776D01*
X113061535Y-97391318D01*
X113038106Y-97398599D01*
X113014077Y-97403547D01*
X112989678Y-97406117D01*
X112965145Y-97406283D01*
X112940714Y-97404044D01*
X112916620Y-97399420D01*
X112893095Y-97392457D01*
X112870365Y-97383222D01*
X112848651Y-97371804D01*
X112828160Y-97358312D01*
X112809090Y-97342876D01*
X112138160Y-96742995D01*
X112120696Y-96725765D01*
X112105004Y-96706906D01*
X112091236Y-96686599D01*
X112079525Y-96665041D01*
X112069983Y-96642439D01*
X112062703Y-96619010D01*
X112057754Y-96594981D01*
X112055184Y-96570582D01*
X112055018Y-96546049D01*
X112057257Y-96521618D01*
X112061881Y-96497524D01*
X112068844Y-96473999D01*
X112078079Y-96451269D01*
X112089497Y-96429555D01*
X112102989Y-96409064D01*
X112118425Y-96389994D01*
X112551673Y-95905433D01*
X112568903Y-95887969D01*
X112587762Y-95872277D01*
X112608069Y-95858509D01*
X112629627Y-95846798D01*
X112652229Y-95837256D01*
X112675658Y-95829975D01*
X112699687Y-95825027D01*
X112724086Y-95822457D01*
X112748619Y-95822291D01*
X112773050Y-95824530D01*
X112773050Y-95824530D01*
G37*
D14*
X112856882Y-96614287D03*
D13*
G36*
X114139442Y-94296304D02*
G01*
X114163536Y-94300928D01*
X114187061Y-94307891D01*
X114209791Y-94317126D01*
X114231505Y-94328544D01*
X114251996Y-94342036D01*
X114271066Y-94357472D01*
X114941996Y-94957353D01*
X114959460Y-94974583D01*
X114975152Y-94993442D01*
X114988920Y-95013749D01*
X115000631Y-95035307D01*
X115010173Y-95057909D01*
X115017453Y-95081338D01*
X115022402Y-95105367D01*
X115024972Y-95129766D01*
X115025138Y-95154299D01*
X115022899Y-95178730D01*
X115018275Y-95202824D01*
X115011312Y-95226349D01*
X115002077Y-95249079D01*
X114990659Y-95270793D01*
X114977167Y-95291284D01*
X114961731Y-95310354D01*
X114528483Y-95794915D01*
X114511253Y-95812379D01*
X114492394Y-95828071D01*
X114472087Y-95841839D01*
X114450529Y-95853550D01*
X114427927Y-95863092D01*
X114404498Y-95870373D01*
X114380469Y-95875321D01*
X114356070Y-95877891D01*
X114331537Y-95878057D01*
X114307106Y-95875818D01*
X114283012Y-95871194D01*
X114259487Y-95864231D01*
X114236757Y-95854996D01*
X114215043Y-95843578D01*
X114194552Y-95830086D01*
X114175482Y-95814650D01*
X113504552Y-95214769D01*
X113487088Y-95197539D01*
X113471396Y-95178680D01*
X113457628Y-95158373D01*
X113445917Y-95136815D01*
X113436375Y-95114213D01*
X113429095Y-95090784D01*
X113424146Y-95066755D01*
X113421576Y-95042356D01*
X113421410Y-95017823D01*
X113423649Y-94993392D01*
X113428273Y-94969298D01*
X113435236Y-94945773D01*
X113444471Y-94923043D01*
X113455889Y-94901329D01*
X113469381Y-94880838D01*
X113484817Y-94861768D01*
X113918065Y-94377207D01*
X113935295Y-94359743D01*
X113954154Y-94344051D01*
X113974461Y-94330283D01*
X113996019Y-94318572D01*
X114018621Y-94309030D01*
X114042050Y-94301749D01*
X114066079Y-94296801D01*
X114090478Y-94294231D01*
X114115011Y-94294065D01*
X114139442Y-94296304D01*
X114139442Y-94296304D01*
G37*
D14*
X114223274Y-95086061D03*
D13*
G36*
X195999822Y-79749050D02*
G01*
X196024221Y-79751620D01*
X196048250Y-79756569D01*
X196071679Y-79763849D01*
X196094281Y-79773391D01*
X196115839Y-79785102D01*
X196136146Y-79798870D01*
X196155005Y-79814562D01*
X196172235Y-79832026D01*
X196605483Y-80316587D01*
X196620919Y-80335657D01*
X196634411Y-80356148D01*
X196645829Y-80377862D01*
X196655064Y-80400592D01*
X196662027Y-80424117D01*
X196666651Y-80448211D01*
X196668890Y-80472642D01*
X196668724Y-80497175D01*
X196666154Y-80521574D01*
X196661206Y-80545603D01*
X196653925Y-80569032D01*
X196644383Y-80591634D01*
X196632672Y-80613192D01*
X196618904Y-80633499D01*
X196603212Y-80652358D01*
X196585748Y-80669588D01*
X195914818Y-81269469D01*
X195895748Y-81284905D01*
X195875257Y-81298397D01*
X195853543Y-81309815D01*
X195830813Y-81319050D01*
X195807288Y-81326013D01*
X195783194Y-81330637D01*
X195758763Y-81332876D01*
X195734230Y-81332710D01*
X195709831Y-81330140D01*
X195685802Y-81325191D01*
X195662373Y-81317911D01*
X195639771Y-81308369D01*
X195618213Y-81296658D01*
X195597906Y-81282890D01*
X195579047Y-81267198D01*
X195561817Y-81249734D01*
X195128569Y-80765173D01*
X195113133Y-80746103D01*
X195099641Y-80725612D01*
X195088223Y-80703898D01*
X195078988Y-80681168D01*
X195072025Y-80657643D01*
X195067401Y-80633549D01*
X195065162Y-80609118D01*
X195065328Y-80584585D01*
X195067898Y-80560186D01*
X195072846Y-80536157D01*
X195080127Y-80512728D01*
X195089669Y-80490126D01*
X195101380Y-80468568D01*
X195115148Y-80448261D01*
X195130840Y-80429402D01*
X195148304Y-80412172D01*
X195819234Y-79812291D01*
X195838304Y-79796855D01*
X195858795Y-79783363D01*
X195880509Y-79771945D01*
X195903239Y-79762710D01*
X195926764Y-79755747D01*
X195950858Y-79751123D01*
X195975289Y-79748884D01*
X195999822Y-79749050D01*
X195999822Y-79749050D01*
G37*
D14*
X195867026Y-80540880D03*
D13*
G36*
X194633430Y-78220824D02*
G01*
X194657829Y-78223394D01*
X194681858Y-78228343D01*
X194705287Y-78235623D01*
X194727889Y-78245165D01*
X194749447Y-78256876D01*
X194769754Y-78270644D01*
X194788613Y-78286336D01*
X194805843Y-78303800D01*
X195239091Y-78788361D01*
X195254527Y-78807431D01*
X195268019Y-78827922D01*
X195279437Y-78849636D01*
X195288672Y-78872366D01*
X195295635Y-78895891D01*
X195300259Y-78919985D01*
X195302498Y-78944416D01*
X195302332Y-78968949D01*
X195299762Y-78993348D01*
X195294814Y-79017377D01*
X195287533Y-79040806D01*
X195277991Y-79063408D01*
X195266280Y-79084966D01*
X195252512Y-79105273D01*
X195236820Y-79124132D01*
X195219356Y-79141362D01*
X194548426Y-79741243D01*
X194529356Y-79756679D01*
X194508865Y-79770171D01*
X194487151Y-79781589D01*
X194464421Y-79790824D01*
X194440896Y-79797787D01*
X194416802Y-79802411D01*
X194392371Y-79804650D01*
X194367838Y-79804484D01*
X194343439Y-79801914D01*
X194319410Y-79796965D01*
X194295981Y-79789685D01*
X194273379Y-79780143D01*
X194251821Y-79768432D01*
X194231514Y-79754664D01*
X194212655Y-79738972D01*
X194195425Y-79721508D01*
X193762177Y-79236947D01*
X193746741Y-79217877D01*
X193733249Y-79197386D01*
X193721831Y-79175672D01*
X193712596Y-79152942D01*
X193705633Y-79129417D01*
X193701009Y-79105323D01*
X193698770Y-79080892D01*
X193698936Y-79056359D01*
X193701506Y-79031960D01*
X193706454Y-79007931D01*
X193713735Y-78984502D01*
X193723277Y-78961900D01*
X193734988Y-78940342D01*
X193748756Y-78920035D01*
X193764448Y-78901176D01*
X193781912Y-78883946D01*
X194452842Y-78284065D01*
X194471912Y-78268629D01*
X194492403Y-78255137D01*
X194514117Y-78243719D01*
X194536847Y-78234484D01*
X194560372Y-78227521D01*
X194584466Y-78222897D01*
X194608897Y-78220658D01*
X194633430Y-78220824D01*
X194633430Y-78220824D01*
G37*
D14*
X194500634Y-79012654D03*
D13*
G36*
X91053416Y-76404936D02*
G01*
X91077510Y-76409560D01*
X91101035Y-76416523D01*
X91123765Y-76425758D01*
X91145479Y-76437176D01*
X91165970Y-76450668D01*
X91185040Y-76466104D01*
X91855970Y-77065985D01*
X91873434Y-77083215D01*
X91889126Y-77102074D01*
X91902894Y-77122381D01*
X91914605Y-77143939D01*
X91924147Y-77166541D01*
X91931427Y-77189970D01*
X91936376Y-77213999D01*
X91938946Y-77238398D01*
X91939112Y-77262931D01*
X91936873Y-77287362D01*
X91932249Y-77311456D01*
X91925286Y-77334981D01*
X91916051Y-77357711D01*
X91904633Y-77379425D01*
X91891141Y-77399916D01*
X91875705Y-77418986D01*
X91442457Y-77903547D01*
X91425227Y-77921011D01*
X91406368Y-77936703D01*
X91386061Y-77950471D01*
X91364503Y-77962182D01*
X91341901Y-77971724D01*
X91318472Y-77979005D01*
X91294443Y-77983953D01*
X91270044Y-77986523D01*
X91245511Y-77986689D01*
X91221080Y-77984450D01*
X91196986Y-77979826D01*
X91173461Y-77972863D01*
X91150731Y-77963628D01*
X91129017Y-77952210D01*
X91108526Y-77938718D01*
X91089456Y-77923282D01*
X90418526Y-77323401D01*
X90401062Y-77306171D01*
X90385370Y-77287312D01*
X90371602Y-77267005D01*
X90359891Y-77245447D01*
X90350349Y-77222845D01*
X90343069Y-77199416D01*
X90338120Y-77175387D01*
X90335550Y-77150988D01*
X90335384Y-77126455D01*
X90337623Y-77102024D01*
X90342247Y-77077930D01*
X90349210Y-77054405D01*
X90358445Y-77031675D01*
X90369863Y-77009961D01*
X90383355Y-76989470D01*
X90398791Y-76970400D01*
X90832039Y-76485839D01*
X90849269Y-76468375D01*
X90868128Y-76452683D01*
X90888435Y-76438915D01*
X90909993Y-76427204D01*
X90932595Y-76417662D01*
X90956024Y-76410381D01*
X90980053Y-76405433D01*
X91004452Y-76402863D01*
X91028985Y-76402697D01*
X91053416Y-76404936D01*
X91053416Y-76404936D01*
G37*
D14*
X91137248Y-77194693D03*
D13*
G36*
X92419808Y-74876710D02*
G01*
X92443902Y-74881334D01*
X92467427Y-74888297D01*
X92490157Y-74897532D01*
X92511871Y-74908950D01*
X92532362Y-74922442D01*
X92551432Y-74937878D01*
X93222362Y-75537759D01*
X93239826Y-75554989D01*
X93255518Y-75573848D01*
X93269286Y-75594155D01*
X93280997Y-75615713D01*
X93290539Y-75638315D01*
X93297819Y-75661744D01*
X93302768Y-75685773D01*
X93305338Y-75710172D01*
X93305504Y-75734705D01*
X93303265Y-75759136D01*
X93298641Y-75783230D01*
X93291678Y-75806755D01*
X93282443Y-75829485D01*
X93271025Y-75851199D01*
X93257533Y-75871690D01*
X93242097Y-75890760D01*
X92808849Y-76375321D01*
X92791619Y-76392785D01*
X92772760Y-76408477D01*
X92752453Y-76422245D01*
X92730895Y-76433956D01*
X92708293Y-76443498D01*
X92684864Y-76450779D01*
X92660835Y-76455727D01*
X92636436Y-76458297D01*
X92611903Y-76458463D01*
X92587472Y-76456224D01*
X92563378Y-76451600D01*
X92539853Y-76444637D01*
X92517123Y-76435402D01*
X92495409Y-76423984D01*
X92474918Y-76410492D01*
X92455848Y-76395056D01*
X91784918Y-75795175D01*
X91767454Y-75777945D01*
X91751762Y-75759086D01*
X91737994Y-75738779D01*
X91726283Y-75717221D01*
X91716741Y-75694619D01*
X91709461Y-75671190D01*
X91704512Y-75647161D01*
X91701942Y-75622762D01*
X91701776Y-75598229D01*
X91704015Y-75573798D01*
X91708639Y-75549704D01*
X91715602Y-75526179D01*
X91724837Y-75503449D01*
X91736255Y-75481735D01*
X91749747Y-75461244D01*
X91765183Y-75442174D01*
X92198431Y-74957613D01*
X92215661Y-74940149D01*
X92234520Y-74924457D01*
X92254827Y-74910689D01*
X92276385Y-74898978D01*
X92298987Y-74889436D01*
X92322416Y-74882155D01*
X92346445Y-74877207D01*
X92370844Y-74874637D01*
X92395377Y-74874471D01*
X92419808Y-74876710D01*
X92419808Y-74876710D01*
G37*
D14*
X92503640Y-75666467D03*
D13*
G36*
X178483949Y-96783602D02*
G01*
X178508348Y-96786172D01*
X178532377Y-96791121D01*
X178555806Y-96798401D01*
X178578408Y-96807943D01*
X178599966Y-96819654D01*
X178620273Y-96833422D01*
X178639132Y-96849114D01*
X178656362Y-96866578D01*
X179089610Y-97351139D01*
X179105046Y-97370209D01*
X179118538Y-97390700D01*
X179129956Y-97412414D01*
X179139191Y-97435144D01*
X179146154Y-97458669D01*
X179150778Y-97482763D01*
X179153017Y-97507194D01*
X179152851Y-97531727D01*
X179150281Y-97556126D01*
X179145333Y-97580155D01*
X179138052Y-97603584D01*
X179128510Y-97626186D01*
X179116799Y-97647744D01*
X179103031Y-97668051D01*
X179087339Y-97686910D01*
X179069875Y-97704140D01*
X178398945Y-98304021D01*
X178379875Y-98319457D01*
X178359384Y-98332949D01*
X178337670Y-98344367D01*
X178314940Y-98353602D01*
X178291415Y-98360565D01*
X178267321Y-98365189D01*
X178242890Y-98367428D01*
X178218357Y-98367262D01*
X178193958Y-98364692D01*
X178169929Y-98359743D01*
X178146500Y-98352463D01*
X178123898Y-98342921D01*
X178102340Y-98331210D01*
X178082033Y-98317442D01*
X178063174Y-98301750D01*
X178045944Y-98284286D01*
X177612696Y-97799725D01*
X177597260Y-97780655D01*
X177583768Y-97760164D01*
X177572350Y-97738450D01*
X177563115Y-97715720D01*
X177556152Y-97692195D01*
X177551528Y-97668101D01*
X177549289Y-97643670D01*
X177549455Y-97619137D01*
X177552025Y-97594738D01*
X177556973Y-97570709D01*
X177564254Y-97547280D01*
X177573796Y-97524678D01*
X177585507Y-97503120D01*
X177599275Y-97482813D01*
X177614967Y-97463954D01*
X177632431Y-97446724D01*
X178303361Y-96846843D01*
X178322431Y-96831407D01*
X178342922Y-96817915D01*
X178364636Y-96806497D01*
X178387366Y-96797262D01*
X178410891Y-96790299D01*
X178434985Y-96785675D01*
X178459416Y-96783436D01*
X178483949Y-96783602D01*
X178483949Y-96783602D01*
G37*
D14*
X178351153Y-97575432D03*
D13*
G36*
X177117557Y-95255376D02*
G01*
X177141956Y-95257946D01*
X177165985Y-95262895D01*
X177189414Y-95270175D01*
X177212016Y-95279717D01*
X177233574Y-95291428D01*
X177253881Y-95305196D01*
X177272740Y-95320888D01*
X177289970Y-95338352D01*
X177723218Y-95822913D01*
X177738654Y-95841983D01*
X177752146Y-95862474D01*
X177763564Y-95884188D01*
X177772799Y-95906918D01*
X177779762Y-95930443D01*
X177784386Y-95954537D01*
X177786625Y-95978968D01*
X177786459Y-96003501D01*
X177783889Y-96027900D01*
X177778941Y-96051929D01*
X177771660Y-96075358D01*
X177762118Y-96097960D01*
X177750407Y-96119518D01*
X177736639Y-96139825D01*
X177720947Y-96158684D01*
X177703483Y-96175914D01*
X177032553Y-96775795D01*
X177013483Y-96791231D01*
X176992992Y-96804723D01*
X176971278Y-96816141D01*
X176948548Y-96825376D01*
X176925023Y-96832339D01*
X176900929Y-96836963D01*
X176876498Y-96839202D01*
X176851965Y-96839036D01*
X176827566Y-96836466D01*
X176803537Y-96831517D01*
X176780108Y-96824237D01*
X176757506Y-96814695D01*
X176735948Y-96802984D01*
X176715641Y-96789216D01*
X176696782Y-96773524D01*
X176679552Y-96756060D01*
X176246304Y-96271499D01*
X176230868Y-96252429D01*
X176217376Y-96231938D01*
X176205958Y-96210224D01*
X176196723Y-96187494D01*
X176189760Y-96163969D01*
X176185136Y-96139875D01*
X176182897Y-96115444D01*
X176183063Y-96090911D01*
X176185633Y-96066512D01*
X176190581Y-96042483D01*
X176197862Y-96019054D01*
X176207404Y-95996452D01*
X176219115Y-95974894D01*
X176232883Y-95954587D01*
X176248575Y-95935728D01*
X176266039Y-95918498D01*
X176936969Y-95318617D01*
X176956039Y-95303181D01*
X176976530Y-95289689D01*
X176998244Y-95278271D01*
X177020974Y-95269036D01*
X177044499Y-95262073D01*
X177068593Y-95257449D01*
X177093024Y-95255210D01*
X177117557Y-95255376D01*
X177117557Y-95255376D01*
G37*
D14*
X176984761Y-96047206D03*
D13*
G36*
X199967687Y-77574923D02*
G01*
X199992086Y-77577493D01*
X200016115Y-77582442D01*
X200039544Y-77589722D01*
X200062146Y-77599264D01*
X200083704Y-77610975D01*
X200104011Y-77624743D01*
X200122870Y-77640435D01*
X200140100Y-77657899D01*
X200573348Y-78142460D01*
X200588784Y-78161530D01*
X200602276Y-78182021D01*
X200613694Y-78203735D01*
X200622929Y-78226465D01*
X200629892Y-78249990D01*
X200634516Y-78274084D01*
X200636755Y-78298515D01*
X200636589Y-78323048D01*
X200634019Y-78347447D01*
X200629071Y-78371476D01*
X200621790Y-78394905D01*
X200612248Y-78417507D01*
X200600537Y-78439065D01*
X200586769Y-78459372D01*
X200571077Y-78478231D01*
X200553613Y-78495461D01*
X199882683Y-79095342D01*
X199863613Y-79110778D01*
X199843122Y-79124270D01*
X199821408Y-79135688D01*
X199798678Y-79144923D01*
X199775153Y-79151886D01*
X199751059Y-79156510D01*
X199726628Y-79158749D01*
X199702095Y-79158583D01*
X199677696Y-79156013D01*
X199653667Y-79151064D01*
X199630238Y-79143784D01*
X199607636Y-79134242D01*
X199586078Y-79122531D01*
X199565771Y-79108763D01*
X199546912Y-79093071D01*
X199529682Y-79075607D01*
X199096434Y-78591046D01*
X199080998Y-78571976D01*
X199067506Y-78551485D01*
X199056088Y-78529771D01*
X199046853Y-78507041D01*
X199039890Y-78483516D01*
X199035266Y-78459422D01*
X199033027Y-78434991D01*
X199033193Y-78410458D01*
X199035763Y-78386059D01*
X199040711Y-78362030D01*
X199047992Y-78338601D01*
X199057534Y-78315999D01*
X199069245Y-78294441D01*
X199083013Y-78274134D01*
X199098705Y-78255275D01*
X199116169Y-78238045D01*
X199787099Y-77638164D01*
X199806169Y-77622728D01*
X199826660Y-77609236D01*
X199848374Y-77597818D01*
X199871104Y-77588583D01*
X199894629Y-77581620D01*
X199918723Y-77576996D01*
X199943154Y-77574757D01*
X199967687Y-77574923D01*
X199967687Y-77574923D01*
G37*
D14*
X199834891Y-78366753D03*
D13*
G36*
X198601295Y-76046697D02*
G01*
X198625694Y-76049267D01*
X198649723Y-76054216D01*
X198673152Y-76061496D01*
X198695754Y-76071038D01*
X198717312Y-76082749D01*
X198737619Y-76096517D01*
X198756478Y-76112209D01*
X198773708Y-76129673D01*
X199206956Y-76614234D01*
X199222392Y-76633304D01*
X199235884Y-76653795D01*
X199247302Y-76675509D01*
X199256537Y-76698239D01*
X199263500Y-76721764D01*
X199268124Y-76745858D01*
X199270363Y-76770289D01*
X199270197Y-76794822D01*
X199267627Y-76819221D01*
X199262679Y-76843250D01*
X199255398Y-76866679D01*
X199245856Y-76889281D01*
X199234145Y-76910839D01*
X199220377Y-76931146D01*
X199204685Y-76950005D01*
X199187221Y-76967235D01*
X198516291Y-77567116D01*
X198497221Y-77582552D01*
X198476730Y-77596044D01*
X198455016Y-77607462D01*
X198432286Y-77616697D01*
X198408761Y-77623660D01*
X198384667Y-77628284D01*
X198360236Y-77630523D01*
X198335703Y-77630357D01*
X198311304Y-77627787D01*
X198287275Y-77622838D01*
X198263846Y-77615558D01*
X198241244Y-77606016D01*
X198219686Y-77594305D01*
X198199379Y-77580537D01*
X198180520Y-77564845D01*
X198163290Y-77547381D01*
X197730042Y-77062820D01*
X197714606Y-77043750D01*
X197701114Y-77023259D01*
X197689696Y-77001545D01*
X197680461Y-76978815D01*
X197673498Y-76955290D01*
X197668874Y-76931196D01*
X197666635Y-76906765D01*
X197666801Y-76882232D01*
X197669371Y-76857833D01*
X197674319Y-76833804D01*
X197681600Y-76810375D01*
X197691142Y-76787773D01*
X197702853Y-76766215D01*
X197716621Y-76745908D01*
X197732313Y-76727049D01*
X197749777Y-76709819D01*
X198420707Y-76109938D01*
X198439777Y-76094502D01*
X198460268Y-76081010D01*
X198481982Y-76069592D01*
X198504712Y-76060357D01*
X198528237Y-76053394D01*
X198552331Y-76048770D01*
X198576762Y-76046531D01*
X198601295Y-76046697D01*
X198601295Y-76046697D01*
G37*
D14*
X198468499Y-76838527D03*
D13*
G36*
X93744535Y-80184627D02*
G01*
X93768629Y-80189251D01*
X93792154Y-80196214D01*
X93814884Y-80205449D01*
X93836598Y-80216867D01*
X93857089Y-80230359D01*
X93876159Y-80245795D01*
X94547089Y-80845676D01*
X94564553Y-80862906D01*
X94580245Y-80881765D01*
X94594013Y-80902072D01*
X94605724Y-80923630D01*
X94615266Y-80946232D01*
X94622546Y-80969661D01*
X94627495Y-80993690D01*
X94630065Y-81018089D01*
X94630231Y-81042622D01*
X94627992Y-81067053D01*
X94623368Y-81091147D01*
X94616405Y-81114672D01*
X94607170Y-81137402D01*
X94595752Y-81159116D01*
X94582260Y-81179607D01*
X94566824Y-81198677D01*
X94133576Y-81683238D01*
X94116346Y-81700702D01*
X94097487Y-81716394D01*
X94077180Y-81730162D01*
X94055622Y-81741873D01*
X94033020Y-81751415D01*
X94009591Y-81758696D01*
X93985562Y-81763644D01*
X93961163Y-81766214D01*
X93936630Y-81766380D01*
X93912199Y-81764141D01*
X93888105Y-81759517D01*
X93864580Y-81752554D01*
X93841850Y-81743319D01*
X93820136Y-81731901D01*
X93799645Y-81718409D01*
X93780575Y-81702973D01*
X93109645Y-81103092D01*
X93092181Y-81085862D01*
X93076489Y-81067003D01*
X93062721Y-81046696D01*
X93051010Y-81025138D01*
X93041468Y-81002536D01*
X93034188Y-80979107D01*
X93029239Y-80955078D01*
X93026669Y-80930679D01*
X93026503Y-80906146D01*
X93028742Y-80881715D01*
X93033366Y-80857621D01*
X93040329Y-80834096D01*
X93049564Y-80811366D01*
X93060982Y-80789652D01*
X93074474Y-80769161D01*
X93089910Y-80750091D01*
X93523158Y-80265530D01*
X93540388Y-80248066D01*
X93559247Y-80232374D01*
X93579554Y-80218606D01*
X93601112Y-80206895D01*
X93623714Y-80197353D01*
X93647143Y-80190072D01*
X93671172Y-80185124D01*
X93695571Y-80182554D01*
X93720104Y-80182388D01*
X93744535Y-80184627D01*
X93744535Y-80184627D01*
G37*
D14*
X93828367Y-80974384D03*
D13*
G36*
X95110927Y-78656401D02*
G01*
X95135021Y-78661025D01*
X95158546Y-78667988D01*
X95181276Y-78677223D01*
X95202990Y-78688641D01*
X95223481Y-78702133D01*
X95242551Y-78717569D01*
X95913481Y-79317450D01*
X95930945Y-79334680D01*
X95946637Y-79353539D01*
X95960405Y-79373846D01*
X95972116Y-79395404D01*
X95981658Y-79418006D01*
X95988938Y-79441435D01*
X95993887Y-79465464D01*
X95996457Y-79489863D01*
X95996623Y-79514396D01*
X95994384Y-79538827D01*
X95989760Y-79562921D01*
X95982797Y-79586446D01*
X95973562Y-79609176D01*
X95962144Y-79630890D01*
X95948652Y-79651381D01*
X95933216Y-79670451D01*
X95499968Y-80155012D01*
X95482738Y-80172476D01*
X95463879Y-80188168D01*
X95443572Y-80201936D01*
X95422014Y-80213647D01*
X95399412Y-80223189D01*
X95375983Y-80230470D01*
X95351954Y-80235418D01*
X95327555Y-80237988D01*
X95303022Y-80238154D01*
X95278591Y-80235915D01*
X95254497Y-80231291D01*
X95230972Y-80224328D01*
X95208242Y-80215093D01*
X95186528Y-80203675D01*
X95166037Y-80190183D01*
X95146967Y-80174747D01*
X94476037Y-79574866D01*
X94458573Y-79557636D01*
X94442881Y-79538777D01*
X94429113Y-79518470D01*
X94417402Y-79496912D01*
X94407860Y-79474310D01*
X94400580Y-79450881D01*
X94395631Y-79426852D01*
X94393061Y-79402453D01*
X94392895Y-79377920D01*
X94395134Y-79353489D01*
X94399758Y-79329395D01*
X94406721Y-79305870D01*
X94415956Y-79283140D01*
X94427374Y-79261426D01*
X94440866Y-79240935D01*
X94456302Y-79221865D01*
X94889550Y-78737304D01*
X94906780Y-78719840D01*
X94925639Y-78704148D01*
X94945946Y-78690380D01*
X94967504Y-78678669D01*
X94990106Y-78669127D01*
X95013535Y-78661846D01*
X95037564Y-78656898D01*
X95061963Y-78654328D01*
X95086496Y-78654162D01*
X95110927Y-78656401D01*
X95110927Y-78656401D01*
G37*
D14*
X95194759Y-79446158D03*
D13*
G36*
X180832426Y-98810110D02*
G01*
X180856825Y-98812680D01*
X180880854Y-98817628D01*
X180904283Y-98824909D01*
X180926885Y-98834451D01*
X180948443Y-98846162D01*
X180968750Y-98859930D01*
X180987609Y-98875622D01*
X181004839Y-98893086D01*
X181604720Y-99564016D01*
X181620156Y-99583086D01*
X181633648Y-99603577D01*
X181645066Y-99625291D01*
X181654301Y-99648021D01*
X181661264Y-99671546D01*
X181665888Y-99695640D01*
X181668127Y-99720071D01*
X181667961Y-99744604D01*
X181665391Y-99769003D01*
X181660442Y-99793032D01*
X181653162Y-99816461D01*
X181643620Y-99839063D01*
X181631909Y-99860621D01*
X181618141Y-99880928D01*
X181602449Y-99899787D01*
X181584985Y-99917017D01*
X181100424Y-100350265D01*
X181081354Y-100365701D01*
X181060863Y-100379193D01*
X181039149Y-100390611D01*
X181016419Y-100399846D01*
X180992894Y-100406809D01*
X180968800Y-100411433D01*
X180944369Y-100413672D01*
X180919836Y-100413506D01*
X180895437Y-100410936D01*
X180871408Y-100405988D01*
X180847979Y-100398707D01*
X180825377Y-100389165D01*
X180803819Y-100377454D01*
X180783512Y-100363686D01*
X180764653Y-100347994D01*
X180747423Y-100330530D01*
X180147542Y-99659600D01*
X180132106Y-99640530D01*
X180118614Y-99620039D01*
X180107196Y-99598325D01*
X180097961Y-99575595D01*
X180090998Y-99552070D01*
X180086374Y-99527976D01*
X180084135Y-99503545D01*
X180084301Y-99479012D01*
X180086871Y-99454613D01*
X180091820Y-99430584D01*
X180099100Y-99407155D01*
X180108642Y-99384553D01*
X180120353Y-99362995D01*
X180134121Y-99342688D01*
X180149813Y-99323829D01*
X180167277Y-99306599D01*
X180651838Y-98873351D01*
X180670908Y-98857915D01*
X180691399Y-98844423D01*
X180713113Y-98833005D01*
X180735843Y-98823770D01*
X180759368Y-98816807D01*
X180783462Y-98812183D01*
X180807893Y-98809944D01*
X180832426Y-98810110D01*
X180832426Y-98810110D01*
G37*
D14*
X180876131Y-99611808D03*
D13*
G36*
X182360652Y-97443718D02*
G01*
X182385051Y-97446288D01*
X182409080Y-97451236D01*
X182432509Y-97458517D01*
X182455111Y-97468059D01*
X182476669Y-97479770D01*
X182496976Y-97493538D01*
X182515835Y-97509230D01*
X182533065Y-97526694D01*
X183132946Y-98197624D01*
X183148382Y-98216694D01*
X183161874Y-98237185D01*
X183173292Y-98258899D01*
X183182527Y-98281629D01*
X183189490Y-98305154D01*
X183194114Y-98329248D01*
X183196353Y-98353679D01*
X183196187Y-98378212D01*
X183193617Y-98402611D01*
X183188668Y-98426640D01*
X183181388Y-98450069D01*
X183171846Y-98472671D01*
X183160135Y-98494229D01*
X183146367Y-98514536D01*
X183130675Y-98533395D01*
X183113211Y-98550625D01*
X182628650Y-98983873D01*
X182609580Y-98999309D01*
X182589089Y-99012801D01*
X182567375Y-99024219D01*
X182544645Y-99033454D01*
X182521120Y-99040417D01*
X182497026Y-99045041D01*
X182472595Y-99047280D01*
X182448062Y-99047114D01*
X182423663Y-99044544D01*
X182399634Y-99039596D01*
X182376205Y-99032315D01*
X182353603Y-99022773D01*
X182332045Y-99011062D01*
X182311738Y-98997294D01*
X182292879Y-98981602D01*
X182275649Y-98964138D01*
X181675768Y-98293208D01*
X181660332Y-98274138D01*
X181646840Y-98253647D01*
X181635422Y-98231933D01*
X181626187Y-98209203D01*
X181619224Y-98185678D01*
X181614600Y-98161584D01*
X181612361Y-98137153D01*
X181612527Y-98112620D01*
X181615097Y-98088221D01*
X181620046Y-98064192D01*
X181627326Y-98040763D01*
X181636868Y-98018161D01*
X181648579Y-97996603D01*
X181662347Y-97976296D01*
X181678039Y-97957437D01*
X181695503Y-97940207D01*
X182180064Y-97506959D01*
X182199134Y-97491523D01*
X182219625Y-97478031D01*
X182241339Y-97466613D01*
X182264069Y-97457378D01*
X182287594Y-97450415D01*
X182311688Y-97445791D01*
X182336119Y-97443552D01*
X182360652Y-97443718D01*
X182360652Y-97443718D01*
G37*
D14*
X182404357Y-98245416D03*
D13*
G36*
X202316163Y-79601431D02*
G01*
X202340562Y-79604001D01*
X202364591Y-79608949D01*
X202388020Y-79616230D01*
X202410622Y-79625772D01*
X202432180Y-79637483D01*
X202452487Y-79651251D01*
X202471346Y-79666943D01*
X202488576Y-79684407D01*
X203088457Y-80355337D01*
X203103893Y-80374407D01*
X203117385Y-80394898D01*
X203128803Y-80416612D01*
X203138038Y-80439342D01*
X203145001Y-80462867D01*
X203149625Y-80486961D01*
X203151864Y-80511392D01*
X203151698Y-80535925D01*
X203149128Y-80560324D01*
X203144179Y-80584353D01*
X203136899Y-80607782D01*
X203127357Y-80630384D01*
X203115646Y-80651942D01*
X203101878Y-80672249D01*
X203086186Y-80691108D01*
X203068722Y-80708338D01*
X202584161Y-81141586D01*
X202565091Y-81157022D01*
X202544600Y-81170514D01*
X202522886Y-81181932D01*
X202500156Y-81191167D01*
X202476631Y-81198130D01*
X202452537Y-81202754D01*
X202428106Y-81204993D01*
X202403573Y-81204827D01*
X202379174Y-81202257D01*
X202355145Y-81197309D01*
X202331716Y-81190028D01*
X202309114Y-81180486D01*
X202287556Y-81168775D01*
X202267249Y-81155007D01*
X202248390Y-81139315D01*
X202231160Y-81121851D01*
X201631279Y-80450921D01*
X201615843Y-80431851D01*
X201602351Y-80411360D01*
X201590933Y-80389646D01*
X201581698Y-80366916D01*
X201574735Y-80343391D01*
X201570111Y-80319297D01*
X201567872Y-80294866D01*
X201568038Y-80270333D01*
X201570608Y-80245934D01*
X201575557Y-80221905D01*
X201582837Y-80198476D01*
X201592379Y-80175874D01*
X201604090Y-80154316D01*
X201617858Y-80134009D01*
X201633550Y-80115150D01*
X201651014Y-80097920D01*
X202135575Y-79664672D01*
X202154645Y-79649236D01*
X202175136Y-79635744D01*
X202196850Y-79624326D01*
X202219580Y-79615091D01*
X202243105Y-79608128D01*
X202267199Y-79603504D01*
X202291630Y-79601265D01*
X202316163Y-79601431D01*
X202316163Y-79601431D01*
G37*
D14*
X202359868Y-80403129D03*
D13*
G36*
X203844389Y-78235039D02*
G01*
X203868788Y-78237609D01*
X203892817Y-78242557D01*
X203916246Y-78249838D01*
X203938848Y-78259380D01*
X203960406Y-78271091D01*
X203980713Y-78284859D01*
X203999572Y-78300551D01*
X204016802Y-78318015D01*
X204616683Y-78988945D01*
X204632119Y-79008015D01*
X204645611Y-79028506D01*
X204657029Y-79050220D01*
X204666264Y-79072950D01*
X204673227Y-79096475D01*
X204677851Y-79120569D01*
X204680090Y-79145000D01*
X204679924Y-79169533D01*
X204677354Y-79193932D01*
X204672405Y-79217961D01*
X204665125Y-79241390D01*
X204655583Y-79263992D01*
X204643872Y-79285550D01*
X204630104Y-79305857D01*
X204614412Y-79324716D01*
X204596948Y-79341946D01*
X204112387Y-79775194D01*
X204093317Y-79790630D01*
X204072826Y-79804122D01*
X204051112Y-79815540D01*
X204028382Y-79824775D01*
X204004857Y-79831738D01*
X203980763Y-79836362D01*
X203956332Y-79838601D01*
X203931799Y-79838435D01*
X203907400Y-79835865D01*
X203883371Y-79830917D01*
X203859942Y-79823636D01*
X203837340Y-79814094D01*
X203815782Y-79802383D01*
X203795475Y-79788615D01*
X203776616Y-79772923D01*
X203759386Y-79755459D01*
X203159505Y-79084529D01*
X203144069Y-79065459D01*
X203130577Y-79044968D01*
X203119159Y-79023254D01*
X203109924Y-79000524D01*
X203102961Y-78976999D01*
X203098337Y-78952905D01*
X203096098Y-78928474D01*
X203096264Y-78903941D01*
X203098834Y-78879542D01*
X203103783Y-78855513D01*
X203111063Y-78832084D01*
X203120605Y-78809482D01*
X203132316Y-78787924D01*
X203146084Y-78767617D01*
X203161776Y-78748758D01*
X203179240Y-78731528D01*
X203663801Y-78298280D01*
X203682871Y-78282844D01*
X203703362Y-78269352D01*
X203725076Y-78257934D01*
X203747806Y-78248699D01*
X203771331Y-78241736D01*
X203795425Y-78237112D01*
X203819856Y-78234873D01*
X203844389Y-78235039D01*
X203844389Y-78235039D01*
G37*
D14*
X203888094Y-79036737D03*
D13*
G36*
X92178808Y-82910994D02*
G01*
X92202902Y-82915618D01*
X92226427Y-82922581D01*
X92249157Y-82931816D01*
X92270871Y-82943234D01*
X92291362Y-82956726D01*
X92310432Y-82972162D01*
X92794993Y-83405410D01*
X92812457Y-83422640D01*
X92828149Y-83441499D01*
X92841917Y-83461806D01*
X92853628Y-83483364D01*
X92863170Y-83505966D01*
X92870451Y-83529395D01*
X92875399Y-83553424D01*
X92877969Y-83577823D01*
X92878135Y-83602356D01*
X92875896Y-83626787D01*
X92871272Y-83650881D01*
X92864309Y-83674406D01*
X92855074Y-83697136D01*
X92843656Y-83718850D01*
X92830164Y-83739341D01*
X92814728Y-83758411D01*
X92214847Y-84429341D01*
X92197617Y-84446805D01*
X92178758Y-84462497D01*
X92158451Y-84476265D01*
X92136893Y-84487976D01*
X92114291Y-84497518D01*
X92090862Y-84504798D01*
X92066833Y-84509747D01*
X92042434Y-84512317D01*
X92017901Y-84512483D01*
X91993470Y-84510244D01*
X91969376Y-84505620D01*
X91945851Y-84498657D01*
X91923121Y-84489422D01*
X91901407Y-84478004D01*
X91880916Y-84464512D01*
X91861846Y-84449076D01*
X91377285Y-84015828D01*
X91359821Y-83998598D01*
X91344129Y-83979739D01*
X91330361Y-83959432D01*
X91318650Y-83937874D01*
X91309108Y-83915272D01*
X91301827Y-83891843D01*
X91296879Y-83867814D01*
X91294309Y-83843415D01*
X91294143Y-83818882D01*
X91296382Y-83794451D01*
X91301006Y-83770357D01*
X91307969Y-83746832D01*
X91317204Y-83724102D01*
X91328622Y-83702388D01*
X91342114Y-83681897D01*
X91357550Y-83662827D01*
X91957431Y-82991897D01*
X91974661Y-82974433D01*
X91993520Y-82958741D01*
X92013827Y-82944973D01*
X92035385Y-82933262D01*
X92057987Y-82923720D01*
X92081416Y-82916440D01*
X92105445Y-82911491D01*
X92129844Y-82908921D01*
X92154377Y-82908755D01*
X92178808Y-82910994D01*
X92178808Y-82910994D01*
G37*
D14*
X92086139Y-83710619D03*
D13*
G36*
X93707034Y-84277386D02*
G01*
X93731128Y-84282010D01*
X93754653Y-84288973D01*
X93777383Y-84298208D01*
X93799097Y-84309626D01*
X93819588Y-84323118D01*
X93838658Y-84338554D01*
X94323219Y-84771802D01*
X94340683Y-84789032D01*
X94356375Y-84807891D01*
X94370143Y-84828198D01*
X94381854Y-84849756D01*
X94391396Y-84872358D01*
X94398677Y-84895787D01*
X94403625Y-84919816D01*
X94406195Y-84944215D01*
X94406361Y-84968748D01*
X94404122Y-84993179D01*
X94399498Y-85017273D01*
X94392535Y-85040798D01*
X94383300Y-85063528D01*
X94371882Y-85085242D01*
X94358390Y-85105733D01*
X94342954Y-85124803D01*
X93743073Y-85795733D01*
X93725843Y-85813197D01*
X93706984Y-85828889D01*
X93686677Y-85842657D01*
X93665119Y-85854368D01*
X93642517Y-85863910D01*
X93619088Y-85871190D01*
X93595059Y-85876139D01*
X93570660Y-85878709D01*
X93546127Y-85878875D01*
X93521696Y-85876636D01*
X93497602Y-85872012D01*
X93474077Y-85865049D01*
X93451347Y-85855814D01*
X93429633Y-85844396D01*
X93409142Y-85830904D01*
X93390072Y-85815468D01*
X92905511Y-85382220D01*
X92888047Y-85364990D01*
X92872355Y-85346131D01*
X92858587Y-85325824D01*
X92846876Y-85304266D01*
X92837334Y-85281664D01*
X92830053Y-85258235D01*
X92825105Y-85234206D01*
X92822535Y-85209807D01*
X92822369Y-85185274D01*
X92824608Y-85160843D01*
X92829232Y-85136749D01*
X92836195Y-85113224D01*
X92845430Y-85090494D01*
X92856848Y-85068780D01*
X92870340Y-85048289D01*
X92885776Y-85029219D01*
X93485657Y-84358289D01*
X93502887Y-84340825D01*
X93521746Y-84325133D01*
X93542053Y-84311365D01*
X93563611Y-84299654D01*
X93586213Y-84290112D01*
X93609642Y-84282832D01*
X93633671Y-84277883D01*
X93658070Y-84275313D01*
X93682603Y-84275147D01*
X93707034Y-84277386D01*
X93707034Y-84277386D01*
G37*
D14*
X93614365Y-85077011D03*
D13*
G36*
X185293486Y-89321620D02*
G01*
X185317885Y-89324190D01*
X185341914Y-89329139D01*
X185365343Y-89336419D01*
X185387945Y-89345961D01*
X185409503Y-89357672D01*
X185429810Y-89371440D01*
X185448669Y-89387132D01*
X185465899Y-89404596D01*
X185899147Y-89889157D01*
X185914583Y-89908227D01*
X185928075Y-89928718D01*
X185939493Y-89950432D01*
X185948728Y-89973162D01*
X185955691Y-89996687D01*
X185960315Y-90020781D01*
X185962554Y-90045212D01*
X185962388Y-90069745D01*
X185959818Y-90094144D01*
X185954870Y-90118173D01*
X185947589Y-90141602D01*
X185938047Y-90164204D01*
X185926336Y-90185762D01*
X185912568Y-90206069D01*
X185896876Y-90224928D01*
X185879412Y-90242158D01*
X185208482Y-90842039D01*
X185189412Y-90857475D01*
X185168921Y-90870967D01*
X185147207Y-90882385D01*
X185124477Y-90891620D01*
X185100952Y-90898583D01*
X185076858Y-90903207D01*
X185052427Y-90905446D01*
X185027894Y-90905280D01*
X185003495Y-90902710D01*
X184979466Y-90897761D01*
X184956037Y-90890481D01*
X184933435Y-90880939D01*
X184911877Y-90869228D01*
X184891570Y-90855460D01*
X184872711Y-90839768D01*
X184855481Y-90822304D01*
X184422233Y-90337743D01*
X184406797Y-90318673D01*
X184393305Y-90298182D01*
X184381887Y-90276468D01*
X184372652Y-90253738D01*
X184365689Y-90230213D01*
X184361065Y-90206119D01*
X184358826Y-90181688D01*
X184358992Y-90157155D01*
X184361562Y-90132756D01*
X184366510Y-90108727D01*
X184373791Y-90085298D01*
X184383333Y-90062696D01*
X184395044Y-90041138D01*
X184408812Y-90020831D01*
X184424504Y-90001972D01*
X184441968Y-89984742D01*
X185112898Y-89384861D01*
X185131968Y-89369425D01*
X185152459Y-89355933D01*
X185174173Y-89344515D01*
X185196903Y-89335280D01*
X185220428Y-89328317D01*
X185244522Y-89323693D01*
X185268953Y-89321454D01*
X185293486Y-89321620D01*
X185293486Y-89321620D01*
G37*
D14*
X185160690Y-90113450D03*
D13*
G36*
X183927094Y-87793394D02*
G01*
X183951493Y-87795964D01*
X183975522Y-87800913D01*
X183998951Y-87808193D01*
X184021553Y-87817735D01*
X184043111Y-87829446D01*
X184063418Y-87843214D01*
X184082277Y-87858906D01*
X184099507Y-87876370D01*
X184532755Y-88360931D01*
X184548191Y-88380001D01*
X184561683Y-88400492D01*
X184573101Y-88422206D01*
X184582336Y-88444936D01*
X184589299Y-88468461D01*
X184593923Y-88492555D01*
X184596162Y-88516986D01*
X184595996Y-88541519D01*
X184593426Y-88565918D01*
X184588478Y-88589947D01*
X184581197Y-88613376D01*
X184571655Y-88635978D01*
X184559944Y-88657536D01*
X184546176Y-88677843D01*
X184530484Y-88696702D01*
X184513020Y-88713932D01*
X183842090Y-89313813D01*
X183823020Y-89329249D01*
X183802529Y-89342741D01*
X183780815Y-89354159D01*
X183758085Y-89363394D01*
X183734560Y-89370357D01*
X183710466Y-89374981D01*
X183686035Y-89377220D01*
X183661502Y-89377054D01*
X183637103Y-89374484D01*
X183613074Y-89369535D01*
X183589645Y-89362255D01*
X183567043Y-89352713D01*
X183545485Y-89341002D01*
X183525178Y-89327234D01*
X183506319Y-89311542D01*
X183489089Y-89294078D01*
X183055841Y-88809517D01*
X183040405Y-88790447D01*
X183026913Y-88769956D01*
X183015495Y-88748242D01*
X183006260Y-88725512D01*
X182999297Y-88701987D01*
X182994673Y-88677893D01*
X182992434Y-88653462D01*
X182992600Y-88628929D01*
X182995170Y-88604530D01*
X183000118Y-88580501D01*
X183007399Y-88557072D01*
X183016941Y-88534470D01*
X183028652Y-88512912D01*
X183042420Y-88492605D01*
X183058112Y-88473746D01*
X183075576Y-88456516D01*
X183746506Y-87856635D01*
X183765576Y-87841199D01*
X183786067Y-87827707D01*
X183807781Y-87816289D01*
X183830511Y-87807054D01*
X183854036Y-87800091D01*
X183878130Y-87795467D01*
X183902561Y-87793228D01*
X183927094Y-87793394D01*
X183927094Y-87793394D01*
G37*
D14*
X183794298Y-88585224D03*
D13*
G36*
X206777224Y-70112941D02*
G01*
X206801623Y-70115511D01*
X206825652Y-70120460D01*
X206849081Y-70127740D01*
X206871683Y-70137282D01*
X206893241Y-70148993D01*
X206913548Y-70162761D01*
X206932407Y-70178453D01*
X206949637Y-70195917D01*
X207382885Y-70680478D01*
X207398321Y-70699548D01*
X207411813Y-70720039D01*
X207423231Y-70741753D01*
X207432466Y-70764483D01*
X207439429Y-70788008D01*
X207444053Y-70812102D01*
X207446292Y-70836533D01*
X207446126Y-70861066D01*
X207443556Y-70885465D01*
X207438608Y-70909494D01*
X207431327Y-70932923D01*
X207421785Y-70955525D01*
X207410074Y-70977083D01*
X207396306Y-70997390D01*
X207380614Y-71016249D01*
X207363150Y-71033479D01*
X206692220Y-71633360D01*
X206673150Y-71648796D01*
X206652659Y-71662288D01*
X206630945Y-71673706D01*
X206608215Y-71682941D01*
X206584690Y-71689904D01*
X206560596Y-71694528D01*
X206536165Y-71696767D01*
X206511632Y-71696601D01*
X206487233Y-71694031D01*
X206463204Y-71689082D01*
X206439775Y-71681802D01*
X206417173Y-71672260D01*
X206395615Y-71660549D01*
X206375308Y-71646781D01*
X206356449Y-71631089D01*
X206339219Y-71613625D01*
X205905971Y-71129064D01*
X205890535Y-71109994D01*
X205877043Y-71089503D01*
X205865625Y-71067789D01*
X205856390Y-71045059D01*
X205849427Y-71021534D01*
X205844803Y-70997440D01*
X205842564Y-70973009D01*
X205842730Y-70948476D01*
X205845300Y-70924077D01*
X205850248Y-70900048D01*
X205857529Y-70876619D01*
X205867071Y-70854017D01*
X205878782Y-70832459D01*
X205892550Y-70812152D01*
X205908242Y-70793293D01*
X205925706Y-70776063D01*
X206596636Y-70176182D01*
X206615706Y-70160746D01*
X206636197Y-70147254D01*
X206657911Y-70135836D01*
X206680641Y-70126601D01*
X206704166Y-70119638D01*
X206728260Y-70115014D01*
X206752691Y-70112775D01*
X206777224Y-70112941D01*
X206777224Y-70112941D01*
G37*
D14*
X206644428Y-70904771D03*
D13*
G36*
X205410832Y-68584715D02*
G01*
X205435231Y-68587285D01*
X205459260Y-68592234D01*
X205482689Y-68599514D01*
X205505291Y-68609056D01*
X205526849Y-68620767D01*
X205547156Y-68634535D01*
X205566015Y-68650227D01*
X205583245Y-68667691D01*
X206016493Y-69152252D01*
X206031929Y-69171322D01*
X206045421Y-69191813D01*
X206056839Y-69213527D01*
X206066074Y-69236257D01*
X206073037Y-69259782D01*
X206077661Y-69283876D01*
X206079900Y-69308307D01*
X206079734Y-69332840D01*
X206077164Y-69357239D01*
X206072216Y-69381268D01*
X206064935Y-69404697D01*
X206055393Y-69427299D01*
X206043682Y-69448857D01*
X206029914Y-69469164D01*
X206014222Y-69488023D01*
X205996758Y-69505253D01*
X205325828Y-70105134D01*
X205306758Y-70120570D01*
X205286267Y-70134062D01*
X205264553Y-70145480D01*
X205241823Y-70154715D01*
X205218298Y-70161678D01*
X205194204Y-70166302D01*
X205169773Y-70168541D01*
X205145240Y-70168375D01*
X205120841Y-70165805D01*
X205096812Y-70160856D01*
X205073383Y-70153576D01*
X205050781Y-70144034D01*
X205029223Y-70132323D01*
X205008916Y-70118555D01*
X204990057Y-70102863D01*
X204972827Y-70085399D01*
X204539579Y-69600838D01*
X204524143Y-69581768D01*
X204510651Y-69561277D01*
X204499233Y-69539563D01*
X204489998Y-69516833D01*
X204483035Y-69493308D01*
X204478411Y-69469214D01*
X204476172Y-69444783D01*
X204476338Y-69420250D01*
X204478908Y-69395851D01*
X204483856Y-69371822D01*
X204491137Y-69348393D01*
X204500679Y-69325791D01*
X204512390Y-69304233D01*
X204526158Y-69283926D01*
X204541850Y-69265067D01*
X204559314Y-69247837D01*
X205230244Y-68647956D01*
X205249314Y-68632520D01*
X205269805Y-68619028D01*
X205291519Y-68607610D01*
X205314249Y-68598375D01*
X205337774Y-68591412D01*
X205361868Y-68586788D01*
X205386299Y-68584549D01*
X205410832Y-68584715D01*
X205410832Y-68584715D01*
G37*
D14*
X205278036Y-69376545D03*
D13*
G36*
X101919065Y-86119948D02*
G01*
X101943159Y-86124572D01*
X101966684Y-86131535D01*
X101989414Y-86140770D01*
X102011128Y-86152188D01*
X102031619Y-86165680D01*
X102050689Y-86181116D01*
X102721619Y-86780997D01*
X102739083Y-86798227D01*
X102754775Y-86817086D01*
X102768543Y-86837393D01*
X102780254Y-86858951D01*
X102789796Y-86881553D01*
X102797076Y-86904982D01*
X102802025Y-86929011D01*
X102804595Y-86953410D01*
X102804761Y-86977943D01*
X102802522Y-87002374D01*
X102797898Y-87026468D01*
X102790935Y-87049993D01*
X102781700Y-87072723D01*
X102770282Y-87094437D01*
X102756790Y-87114928D01*
X102741354Y-87133998D01*
X102308106Y-87618559D01*
X102290876Y-87636023D01*
X102272017Y-87651715D01*
X102251710Y-87665483D01*
X102230152Y-87677194D01*
X102207550Y-87686736D01*
X102184121Y-87694017D01*
X102160092Y-87698965D01*
X102135693Y-87701535D01*
X102111160Y-87701701D01*
X102086729Y-87699462D01*
X102062635Y-87694838D01*
X102039110Y-87687875D01*
X102016380Y-87678640D01*
X101994666Y-87667222D01*
X101974175Y-87653730D01*
X101955105Y-87638294D01*
X101284175Y-87038413D01*
X101266711Y-87021183D01*
X101251019Y-87002324D01*
X101237251Y-86982017D01*
X101225540Y-86960459D01*
X101215998Y-86937857D01*
X101208718Y-86914428D01*
X101203769Y-86890399D01*
X101201199Y-86866000D01*
X101201033Y-86841467D01*
X101203272Y-86817036D01*
X101207896Y-86792942D01*
X101214859Y-86769417D01*
X101224094Y-86746687D01*
X101235512Y-86724973D01*
X101249004Y-86704482D01*
X101264440Y-86685412D01*
X101697688Y-86200851D01*
X101714918Y-86183387D01*
X101733777Y-86167695D01*
X101754084Y-86153927D01*
X101775642Y-86142216D01*
X101798244Y-86132674D01*
X101821673Y-86125393D01*
X101845702Y-86120445D01*
X101870101Y-86117875D01*
X101894634Y-86117709D01*
X101919065Y-86119948D01*
X101919065Y-86119948D01*
G37*
D14*
X102002897Y-86909705D03*
D13*
G36*
X103285457Y-84591722D02*
G01*
X103309551Y-84596346D01*
X103333076Y-84603309D01*
X103355806Y-84612544D01*
X103377520Y-84623962D01*
X103398011Y-84637454D01*
X103417081Y-84652890D01*
X104088011Y-85252771D01*
X104105475Y-85270001D01*
X104121167Y-85288860D01*
X104134935Y-85309167D01*
X104146646Y-85330725D01*
X104156188Y-85353327D01*
X104163468Y-85376756D01*
X104168417Y-85400785D01*
X104170987Y-85425184D01*
X104171153Y-85449717D01*
X104168914Y-85474148D01*
X104164290Y-85498242D01*
X104157327Y-85521767D01*
X104148092Y-85544497D01*
X104136674Y-85566211D01*
X104123182Y-85586702D01*
X104107746Y-85605772D01*
X103674498Y-86090333D01*
X103657268Y-86107797D01*
X103638409Y-86123489D01*
X103618102Y-86137257D01*
X103596544Y-86148968D01*
X103573942Y-86158510D01*
X103550513Y-86165791D01*
X103526484Y-86170739D01*
X103502085Y-86173309D01*
X103477552Y-86173475D01*
X103453121Y-86171236D01*
X103429027Y-86166612D01*
X103405502Y-86159649D01*
X103382772Y-86150414D01*
X103361058Y-86138996D01*
X103340567Y-86125504D01*
X103321497Y-86110068D01*
X102650567Y-85510187D01*
X102633103Y-85492957D01*
X102617411Y-85474098D01*
X102603643Y-85453791D01*
X102591932Y-85432233D01*
X102582390Y-85409631D01*
X102575110Y-85386202D01*
X102570161Y-85362173D01*
X102567591Y-85337774D01*
X102567425Y-85313241D01*
X102569664Y-85288810D01*
X102574288Y-85264716D01*
X102581251Y-85241191D01*
X102590486Y-85218461D01*
X102601904Y-85196747D01*
X102615396Y-85176256D01*
X102630832Y-85157186D01*
X103064080Y-84672625D01*
X103081310Y-84655161D01*
X103100169Y-84639469D01*
X103120476Y-84625701D01*
X103142034Y-84613990D01*
X103164636Y-84604448D01*
X103188065Y-84597167D01*
X103212094Y-84592219D01*
X103236493Y-84589649D01*
X103261026Y-84589483D01*
X103285457Y-84591722D01*
X103285457Y-84591722D01*
G37*
D14*
X103369289Y-85381479D03*
D13*
G36*
X127474470Y-92993201D02*
G01*
X127498738Y-92996801D01*
X127522537Y-93002762D01*
X127545636Y-93011027D01*
X127567815Y-93021517D01*
X127588858Y-93034129D01*
X127608564Y-93048744D01*
X127626742Y-93065220D01*
X127643218Y-93083398D01*
X127657833Y-93103104D01*
X127670445Y-93124147D01*
X127680935Y-93146326D01*
X127689200Y-93169425D01*
X127695161Y-93193224D01*
X127698761Y-93217492D01*
X127699965Y-93241996D01*
X127699965Y-94141998D01*
X127698761Y-94166502D01*
X127695161Y-94190770D01*
X127689200Y-94214569D01*
X127680935Y-94237668D01*
X127670445Y-94259847D01*
X127657833Y-94280890D01*
X127643218Y-94300596D01*
X127626742Y-94318774D01*
X127608564Y-94335250D01*
X127588858Y-94349865D01*
X127567815Y-94362477D01*
X127545636Y-94372967D01*
X127522537Y-94381232D01*
X127498738Y-94387193D01*
X127474470Y-94390793D01*
X127449966Y-94391997D01*
X126799964Y-94391997D01*
X126775460Y-94390793D01*
X126751192Y-94387193D01*
X126727393Y-94381232D01*
X126704294Y-94372967D01*
X126682115Y-94362477D01*
X126661072Y-94349865D01*
X126641366Y-94335250D01*
X126623188Y-94318774D01*
X126606712Y-94300596D01*
X126592097Y-94280890D01*
X126579485Y-94259847D01*
X126568995Y-94237668D01*
X126560730Y-94214569D01*
X126554769Y-94190770D01*
X126551169Y-94166502D01*
X126549965Y-94141998D01*
X126549965Y-93241996D01*
X126551169Y-93217492D01*
X126554769Y-93193224D01*
X126560730Y-93169425D01*
X126568995Y-93146326D01*
X126579485Y-93124147D01*
X126592097Y-93103104D01*
X126606712Y-93083398D01*
X126623188Y-93065220D01*
X126641366Y-93048744D01*
X126661072Y-93034129D01*
X126682115Y-93021517D01*
X126704294Y-93011027D01*
X126727393Y-93002762D01*
X126751192Y-92996801D01*
X126775460Y-92993201D01*
X126799964Y-92991997D01*
X127449966Y-92991997D01*
X127474470Y-92993201D01*
X127474470Y-92993201D01*
G37*
D14*
X127124965Y-93691997D03*
D13*
G36*
X125424470Y-92993201D02*
G01*
X125448738Y-92996801D01*
X125472537Y-93002762D01*
X125495636Y-93011027D01*
X125517815Y-93021517D01*
X125538858Y-93034129D01*
X125558564Y-93048744D01*
X125576742Y-93065220D01*
X125593218Y-93083398D01*
X125607833Y-93103104D01*
X125620445Y-93124147D01*
X125630935Y-93146326D01*
X125639200Y-93169425D01*
X125645161Y-93193224D01*
X125648761Y-93217492D01*
X125649965Y-93241996D01*
X125649965Y-94141998D01*
X125648761Y-94166502D01*
X125645161Y-94190770D01*
X125639200Y-94214569D01*
X125630935Y-94237668D01*
X125620445Y-94259847D01*
X125607833Y-94280890D01*
X125593218Y-94300596D01*
X125576742Y-94318774D01*
X125558564Y-94335250D01*
X125538858Y-94349865D01*
X125517815Y-94362477D01*
X125495636Y-94372967D01*
X125472537Y-94381232D01*
X125448738Y-94387193D01*
X125424470Y-94390793D01*
X125399966Y-94391997D01*
X124749964Y-94391997D01*
X124725460Y-94390793D01*
X124701192Y-94387193D01*
X124677393Y-94381232D01*
X124654294Y-94372967D01*
X124632115Y-94362477D01*
X124611072Y-94349865D01*
X124591366Y-94335250D01*
X124573188Y-94318774D01*
X124556712Y-94300596D01*
X124542097Y-94280890D01*
X124529485Y-94259847D01*
X124518995Y-94237668D01*
X124510730Y-94214569D01*
X124504769Y-94190770D01*
X124501169Y-94166502D01*
X124499965Y-94141998D01*
X124499965Y-93241996D01*
X124501169Y-93217492D01*
X124504769Y-93193224D01*
X124510730Y-93169425D01*
X124518995Y-93146326D01*
X124529485Y-93124147D01*
X124542097Y-93103104D01*
X124556712Y-93083398D01*
X124573188Y-93065220D01*
X124591366Y-93048744D01*
X124611072Y-93034129D01*
X124632115Y-93021517D01*
X124654294Y-93011027D01*
X124677393Y-93002762D01*
X124701192Y-92996801D01*
X124725460Y-92993201D01*
X124749964Y-92991997D01*
X125399966Y-92991997D01*
X125424470Y-92993201D01*
X125424470Y-92993201D01*
G37*
D14*
X125074965Y-93691997D03*
D13*
G36*
X124474470Y-90493201D02*
G01*
X124498738Y-90496801D01*
X124522537Y-90502762D01*
X124545636Y-90511027D01*
X124567815Y-90521517D01*
X124588858Y-90534129D01*
X124608564Y-90548744D01*
X124626742Y-90565220D01*
X124643218Y-90583398D01*
X124657833Y-90603104D01*
X124670445Y-90624147D01*
X124680935Y-90646326D01*
X124689200Y-90669425D01*
X124695161Y-90693224D01*
X124698761Y-90717492D01*
X124699965Y-90741996D01*
X124699965Y-91641998D01*
X124698761Y-91666502D01*
X124695161Y-91690770D01*
X124689200Y-91714569D01*
X124680935Y-91737668D01*
X124670445Y-91759847D01*
X124657833Y-91780890D01*
X124643218Y-91800596D01*
X124626742Y-91818774D01*
X124608564Y-91835250D01*
X124588858Y-91849865D01*
X124567815Y-91862477D01*
X124545636Y-91872967D01*
X124522537Y-91881232D01*
X124498738Y-91887193D01*
X124474470Y-91890793D01*
X124449966Y-91891997D01*
X123799964Y-91891997D01*
X123775460Y-91890793D01*
X123751192Y-91887193D01*
X123727393Y-91881232D01*
X123704294Y-91872967D01*
X123682115Y-91862477D01*
X123661072Y-91849865D01*
X123641366Y-91835250D01*
X123623188Y-91818774D01*
X123606712Y-91800596D01*
X123592097Y-91780890D01*
X123579485Y-91759847D01*
X123568995Y-91737668D01*
X123560730Y-91714569D01*
X123554769Y-91690770D01*
X123551169Y-91666502D01*
X123549965Y-91641998D01*
X123549965Y-90741996D01*
X123551169Y-90717492D01*
X123554769Y-90693224D01*
X123560730Y-90669425D01*
X123568995Y-90646326D01*
X123579485Y-90624147D01*
X123592097Y-90603104D01*
X123606712Y-90583398D01*
X123623188Y-90565220D01*
X123641366Y-90548744D01*
X123661072Y-90534129D01*
X123682115Y-90521517D01*
X123704294Y-90511027D01*
X123727393Y-90502762D01*
X123751192Y-90496801D01*
X123775460Y-90493201D01*
X123799964Y-90491997D01*
X124449966Y-90491997D01*
X124474470Y-90493201D01*
X124474470Y-90493201D01*
G37*
D14*
X124124965Y-91191997D03*
D13*
G36*
X122424470Y-90493201D02*
G01*
X122448738Y-90496801D01*
X122472537Y-90502762D01*
X122495636Y-90511027D01*
X122517815Y-90521517D01*
X122538858Y-90534129D01*
X122558564Y-90548744D01*
X122576742Y-90565220D01*
X122593218Y-90583398D01*
X122607833Y-90603104D01*
X122620445Y-90624147D01*
X122630935Y-90646326D01*
X122639200Y-90669425D01*
X122645161Y-90693224D01*
X122648761Y-90717492D01*
X122649965Y-90741996D01*
X122649965Y-91641998D01*
X122648761Y-91666502D01*
X122645161Y-91690770D01*
X122639200Y-91714569D01*
X122630935Y-91737668D01*
X122620445Y-91759847D01*
X122607833Y-91780890D01*
X122593218Y-91800596D01*
X122576742Y-91818774D01*
X122558564Y-91835250D01*
X122538858Y-91849865D01*
X122517815Y-91862477D01*
X122495636Y-91872967D01*
X122472537Y-91881232D01*
X122448738Y-91887193D01*
X122424470Y-91890793D01*
X122399966Y-91891997D01*
X121749964Y-91891997D01*
X121725460Y-91890793D01*
X121701192Y-91887193D01*
X121677393Y-91881232D01*
X121654294Y-91872967D01*
X121632115Y-91862477D01*
X121611072Y-91849865D01*
X121591366Y-91835250D01*
X121573188Y-91818774D01*
X121556712Y-91800596D01*
X121542097Y-91780890D01*
X121529485Y-91759847D01*
X121518995Y-91737668D01*
X121510730Y-91714569D01*
X121504769Y-91690770D01*
X121501169Y-91666502D01*
X121499965Y-91641998D01*
X121499965Y-90741996D01*
X121501169Y-90717492D01*
X121504769Y-90693224D01*
X121510730Y-90669425D01*
X121518995Y-90646326D01*
X121529485Y-90624147D01*
X121542097Y-90603104D01*
X121556712Y-90583398D01*
X121573188Y-90565220D01*
X121591366Y-90548744D01*
X121611072Y-90534129D01*
X121632115Y-90521517D01*
X121654294Y-90511027D01*
X121677393Y-90502762D01*
X121701192Y-90496801D01*
X121725460Y-90493201D01*
X121749964Y-90491997D01*
X122399966Y-90491997D01*
X122424470Y-90493201D01*
X122424470Y-90493201D01*
G37*
D14*
X122074965Y-91191997D03*
D13*
G36*
X147170486Y-58497220D02*
G01*
X147194754Y-58500820D01*
X147218553Y-58506781D01*
X147241652Y-58515046D01*
X147263831Y-58525536D01*
X147284874Y-58538148D01*
X147304580Y-58552763D01*
X147322758Y-58569239D01*
X147339234Y-58587417D01*
X147353849Y-58607123D01*
X147366461Y-58628166D01*
X147376951Y-58650345D01*
X147385216Y-58673444D01*
X147391177Y-58697243D01*
X147394777Y-58721511D01*
X147395981Y-58746015D01*
X147395981Y-59396017D01*
X147394777Y-59420521D01*
X147391177Y-59444789D01*
X147385216Y-59468588D01*
X147376951Y-59491687D01*
X147366461Y-59513866D01*
X147353849Y-59534909D01*
X147339234Y-59554615D01*
X147322758Y-59572793D01*
X147304580Y-59589269D01*
X147284874Y-59603884D01*
X147263831Y-59616496D01*
X147241652Y-59626986D01*
X147218553Y-59635251D01*
X147194754Y-59641212D01*
X147170486Y-59644812D01*
X147145982Y-59646016D01*
X146245980Y-59646016D01*
X146221476Y-59644812D01*
X146197208Y-59641212D01*
X146173409Y-59635251D01*
X146150310Y-59626986D01*
X146128131Y-59616496D01*
X146107088Y-59603884D01*
X146087382Y-59589269D01*
X146069204Y-59572793D01*
X146052728Y-59554615D01*
X146038113Y-59534909D01*
X146025501Y-59513866D01*
X146015011Y-59491687D01*
X146006746Y-59468588D01*
X146000785Y-59444789D01*
X145997185Y-59420521D01*
X145995981Y-59396017D01*
X145995981Y-58746015D01*
X145997185Y-58721511D01*
X146000785Y-58697243D01*
X146006746Y-58673444D01*
X146015011Y-58650345D01*
X146025501Y-58628166D01*
X146038113Y-58607123D01*
X146052728Y-58587417D01*
X146069204Y-58569239D01*
X146087382Y-58552763D01*
X146107088Y-58538148D01*
X146128131Y-58525536D01*
X146150310Y-58515046D01*
X146173409Y-58506781D01*
X146197208Y-58500820D01*
X146221476Y-58497220D01*
X146245980Y-58496016D01*
X147145982Y-58496016D01*
X147170486Y-58497220D01*
X147170486Y-58497220D01*
G37*
D14*
X146695981Y-59071016D03*
D13*
G36*
X147170486Y-60547220D02*
G01*
X147194754Y-60550820D01*
X147218553Y-60556781D01*
X147241652Y-60565046D01*
X147263831Y-60575536D01*
X147284874Y-60588148D01*
X147304580Y-60602763D01*
X147322758Y-60619239D01*
X147339234Y-60637417D01*
X147353849Y-60657123D01*
X147366461Y-60678166D01*
X147376951Y-60700345D01*
X147385216Y-60723444D01*
X147391177Y-60747243D01*
X147394777Y-60771511D01*
X147395981Y-60796015D01*
X147395981Y-61446017D01*
X147394777Y-61470521D01*
X147391177Y-61494789D01*
X147385216Y-61518588D01*
X147376951Y-61541687D01*
X147366461Y-61563866D01*
X147353849Y-61584909D01*
X147339234Y-61604615D01*
X147322758Y-61622793D01*
X147304580Y-61639269D01*
X147284874Y-61653884D01*
X147263831Y-61666496D01*
X147241652Y-61676986D01*
X147218553Y-61685251D01*
X147194754Y-61691212D01*
X147170486Y-61694812D01*
X147145982Y-61696016D01*
X146245980Y-61696016D01*
X146221476Y-61694812D01*
X146197208Y-61691212D01*
X146173409Y-61685251D01*
X146150310Y-61676986D01*
X146128131Y-61666496D01*
X146107088Y-61653884D01*
X146087382Y-61639269D01*
X146069204Y-61622793D01*
X146052728Y-61604615D01*
X146038113Y-61584909D01*
X146025501Y-61563866D01*
X146015011Y-61541687D01*
X146006746Y-61518588D01*
X146000785Y-61494789D01*
X145997185Y-61470521D01*
X145995981Y-61446017D01*
X145995981Y-60796015D01*
X145997185Y-60771511D01*
X146000785Y-60747243D01*
X146006746Y-60723444D01*
X146015011Y-60700345D01*
X146025501Y-60678166D01*
X146038113Y-60657123D01*
X146052728Y-60637417D01*
X146069204Y-60619239D01*
X146087382Y-60602763D01*
X146107088Y-60588148D01*
X146128131Y-60575536D01*
X146150310Y-60565046D01*
X146173409Y-60556781D01*
X146197208Y-60550820D01*
X146221476Y-60547220D01*
X146245980Y-60546016D01*
X147145982Y-60546016D01*
X147170486Y-60547220D01*
X147170486Y-60547220D01*
G37*
D14*
X146695981Y-61121016D03*
D13*
G36*
X149170486Y-58497220D02*
G01*
X149194754Y-58500820D01*
X149218553Y-58506781D01*
X149241652Y-58515046D01*
X149263831Y-58525536D01*
X149284874Y-58538148D01*
X149304580Y-58552763D01*
X149322758Y-58569239D01*
X149339234Y-58587417D01*
X149353849Y-58607123D01*
X149366461Y-58628166D01*
X149376951Y-58650345D01*
X149385216Y-58673444D01*
X149391177Y-58697243D01*
X149394777Y-58721511D01*
X149395981Y-58746015D01*
X149395981Y-59396017D01*
X149394777Y-59420521D01*
X149391177Y-59444789D01*
X149385216Y-59468588D01*
X149376951Y-59491687D01*
X149366461Y-59513866D01*
X149353849Y-59534909D01*
X149339234Y-59554615D01*
X149322758Y-59572793D01*
X149304580Y-59589269D01*
X149284874Y-59603884D01*
X149263831Y-59616496D01*
X149241652Y-59626986D01*
X149218553Y-59635251D01*
X149194754Y-59641212D01*
X149170486Y-59644812D01*
X149145982Y-59646016D01*
X148245980Y-59646016D01*
X148221476Y-59644812D01*
X148197208Y-59641212D01*
X148173409Y-59635251D01*
X148150310Y-59626986D01*
X148128131Y-59616496D01*
X148107088Y-59603884D01*
X148087382Y-59589269D01*
X148069204Y-59572793D01*
X148052728Y-59554615D01*
X148038113Y-59534909D01*
X148025501Y-59513866D01*
X148015011Y-59491687D01*
X148006746Y-59468588D01*
X148000785Y-59444789D01*
X147997185Y-59420521D01*
X147995981Y-59396017D01*
X147995981Y-58746015D01*
X147997185Y-58721511D01*
X148000785Y-58697243D01*
X148006746Y-58673444D01*
X148015011Y-58650345D01*
X148025501Y-58628166D01*
X148038113Y-58607123D01*
X148052728Y-58587417D01*
X148069204Y-58569239D01*
X148087382Y-58552763D01*
X148107088Y-58538148D01*
X148128131Y-58525536D01*
X148150310Y-58515046D01*
X148173409Y-58506781D01*
X148197208Y-58500820D01*
X148221476Y-58497220D01*
X148245980Y-58496016D01*
X149145982Y-58496016D01*
X149170486Y-58497220D01*
X149170486Y-58497220D01*
G37*
D14*
X148695981Y-59071016D03*
D13*
G36*
X149170486Y-60547220D02*
G01*
X149194754Y-60550820D01*
X149218553Y-60556781D01*
X149241652Y-60565046D01*
X149263831Y-60575536D01*
X149284874Y-60588148D01*
X149304580Y-60602763D01*
X149322758Y-60619239D01*
X149339234Y-60637417D01*
X149353849Y-60657123D01*
X149366461Y-60678166D01*
X149376951Y-60700345D01*
X149385216Y-60723444D01*
X149391177Y-60747243D01*
X149394777Y-60771511D01*
X149395981Y-60796015D01*
X149395981Y-61446017D01*
X149394777Y-61470521D01*
X149391177Y-61494789D01*
X149385216Y-61518588D01*
X149376951Y-61541687D01*
X149366461Y-61563866D01*
X149353849Y-61584909D01*
X149339234Y-61604615D01*
X149322758Y-61622793D01*
X149304580Y-61639269D01*
X149284874Y-61653884D01*
X149263831Y-61666496D01*
X149241652Y-61676986D01*
X149218553Y-61685251D01*
X149194754Y-61691212D01*
X149170486Y-61694812D01*
X149145982Y-61696016D01*
X148245980Y-61696016D01*
X148221476Y-61694812D01*
X148197208Y-61691212D01*
X148173409Y-61685251D01*
X148150310Y-61676986D01*
X148128131Y-61666496D01*
X148107088Y-61653884D01*
X148087382Y-61639269D01*
X148069204Y-61622793D01*
X148052728Y-61604615D01*
X148038113Y-61584909D01*
X148025501Y-61563866D01*
X148015011Y-61541687D01*
X148006746Y-61518588D01*
X148000785Y-61494789D01*
X147997185Y-61470521D01*
X147995981Y-61446017D01*
X147995981Y-60796015D01*
X147997185Y-60771511D01*
X148000785Y-60747243D01*
X148006746Y-60723444D01*
X148015011Y-60700345D01*
X148025501Y-60678166D01*
X148038113Y-60657123D01*
X148052728Y-60637417D01*
X148069204Y-60619239D01*
X148087382Y-60602763D01*
X148107088Y-60588148D01*
X148128131Y-60575536D01*
X148150310Y-60565046D01*
X148173409Y-60556781D01*
X148197208Y-60550820D01*
X148221476Y-60547220D01*
X148245980Y-60546016D01*
X149145982Y-60546016D01*
X149170486Y-60547220D01*
X149170486Y-60547220D01*
G37*
D14*
X148695981Y-61121016D03*
D13*
G36*
X151870486Y-69389182D02*
G01*
X151894754Y-69392782D01*
X151918553Y-69398743D01*
X151941652Y-69407008D01*
X151963831Y-69417498D01*
X151984874Y-69430110D01*
X152004580Y-69444725D01*
X152022758Y-69461201D01*
X152039234Y-69479379D01*
X152053849Y-69499085D01*
X152066461Y-69520128D01*
X152076951Y-69542307D01*
X152085216Y-69565406D01*
X152091177Y-69589205D01*
X152094777Y-69613473D01*
X152095981Y-69637977D01*
X152095981Y-70537979D01*
X152094777Y-70562483D01*
X152091177Y-70586751D01*
X152085216Y-70610550D01*
X152076951Y-70633649D01*
X152066461Y-70655828D01*
X152053849Y-70676871D01*
X152039234Y-70696577D01*
X152022758Y-70714755D01*
X152004580Y-70731231D01*
X151984874Y-70745846D01*
X151963831Y-70758458D01*
X151941652Y-70768948D01*
X151918553Y-70777213D01*
X151894754Y-70783174D01*
X151870486Y-70786774D01*
X151845982Y-70787978D01*
X151195980Y-70787978D01*
X151171476Y-70786774D01*
X151147208Y-70783174D01*
X151123409Y-70777213D01*
X151100310Y-70768948D01*
X151078131Y-70758458D01*
X151057088Y-70745846D01*
X151037382Y-70731231D01*
X151019204Y-70714755D01*
X151002728Y-70696577D01*
X150988113Y-70676871D01*
X150975501Y-70655828D01*
X150965011Y-70633649D01*
X150956746Y-70610550D01*
X150950785Y-70586751D01*
X150947185Y-70562483D01*
X150945981Y-70537979D01*
X150945981Y-69637977D01*
X150947185Y-69613473D01*
X150950785Y-69589205D01*
X150956746Y-69565406D01*
X150965011Y-69542307D01*
X150975501Y-69520128D01*
X150988113Y-69499085D01*
X151002728Y-69479379D01*
X151019204Y-69461201D01*
X151037382Y-69444725D01*
X151057088Y-69430110D01*
X151078131Y-69417498D01*
X151100310Y-69407008D01*
X151123409Y-69398743D01*
X151147208Y-69392782D01*
X151171476Y-69389182D01*
X151195980Y-69387978D01*
X151845982Y-69387978D01*
X151870486Y-69389182D01*
X151870486Y-69389182D01*
G37*
D14*
X151520981Y-70087978D03*
D13*
G36*
X149820486Y-69389182D02*
G01*
X149844754Y-69392782D01*
X149868553Y-69398743D01*
X149891652Y-69407008D01*
X149913831Y-69417498D01*
X149934874Y-69430110D01*
X149954580Y-69444725D01*
X149972758Y-69461201D01*
X149989234Y-69479379D01*
X150003849Y-69499085D01*
X150016461Y-69520128D01*
X150026951Y-69542307D01*
X150035216Y-69565406D01*
X150041177Y-69589205D01*
X150044777Y-69613473D01*
X150045981Y-69637977D01*
X150045981Y-70537979D01*
X150044777Y-70562483D01*
X150041177Y-70586751D01*
X150035216Y-70610550D01*
X150026951Y-70633649D01*
X150016461Y-70655828D01*
X150003849Y-70676871D01*
X149989234Y-70696577D01*
X149972758Y-70714755D01*
X149954580Y-70731231D01*
X149934874Y-70745846D01*
X149913831Y-70758458D01*
X149891652Y-70768948D01*
X149868553Y-70777213D01*
X149844754Y-70783174D01*
X149820486Y-70786774D01*
X149795982Y-70787978D01*
X149145980Y-70787978D01*
X149121476Y-70786774D01*
X149097208Y-70783174D01*
X149073409Y-70777213D01*
X149050310Y-70768948D01*
X149028131Y-70758458D01*
X149007088Y-70745846D01*
X148987382Y-70731231D01*
X148969204Y-70714755D01*
X148952728Y-70696577D01*
X148938113Y-70676871D01*
X148925501Y-70655828D01*
X148915011Y-70633649D01*
X148906746Y-70610550D01*
X148900785Y-70586751D01*
X148897185Y-70562483D01*
X148895981Y-70537979D01*
X148895981Y-69637977D01*
X148897185Y-69613473D01*
X148900785Y-69589205D01*
X148906746Y-69565406D01*
X148915011Y-69542307D01*
X148925501Y-69520128D01*
X148938113Y-69499085D01*
X148952728Y-69479379D01*
X148969204Y-69461201D01*
X148987382Y-69444725D01*
X149007088Y-69430110D01*
X149028131Y-69417498D01*
X149050310Y-69407008D01*
X149073409Y-69398743D01*
X149097208Y-69392782D01*
X149121476Y-69389182D01*
X149145980Y-69387978D01*
X149795982Y-69387978D01*
X149820486Y-69389182D01*
X149820486Y-69389182D01*
G37*
D14*
X149470981Y-70087978D03*
D13*
G36*
X156220486Y-56493201D02*
G01*
X156244754Y-56496801D01*
X156268553Y-56502762D01*
X156291652Y-56511027D01*
X156313831Y-56521517D01*
X156334874Y-56534129D01*
X156354580Y-56548744D01*
X156372758Y-56565220D01*
X156389234Y-56583398D01*
X156403849Y-56603104D01*
X156416461Y-56624147D01*
X156426951Y-56646326D01*
X156435216Y-56669425D01*
X156441177Y-56693224D01*
X156444777Y-56717492D01*
X156445981Y-56741996D01*
X156445981Y-57641998D01*
X156444777Y-57666502D01*
X156441177Y-57690770D01*
X156435216Y-57714569D01*
X156426951Y-57737668D01*
X156416461Y-57759847D01*
X156403849Y-57780890D01*
X156389234Y-57800596D01*
X156372758Y-57818774D01*
X156354580Y-57835250D01*
X156334874Y-57849865D01*
X156313831Y-57862477D01*
X156291652Y-57872967D01*
X156268553Y-57881232D01*
X156244754Y-57887193D01*
X156220486Y-57890793D01*
X156195982Y-57891997D01*
X155545980Y-57891997D01*
X155521476Y-57890793D01*
X155497208Y-57887193D01*
X155473409Y-57881232D01*
X155450310Y-57872967D01*
X155428131Y-57862477D01*
X155407088Y-57849865D01*
X155387382Y-57835250D01*
X155369204Y-57818774D01*
X155352728Y-57800596D01*
X155338113Y-57780890D01*
X155325501Y-57759847D01*
X155315011Y-57737668D01*
X155306746Y-57714569D01*
X155300785Y-57690770D01*
X155297185Y-57666502D01*
X155295981Y-57641998D01*
X155295981Y-56741996D01*
X155297185Y-56717492D01*
X155300785Y-56693224D01*
X155306746Y-56669425D01*
X155315011Y-56646326D01*
X155325501Y-56624147D01*
X155338113Y-56603104D01*
X155352728Y-56583398D01*
X155369204Y-56565220D01*
X155387382Y-56548744D01*
X155407088Y-56534129D01*
X155428131Y-56521517D01*
X155450310Y-56511027D01*
X155473409Y-56502762D01*
X155497208Y-56496801D01*
X155521476Y-56493201D01*
X155545980Y-56491997D01*
X156195982Y-56491997D01*
X156220486Y-56493201D01*
X156220486Y-56493201D01*
G37*
D14*
X155870981Y-57191997D03*
D13*
G36*
X158270486Y-56493201D02*
G01*
X158294754Y-56496801D01*
X158318553Y-56502762D01*
X158341652Y-56511027D01*
X158363831Y-56521517D01*
X158384874Y-56534129D01*
X158404580Y-56548744D01*
X158422758Y-56565220D01*
X158439234Y-56583398D01*
X158453849Y-56603104D01*
X158466461Y-56624147D01*
X158476951Y-56646326D01*
X158485216Y-56669425D01*
X158491177Y-56693224D01*
X158494777Y-56717492D01*
X158495981Y-56741996D01*
X158495981Y-57641998D01*
X158494777Y-57666502D01*
X158491177Y-57690770D01*
X158485216Y-57714569D01*
X158476951Y-57737668D01*
X158466461Y-57759847D01*
X158453849Y-57780890D01*
X158439234Y-57800596D01*
X158422758Y-57818774D01*
X158404580Y-57835250D01*
X158384874Y-57849865D01*
X158363831Y-57862477D01*
X158341652Y-57872967D01*
X158318553Y-57881232D01*
X158294754Y-57887193D01*
X158270486Y-57890793D01*
X158245982Y-57891997D01*
X157595980Y-57891997D01*
X157571476Y-57890793D01*
X157547208Y-57887193D01*
X157523409Y-57881232D01*
X157500310Y-57872967D01*
X157478131Y-57862477D01*
X157457088Y-57849865D01*
X157437382Y-57835250D01*
X157419204Y-57818774D01*
X157402728Y-57800596D01*
X157388113Y-57780890D01*
X157375501Y-57759847D01*
X157365011Y-57737668D01*
X157356746Y-57714569D01*
X157350785Y-57690770D01*
X157347185Y-57666502D01*
X157345981Y-57641998D01*
X157345981Y-56741996D01*
X157347185Y-56717492D01*
X157350785Y-56693224D01*
X157356746Y-56669425D01*
X157365011Y-56646326D01*
X157375501Y-56624147D01*
X157388113Y-56603104D01*
X157402728Y-56583398D01*
X157419204Y-56565220D01*
X157437382Y-56548744D01*
X157457088Y-56534129D01*
X157478131Y-56521517D01*
X157500310Y-56511027D01*
X157523409Y-56502762D01*
X157547208Y-56496801D01*
X157571476Y-56493201D01*
X157595980Y-56491997D01*
X158245982Y-56491997D01*
X158270486Y-56493201D01*
X158270486Y-56493201D01*
G37*
D14*
X157920981Y-57191997D03*
D13*
G36*
X156220486Y-58493201D02*
G01*
X156244754Y-58496801D01*
X156268553Y-58502762D01*
X156291652Y-58511027D01*
X156313831Y-58521517D01*
X156334874Y-58534129D01*
X156354580Y-58548744D01*
X156372758Y-58565220D01*
X156389234Y-58583398D01*
X156403849Y-58603104D01*
X156416461Y-58624147D01*
X156426951Y-58646326D01*
X156435216Y-58669425D01*
X156441177Y-58693224D01*
X156444777Y-58717492D01*
X156445981Y-58741996D01*
X156445981Y-59641998D01*
X156444777Y-59666502D01*
X156441177Y-59690770D01*
X156435216Y-59714569D01*
X156426951Y-59737668D01*
X156416461Y-59759847D01*
X156403849Y-59780890D01*
X156389234Y-59800596D01*
X156372758Y-59818774D01*
X156354580Y-59835250D01*
X156334874Y-59849865D01*
X156313831Y-59862477D01*
X156291652Y-59872967D01*
X156268553Y-59881232D01*
X156244754Y-59887193D01*
X156220486Y-59890793D01*
X156195982Y-59891997D01*
X155545980Y-59891997D01*
X155521476Y-59890793D01*
X155497208Y-59887193D01*
X155473409Y-59881232D01*
X155450310Y-59872967D01*
X155428131Y-59862477D01*
X155407088Y-59849865D01*
X155387382Y-59835250D01*
X155369204Y-59818774D01*
X155352728Y-59800596D01*
X155338113Y-59780890D01*
X155325501Y-59759847D01*
X155315011Y-59737668D01*
X155306746Y-59714569D01*
X155300785Y-59690770D01*
X155297185Y-59666502D01*
X155295981Y-59641998D01*
X155295981Y-58741996D01*
X155297185Y-58717492D01*
X155300785Y-58693224D01*
X155306746Y-58669425D01*
X155315011Y-58646326D01*
X155325501Y-58624147D01*
X155338113Y-58603104D01*
X155352728Y-58583398D01*
X155369204Y-58565220D01*
X155387382Y-58548744D01*
X155407088Y-58534129D01*
X155428131Y-58521517D01*
X155450310Y-58511027D01*
X155473409Y-58502762D01*
X155497208Y-58496801D01*
X155521476Y-58493201D01*
X155545980Y-58491997D01*
X156195982Y-58491997D01*
X156220486Y-58493201D01*
X156220486Y-58493201D01*
G37*
D14*
X155870981Y-59191997D03*
D13*
G36*
X158270486Y-58493201D02*
G01*
X158294754Y-58496801D01*
X158318553Y-58502762D01*
X158341652Y-58511027D01*
X158363831Y-58521517D01*
X158384874Y-58534129D01*
X158404580Y-58548744D01*
X158422758Y-58565220D01*
X158439234Y-58583398D01*
X158453849Y-58603104D01*
X158466461Y-58624147D01*
X158476951Y-58646326D01*
X158485216Y-58669425D01*
X158491177Y-58693224D01*
X158494777Y-58717492D01*
X158495981Y-58741996D01*
X158495981Y-59641998D01*
X158494777Y-59666502D01*
X158491177Y-59690770D01*
X158485216Y-59714569D01*
X158476951Y-59737668D01*
X158466461Y-59759847D01*
X158453849Y-59780890D01*
X158439234Y-59800596D01*
X158422758Y-59818774D01*
X158404580Y-59835250D01*
X158384874Y-59849865D01*
X158363831Y-59862477D01*
X158341652Y-59872967D01*
X158318553Y-59881232D01*
X158294754Y-59887193D01*
X158270486Y-59890793D01*
X158245982Y-59891997D01*
X157595980Y-59891997D01*
X157571476Y-59890793D01*
X157547208Y-59887193D01*
X157523409Y-59881232D01*
X157500310Y-59872967D01*
X157478131Y-59862477D01*
X157457088Y-59849865D01*
X157437382Y-59835250D01*
X157419204Y-59818774D01*
X157402728Y-59800596D01*
X157388113Y-59780890D01*
X157375501Y-59759847D01*
X157365011Y-59737668D01*
X157356746Y-59714569D01*
X157350785Y-59690770D01*
X157347185Y-59666502D01*
X157345981Y-59641998D01*
X157345981Y-58741996D01*
X157347185Y-58717492D01*
X157350785Y-58693224D01*
X157356746Y-58669425D01*
X157365011Y-58646326D01*
X157375501Y-58624147D01*
X157388113Y-58603104D01*
X157402728Y-58583398D01*
X157419204Y-58565220D01*
X157437382Y-58548744D01*
X157457088Y-58534129D01*
X157478131Y-58521517D01*
X157500310Y-58511027D01*
X157523409Y-58502762D01*
X157547208Y-58496801D01*
X157571476Y-58493201D01*
X157595980Y-58491997D01*
X158245982Y-58491997D01*
X158270486Y-58493201D01*
X158270486Y-58493201D01*
G37*
D14*
X157920981Y-59191997D03*
D13*
G36*
X158270486Y-60493201D02*
G01*
X158294754Y-60496801D01*
X158318553Y-60502762D01*
X158341652Y-60511027D01*
X158363831Y-60521517D01*
X158384874Y-60534129D01*
X158404580Y-60548744D01*
X158422758Y-60565220D01*
X158439234Y-60583398D01*
X158453849Y-60603104D01*
X158466461Y-60624147D01*
X158476951Y-60646326D01*
X158485216Y-60669425D01*
X158491177Y-60693224D01*
X158494777Y-60717492D01*
X158495981Y-60741996D01*
X158495981Y-61641998D01*
X158494777Y-61666502D01*
X158491177Y-61690770D01*
X158485216Y-61714569D01*
X158476951Y-61737668D01*
X158466461Y-61759847D01*
X158453849Y-61780890D01*
X158439234Y-61800596D01*
X158422758Y-61818774D01*
X158404580Y-61835250D01*
X158384874Y-61849865D01*
X158363831Y-61862477D01*
X158341652Y-61872967D01*
X158318553Y-61881232D01*
X158294754Y-61887193D01*
X158270486Y-61890793D01*
X158245982Y-61891997D01*
X157595980Y-61891997D01*
X157571476Y-61890793D01*
X157547208Y-61887193D01*
X157523409Y-61881232D01*
X157500310Y-61872967D01*
X157478131Y-61862477D01*
X157457088Y-61849865D01*
X157437382Y-61835250D01*
X157419204Y-61818774D01*
X157402728Y-61800596D01*
X157388113Y-61780890D01*
X157375501Y-61759847D01*
X157365011Y-61737668D01*
X157356746Y-61714569D01*
X157350785Y-61690770D01*
X157347185Y-61666502D01*
X157345981Y-61641998D01*
X157345981Y-60741996D01*
X157347185Y-60717492D01*
X157350785Y-60693224D01*
X157356746Y-60669425D01*
X157365011Y-60646326D01*
X157375501Y-60624147D01*
X157388113Y-60603104D01*
X157402728Y-60583398D01*
X157419204Y-60565220D01*
X157437382Y-60548744D01*
X157457088Y-60534129D01*
X157478131Y-60521517D01*
X157500310Y-60511027D01*
X157523409Y-60502762D01*
X157547208Y-60496801D01*
X157571476Y-60493201D01*
X157595980Y-60491997D01*
X158245982Y-60491997D01*
X158270486Y-60493201D01*
X158270486Y-60493201D01*
G37*
D14*
X157920981Y-61191997D03*
D13*
G36*
X156220486Y-60493201D02*
G01*
X156244754Y-60496801D01*
X156268553Y-60502762D01*
X156291652Y-60511027D01*
X156313831Y-60521517D01*
X156334874Y-60534129D01*
X156354580Y-60548744D01*
X156372758Y-60565220D01*
X156389234Y-60583398D01*
X156403849Y-60603104D01*
X156416461Y-60624147D01*
X156426951Y-60646326D01*
X156435216Y-60669425D01*
X156441177Y-60693224D01*
X156444777Y-60717492D01*
X156445981Y-60741996D01*
X156445981Y-61641998D01*
X156444777Y-61666502D01*
X156441177Y-61690770D01*
X156435216Y-61714569D01*
X156426951Y-61737668D01*
X156416461Y-61759847D01*
X156403849Y-61780890D01*
X156389234Y-61800596D01*
X156372758Y-61818774D01*
X156354580Y-61835250D01*
X156334874Y-61849865D01*
X156313831Y-61862477D01*
X156291652Y-61872967D01*
X156268553Y-61881232D01*
X156244754Y-61887193D01*
X156220486Y-61890793D01*
X156195982Y-61891997D01*
X155545980Y-61891997D01*
X155521476Y-61890793D01*
X155497208Y-61887193D01*
X155473409Y-61881232D01*
X155450310Y-61872967D01*
X155428131Y-61862477D01*
X155407088Y-61849865D01*
X155387382Y-61835250D01*
X155369204Y-61818774D01*
X155352728Y-61800596D01*
X155338113Y-61780890D01*
X155325501Y-61759847D01*
X155315011Y-61737668D01*
X155306746Y-61714569D01*
X155300785Y-61690770D01*
X155297185Y-61666502D01*
X155295981Y-61641998D01*
X155295981Y-60741996D01*
X155297185Y-60717492D01*
X155300785Y-60693224D01*
X155306746Y-60669425D01*
X155315011Y-60646326D01*
X155325501Y-60624147D01*
X155338113Y-60603104D01*
X155352728Y-60583398D01*
X155369204Y-60565220D01*
X155387382Y-60548744D01*
X155407088Y-60534129D01*
X155428131Y-60521517D01*
X155450310Y-60511027D01*
X155473409Y-60502762D01*
X155497208Y-60496801D01*
X155521476Y-60493201D01*
X155545980Y-60491997D01*
X156195982Y-60491997D01*
X156220486Y-60493201D01*
X156220486Y-60493201D01*
G37*
D14*
X155870981Y-61191997D03*
D13*
G36*
X158870486Y-82789182D02*
G01*
X158894754Y-82792782D01*
X158918553Y-82798743D01*
X158941652Y-82807008D01*
X158963831Y-82817498D01*
X158984874Y-82830110D01*
X159004580Y-82844725D01*
X159022758Y-82861201D01*
X159039234Y-82879379D01*
X159053849Y-82899085D01*
X159066461Y-82920128D01*
X159076951Y-82942307D01*
X159085216Y-82965406D01*
X159091177Y-82989205D01*
X159094777Y-83013473D01*
X159095981Y-83037977D01*
X159095981Y-83937979D01*
X159094777Y-83962483D01*
X159091177Y-83986751D01*
X159085216Y-84010550D01*
X159076951Y-84033649D01*
X159066461Y-84055828D01*
X159053849Y-84076871D01*
X159039234Y-84096577D01*
X159022758Y-84114755D01*
X159004580Y-84131231D01*
X158984874Y-84145846D01*
X158963831Y-84158458D01*
X158941652Y-84168948D01*
X158918553Y-84177213D01*
X158894754Y-84183174D01*
X158870486Y-84186774D01*
X158845982Y-84187978D01*
X158195980Y-84187978D01*
X158171476Y-84186774D01*
X158147208Y-84183174D01*
X158123409Y-84177213D01*
X158100310Y-84168948D01*
X158078131Y-84158458D01*
X158057088Y-84145846D01*
X158037382Y-84131231D01*
X158019204Y-84114755D01*
X158002728Y-84096577D01*
X157988113Y-84076871D01*
X157975501Y-84055828D01*
X157965011Y-84033649D01*
X157956746Y-84010550D01*
X157950785Y-83986751D01*
X157947185Y-83962483D01*
X157945981Y-83937979D01*
X157945981Y-83037977D01*
X157947185Y-83013473D01*
X157950785Y-82989205D01*
X157956746Y-82965406D01*
X157965011Y-82942307D01*
X157975501Y-82920128D01*
X157988113Y-82899085D01*
X158002728Y-82879379D01*
X158019204Y-82861201D01*
X158037382Y-82844725D01*
X158057088Y-82830110D01*
X158078131Y-82817498D01*
X158100310Y-82807008D01*
X158123409Y-82798743D01*
X158147208Y-82792782D01*
X158171476Y-82789182D01*
X158195980Y-82787978D01*
X158845982Y-82787978D01*
X158870486Y-82789182D01*
X158870486Y-82789182D01*
G37*
D14*
X158520981Y-83487978D03*
D13*
G36*
X156820486Y-82789182D02*
G01*
X156844754Y-82792782D01*
X156868553Y-82798743D01*
X156891652Y-82807008D01*
X156913831Y-82817498D01*
X156934874Y-82830110D01*
X156954580Y-82844725D01*
X156972758Y-82861201D01*
X156989234Y-82879379D01*
X157003849Y-82899085D01*
X157016461Y-82920128D01*
X157026951Y-82942307D01*
X157035216Y-82965406D01*
X157041177Y-82989205D01*
X157044777Y-83013473D01*
X157045981Y-83037977D01*
X157045981Y-83937979D01*
X157044777Y-83962483D01*
X157041177Y-83986751D01*
X157035216Y-84010550D01*
X157026951Y-84033649D01*
X157016461Y-84055828D01*
X157003849Y-84076871D01*
X156989234Y-84096577D01*
X156972758Y-84114755D01*
X156954580Y-84131231D01*
X156934874Y-84145846D01*
X156913831Y-84158458D01*
X156891652Y-84168948D01*
X156868553Y-84177213D01*
X156844754Y-84183174D01*
X156820486Y-84186774D01*
X156795982Y-84187978D01*
X156145980Y-84187978D01*
X156121476Y-84186774D01*
X156097208Y-84183174D01*
X156073409Y-84177213D01*
X156050310Y-84168948D01*
X156028131Y-84158458D01*
X156007088Y-84145846D01*
X155987382Y-84131231D01*
X155969204Y-84114755D01*
X155952728Y-84096577D01*
X155938113Y-84076871D01*
X155925501Y-84055828D01*
X155915011Y-84033649D01*
X155906746Y-84010550D01*
X155900785Y-83986751D01*
X155897185Y-83962483D01*
X155895981Y-83937979D01*
X155895981Y-83037977D01*
X155897185Y-83013473D01*
X155900785Y-82989205D01*
X155906746Y-82965406D01*
X155915011Y-82942307D01*
X155925501Y-82920128D01*
X155938113Y-82899085D01*
X155952728Y-82879379D01*
X155969204Y-82861201D01*
X155987382Y-82844725D01*
X156007088Y-82830110D01*
X156028131Y-82817498D01*
X156050310Y-82807008D01*
X156073409Y-82798743D01*
X156097208Y-82792782D01*
X156121476Y-82789182D01*
X156145980Y-82787978D01*
X156795982Y-82787978D01*
X156820486Y-82789182D01*
X156820486Y-82789182D01*
G37*
D14*
X156470981Y-83487978D03*
D13*
G36*
X158870486Y-84789182D02*
G01*
X158894754Y-84792782D01*
X158918553Y-84798743D01*
X158941652Y-84807008D01*
X158963831Y-84817498D01*
X158984874Y-84830110D01*
X159004580Y-84844725D01*
X159022758Y-84861201D01*
X159039234Y-84879379D01*
X159053849Y-84899085D01*
X159066461Y-84920128D01*
X159076951Y-84942307D01*
X159085216Y-84965406D01*
X159091177Y-84989205D01*
X159094777Y-85013473D01*
X159095981Y-85037977D01*
X159095981Y-85937979D01*
X159094777Y-85962483D01*
X159091177Y-85986751D01*
X159085216Y-86010550D01*
X159076951Y-86033649D01*
X159066461Y-86055828D01*
X159053849Y-86076871D01*
X159039234Y-86096577D01*
X159022758Y-86114755D01*
X159004580Y-86131231D01*
X158984874Y-86145846D01*
X158963831Y-86158458D01*
X158941652Y-86168948D01*
X158918553Y-86177213D01*
X158894754Y-86183174D01*
X158870486Y-86186774D01*
X158845982Y-86187978D01*
X158195980Y-86187978D01*
X158171476Y-86186774D01*
X158147208Y-86183174D01*
X158123409Y-86177213D01*
X158100310Y-86168948D01*
X158078131Y-86158458D01*
X158057088Y-86145846D01*
X158037382Y-86131231D01*
X158019204Y-86114755D01*
X158002728Y-86096577D01*
X157988113Y-86076871D01*
X157975501Y-86055828D01*
X157965011Y-86033649D01*
X157956746Y-86010550D01*
X157950785Y-85986751D01*
X157947185Y-85962483D01*
X157945981Y-85937979D01*
X157945981Y-85037977D01*
X157947185Y-85013473D01*
X157950785Y-84989205D01*
X157956746Y-84965406D01*
X157965011Y-84942307D01*
X157975501Y-84920128D01*
X157988113Y-84899085D01*
X158002728Y-84879379D01*
X158019204Y-84861201D01*
X158037382Y-84844725D01*
X158057088Y-84830110D01*
X158078131Y-84817498D01*
X158100310Y-84807008D01*
X158123409Y-84798743D01*
X158147208Y-84792782D01*
X158171476Y-84789182D01*
X158195980Y-84787978D01*
X158845982Y-84787978D01*
X158870486Y-84789182D01*
X158870486Y-84789182D01*
G37*
D14*
X158520981Y-85487978D03*
D13*
G36*
X156820486Y-84789182D02*
G01*
X156844754Y-84792782D01*
X156868553Y-84798743D01*
X156891652Y-84807008D01*
X156913831Y-84817498D01*
X156934874Y-84830110D01*
X156954580Y-84844725D01*
X156972758Y-84861201D01*
X156989234Y-84879379D01*
X157003849Y-84899085D01*
X157016461Y-84920128D01*
X157026951Y-84942307D01*
X157035216Y-84965406D01*
X157041177Y-84989205D01*
X157044777Y-85013473D01*
X157045981Y-85037977D01*
X157045981Y-85937979D01*
X157044777Y-85962483D01*
X157041177Y-85986751D01*
X157035216Y-86010550D01*
X157026951Y-86033649D01*
X157016461Y-86055828D01*
X157003849Y-86076871D01*
X156989234Y-86096577D01*
X156972758Y-86114755D01*
X156954580Y-86131231D01*
X156934874Y-86145846D01*
X156913831Y-86158458D01*
X156891652Y-86168948D01*
X156868553Y-86177213D01*
X156844754Y-86183174D01*
X156820486Y-86186774D01*
X156795982Y-86187978D01*
X156145980Y-86187978D01*
X156121476Y-86186774D01*
X156097208Y-86183174D01*
X156073409Y-86177213D01*
X156050310Y-86168948D01*
X156028131Y-86158458D01*
X156007088Y-86145846D01*
X155987382Y-86131231D01*
X155969204Y-86114755D01*
X155952728Y-86096577D01*
X155938113Y-86076871D01*
X155925501Y-86055828D01*
X155915011Y-86033649D01*
X155906746Y-86010550D01*
X155900785Y-85986751D01*
X155897185Y-85962483D01*
X155895981Y-85937979D01*
X155895981Y-85037977D01*
X155897185Y-85013473D01*
X155900785Y-84989205D01*
X155906746Y-84965406D01*
X155915011Y-84942307D01*
X155925501Y-84920128D01*
X155938113Y-84899085D01*
X155952728Y-84879379D01*
X155969204Y-84861201D01*
X155987382Y-84844725D01*
X156007088Y-84830110D01*
X156028131Y-84817498D01*
X156050310Y-84807008D01*
X156073409Y-84798743D01*
X156097208Y-84792782D01*
X156121476Y-84789182D01*
X156145980Y-84787978D01*
X156795982Y-84787978D01*
X156820486Y-84789182D01*
X156820486Y-84789182D01*
G37*
D14*
X156470981Y-85487978D03*
D13*
G36*
X158870486Y-86789182D02*
G01*
X158894754Y-86792782D01*
X158918553Y-86798743D01*
X158941652Y-86807008D01*
X158963831Y-86817498D01*
X158984874Y-86830110D01*
X159004580Y-86844725D01*
X159022758Y-86861201D01*
X159039234Y-86879379D01*
X159053849Y-86899085D01*
X159066461Y-86920128D01*
X159076951Y-86942307D01*
X159085216Y-86965406D01*
X159091177Y-86989205D01*
X159094777Y-87013473D01*
X159095981Y-87037977D01*
X159095981Y-87937979D01*
X159094777Y-87962483D01*
X159091177Y-87986751D01*
X159085216Y-88010550D01*
X159076951Y-88033649D01*
X159066461Y-88055828D01*
X159053849Y-88076871D01*
X159039234Y-88096577D01*
X159022758Y-88114755D01*
X159004580Y-88131231D01*
X158984874Y-88145846D01*
X158963831Y-88158458D01*
X158941652Y-88168948D01*
X158918553Y-88177213D01*
X158894754Y-88183174D01*
X158870486Y-88186774D01*
X158845982Y-88187978D01*
X158195980Y-88187978D01*
X158171476Y-88186774D01*
X158147208Y-88183174D01*
X158123409Y-88177213D01*
X158100310Y-88168948D01*
X158078131Y-88158458D01*
X158057088Y-88145846D01*
X158037382Y-88131231D01*
X158019204Y-88114755D01*
X158002728Y-88096577D01*
X157988113Y-88076871D01*
X157975501Y-88055828D01*
X157965011Y-88033649D01*
X157956746Y-88010550D01*
X157950785Y-87986751D01*
X157947185Y-87962483D01*
X157945981Y-87937979D01*
X157945981Y-87037977D01*
X157947185Y-87013473D01*
X157950785Y-86989205D01*
X157956746Y-86965406D01*
X157965011Y-86942307D01*
X157975501Y-86920128D01*
X157988113Y-86899085D01*
X158002728Y-86879379D01*
X158019204Y-86861201D01*
X158037382Y-86844725D01*
X158057088Y-86830110D01*
X158078131Y-86817498D01*
X158100310Y-86807008D01*
X158123409Y-86798743D01*
X158147208Y-86792782D01*
X158171476Y-86789182D01*
X158195980Y-86787978D01*
X158845982Y-86787978D01*
X158870486Y-86789182D01*
X158870486Y-86789182D01*
G37*
D14*
X158520981Y-87487978D03*
D13*
G36*
X156820486Y-86789182D02*
G01*
X156844754Y-86792782D01*
X156868553Y-86798743D01*
X156891652Y-86807008D01*
X156913831Y-86817498D01*
X156934874Y-86830110D01*
X156954580Y-86844725D01*
X156972758Y-86861201D01*
X156989234Y-86879379D01*
X157003849Y-86899085D01*
X157016461Y-86920128D01*
X157026951Y-86942307D01*
X157035216Y-86965406D01*
X157041177Y-86989205D01*
X157044777Y-87013473D01*
X157045981Y-87037977D01*
X157045981Y-87937979D01*
X157044777Y-87962483D01*
X157041177Y-87986751D01*
X157035216Y-88010550D01*
X157026951Y-88033649D01*
X157016461Y-88055828D01*
X157003849Y-88076871D01*
X156989234Y-88096577D01*
X156972758Y-88114755D01*
X156954580Y-88131231D01*
X156934874Y-88145846D01*
X156913831Y-88158458D01*
X156891652Y-88168948D01*
X156868553Y-88177213D01*
X156844754Y-88183174D01*
X156820486Y-88186774D01*
X156795982Y-88187978D01*
X156145980Y-88187978D01*
X156121476Y-88186774D01*
X156097208Y-88183174D01*
X156073409Y-88177213D01*
X156050310Y-88168948D01*
X156028131Y-88158458D01*
X156007088Y-88145846D01*
X155987382Y-88131231D01*
X155969204Y-88114755D01*
X155952728Y-88096577D01*
X155938113Y-88076871D01*
X155925501Y-88055828D01*
X155915011Y-88033649D01*
X155906746Y-88010550D01*
X155900785Y-87986751D01*
X155897185Y-87962483D01*
X155895981Y-87937979D01*
X155895981Y-87037977D01*
X155897185Y-87013473D01*
X155900785Y-86989205D01*
X155906746Y-86965406D01*
X155915011Y-86942307D01*
X155925501Y-86920128D01*
X155938113Y-86899085D01*
X155952728Y-86879379D01*
X155969204Y-86861201D01*
X155987382Y-86844725D01*
X156007088Y-86830110D01*
X156028131Y-86817498D01*
X156050310Y-86807008D01*
X156073409Y-86798743D01*
X156097208Y-86792782D01*
X156121476Y-86789182D01*
X156145980Y-86787978D01*
X156795982Y-86787978D01*
X156820486Y-86789182D01*
X156820486Y-86789182D01*
G37*
D14*
X156470981Y-87487978D03*
D13*
G36*
X158870486Y-88789182D02*
G01*
X158894754Y-88792782D01*
X158918553Y-88798743D01*
X158941652Y-88807008D01*
X158963831Y-88817498D01*
X158984874Y-88830110D01*
X159004580Y-88844725D01*
X159022758Y-88861201D01*
X159039234Y-88879379D01*
X159053849Y-88899085D01*
X159066461Y-88920128D01*
X159076951Y-88942307D01*
X159085216Y-88965406D01*
X159091177Y-88989205D01*
X159094777Y-89013473D01*
X159095981Y-89037977D01*
X159095981Y-89937979D01*
X159094777Y-89962483D01*
X159091177Y-89986751D01*
X159085216Y-90010550D01*
X159076951Y-90033649D01*
X159066461Y-90055828D01*
X159053849Y-90076871D01*
X159039234Y-90096577D01*
X159022758Y-90114755D01*
X159004580Y-90131231D01*
X158984874Y-90145846D01*
X158963831Y-90158458D01*
X158941652Y-90168948D01*
X158918553Y-90177213D01*
X158894754Y-90183174D01*
X158870486Y-90186774D01*
X158845982Y-90187978D01*
X158195980Y-90187978D01*
X158171476Y-90186774D01*
X158147208Y-90183174D01*
X158123409Y-90177213D01*
X158100310Y-90168948D01*
X158078131Y-90158458D01*
X158057088Y-90145846D01*
X158037382Y-90131231D01*
X158019204Y-90114755D01*
X158002728Y-90096577D01*
X157988113Y-90076871D01*
X157975501Y-90055828D01*
X157965011Y-90033649D01*
X157956746Y-90010550D01*
X157950785Y-89986751D01*
X157947185Y-89962483D01*
X157945981Y-89937979D01*
X157945981Y-89037977D01*
X157947185Y-89013473D01*
X157950785Y-88989205D01*
X157956746Y-88965406D01*
X157965011Y-88942307D01*
X157975501Y-88920128D01*
X157988113Y-88899085D01*
X158002728Y-88879379D01*
X158019204Y-88861201D01*
X158037382Y-88844725D01*
X158057088Y-88830110D01*
X158078131Y-88817498D01*
X158100310Y-88807008D01*
X158123409Y-88798743D01*
X158147208Y-88792782D01*
X158171476Y-88789182D01*
X158195980Y-88787978D01*
X158845982Y-88787978D01*
X158870486Y-88789182D01*
X158870486Y-88789182D01*
G37*
D14*
X158520981Y-89487978D03*
D13*
G36*
X156820486Y-88789182D02*
G01*
X156844754Y-88792782D01*
X156868553Y-88798743D01*
X156891652Y-88807008D01*
X156913831Y-88817498D01*
X156934874Y-88830110D01*
X156954580Y-88844725D01*
X156972758Y-88861201D01*
X156989234Y-88879379D01*
X157003849Y-88899085D01*
X157016461Y-88920128D01*
X157026951Y-88942307D01*
X157035216Y-88965406D01*
X157041177Y-88989205D01*
X157044777Y-89013473D01*
X157045981Y-89037977D01*
X157045981Y-89937979D01*
X157044777Y-89962483D01*
X157041177Y-89986751D01*
X157035216Y-90010550D01*
X157026951Y-90033649D01*
X157016461Y-90055828D01*
X157003849Y-90076871D01*
X156989234Y-90096577D01*
X156972758Y-90114755D01*
X156954580Y-90131231D01*
X156934874Y-90145846D01*
X156913831Y-90158458D01*
X156891652Y-90168948D01*
X156868553Y-90177213D01*
X156844754Y-90183174D01*
X156820486Y-90186774D01*
X156795982Y-90187978D01*
X156145980Y-90187978D01*
X156121476Y-90186774D01*
X156097208Y-90183174D01*
X156073409Y-90177213D01*
X156050310Y-90168948D01*
X156028131Y-90158458D01*
X156007088Y-90145846D01*
X155987382Y-90131231D01*
X155969204Y-90114755D01*
X155952728Y-90096577D01*
X155938113Y-90076871D01*
X155925501Y-90055828D01*
X155915011Y-90033649D01*
X155906746Y-90010550D01*
X155900785Y-89986751D01*
X155897185Y-89962483D01*
X155895981Y-89937979D01*
X155895981Y-89037977D01*
X155897185Y-89013473D01*
X155900785Y-88989205D01*
X155906746Y-88965406D01*
X155915011Y-88942307D01*
X155925501Y-88920128D01*
X155938113Y-88899085D01*
X155952728Y-88879379D01*
X155969204Y-88861201D01*
X155987382Y-88844725D01*
X156007088Y-88830110D01*
X156028131Y-88817498D01*
X156050310Y-88807008D01*
X156073409Y-88798743D01*
X156097208Y-88792782D01*
X156121476Y-88789182D01*
X156145980Y-88787978D01*
X156795982Y-88787978D01*
X156820486Y-88789182D01*
X156820486Y-88789182D01*
G37*
D14*
X156470981Y-89487978D03*
D17*
X129295981Y-113591997D03*
X130245981Y-111591997D03*
X128345981Y-111591997D03*
D18*
X110268151Y-94633643D03*
D13*
G36*
X110269900Y-94031566D02*
G01*
X110866281Y-94564792D01*
X110266402Y-95235720D01*
X109670021Y-94702494D01*
X110269900Y-94031566D01*
X110269900Y-94031566D01*
G37*
D18*
X112309418Y-93775897D03*
D13*
G36*
X112311167Y-93173820D02*
G01*
X112907548Y-93707046D01*
X112307669Y-94377974D01*
X111711288Y-93844748D01*
X112311167Y-93173820D01*
X112311167Y-93173820D01*
G37*
D18*
X110893013Y-92509485D03*
D13*
G36*
X110894762Y-91907408D02*
G01*
X111491143Y-92440634D01*
X110891264Y-93111562D01*
X110294883Y-92578336D01*
X110894762Y-91907408D01*
X110894762Y-91907408D01*
G37*
D18*
X193610163Y-82892698D03*
D13*
G36*
X193012033Y-82823847D02*
G01*
X193608414Y-82290621D01*
X194208293Y-82961549D01*
X193611912Y-83494775D01*
X193012033Y-82823847D01*
X193012033Y-82823847D01*
G37*
D18*
X192985301Y-80768540D03*
D13*
G36*
X192387171Y-80699689D02*
G01*
X192983552Y-80166463D01*
X193583431Y-80837391D01*
X192987050Y-81370617D01*
X192387171Y-80699689D01*
X192387171Y-80699689D01*
G37*
D18*
X191568896Y-82034952D03*
D13*
G36*
X190970766Y-81966101D02*
G01*
X191567147Y-81432875D01*
X192167026Y-82103803D01*
X191570645Y-82637029D01*
X190970766Y-81966101D01*
X190970766Y-81966101D01*
G37*
D18*
X88548517Y-75214049D03*
D13*
G36*
X88550266Y-74611972D02*
G01*
X89146647Y-75145198D01*
X88546768Y-75816126D01*
X87950387Y-75282900D01*
X88550266Y-74611972D01*
X88550266Y-74611972D01*
G37*
D18*
X90589784Y-74356303D03*
D13*
G36*
X90591533Y-73754226D02*
G01*
X91187914Y-74287452D01*
X90588035Y-74958380D01*
X89991654Y-74425154D01*
X90591533Y-73754226D01*
X90591533Y-73754226D01*
G37*
D18*
X89173379Y-73089891D03*
D13*
G36*
X89175128Y-72487814D02*
G01*
X89771509Y-73021040D01*
X89171630Y-73691968D01*
X88575249Y-73158742D01*
X89175128Y-72487814D01*
X89175128Y-72487814D01*
G37*
D18*
X107602021Y-97615547D03*
D13*
G36*
X107603770Y-97013470D02*
G01*
X108200151Y-97546696D01*
X107600272Y-98217624D01*
X107003891Y-97684398D01*
X107603770Y-97013470D01*
X107603770Y-97013470D01*
G37*
D18*
X109643288Y-96757801D03*
D13*
G36*
X109645037Y-96155724D02*
G01*
X110241418Y-96688950D01*
X109641539Y-97359878D01*
X109045158Y-96826652D01*
X109645037Y-96155724D01*
X109645037Y-96155724D01*
G37*
D18*
X108226883Y-95491389D03*
D13*
G36*
X108228632Y-94889312D02*
G01*
X108825013Y-95422538D01*
X108225134Y-96093466D01*
X107628753Y-95560240D01*
X108228632Y-94889312D01*
X108228632Y-94889312D01*
G37*
D18*
X196313566Y-85841275D03*
D13*
G36*
X195715436Y-85772424D02*
G01*
X196311817Y-85239198D01*
X196911696Y-85910126D01*
X196315315Y-86443352D01*
X195715436Y-85772424D01*
X195715436Y-85772424D01*
G37*
D18*
X195688704Y-83717117D03*
D13*
G36*
X195090574Y-83648266D02*
G01*
X195686955Y-83115040D01*
X196286834Y-83785968D01*
X195690453Y-84319194D01*
X195090574Y-83648266D01*
X195090574Y-83648266D01*
G37*
D18*
X194272299Y-84983529D03*
D13*
G36*
X193674169Y-84914678D02*
G01*
X194270550Y-84381452D01*
X194870429Y-85052380D01*
X194274048Y-85585606D01*
X193674169Y-84914678D01*
X193674169Y-84914678D01*
G37*
D18*
X85882387Y-78195953D03*
D13*
G36*
X85884136Y-77593876D02*
G01*
X86480517Y-78127102D01*
X85880638Y-78798030D01*
X85284257Y-78264804D01*
X85884136Y-77593876D01*
X85884136Y-77593876D01*
G37*
D18*
X87923654Y-77338207D03*
D13*
G36*
X87925403Y-76736130D02*
G01*
X88521784Y-77269356D01*
X87921905Y-77940284D01*
X87325524Y-77407058D01*
X87925403Y-76736130D01*
X87925403Y-76736130D01*
G37*
D18*
X86507249Y-76071795D03*
D13*
G36*
X86508998Y-75469718D02*
G01*
X87105379Y-76002944D01*
X86505500Y-76673872D01*
X85909119Y-76140646D01*
X86508998Y-75469718D01*
X86508998Y-75469718D01*
G37*
D18*
X182903826Y-92465267D03*
D13*
G36*
X182305696Y-92396416D02*
G01*
X182902077Y-91863190D01*
X183501956Y-92534118D01*
X182905575Y-93067344D01*
X182305696Y-92396416D01*
X182305696Y-92396416D01*
G37*
D18*
X182278964Y-90341109D03*
D13*
G36*
X181680834Y-90272258D02*
G01*
X182277215Y-89739032D01*
X182877094Y-90409960D01*
X182280713Y-90943186D01*
X181680834Y-90272258D01*
X181680834Y-90272258D01*
G37*
D18*
X180862559Y-91607521D03*
D13*
G36*
X180264429Y-91538670D02*
G01*
X180860810Y-91005444D01*
X181460689Y-91676372D01*
X180864308Y-92209598D01*
X180264429Y-91538670D01*
X180264429Y-91538670D01*
G37*
D18*
X204387564Y-73256588D03*
D13*
G36*
X203789434Y-73187737D02*
G01*
X204385815Y-72654511D01*
X204985694Y-73325439D01*
X204389313Y-73858665D01*
X203789434Y-73187737D01*
X203789434Y-73187737D01*
G37*
D18*
X203762702Y-71132430D03*
D13*
G36*
X203164572Y-71063579D02*
G01*
X203760953Y-70530353D01*
X204360832Y-71201281D01*
X203764451Y-71734507D01*
X203164572Y-71063579D01*
X203164572Y-71063579D01*
G37*
D18*
X202346297Y-72398842D03*
D13*
G36*
X201748167Y-72329991D02*
G01*
X202344548Y-71796765D01*
X202944427Y-72467693D01*
X202348046Y-73000919D01*
X201748167Y-72329991D01*
X201748167Y-72329991D01*
G37*
D18*
X99414167Y-84929061D03*
D13*
G36*
X99415916Y-84326984D02*
G01*
X100012297Y-84860210D01*
X99412418Y-85531138D01*
X98816037Y-84997912D01*
X99415916Y-84326984D01*
X99415916Y-84326984D01*
G37*
D18*
X101455434Y-84071315D03*
D13*
G36*
X101457183Y-83469238D02*
G01*
X102053564Y-84002464D01*
X101453685Y-84673392D01*
X100857304Y-84140166D01*
X101457183Y-83469238D01*
X101457183Y-83469238D01*
G37*
D18*
X100039029Y-82804903D03*
D13*
G36*
X100040778Y-82202826D02*
G01*
X100637159Y-82736052D01*
X100037280Y-83406980D01*
X99440899Y-82873754D01*
X100040778Y-82202826D01*
X100040778Y-82202826D01*
G37*
D18*
X185469928Y-95536606D03*
D13*
G36*
X184871798Y-95467755D02*
G01*
X185468179Y-94934529D01*
X186068058Y-95605457D01*
X185471677Y-96138683D01*
X184871798Y-95467755D01*
X184871798Y-95467755D01*
G37*
D18*
X184845066Y-93412448D03*
D13*
G36*
X184246936Y-93343597D02*
G01*
X184843317Y-92810371D01*
X185443196Y-93481299D01*
X184846815Y-94014525D01*
X184246936Y-93343597D01*
X184246936Y-93343597D01*
G37*
D18*
X183428661Y-94678860D03*
D13*
G36*
X182830531Y-94610009D02*
G01*
X183426912Y-94076783D01*
X184026791Y-94747711D01*
X183430410Y-95280937D01*
X182830531Y-94610009D01*
X182830531Y-94610009D01*
G37*
D18*
X207053694Y-76238492D03*
D13*
G36*
X206455564Y-76169641D02*
G01*
X207051945Y-75636415D01*
X207651824Y-76307343D01*
X207055443Y-76840569D01*
X206455564Y-76169641D01*
X206455564Y-76169641D01*
G37*
D18*
X206428832Y-74114334D03*
D13*
G36*
X205830702Y-74045483D02*
G01*
X206427083Y-73512257D01*
X207026962Y-74183185D01*
X206430581Y-74716411D01*
X205830702Y-74045483D01*
X205830702Y-74045483D01*
G37*
D18*
X205012427Y-75380746D03*
D13*
G36*
X204414297Y-75311895D02*
G01*
X205010678Y-74778669D01*
X205610557Y-75449597D01*
X205014176Y-75982823D01*
X204414297Y-75311895D01*
X204414297Y-75311895D01*
G37*
D18*
X96748037Y-87910965D03*
D13*
G36*
X96749786Y-87308888D02*
G01*
X97346167Y-87842114D01*
X96746288Y-88513042D01*
X96149907Y-87979816D01*
X96749786Y-87308888D01*
X96749786Y-87308888D01*
G37*
D18*
X98789304Y-87053219D03*
D13*
G36*
X98791053Y-86451142D02*
G01*
X99387434Y-86984368D01*
X98787555Y-87655296D01*
X98191174Y-87122070D01*
X98791053Y-86451142D01*
X98791053Y-86451142D01*
G37*
D18*
X97372899Y-85786807D03*
D13*
G36*
X97374648Y-85184730D02*
G01*
X97971029Y-85717956D01*
X97371150Y-86388884D01*
X96774769Y-85855658D01*
X97374648Y-85184730D01*
X97374648Y-85184730D01*
G37*
D19*
X131099965Y-91941997D03*
X129099965Y-90991997D03*
X129099965Y-92891997D03*
D13*
G36*
X148733657Y-80215958D02*
G01*
X148757925Y-80219558D01*
X148781724Y-80225519D01*
X148804823Y-80233784D01*
X148827002Y-80244274D01*
X148848045Y-80256886D01*
X148867751Y-80271501D01*
X148885929Y-80287977D01*
X149345550Y-80747598D01*
X149362026Y-80765776D01*
X149376641Y-80785482D01*
X149389253Y-80806525D01*
X149399743Y-80828704D01*
X149408008Y-80851803D01*
X149413969Y-80875602D01*
X149417569Y-80899870D01*
X149418773Y-80924374D01*
X149417569Y-80948878D01*
X149413969Y-80973146D01*
X149408008Y-80996945D01*
X149399743Y-81020044D01*
X149389253Y-81042223D01*
X149376641Y-81063266D01*
X149362026Y-81082972D01*
X149345550Y-81101150D01*
X148709153Y-81737547D01*
X148690975Y-81754023D01*
X148671269Y-81768638D01*
X148650226Y-81781250D01*
X148628047Y-81791740D01*
X148604948Y-81800005D01*
X148581149Y-81805966D01*
X148556881Y-81809566D01*
X148532377Y-81810770D01*
X148507873Y-81809566D01*
X148483605Y-81805966D01*
X148459806Y-81800005D01*
X148436707Y-81791740D01*
X148414528Y-81781250D01*
X148393485Y-81768638D01*
X148373779Y-81754023D01*
X148355601Y-81737547D01*
X147895980Y-81277926D01*
X147879504Y-81259748D01*
X147864889Y-81240042D01*
X147852277Y-81218999D01*
X147841787Y-81196820D01*
X147833522Y-81173721D01*
X147827561Y-81149922D01*
X147823961Y-81125654D01*
X147822757Y-81101150D01*
X147823961Y-81076646D01*
X147827561Y-81052378D01*
X147833522Y-81028579D01*
X147841787Y-81005480D01*
X147852277Y-80983301D01*
X147864889Y-80962258D01*
X147879504Y-80942552D01*
X147895980Y-80924374D01*
X148532377Y-80287977D01*
X148550555Y-80271501D01*
X148570261Y-80256886D01*
X148591304Y-80244274D01*
X148613483Y-80233784D01*
X148636582Y-80225519D01*
X148660381Y-80219558D01*
X148684649Y-80215958D01*
X148709153Y-80214754D01*
X148733657Y-80215958D01*
X148733657Y-80215958D01*
G37*
D14*
X148620765Y-81012762D03*
D13*
G36*
X147284089Y-78766390D02*
G01*
X147308357Y-78769990D01*
X147332156Y-78775951D01*
X147355255Y-78784216D01*
X147377434Y-78794706D01*
X147398477Y-78807318D01*
X147418183Y-78821933D01*
X147436361Y-78838409D01*
X147895982Y-79298030D01*
X147912458Y-79316208D01*
X147927073Y-79335914D01*
X147939685Y-79356957D01*
X147950175Y-79379136D01*
X147958440Y-79402235D01*
X147964401Y-79426034D01*
X147968001Y-79450302D01*
X147969205Y-79474806D01*
X147968001Y-79499310D01*
X147964401Y-79523578D01*
X147958440Y-79547377D01*
X147950175Y-79570476D01*
X147939685Y-79592655D01*
X147927073Y-79613698D01*
X147912458Y-79633404D01*
X147895982Y-79651582D01*
X147259585Y-80287979D01*
X147241407Y-80304455D01*
X147221701Y-80319070D01*
X147200658Y-80331682D01*
X147178479Y-80342172D01*
X147155380Y-80350437D01*
X147131581Y-80356398D01*
X147107313Y-80359998D01*
X147082809Y-80361202D01*
X147058305Y-80359998D01*
X147034037Y-80356398D01*
X147010238Y-80350437D01*
X146987139Y-80342172D01*
X146964960Y-80331682D01*
X146943917Y-80319070D01*
X146924211Y-80304455D01*
X146906033Y-80287979D01*
X146446412Y-79828358D01*
X146429936Y-79810180D01*
X146415321Y-79790474D01*
X146402709Y-79769431D01*
X146392219Y-79747252D01*
X146383954Y-79724153D01*
X146377993Y-79700354D01*
X146374393Y-79676086D01*
X146373189Y-79651582D01*
X146374393Y-79627078D01*
X146377993Y-79602810D01*
X146383954Y-79579011D01*
X146392219Y-79555912D01*
X146402709Y-79533733D01*
X146415321Y-79512690D01*
X146429936Y-79492984D01*
X146446412Y-79474806D01*
X147082809Y-78838409D01*
X147100987Y-78821933D01*
X147120693Y-78807318D01*
X147141736Y-78794706D01*
X147163915Y-78784216D01*
X147187014Y-78775951D01*
X147210813Y-78769990D01*
X147235081Y-78766390D01*
X147259585Y-78765186D01*
X147284089Y-78766390D01*
X147284089Y-78766390D01*
G37*
D14*
X147171197Y-79563194D03*
D13*
G36*
X134895485Y-101718201D02*
G01*
X134919754Y-101721801D01*
X134943552Y-101727762D01*
X134966652Y-101736027D01*
X134988830Y-101746517D01*
X135009874Y-101759130D01*
X135029579Y-101773744D01*
X135047758Y-101790220D01*
X135064234Y-101808399D01*
X135078848Y-101828104D01*
X135091461Y-101849148D01*
X135101951Y-101871326D01*
X135110216Y-101894426D01*
X135116177Y-101918224D01*
X135119777Y-101942493D01*
X135120981Y-101966997D01*
X135120981Y-103216997D01*
X135119777Y-103241501D01*
X135116177Y-103265770D01*
X135110216Y-103289568D01*
X135101951Y-103312668D01*
X135091461Y-103334846D01*
X135078848Y-103355890D01*
X135064234Y-103375595D01*
X135047758Y-103393774D01*
X135029579Y-103410250D01*
X135009874Y-103424864D01*
X134988830Y-103437477D01*
X134966652Y-103447967D01*
X134943552Y-103456232D01*
X134919754Y-103462193D01*
X134895485Y-103465793D01*
X134870981Y-103466997D01*
X133945981Y-103466997D01*
X133921477Y-103465793D01*
X133897208Y-103462193D01*
X133873410Y-103456232D01*
X133850310Y-103447967D01*
X133828132Y-103437477D01*
X133807088Y-103424864D01*
X133787383Y-103410250D01*
X133769204Y-103393774D01*
X133752728Y-103375595D01*
X133738114Y-103355890D01*
X133725501Y-103334846D01*
X133715011Y-103312668D01*
X133706746Y-103289568D01*
X133700785Y-103265770D01*
X133697185Y-103241501D01*
X133695981Y-103216997D01*
X133695981Y-101966997D01*
X133697185Y-101942493D01*
X133700785Y-101918224D01*
X133706746Y-101894426D01*
X133715011Y-101871326D01*
X133725501Y-101849148D01*
X133738114Y-101828104D01*
X133752728Y-101808399D01*
X133769204Y-101790220D01*
X133787383Y-101773744D01*
X133807088Y-101759130D01*
X133828132Y-101746517D01*
X133850310Y-101736027D01*
X133873410Y-101727762D01*
X133897208Y-101721801D01*
X133921477Y-101718201D01*
X133945981Y-101716997D01*
X134870981Y-101716997D01*
X134895485Y-101718201D01*
X134895485Y-101718201D01*
G37*
D20*
X134408481Y-102591997D03*
D13*
G36*
X137870485Y-101718201D02*
G01*
X137894754Y-101721801D01*
X137918552Y-101727762D01*
X137941652Y-101736027D01*
X137963830Y-101746517D01*
X137984874Y-101759130D01*
X138004579Y-101773744D01*
X138022758Y-101790220D01*
X138039234Y-101808399D01*
X138053848Y-101828104D01*
X138066461Y-101849148D01*
X138076951Y-101871326D01*
X138085216Y-101894426D01*
X138091177Y-101918224D01*
X138094777Y-101942493D01*
X138095981Y-101966997D01*
X138095981Y-103216997D01*
X138094777Y-103241501D01*
X138091177Y-103265770D01*
X138085216Y-103289568D01*
X138076951Y-103312668D01*
X138066461Y-103334846D01*
X138053848Y-103355890D01*
X138039234Y-103375595D01*
X138022758Y-103393774D01*
X138004579Y-103410250D01*
X137984874Y-103424864D01*
X137963830Y-103437477D01*
X137941652Y-103447967D01*
X137918552Y-103456232D01*
X137894754Y-103462193D01*
X137870485Y-103465793D01*
X137845981Y-103466997D01*
X136920981Y-103466997D01*
X136896477Y-103465793D01*
X136872208Y-103462193D01*
X136848410Y-103456232D01*
X136825310Y-103447967D01*
X136803132Y-103437477D01*
X136782088Y-103424864D01*
X136762383Y-103410250D01*
X136744204Y-103393774D01*
X136727728Y-103375595D01*
X136713114Y-103355890D01*
X136700501Y-103334846D01*
X136690011Y-103312668D01*
X136681746Y-103289568D01*
X136675785Y-103265770D01*
X136672185Y-103241501D01*
X136670981Y-103216997D01*
X136670981Y-101966997D01*
X136672185Y-101942493D01*
X136675785Y-101918224D01*
X136681746Y-101894426D01*
X136690011Y-101871326D01*
X136700501Y-101849148D01*
X136713114Y-101828104D01*
X136727728Y-101808399D01*
X136744204Y-101790220D01*
X136762383Y-101773744D01*
X136782088Y-101759130D01*
X136803132Y-101746517D01*
X136825310Y-101736027D01*
X136848410Y-101727762D01*
X136872208Y-101721801D01*
X136896477Y-101718201D01*
X136920981Y-101716997D01*
X137845981Y-101716997D01*
X137870485Y-101718201D01*
X137870485Y-101718201D01*
G37*
D20*
X137383481Y-102591997D03*
D21*
X123495981Y-114241997D03*
X123495981Y-110941997D03*
D22*
X153045981Y-72287978D03*
X147545981Y-72287978D03*
D23*
X152895981Y-114187978D03*
X153845981Y-111187978D03*
X151945981Y-111187978D03*
D13*
G36*
X121762483Y-99393201D02*
G01*
X121786751Y-99396801D01*
X121810550Y-99402762D01*
X121833649Y-99411027D01*
X121855828Y-99421517D01*
X121876871Y-99434129D01*
X121896577Y-99448744D01*
X121914755Y-99465220D01*
X121931231Y-99483398D01*
X121945846Y-99503104D01*
X121958458Y-99524147D01*
X121968948Y-99546326D01*
X121977213Y-99569425D01*
X121983174Y-99593224D01*
X121986774Y-99617492D01*
X121987978Y-99641996D01*
X121987978Y-100291998D01*
X121986774Y-100316502D01*
X121983174Y-100340770D01*
X121977213Y-100364569D01*
X121968948Y-100387668D01*
X121958458Y-100409847D01*
X121945846Y-100430890D01*
X121931231Y-100450596D01*
X121914755Y-100468774D01*
X121896577Y-100485250D01*
X121876871Y-100499865D01*
X121855828Y-100512477D01*
X121833649Y-100522967D01*
X121810550Y-100531232D01*
X121786751Y-100537193D01*
X121762483Y-100540793D01*
X121737979Y-100541997D01*
X120837977Y-100541997D01*
X120813473Y-100540793D01*
X120789205Y-100537193D01*
X120765406Y-100531232D01*
X120742307Y-100522967D01*
X120720128Y-100512477D01*
X120699085Y-100499865D01*
X120679379Y-100485250D01*
X120661201Y-100468774D01*
X120644725Y-100450596D01*
X120630110Y-100430890D01*
X120617498Y-100409847D01*
X120607008Y-100387668D01*
X120598743Y-100364569D01*
X120592782Y-100340770D01*
X120589182Y-100316502D01*
X120587978Y-100291998D01*
X120587978Y-99641996D01*
X120589182Y-99617492D01*
X120592782Y-99593224D01*
X120598743Y-99569425D01*
X120607008Y-99546326D01*
X120617498Y-99524147D01*
X120630110Y-99503104D01*
X120644725Y-99483398D01*
X120661201Y-99465220D01*
X120679379Y-99448744D01*
X120699085Y-99434129D01*
X120720128Y-99421517D01*
X120742307Y-99411027D01*
X120765406Y-99402762D01*
X120789205Y-99396801D01*
X120813473Y-99393201D01*
X120837977Y-99391997D01*
X121737979Y-99391997D01*
X121762483Y-99393201D01*
X121762483Y-99393201D01*
G37*
D14*
X121287978Y-99966997D03*
D13*
G36*
X121762483Y-101443201D02*
G01*
X121786751Y-101446801D01*
X121810550Y-101452762D01*
X121833649Y-101461027D01*
X121855828Y-101471517D01*
X121876871Y-101484129D01*
X121896577Y-101498744D01*
X121914755Y-101515220D01*
X121931231Y-101533398D01*
X121945846Y-101553104D01*
X121958458Y-101574147D01*
X121968948Y-101596326D01*
X121977213Y-101619425D01*
X121983174Y-101643224D01*
X121986774Y-101667492D01*
X121987978Y-101691996D01*
X121987978Y-102341998D01*
X121986774Y-102366502D01*
X121983174Y-102390770D01*
X121977213Y-102414569D01*
X121968948Y-102437668D01*
X121958458Y-102459847D01*
X121945846Y-102480890D01*
X121931231Y-102500596D01*
X121914755Y-102518774D01*
X121896577Y-102535250D01*
X121876871Y-102549865D01*
X121855828Y-102562477D01*
X121833649Y-102572967D01*
X121810550Y-102581232D01*
X121786751Y-102587193D01*
X121762483Y-102590793D01*
X121737979Y-102591997D01*
X120837977Y-102591997D01*
X120813473Y-102590793D01*
X120789205Y-102587193D01*
X120765406Y-102581232D01*
X120742307Y-102572967D01*
X120720128Y-102562477D01*
X120699085Y-102549865D01*
X120679379Y-102535250D01*
X120661201Y-102518774D01*
X120644725Y-102500596D01*
X120630110Y-102480890D01*
X120617498Y-102459847D01*
X120607008Y-102437668D01*
X120598743Y-102414569D01*
X120592782Y-102390770D01*
X120589182Y-102366502D01*
X120587978Y-102341998D01*
X120587978Y-101691996D01*
X120589182Y-101667492D01*
X120592782Y-101643224D01*
X120598743Y-101619425D01*
X120607008Y-101596326D01*
X120617498Y-101574147D01*
X120630110Y-101553104D01*
X120644725Y-101533398D01*
X120661201Y-101515220D01*
X120679379Y-101498744D01*
X120699085Y-101484129D01*
X120720128Y-101471517D01*
X120742307Y-101461027D01*
X120765406Y-101452762D01*
X120789205Y-101446801D01*
X120813473Y-101443201D01*
X120837977Y-101441997D01*
X121737979Y-101441997D01*
X121762483Y-101443201D01*
X121762483Y-101443201D01*
G37*
D14*
X121287978Y-102016997D03*
D13*
G36*
X123793286Y-99393201D02*
G01*
X123817554Y-99396801D01*
X123841353Y-99402762D01*
X123864452Y-99411027D01*
X123886631Y-99421517D01*
X123907674Y-99434129D01*
X123927380Y-99448744D01*
X123945558Y-99465220D01*
X123962034Y-99483398D01*
X123976649Y-99503104D01*
X123989261Y-99524147D01*
X123999751Y-99546326D01*
X124008016Y-99569425D01*
X124013977Y-99593224D01*
X124017577Y-99617492D01*
X124018781Y-99641996D01*
X124018781Y-100291998D01*
X124017577Y-100316502D01*
X124013977Y-100340770D01*
X124008016Y-100364569D01*
X123999751Y-100387668D01*
X123989261Y-100409847D01*
X123976649Y-100430890D01*
X123962034Y-100450596D01*
X123945558Y-100468774D01*
X123927380Y-100485250D01*
X123907674Y-100499865D01*
X123886631Y-100512477D01*
X123864452Y-100522967D01*
X123841353Y-100531232D01*
X123817554Y-100537193D01*
X123793286Y-100540793D01*
X123768782Y-100541997D01*
X122868780Y-100541997D01*
X122844276Y-100540793D01*
X122820008Y-100537193D01*
X122796209Y-100531232D01*
X122773110Y-100522967D01*
X122750931Y-100512477D01*
X122729888Y-100499865D01*
X122710182Y-100485250D01*
X122692004Y-100468774D01*
X122675528Y-100450596D01*
X122660913Y-100430890D01*
X122648301Y-100409847D01*
X122637811Y-100387668D01*
X122629546Y-100364569D01*
X122623585Y-100340770D01*
X122619985Y-100316502D01*
X122618781Y-100291998D01*
X122618781Y-99641996D01*
X122619985Y-99617492D01*
X122623585Y-99593224D01*
X122629546Y-99569425D01*
X122637811Y-99546326D01*
X122648301Y-99524147D01*
X122660913Y-99503104D01*
X122675528Y-99483398D01*
X122692004Y-99465220D01*
X122710182Y-99448744D01*
X122729888Y-99434129D01*
X122750931Y-99421517D01*
X122773110Y-99411027D01*
X122796209Y-99402762D01*
X122820008Y-99396801D01*
X122844276Y-99393201D01*
X122868780Y-99391997D01*
X123768782Y-99391997D01*
X123793286Y-99393201D01*
X123793286Y-99393201D01*
G37*
D14*
X123318781Y-99966997D03*
D13*
G36*
X123793286Y-101443201D02*
G01*
X123817554Y-101446801D01*
X123841353Y-101452762D01*
X123864452Y-101461027D01*
X123886631Y-101471517D01*
X123907674Y-101484129D01*
X123927380Y-101498744D01*
X123945558Y-101515220D01*
X123962034Y-101533398D01*
X123976649Y-101553104D01*
X123989261Y-101574147D01*
X123999751Y-101596326D01*
X124008016Y-101619425D01*
X124013977Y-101643224D01*
X124017577Y-101667492D01*
X124018781Y-101691996D01*
X124018781Y-102341998D01*
X124017577Y-102366502D01*
X124013977Y-102390770D01*
X124008016Y-102414569D01*
X123999751Y-102437668D01*
X123989261Y-102459847D01*
X123976649Y-102480890D01*
X123962034Y-102500596D01*
X123945558Y-102518774D01*
X123927380Y-102535250D01*
X123907674Y-102549865D01*
X123886631Y-102562477D01*
X123864452Y-102572967D01*
X123841353Y-102581232D01*
X123817554Y-102587193D01*
X123793286Y-102590793D01*
X123768782Y-102591997D01*
X122868780Y-102591997D01*
X122844276Y-102590793D01*
X122820008Y-102587193D01*
X122796209Y-102581232D01*
X122773110Y-102572967D01*
X122750931Y-102562477D01*
X122729888Y-102549865D01*
X122710182Y-102535250D01*
X122692004Y-102518774D01*
X122675528Y-102500596D01*
X122660913Y-102480890D01*
X122648301Y-102459847D01*
X122637811Y-102437668D01*
X122629546Y-102414569D01*
X122623585Y-102390770D01*
X122619985Y-102366502D01*
X122618781Y-102341998D01*
X122618781Y-101691996D01*
X122619985Y-101667492D01*
X122623585Y-101643224D01*
X122629546Y-101619425D01*
X122637811Y-101596326D01*
X122648301Y-101574147D01*
X122660913Y-101553104D01*
X122675528Y-101533398D01*
X122692004Y-101515220D01*
X122710182Y-101498744D01*
X122729888Y-101484129D01*
X122750931Y-101471517D01*
X122773110Y-101461027D01*
X122796209Y-101452762D01*
X122820008Y-101446801D01*
X122844276Y-101443201D01*
X122868780Y-101441997D01*
X123768782Y-101441997D01*
X123793286Y-101443201D01*
X123793286Y-101443201D01*
G37*
D14*
X123318781Y-102016997D03*
D13*
G36*
X126970486Y-99385198D02*
G01*
X126994754Y-99388798D01*
X127018553Y-99394759D01*
X127041652Y-99403024D01*
X127063831Y-99413514D01*
X127084874Y-99426126D01*
X127104580Y-99440741D01*
X127122758Y-99457217D01*
X127139234Y-99475395D01*
X127153849Y-99495101D01*
X127166461Y-99516144D01*
X127176951Y-99538323D01*
X127185216Y-99561422D01*
X127191177Y-99585221D01*
X127194777Y-99609489D01*
X127195981Y-99633993D01*
X127195981Y-100283995D01*
X127194777Y-100308499D01*
X127191177Y-100332767D01*
X127185216Y-100356566D01*
X127176951Y-100379665D01*
X127166461Y-100401844D01*
X127153849Y-100422887D01*
X127139234Y-100442593D01*
X127122758Y-100460771D01*
X127104580Y-100477247D01*
X127084874Y-100491862D01*
X127063831Y-100504474D01*
X127041652Y-100514964D01*
X127018553Y-100523229D01*
X126994754Y-100529190D01*
X126970486Y-100532790D01*
X126945982Y-100533994D01*
X126045980Y-100533994D01*
X126021476Y-100532790D01*
X125997208Y-100529190D01*
X125973409Y-100523229D01*
X125950310Y-100514964D01*
X125928131Y-100504474D01*
X125907088Y-100491862D01*
X125887382Y-100477247D01*
X125869204Y-100460771D01*
X125852728Y-100442593D01*
X125838113Y-100422887D01*
X125825501Y-100401844D01*
X125815011Y-100379665D01*
X125806746Y-100356566D01*
X125800785Y-100332767D01*
X125797185Y-100308499D01*
X125795981Y-100283995D01*
X125795981Y-99633993D01*
X125797185Y-99609489D01*
X125800785Y-99585221D01*
X125806746Y-99561422D01*
X125815011Y-99538323D01*
X125825501Y-99516144D01*
X125838113Y-99495101D01*
X125852728Y-99475395D01*
X125869204Y-99457217D01*
X125887382Y-99440741D01*
X125907088Y-99426126D01*
X125928131Y-99413514D01*
X125950310Y-99403024D01*
X125973409Y-99394759D01*
X125997208Y-99388798D01*
X126021476Y-99385198D01*
X126045980Y-99383994D01*
X126945982Y-99383994D01*
X126970486Y-99385198D01*
X126970486Y-99385198D01*
G37*
D14*
X126495981Y-99958994D03*
D13*
G36*
X126970486Y-101435198D02*
G01*
X126994754Y-101438798D01*
X127018553Y-101444759D01*
X127041652Y-101453024D01*
X127063831Y-101463514D01*
X127084874Y-101476126D01*
X127104580Y-101490741D01*
X127122758Y-101507217D01*
X127139234Y-101525395D01*
X127153849Y-101545101D01*
X127166461Y-101566144D01*
X127176951Y-101588323D01*
X127185216Y-101611422D01*
X127191177Y-101635221D01*
X127194777Y-101659489D01*
X127195981Y-101683993D01*
X127195981Y-102333995D01*
X127194777Y-102358499D01*
X127191177Y-102382767D01*
X127185216Y-102406566D01*
X127176951Y-102429665D01*
X127166461Y-102451844D01*
X127153849Y-102472887D01*
X127139234Y-102492593D01*
X127122758Y-102510771D01*
X127104580Y-102527247D01*
X127084874Y-102541862D01*
X127063831Y-102554474D01*
X127041652Y-102564964D01*
X127018553Y-102573229D01*
X126994754Y-102579190D01*
X126970486Y-102582790D01*
X126945982Y-102583994D01*
X126045980Y-102583994D01*
X126021476Y-102582790D01*
X125997208Y-102579190D01*
X125973409Y-102573229D01*
X125950310Y-102564964D01*
X125928131Y-102554474D01*
X125907088Y-102541862D01*
X125887382Y-102527247D01*
X125869204Y-102510771D01*
X125852728Y-102492593D01*
X125838113Y-102472887D01*
X125825501Y-102451844D01*
X125815011Y-102429665D01*
X125806746Y-102406566D01*
X125800785Y-102382767D01*
X125797185Y-102358499D01*
X125795981Y-102333995D01*
X125795981Y-101683993D01*
X125797185Y-101659489D01*
X125800785Y-101635221D01*
X125806746Y-101611422D01*
X125815011Y-101588323D01*
X125825501Y-101566144D01*
X125838113Y-101545101D01*
X125852728Y-101525395D01*
X125869204Y-101507217D01*
X125887382Y-101490741D01*
X125907088Y-101476126D01*
X125928131Y-101463514D01*
X125950310Y-101453024D01*
X125973409Y-101444759D01*
X125997208Y-101438798D01*
X126021476Y-101435198D01*
X126045980Y-101433994D01*
X126945982Y-101433994D01*
X126970486Y-101435198D01*
X126970486Y-101435198D01*
G37*
D14*
X126495981Y-102008994D03*
D13*
G36*
X129025686Y-99429201D02*
G01*
X129049954Y-99432801D01*
X129073753Y-99438762D01*
X129096852Y-99447027D01*
X129119031Y-99457517D01*
X129140074Y-99470129D01*
X129159780Y-99484744D01*
X129177958Y-99501220D01*
X129194434Y-99519398D01*
X129209049Y-99539104D01*
X129221661Y-99560147D01*
X129232151Y-99582326D01*
X129240416Y-99605425D01*
X129246377Y-99629224D01*
X129249977Y-99653492D01*
X129251181Y-99677996D01*
X129251181Y-100327998D01*
X129249977Y-100352502D01*
X129246377Y-100376770D01*
X129240416Y-100400569D01*
X129232151Y-100423668D01*
X129221661Y-100445847D01*
X129209049Y-100466890D01*
X129194434Y-100486596D01*
X129177958Y-100504774D01*
X129159780Y-100521250D01*
X129140074Y-100535865D01*
X129119031Y-100548477D01*
X129096852Y-100558967D01*
X129073753Y-100567232D01*
X129049954Y-100573193D01*
X129025686Y-100576793D01*
X129001182Y-100577997D01*
X128101180Y-100577997D01*
X128076676Y-100576793D01*
X128052408Y-100573193D01*
X128028609Y-100567232D01*
X128005510Y-100558967D01*
X127983331Y-100548477D01*
X127962288Y-100535865D01*
X127942582Y-100521250D01*
X127924404Y-100504774D01*
X127907928Y-100486596D01*
X127893313Y-100466890D01*
X127880701Y-100445847D01*
X127870211Y-100423668D01*
X127861946Y-100400569D01*
X127855985Y-100376770D01*
X127852385Y-100352502D01*
X127851181Y-100327998D01*
X127851181Y-99677996D01*
X127852385Y-99653492D01*
X127855985Y-99629224D01*
X127861946Y-99605425D01*
X127870211Y-99582326D01*
X127880701Y-99560147D01*
X127893313Y-99539104D01*
X127907928Y-99519398D01*
X127924404Y-99501220D01*
X127942582Y-99484744D01*
X127962288Y-99470129D01*
X127983331Y-99457517D01*
X128005510Y-99447027D01*
X128028609Y-99438762D01*
X128052408Y-99432801D01*
X128076676Y-99429201D01*
X128101180Y-99427997D01*
X129001182Y-99427997D01*
X129025686Y-99429201D01*
X129025686Y-99429201D01*
G37*
D14*
X128551181Y-100002997D03*
D13*
G36*
X129025686Y-101479201D02*
G01*
X129049954Y-101482801D01*
X129073753Y-101488762D01*
X129096852Y-101497027D01*
X129119031Y-101507517D01*
X129140074Y-101520129D01*
X129159780Y-101534744D01*
X129177958Y-101551220D01*
X129194434Y-101569398D01*
X129209049Y-101589104D01*
X129221661Y-101610147D01*
X129232151Y-101632326D01*
X129240416Y-101655425D01*
X129246377Y-101679224D01*
X129249977Y-101703492D01*
X129251181Y-101727996D01*
X129251181Y-102377998D01*
X129249977Y-102402502D01*
X129246377Y-102426770D01*
X129240416Y-102450569D01*
X129232151Y-102473668D01*
X129221661Y-102495847D01*
X129209049Y-102516890D01*
X129194434Y-102536596D01*
X129177958Y-102554774D01*
X129159780Y-102571250D01*
X129140074Y-102585865D01*
X129119031Y-102598477D01*
X129096852Y-102608967D01*
X129073753Y-102617232D01*
X129049954Y-102623193D01*
X129025686Y-102626793D01*
X129001182Y-102627997D01*
X128101180Y-102627997D01*
X128076676Y-102626793D01*
X128052408Y-102623193D01*
X128028609Y-102617232D01*
X128005510Y-102608967D01*
X127983331Y-102598477D01*
X127962288Y-102585865D01*
X127942582Y-102571250D01*
X127924404Y-102554774D01*
X127907928Y-102536596D01*
X127893313Y-102516890D01*
X127880701Y-102495847D01*
X127870211Y-102473668D01*
X127861946Y-102450569D01*
X127855985Y-102426770D01*
X127852385Y-102402502D01*
X127851181Y-102377998D01*
X127851181Y-101727996D01*
X127852385Y-101703492D01*
X127855985Y-101679224D01*
X127861946Y-101655425D01*
X127870211Y-101632326D01*
X127880701Y-101610147D01*
X127893313Y-101589104D01*
X127907928Y-101569398D01*
X127924404Y-101551220D01*
X127942582Y-101534744D01*
X127962288Y-101520129D01*
X127983331Y-101507517D01*
X128005510Y-101497027D01*
X128028609Y-101488762D01*
X128052408Y-101482801D01*
X128076676Y-101479201D01*
X128101180Y-101477997D01*
X129001182Y-101477997D01*
X129025686Y-101479201D01*
X129025686Y-101479201D01*
G37*
D14*
X128551181Y-102052997D03*
D13*
G36*
X107679506Y-89894008D02*
G01*
X107703600Y-89898632D01*
X107727125Y-89905595D01*
X107749855Y-89914830D01*
X107771569Y-89926248D01*
X107792060Y-89939740D01*
X107811130Y-89955176D01*
X108482060Y-90555057D01*
X108499524Y-90572287D01*
X108515216Y-90591146D01*
X108528984Y-90611453D01*
X108540695Y-90633011D01*
X108550237Y-90655613D01*
X108557517Y-90679042D01*
X108562466Y-90703071D01*
X108565036Y-90727470D01*
X108565202Y-90752003D01*
X108562963Y-90776434D01*
X108558339Y-90800528D01*
X108551376Y-90824053D01*
X108542141Y-90846783D01*
X108530723Y-90868497D01*
X108517231Y-90888988D01*
X108501795Y-90908058D01*
X108068547Y-91392619D01*
X108051317Y-91410083D01*
X108032458Y-91425775D01*
X108012151Y-91439543D01*
X107990593Y-91451254D01*
X107967991Y-91460796D01*
X107944562Y-91468077D01*
X107920533Y-91473025D01*
X107896134Y-91475595D01*
X107871601Y-91475761D01*
X107847170Y-91473522D01*
X107823076Y-91468898D01*
X107799551Y-91461935D01*
X107776821Y-91452700D01*
X107755107Y-91441282D01*
X107734616Y-91427790D01*
X107715546Y-91412354D01*
X107044616Y-90812473D01*
X107027152Y-90795243D01*
X107011460Y-90776384D01*
X106997692Y-90756077D01*
X106985981Y-90734519D01*
X106976439Y-90711917D01*
X106969159Y-90688488D01*
X106964210Y-90664459D01*
X106961640Y-90640060D01*
X106961474Y-90615527D01*
X106963713Y-90591096D01*
X106968337Y-90567002D01*
X106975300Y-90543477D01*
X106984535Y-90520747D01*
X106995953Y-90499033D01*
X107009445Y-90478542D01*
X107024881Y-90459472D01*
X107458129Y-89974911D01*
X107475359Y-89957447D01*
X107494218Y-89941755D01*
X107514525Y-89927987D01*
X107536083Y-89916276D01*
X107558685Y-89906734D01*
X107582114Y-89899453D01*
X107606143Y-89894505D01*
X107630542Y-89891935D01*
X107655075Y-89891769D01*
X107679506Y-89894008D01*
X107679506Y-89894008D01*
G37*
D14*
X107763338Y-90683765D03*
D13*
G36*
X106313114Y-91422234D02*
G01*
X106337208Y-91426858D01*
X106360733Y-91433821D01*
X106383463Y-91443056D01*
X106405177Y-91454474D01*
X106425668Y-91467966D01*
X106444738Y-91483402D01*
X107115668Y-92083283D01*
X107133132Y-92100513D01*
X107148824Y-92119372D01*
X107162592Y-92139679D01*
X107174303Y-92161237D01*
X107183845Y-92183839D01*
X107191125Y-92207268D01*
X107196074Y-92231297D01*
X107198644Y-92255696D01*
X107198810Y-92280229D01*
X107196571Y-92304660D01*
X107191947Y-92328754D01*
X107184984Y-92352279D01*
X107175749Y-92375009D01*
X107164331Y-92396723D01*
X107150839Y-92417214D01*
X107135403Y-92436284D01*
X106702155Y-92920845D01*
X106684925Y-92938309D01*
X106666066Y-92954001D01*
X106645759Y-92967769D01*
X106624201Y-92979480D01*
X106601599Y-92989022D01*
X106578170Y-92996303D01*
X106554141Y-93001251D01*
X106529742Y-93003821D01*
X106505209Y-93003987D01*
X106480778Y-93001748D01*
X106456684Y-92997124D01*
X106433159Y-92990161D01*
X106410429Y-92980926D01*
X106388715Y-92969508D01*
X106368224Y-92956016D01*
X106349154Y-92940580D01*
X105678224Y-92340699D01*
X105660760Y-92323469D01*
X105645068Y-92304610D01*
X105631300Y-92284303D01*
X105619589Y-92262745D01*
X105610047Y-92240143D01*
X105602767Y-92216714D01*
X105597818Y-92192685D01*
X105595248Y-92168286D01*
X105595082Y-92143753D01*
X105597321Y-92119322D01*
X105601945Y-92095228D01*
X105608908Y-92071703D01*
X105618143Y-92048973D01*
X105629561Y-92027259D01*
X105643053Y-92006768D01*
X105658489Y-91987698D01*
X106091737Y-91503137D01*
X106108967Y-91485673D01*
X106127826Y-91469981D01*
X106148133Y-91456213D01*
X106169691Y-91444502D01*
X106192293Y-91434960D01*
X106215722Y-91427679D01*
X106239751Y-91422731D01*
X106264150Y-91420161D01*
X106288683Y-91419995D01*
X106313114Y-91422234D01*
X106313114Y-91422234D01*
G37*
D14*
X106396946Y-92211991D03*
D13*
G36*
X189687583Y-84016475D02*
G01*
X189711982Y-84019045D01*
X189736011Y-84023994D01*
X189759440Y-84031274D01*
X189782042Y-84040816D01*
X189803600Y-84052527D01*
X189823907Y-84066295D01*
X189842766Y-84081987D01*
X189859996Y-84099451D01*
X190293244Y-84584012D01*
X190308680Y-84603082D01*
X190322172Y-84623573D01*
X190333590Y-84645287D01*
X190342825Y-84668017D01*
X190349788Y-84691542D01*
X190354412Y-84715636D01*
X190356651Y-84740067D01*
X190356485Y-84764600D01*
X190353915Y-84788999D01*
X190348967Y-84813028D01*
X190341686Y-84836457D01*
X190332144Y-84859059D01*
X190320433Y-84880617D01*
X190306665Y-84900924D01*
X190290973Y-84919783D01*
X190273509Y-84937013D01*
X189602579Y-85536894D01*
X189583509Y-85552330D01*
X189563018Y-85565822D01*
X189541304Y-85577240D01*
X189518574Y-85586475D01*
X189495049Y-85593438D01*
X189470955Y-85598062D01*
X189446524Y-85600301D01*
X189421991Y-85600135D01*
X189397592Y-85597565D01*
X189373563Y-85592616D01*
X189350134Y-85585336D01*
X189327532Y-85575794D01*
X189305974Y-85564083D01*
X189285667Y-85550315D01*
X189266808Y-85534623D01*
X189249578Y-85517159D01*
X188816330Y-85032598D01*
X188800894Y-85013528D01*
X188787402Y-84993037D01*
X188775984Y-84971323D01*
X188766749Y-84948593D01*
X188759786Y-84925068D01*
X188755162Y-84900974D01*
X188752923Y-84876543D01*
X188753089Y-84852010D01*
X188755659Y-84827611D01*
X188760607Y-84803582D01*
X188767888Y-84780153D01*
X188777430Y-84757551D01*
X188789141Y-84735993D01*
X188802909Y-84715686D01*
X188818601Y-84696827D01*
X188836065Y-84679597D01*
X189506995Y-84079716D01*
X189526065Y-84064280D01*
X189546556Y-84050788D01*
X189568270Y-84039370D01*
X189591000Y-84030135D01*
X189614525Y-84023172D01*
X189638619Y-84018548D01*
X189663050Y-84016309D01*
X189687583Y-84016475D01*
X189687583Y-84016475D01*
G37*
D14*
X189554787Y-84808305D03*
D13*
G36*
X191053975Y-85544701D02*
G01*
X191078374Y-85547271D01*
X191102403Y-85552220D01*
X191125832Y-85559500D01*
X191148434Y-85569042D01*
X191169992Y-85580753D01*
X191190299Y-85594521D01*
X191209158Y-85610213D01*
X191226388Y-85627677D01*
X191659636Y-86112238D01*
X191675072Y-86131308D01*
X191688564Y-86151799D01*
X191699982Y-86173513D01*
X191709217Y-86196243D01*
X191716180Y-86219768D01*
X191720804Y-86243862D01*
X191723043Y-86268293D01*
X191722877Y-86292826D01*
X191720307Y-86317225D01*
X191715359Y-86341254D01*
X191708078Y-86364683D01*
X191698536Y-86387285D01*
X191686825Y-86408843D01*
X191673057Y-86429150D01*
X191657365Y-86448009D01*
X191639901Y-86465239D01*
X190968971Y-87065120D01*
X190949901Y-87080556D01*
X190929410Y-87094048D01*
X190907696Y-87105466D01*
X190884966Y-87114701D01*
X190861441Y-87121664D01*
X190837347Y-87126288D01*
X190812916Y-87128527D01*
X190788383Y-87128361D01*
X190763984Y-87125791D01*
X190739955Y-87120842D01*
X190716526Y-87113562D01*
X190693924Y-87104020D01*
X190672366Y-87092309D01*
X190652059Y-87078541D01*
X190633200Y-87062849D01*
X190615970Y-87045385D01*
X190182722Y-86560824D01*
X190167286Y-86541754D01*
X190153794Y-86521263D01*
X190142376Y-86499549D01*
X190133141Y-86476819D01*
X190126178Y-86453294D01*
X190121554Y-86429200D01*
X190119315Y-86404769D01*
X190119481Y-86380236D01*
X190122051Y-86355837D01*
X190126999Y-86331808D01*
X190134280Y-86308379D01*
X190143822Y-86285777D01*
X190155533Y-86264219D01*
X190169301Y-86243912D01*
X190184993Y-86225053D01*
X190202457Y-86207823D01*
X190873387Y-85607942D01*
X190892457Y-85592506D01*
X190912948Y-85579014D01*
X190934662Y-85567596D01*
X190957392Y-85558361D01*
X190980917Y-85551398D01*
X191005011Y-85546774D01*
X191029442Y-85544535D01*
X191053975Y-85544701D01*
X191053975Y-85544701D01*
G37*
D14*
X190921179Y-86336531D03*
D13*
G36*
X86108967Y-70607720D02*
G01*
X86133061Y-70612344D01*
X86156586Y-70619307D01*
X86179316Y-70628542D01*
X86201030Y-70639960D01*
X86221521Y-70653452D01*
X86240591Y-70668888D01*
X86911521Y-71268769D01*
X86928985Y-71285999D01*
X86944677Y-71304858D01*
X86958445Y-71325165D01*
X86970156Y-71346723D01*
X86979698Y-71369325D01*
X86986978Y-71392754D01*
X86991927Y-71416783D01*
X86994497Y-71441182D01*
X86994663Y-71465715D01*
X86992424Y-71490146D01*
X86987800Y-71514240D01*
X86980837Y-71537765D01*
X86971602Y-71560495D01*
X86960184Y-71582209D01*
X86946692Y-71602700D01*
X86931256Y-71621770D01*
X86498008Y-72106331D01*
X86480778Y-72123795D01*
X86461919Y-72139487D01*
X86441612Y-72153255D01*
X86420054Y-72164966D01*
X86397452Y-72174508D01*
X86374023Y-72181789D01*
X86349994Y-72186737D01*
X86325595Y-72189307D01*
X86301062Y-72189473D01*
X86276631Y-72187234D01*
X86252537Y-72182610D01*
X86229012Y-72175647D01*
X86206282Y-72166412D01*
X86184568Y-72154994D01*
X86164077Y-72141502D01*
X86145007Y-72126066D01*
X85474077Y-71526185D01*
X85456613Y-71508955D01*
X85440921Y-71490096D01*
X85427153Y-71469789D01*
X85415442Y-71448231D01*
X85405900Y-71425629D01*
X85398620Y-71402200D01*
X85393671Y-71378171D01*
X85391101Y-71353772D01*
X85390935Y-71329239D01*
X85393174Y-71304808D01*
X85397798Y-71280714D01*
X85404761Y-71257189D01*
X85413996Y-71234459D01*
X85425414Y-71212745D01*
X85438906Y-71192254D01*
X85454342Y-71173184D01*
X85887590Y-70688623D01*
X85904820Y-70671159D01*
X85923679Y-70655467D01*
X85943986Y-70641699D01*
X85965544Y-70629988D01*
X85988146Y-70620446D01*
X86011575Y-70613165D01*
X86035604Y-70608217D01*
X86060003Y-70605647D01*
X86084536Y-70605481D01*
X86108967Y-70607720D01*
X86108967Y-70607720D01*
G37*
D14*
X86192799Y-71397477D03*
D13*
G36*
X84742575Y-72135946D02*
G01*
X84766669Y-72140570D01*
X84790194Y-72147533D01*
X84812924Y-72156768D01*
X84834638Y-72168186D01*
X84855129Y-72181678D01*
X84874199Y-72197114D01*
X85545129Y-72796995D01*
X85562593Y-72814225D01*
X85578285Y-72833084D01*
X85592053Y-72853391D01*
X85603764Y-72874949D01*
X85613306Y-72897551D01*
X85620586Y-72920980D01*
X85625535Y-72945009D01*
X85628105Y-72969408D01*
X85628271Y-72993941D01*
X85626032Y-73018372D01*
X85621408Y-73042466D01*
X85614445Y-73065991D01*
X85605210Y-73088721D01*
X85593792Y-73110435D01*
X85580300Y-73130926D01*
X85564864Y-73149996D01*
X85131616Y-73634557D01*
X85114386Y-73652021D01*
X85095527Y-73667713D01*
X85075220Y-73681481D01*
X85053662Y-73693192D01*
X85031060Y-73702734D01*
X85007631Y-73710015D01*
X84983602Y-73714963D01*
X84959203Y-73717533D01*
X84934670Y-73717699D01*
X84910239Y-73715460D01*
X84886145Y-73710836D01*
X84862620Y-73703873D01*
X84839890Y-73694638D01*
X84818176Y-73683220D01*
X84797685Y-73669728D01*
X84778615Y-73654292D01*
X84107685Y-73054411D01*
X84090221Y-73037181D01*
X84074529Y-73018322D01*
X84060761Y-72998015D01*
X84049050Y-72976457D01*
X84039508Y-72953855D01*
X84032228Y-72930426D01*
X84027279Y-72906397D01*
X84024709Y-72881998D01*
X84024543Y-72857465D01*
X84026782Y-72833034D01*
X84031406Y-72808940D01*
X84038369Y-72785415D01*
X84047604Y-72762685D01*
X84059022Y-72740971D01*
X84072514Y-72720480D01*
X84087950Y-72701410D01*
X84521198Y-72216849D01*
X84538428Y-72199385D01*
X84557287Y-72183693D01*
X84577594Y-72169925D01*
X84599152Y-72158214D01*
X84621754Y-72148672D01*
X84645183Y-72141391D01*
X84669212Y-72136443D01*
X84693611Y-72133873D01*
X84718144Y-72133707D01*
X84742575Y-72135946D01*
X84742575Y-72135946D01*
G37*
D14*
X84826407Y-72925703D03*
D13*
G36*
X178981247Y-93589045D02*
G01*
X179005646Y-93591615D01*
X179029675Y-93596564D01*
X179053104Y-93603844D01*
X179075706Y-93613386D01*
X179097264Y-93625097D01*
X179117571Y-93638865D01*
X179136430Y-93654557D01*
X179153660Y-93672021D01*
X179586908Y-94156582D01*
X179602344Y-94175652D01*
X179615836Y-94196143D01*
X179627254Y-94217857D01*
X179636489Y-94240587D01*
X179643452Y-94264112D01*
X179648076Y-94288206D01*
X179650315Y-94312637D01*
X179650149Y-94337170D01*
X179647579Y-94361569D01*
X179642631Y-94385598D01*
X179635350Y-94409027D01*
X179625808Y-94431629D01*
X179614097Y-94453187D01*
X179600329Y-94473494D01*
X179584637Y-94492353D01*
X179567173Y-94509583D01*
X178896243Y-95109464D01*
X178877173Y-95124900D01*
X178856682Y-95138392D01*
X178834968Y-95149810D01*
X178812238Y-95159045D01*
X178788713Y-95166008D01*
X178764619Y-95170632D01*
X178740188Y-95172871D01*
X178715655Y-95172705D01*
X178691256Y-95170135D01*
X178667227Y-95165186D01*
X178643798Y-95157906D01*
X178621196Y-95148364D01*
X178599638Y-95136653D01*
X178579331Y-95122885D01*
X178560472Y-95107193D01*
X178543242Y-95089729D01*
X178109994Y-94605168D01*
X178094558Y-94586098D01*
X178081066Y-94565607D01*
X178069648Y-94543893D01*
X178060413Y-94521163D01*
X178053450Y-94497638D01*
X178048826Y-94473544D01*
X178046587Y-94449113D01*
X178046753Y-94424580D01*
X178049323Y-94400181D01*
X178054271Y-94376152D01*
X178061552Y-94352723D01*
X178071094Y-94330121D01*
X178082805Y-94308563D01*
X178096573Y-94288256D01*
X178112265Y-94269397D01*
X178129729Y-94252167D01*
X178800659Y-93652286D01*
X178819729Y-93636850D01*
X178840220Y-93623358D01*
X178861934Y-93611940D01*
X178884664Y-93602705D01*
X178908189Y-93595742D01*
X178932283Y-93591118D01*
X178956714Y-93588879D01*
X178981247Y-93589045D01*
X178981247Y-93589045D01*
G37*
D14*
X178848451Y-94380875D03*
D13*
G36*
X180347639Y-95117271D02*
G01*
X180372038Y-95119841D01*
X180396067Y-95124790D01*
X180419496Y-95132070D01*
X180442098Y-95141612D01*
X180463656Y-95153323D01*
X180483963Y-95167091D01*
X180502822Y-95182783D01*
X180520052Y-95200247D01*
X180953300Y-95684808D01*
X180968736Y-95703878D01*
X180982228Y-95724369D01*
X180993646Y-95746083D01*
X181002881Y-95768813D01*
X181009844Y-95792338D01*
X181014468Y-95816432D01*
X181016707Y-95840863D01*
X181016541Y-95865396D01*
X181013971Y-95889795D01*
X181009023Y-95913824D01*
X181001742Y-95937253D01*
X180992200Y-95959855D01*
X180980489Y-95981413D01*
X180966721Y-96001720D01*
X180951029Y-96020579D01*
X180933565Y-96037809D01*
X180262635Y-96637690D01*
X180243565Y-96653126D01*
X180223074Y-96666618D01*
X180201360Y-96678036D01*
X180178630Y-96687271D01*
X180155105Y-96694234D01*
X180131011Y-96698858D01*
X180106580Y-96701097D01*
X180082047Y-96700931D01*
X180057648Y-96698361D01*
X180033619Y-96693412D01*
X180010190Y-96686132D01*
X179987588Y-96676590D01*
X179966030Y-96664879D01*
X179945723Y-96651111D01*
X179926864Y-96635419D01*
X179909634Y-96617955D01*
X179476386Y-96133394D01*
X179460950Y-96114324D01*
X179447458Y-96093833D01*
X179436040Y-96072119D01*
X179426805Y-96049389D01*
X179419842Y-96025864D01*
X179415218Y-96001770D01*
X179412979Y-95977339D01*
X179413145Y-95952806D01*
X179415715Y-95928407D01*
X179420663Y-95904378D01*
X179427944Y-95880949D01*
X179437486Y-95858347D01*
X179449197Y-95836789D01*
X179462965Y-95816482D01*
X179478657Y-95797623D01*
X179496121Y-95780393D01*
X180167051Y-95180512D01*
X180186121Y-95165076D01*
X180206612Y-95151584D01*
X180228326Y-95140166D01*
X180251056Y-95130931D01*
X180274581Y-95123968D01*
X180298675Y-95119344D01*
X180323106Y-95117105D01*
X180347639Y-95117271D01*
X180347639Y-95117271D01*
G37*
D14*
X180214843Y-95909101D03*
D13*
G36*
X200281688Y-74175359D02*
G01*
X200306087Y-74177929D01*
X200330116Y-74182878D01*
X200353545Y-74190158D01*
X200376147Y-74199700D01*
X200397705Y-74211411D01*
X200418012Y-74225179D01*
X200436871Y-74240871D01*
X200454101Y-74258335D01*
X200887349Y-74742896D01*
X200902785Y-74761966D01*
X200916277Y-74782457D01*
X200927695Y-74804171D01*
X200936930Y-74826901D01*
X200943893Y-74850426D01*
X200948517Y-74874520D01*
X200950756Y-74898951D01*
X200950590Y-74923484D01*
X200948020Y-74947883D01*
X200943072Y-74971912D01*
X200935791Y-74995341D01*
X200926249Y-75017943D01*
X200914538Y-75039501D01*
X200900770Y-75059808D01*
X200885078Y-75078667D01*
X200867614Y-75095897D01*
X200196684Y-75695778D01*
X200177614Y-75711214D01*
X200157123Y-75724706D01*
X200135409Y-75736124D01*
X200112679Y-75745359D01*
X200089154Y-75752322D01*
X200065060Y-75756946D01*
X200040629Y-75759185D01*
X200016096Y-75759019D01*
X199991697Y-75756449D01*
X199967668Y-75751500D01*
X199944239Y-75744220D01*
X199921637Y-75734678D01*
X199900079Y-75722967D01*
X199879772Y-75709199D01*
X199860913Y-75693507D01*
X199843683Y-75676043D01*
X199410435Y-75191482D01*
X199394999Y-75172412D01*
X199381507Y-75151921D01*
X199370089Y-75130207D01*
X199360854Y-75107477D01*
X199353891Y-75083952D01*
X199349267Y-75059858D01*
X199347028Y-75035427D01*
X199347194Y-75010894D01*
X199349764Y-74986495D01*
X199354712Y-74962466D01*
X199361993Y-74939037D01*
X199371535Y-74916435D01*
X199383246Y-74894877D01*
X199397014Y-74874570D01*
X199412706Y-74855711D01*
X199430170Y-74838481D01*
X200101100Y-74238600D01*
X200120170Y-74223164D01*
X200140661Y-74209672D01*
X200162375Y-74198254D01*
X200185105Y-74189019D01*
X200208630Y-74182056D01*
X200232724Y-74177432D01*
X200257155Y-74175193D01*
X200281688Y-74175359D01*
X200281688Y-74175359D01*
G37*
D14*
X200148892Y-74967189D03*
D13*
G36*
X201648080Y-75703585D02*
G01*
X201672479Y-75706155D01*
X201696508Y-75711104D01*
X201719937Y-75718384D01*
X201742539Y-75727926D01*
X201764097Y-75739637D01*
X201784404Y-75753405D01*
X201803263Y-75769097D01*
X201820493Y-75786561D01*
X202253741Y-76271122D01*
X202269177Y-76290192D01*
X202282669Y-76310683D01*
X202294087Y-76332397D01*
X202303322Y-76355127D01*
X202310285Y-76378652D01*
X202314909Y-76402746D01*
X202317148Y-76427177D01*
X202316982Y-76451710D01*
X202314412Y-76476109D01*
X202309464Y-76500138D01*
X202302183Y-76523567D01*
X202292641Y-76546169D01*
X202280930Y-76567727D01*
X202267162Y-76588034D01*
X202251470Y-76606893D01*
X202234006Y-76624123D01*
X201563076Y-77224004D01*
X201544006Y-77239440D01*
X201523515Y-77252932D01*
X201501801Y-77264350D01*
X201479071Y-77273585D01*
X201455546Y-77280548D01*
X201431452Y-77285172D01*
X201407021Y-77287411D01*
X201382488Y-77287245D01*
X201358089Y-77284675D01*
X201334060Y-77279726D01*
X201310631Y-77272446D01*
X201288029Y-77262904D01*
X201266471Y-77251193D01*
X201246164Y-77237425D01*
X201227305Y-77221733D01*
X201210075Y-77204269D01*
X200776827Y-76719708D01*
X200761391Y-76700638D01*
X200747899Y-76680147D01*
X200736481Y-76658433D01*
X200727246Y-76635703D01*
X200720283Y-76612178D01*
X200715659Y-76588084D01*
X200713420Y-76563653D01*
X200713586Y-76539120D01*
X200716156Y-76514721D01*
X200721104Y-76490692D01*
X200728385Y-76467263D01*
X200737927Y-76444661D01*
X200749638Y-76423103D01*
X200763406Y-76402796D01*
X200779098Y-76383937D01*
X200796562Y-76366707D01*
X201467492Y-75766826D01*
X201486562Y-75751390D01*
X201507053Y-75737898D01*
X201528767Y-75726480D01*
X201551497Y-75717245D01*
X201575022Y-75710282D01*
X201599116Y-75705658D01*
X201623547Y-75703419D01*
X201648080Y-75703585D01*
X201648080Y-75703585D01*
G37*
D14*
X201515284Y-76495415D03*
D13*
G36*
X96974617Y-80322732D02*
G01*
X96998711Y-80327356D01*
X97022236Y-80334319D01*
X97044966Y-80343554D01*
X97066680Y-80354972D01*
X97087171Y-80368464D01*
X97106241Y-80383900D01*
X97777171Y-80983781D01*
X97794635Y-81001011D01*
X97810327Y-81019870D01*
X97824095Y-81040177D01*
X97835806Y-81061735D01*
X97845348Y-81084337D01*
X97852628Y-81107766D01*
X97857577Y-81131795D01*
X97860147Y-81156194D01*
X97860313Y-81180727D01*
X97858074Y-81205158D01*
X97853450Y-81229252D01*
X97846487Y-81252777D01*
X97837252Y-81275507D01*
X97825834Y-81297221D01*
X97812342Y-81317712D01*
X97796906Y-81336782D01*
X97363658Y-81821343D01*
X97346428Y-81838807D01*
X97327569Y-81854499D01*
X97307262Y-81868267D01*
X97285704Y-81879978D01*
X97263102Y-81889520D01*
X97239673Y-81896801D01*
X97215644Y-81901749D01*
X97191245Y-81904319D01*
X97166712Y-81904485D01*
X97142281Y-81902246D01*
X97118187Y-81897622D01*
X97094662Y-81890659D01*
X97071932Y-81881424D01*
X97050218Y-81870006D01*
X97029727Y-81856514D01*
X97010657Y-81841078D01*
X96339727Y-81241197D01*
X96322263Y-81223967D01*
X96306571Y-81205108D01*
X96292803Y-81184801D01*
X96281092Y-81163243D01*
X96271550Y-81140641D01*
X96264270Y-81117212D01*
X96259321Y-81093183D01*
X96256751Y-81068784D01*
X96256585Y-81044251D01*
X96258824Y-81019820D01*
X96263448Y-80995726D01*
X96270411Y-80972201D01*
X96279646Y-80949471D01*
X96291064Y-80927757D01*
X96304556Y-80907266D01*
X96319992Y-80888196D01*
X96753240Y-80403635D01*
X96770470Y-80386171D01*
X96789329Y-80370479D01*
X96809636Y-80356711D01*
X96831194Y-80345000D01*
X96853796Y-80335458D01*
X96877225Y-80328177D01*
X96901254Y-80323229D01*
X96925653Y-80320659D01*
X96950186Y-80320493D01*
X96974617Y-80322732D01*
X96974617Y-80322732D01*
G37*
D14*
X97058449Y-81112489D03*
D13*
G36*
X95608225Y-81850958D02*
G01*
X95632319Y-81855582D01*
X95655844Y-81862545D01*
X95678574Y-81871780D01*
X95700288Y-81883198D01*
X95720779Y-81896690D01*
X95739849Y-81912126D01*
X96410779Y-82512007D01*
X96428243Y-82529237D01*
X96443935Y-82548096D01*
X96457703Y-82568403D01*
X96469414Y-82589961D01*
X96478956Y-82612563D01*
X96486236Y-82635992D01*
X96491185Y-82660021D01*
X96493755Y-82684420D01*
X96493921Y-82708953D01*
X96491682Y-82733384D01*
X96487058Y-82757478D01*
X96480095Y-82781003D01*
X96470860Y-82803733D01*
X96459442Y-82825447D01*
X96445950Y-82845938D01*
X96430514Y-82865008D01*
X95997266Y-83349569D01*
X95980036Y-83367033D01*
X95961177Y-83382725D01*
X95940870Y-83396493D01*
X95919312Y-83408204D01*
X95896710Y-83417746D01*
X95873281Y-83425027D01*
X95849252Y-83429975D01*
X95824853Y-83432545D01*
X95800320Y-83432711D01*
X95775889Y-83430472D01*
X95751795Y-83425848D01*
X95728270Y-83418885D01*
X95705540Y-83409650D01*
X95683826Y-83398232D01*
X95663335Y-83384740D01*
X95644265Y-83369304D01*
X94973335Y-82769423D01*
X94955871Y-82752193D01*
X94940179Y-82733334D01*
X94926411Y-82713027D01*
X94914700Y-82691469D01*
X94905158Y-82668867D01*
X94897878Y-82645438D01*
X94892929Y-82621409D01*
X94890359Y-82597010D01*
X94890193Y-82572477D01*
X94892432Y-82548046D01*
X94897056Y-82523952D01*
X94904019Y-82500427D01*
X94913254Y-82477697D01*
X94924672Y-82455983D01*
X94938164Y-82435492D01*
X94953600Y-82416422D01*
X95386848Y-81931861D01*
X95404078Y-81914397D01*
X95422937Y-81898705D01*
X95443244Y-81884937D01*
X95464802Y-81873226D01*
X95487404Y-81863684D01*
X95510833Y-81856403D01*
X95534862Y-81851455D01*
X95559261Y-81848885D01*
X95583794Y-81848719D01*
X95608225Y-81850958D01*
X95608225Y-81850958D01*
G37*
D14*
X95692057Y-82640715D03*
D13*
G36*
X139620486Y-58093201D02*
G01*
X139644754Y-58096801D01*
X139668553Y-58102762D01*
X139691652Y-58111027D01*
X139713831Y-58121517D01*
X139734874Y-58134129D01*
X139754580Y-58148744D01*
X139772758Y-58165220D01*
X139789234Y-58183398D01*
X139803849Y-58203104D01*
X139816461Y-58224147D01*
X139826951Y-58246326D01*
X139835216Y-58269425D01*
X139841177Y-58293224D01*
X139844777Y-58317492D01*
X139845981Y-58341996D01*
X139845981Y-59241998D01*
X139844777Y-59266502D01*
X139841177Y-59290770D01*
X139835216Y-59314569D01*
X139826951Y-59337668D01*
X139816461Y-59359847D01*
X139803849Y-59380890D01*
X139789234Y-59400596D01*
X139772758Y-59418774D01*
X139754580Y-59435250D01*
X139734874Y-59449865D01*
X139713831Y-59462477D01*
X139691652Y-59472967D01*
X139668553Y-59481232D01*
X139644754Y-59487193D01*
X139620486Y-59490793D01*
X139595982Y-59491997D01*
X138945980Y-59491997D01*
X138921476Y-59490793D01*
X138897208Y-59487193D01*
X138873409Y-59481232D01*
X138850310Y-59472967D01*
X138828131Y-59462477D01*
X138807088Y-59449865D01*
X138787382Y-59435250D01*
X138769204Y-59418774D01*
X138752728Y-59400596D01*
X138738113Y-59380890D01*
X138725501Y-59359847D01*
X138715011Y-59337668D01*
X138706746Y-59314569D01*
X138700785Y-59290770D01*
X138697185Y-59266502D01*
X138695981Y-59241998D01*
X138695981Y-58341996D01*
X138697185Y-58317492D01*
X138700785Y-58293224D01*
X138706746Y-58269425D01*
X138715011Y-58246326D01*
X138725501Y-58224147D01*
X138738113Y-58203104D01*
X138752728Y-58183398D01*
X138769204Y-58165220D01*
X138787382Y-58148744D01*
X138807088Y-58134129D01*
X138828131Y-58121517D01*
X138850310Y-58111027D01*
X138873409Y-58102762D01*
X138897208Y-58096801D01*
X138921476Y-58093201D01*
X138945980Y-58091997D01*
X139595982Y-58091997D01*
X139620486Y-58093201D01*
X139620486Y-58093201D01*
G37*
D14*
X139270981Y-58791997D03*
D13*
G36*
X141670486Y-58093201D02*
G01*
X141694754Y-58096801D01*
X141718553Y-58102762D01*
X141741652Y-58111027D01*
X141763831Y-58121517D01*
X141784874Y-58134129D01*
X141804580Y-58148744D01*
X141822758Y-58165220D01*
X141839234Y-58183398D01*
X141853849Y-58203104D01*
X141866461Y-58224147D01*
X141876951Y-58246326D01*
X141885216Y-58269425D01*
X141891177Y-58293224D01*
X141894777Y-58317492D01*
X141895981Y-58341996D01*
X141895981Y-59241998D01*
X141894777Y-59266502D01*
X141891177Y-59290770D01*
X141885216Y-59314569D01*
X141876951Y-59337668D01*
X141866461Y-59359847D01*
X141853849Y-59380890D01*
X141839234Y-59400596D01*
X141822758Y-59418774D01*
X141804580Y-59435250D01*
X141784874Y-59449865D01*
X141763831Y-59462477D01*
X141741652Y-59472967D01*
X141718553Y-59481232D01*
X141694754Y-59487193D01*
X141670486Y-59490793D01*
X141645982Y-59491997D01*
X140995980Y-59491997D01*
X140971476Y-59490793D01*
X140947208Y-59487193D01*
X140923409Y-59481232D01*
X140900310Y-59472967D01*
X140878131Y-59462477D01*
X140857088Y-59449865D01*
X140837382Y-59435250D01*
X140819204Y-59418774D01*
X140802728Y-59400596D01*
X140788113Y-59380890D01*
X140775501Y-59359847D01*
X140765011Y-59337668D01*
X140756746Y-59314569D01*
X140750785Y-59290770D01*
X140747185Y-59266502D01*
X140745981Y-59241998D01*
X140745981Y-58341996D01*
X140747185Y-58317492D01*
X140750785Y-58293224D01*
X140756746Y-58269425D01*
X140765011Y-58246326D01*
X140775501Y-58224147D01*
X140788113Y-58203104D01*
X140802728Y-58183398D01*
X140819204Y-58165220D01*
X140837382Y-58148744D01*
X140857088Y-58134129D01*
X140878131Y-58121517D01*
X140900310Y-58111027D01*
X140923409Y-58102762D01*
X140947208Y-58096801D01*
X140971476Y-58093201D01*
X140995980Y-58091997D01*
X141645982Y-58091997D01*
X141670486Y-58093201D01*
X141670486Y-58093201D01*
G37*
D14*
X141320981Y-58791997D03*
D13*
G36*
X149820486Y-73789182D02*
G01*
X149844754Y-73792782D01*
X149868553Y-73798743D01*
X149891652Y-73807008D01*
X149913831Y-73817498D01*
X149934874Y-73830110D01*
X149954580Y-73844725D01*
X149972758Y-73861201D01*
X149989234Y-73879379D01*
X150003849Y-73899085D01*
X150016461Y-73920128D01*
X150026951Y-73942307D01*
X150035216Y-73965406D01*
X150041177Y-73989205D01*
X150044777Y-74013473D01*
X150045981Y-74037977D01*
X150045981Y-74937979D01*
X150044777Y-74962483D01*
X150041177Y-74986751D01*
X150035216Y-75010550D01*
X150026951Y-75033649D01*
X150016461Y-75055828D01*
X150003849Y-75076871D01*
X149989234Y-75096577D01*
X149972758Y-75114755D01*
X149954580Y-75131231D01*
X149934874Y-75145846D01*
X149913831Y-75158458D01*
X149891652Y-75168948D01*
X149868553Y-75177213D01*
X149844754Y-75183174D01*
X149820486Y-75186774D01*
X149795982Y-75187978D01*
X149145980Y-75187978D01*
X149121476Y-75186774D01*
X149097208Y-75183174D01*
X149073409Y-75177213D01*
X149050310Y-75168948D01*
X149028131Y-75158458D01*
X149007088Y-75145846D01*
X148987382Y-75131231D01*
X148969204Y-75114755D01*
X148952728Y-75096577D01*
X148938113Y-75076871D01*
X148925501Y-75055828D01*
X148915011Y-75033649D01*
X148906746Y-75010550D01*
X148900785Y-74986751D01*
X148897185Y-74962483D01*
X148895981Y-74937979D01*
X148895981Y-74037977D01*
X148897185Y-74013473D01*
X148900785Y-73989205D01*
X148906746Y-73965406D01*
X148915011Y-73942307D01*
X148925501Y-73920128D01*
X148938113Y-73899085D01*
X148952728Y-73879379D01*
X148969204Y-73861201D01*
X148987382Y-73844725D01*
X149007088Y-73830110D01*
X149028131Y-73817498D01*
X149050310Y-73807008D01*
X149073409Y-73798743D01*
X149097208Y-73792782D01*
X149121476Y-73789182D01*
X149145980Y-73787978D01*
X149795982Y-73787978D01*
X149820486Y-73789182D01*
X149820486Y-73789182D01*
G37*
D14*
X149470981Y-74487978D03*
D13*
G36*
X151870486Y-73789182D02*
G01*
X151894754Y-73792782D01*
X151918553Y-73798743D01*
X151941652Y-73807008D01*
X151963831Y-73817498D01*
X151984874Y-73830110D01*
X152004580Y-73844725D01*
X152022758Y-73861201D01*
X152039234Y-73879379D01*
X152053849Y-73899085D01*
X152066461Y-73920128D01*
X152076951Y-73942307D01*
X152085216Y-73965406D01*
X152091177Y-73989205D01*
X152094777Y-74013473D01*
X152095981Y-74037977D01*
X152095981Y-74937979D01*
X152094777Y-74962483D01*
X152091177Y-74986751D01*
X152085216Y-75010550D01*
X152076951Y-75033649D01*
X152066461Y-75055828D01*
X152053849Y-75076871D01*
X152039234Y-75096577D01*
X152022758Y-75114755D01*
X152004580Y-75131231D01*
X151984874Y-75145846D01*
X151963831Y-75158458D01*
X151941652Y-75168948D01*
X151918553Y-75177213D01*
X151894754Y-75183174D01*
X151870486Y-75186774D01*
X151845982Y-75187978D01*
X151195980Y-75187978D01*
X151171476Y-75186774D01*
X151147208Y-75183174D01*
X151123409Y-75177213D01*
X151100310Y-75168948D01*
X151078131Y-75158458D01*
X151057088Y-75145846D01*
X151037382Y-75131231D01*
X151019204Y-75114755D01*
X151002728Y-75096577D01*
X150988113Y-75076871D01*
X150975501Y-75055828D01*
X150965011Y-75033649D01*
X150956746Y-75010550D01*
X150950785Y-74986751D01*
X150947185Y-74962483D01*
X150945981Y-74937979D01*
X150945981Y-74037977D01*
X150947185Y-74013473D01*
X150950785Y-73989205D01*
X150956746Y-73965406D01*
X150965011Y-73942307D01*
X150975501Y-73920128D01*
X150988113Y-73899085D01*
X151002728Y-73879379D01*
X151019204Y-73861201D01*
X151037382Y-73844725D01*
X151057088Y-73830110D01*
X151078131Y-73817498D01*
X151100310Y-73807008D01*
X151123409Y-73798743D01*
X151147208Y-73792782D01*
X151171476Y-73789182D01*
X151195980Y-73787978D01*
X151845982Y-73787978D01*
X151870486Y-73789182D01*
X151870486Y-73789182D01*
G37*
D14*
X151520981Y-74487978D03*
D13*
G36*
X150107313Y-78415958D02*
G01*
X150131581Y-78419558D01*
X150155380Y-78425519D01*
X150178479Y-78433784D01*
X150200658Y-78444274D01*
X150221701Y-78456886D01*
X150241407Y-78471501D01*
X150259585Y-78487977D01*
X150895982Y-79124374D01*
X150912458Y-79142552D01*
X150927073Y-79162258D01*
X150939685Y-79183301D01*
X150950175Y-79205480D01*
X150958440Y-79228579D01*
X150964401Y-79252378D01*
X150968001Y-79276646D01*
X150969205Y-79301150D01*
X150968001Y-79325654D01*
X150964401Y-79349922D01*
X150958440Y-79373721D01*
X150950175Y-79396820D01*
X150939685Y-79418999D01*
X150927073Y-79440042D01*
X150912458Y-79459748D01*
X150895982Y-79477926D01*
X150436361Y-79937547D01*
X150418183Y-79954023D01*
X150398477Y-79968638D01*
X150377434Y-79981250D01*
X150355255Y-79991740D01*
X150332156Y-80000005D01*
X150308357Y-80005966D01*
X150284089Y-80009566D01*
X150259585Y-80010770D01*
X150235081Y-80009566D01*
X150210813Y-80005966D01*
X150187014Y-80000005D01*
X150163915Y-79991740D01*
X150141736Y-79981250D01*
X150120693Y-79968638D01*
X150100987Y-79954023D01*
X150082809Y-79937547D01*
X149446412Y-79301150D01*
X149429936Y-79282972D01*
X149415321Y-79263266D01*
X149402709Y-79242223D01*
X149392219Y-79220044D01*
X149383954Y-79196945D01*
X149377993Y-79173146D01*
X149374393Y-79148878D01*
X149373189Y-79124374D01*
X149374393Y-79099870D01*
X149377993Y-79075602D01*
X149383954Y-79051803D01*
X149392219Y-79028704D01*
X149402709Y-79006525D01*
X149415321Y-78985482D01*
X149429936Y-78965776D01*
X149446412Y-78947598D01*
X149906033Y-78487977D01*
X149924211Y-78471501D01*
X149943917Y-78456886D01*
X149964960Y-78444274D01*
X149987139Y-78433784D01*
X150010238Y-78425519D01*
X150034037Y-78419558D01*
X150058305Y-78415958D01*
X150082809Y-78414754D01*
X150107313Y-78415958D01*
X150107313Y-78415958D01*
G37*
D14*
X150171197Y-79212762D03*
D13*
G36*
X151556881Y-76966390D02*
G01*
X151581149Y-76969990D01*
X151604948Y-76975951D01*
X151628047Y-76984216D01*
X151650226Y-76994706D01*
X151671269Y-77007318D01*
X151690975Y-77021933D01*
X151709153Y-77038409D01*
X152345550Y-77674806D01*
X152362026Y-77692984D01*
X152376641Y-77712690D01*
X152389253Y-77733733D01*
X152399743Y-77755912D01*
X152408008Y-77779011D01*
X152413969Y-77802810D01*
X152417569Y-77827078D01*
X152418773Y-77851582D01*
X152417569Y-77876086D01*
X152413969Y-77900354D01*
X152408008Y-77924153D01*
X152399743Y-77947252D01*
X152389253Y-77969431D01*
X152376641Y-77990474D01*
X152362026Y-78010180D01*
X152345550Y-78028358D01*
X151885929Y-78487979D01*
X151867751Y-78504455D01*
X151848045Y-78519070D01*
X151827002Y-78531682D01*
X151804823Y-78542172D01*
X151781724Y-78550437D01*
X151757925Y-78556398D01*
X151733657Y-78559998D01*
X151709153Y-78561202D01*
X151684649Y-78559998D01*
X151660381Y-78556398D01*
X151636582Y-78550437D01*
X151613483Y-78542172D01*
X151591304Y-78531682D01*
X151570261Y-78519070D01*
X151550555Y-78504455D01*
X151532377Y-78487979D01*
X150895980Y-77851582D01*
X150879504Y-77833404D01*
X150864889Y-77813698D01*
X150852277Y-77792655D01*
X150841787Y-77770476D01*
X150833522Y-77747377D01*
X150827561Y-77723578D01*
X150823961Y-77699310D01*
X150822757Y-77674806D01*
X150823961Y-77650302D01*
X150827561Y-77626034D01*
X150833522Y-77602235D01*
X150841787Y-77579136D01*
X150852277Y-77556957D01*
X150864889Y-77535914D01*
X150879504Y-77516208D01*
X150895980Y-77498030D01*
X151355601Y-77038409D01*
X151373779Y-77021933D01*
X151393485Y-77007318D01*
X151414528Y-76994706D01*
X151436707Y-76984216D01*
X151459806Y-76975951D01*
X151483605Y-76969990D01*
X151507873Y-76966390D01*
X151532377Y-76965186D01*
X151556881Y-76966390D01*
X151556881Y-76966390D01*
G37*
D14*
X151620765Y-77763194D03*
D13*
G36*
X164992086Y-78347201D02*
G01*
X165016354Y-78350801D01*
X165040153Y-78356762D01*
X165063252Y-78365027D01*
X165085431Y-78375517D01*
X165106474Y-78388129D01*
X165126180Y-78402744D01*
X165144358Y-78419220D01*
X165160834Y-78437398D01*
X165175449Y-78457104D01*
X165188061Y-78478147D01*
X165198551Y-78500326D01*
X165206816Y-78523425D01*
X165212777Y-78547224D01*
X165216377Y-78571492D01*
X165217581Y-78595996D01*
X165217581Y-79245998D01*
X165216377Y-79270502D01*
X165212777Y-79294770D01*
X165206816Y-79318569D01*
X165198551Y-79341668D01*
X165188061Y-79363847D01*
X165175449Y-79384890D01*
X165160834Y-79404596D01*
X165144358Y-79422774D01*
X165126180Y-79439250D01*
X165106474Y-79453865D01*
X165085431Y-79466477D01*
X165063252Y-79476967D01*
X165040153Y-79485232D01*
X165016354Y-79491193D01*
X164992086Y-79494793D01*
X164967582Y-79495997D01*
X164067580Y-79495997D01*
X164043076Y-79494793D01*
X164018808Y-79491193D01*
X163995009Y-79485232D01*
X163971910Y-79476967D01*
X163949731Y-79466477D01*
X163928688Y-79453865D01*
X163908982Y-79439250D01*
X163890804Y-79422774D01*
X163874328Y-79404596D01*
X163859713Y-79384890D01*
X163847101Y-79363847D01*
X163836611Y-79341668D01*
X163828346Y-79318569D01*
X163822385Y-79294770D01*
X163818785Y-79270502D01*
X163817581Y-79245998D01*
X163817581Y-78595996D01*
X163818785Y-78571492D01*
X163822385Y-78547224D01*
X163828346Y-78523425D01*
X163836611Y-78500326D01*
X163847101Y-78478147D01*
X163859713Y-78457104D01*
X163874328Y-78437398D01*
X163890804Y-78419220D01*
X163908982Y-78402744D01*
X163928688Y-78388129D01*
X163949731Y-78375517D01*
X163971910Y-78365027D01*
X163995009Y-78356762D01*
X164018808Y-78350801D01*
X164043076Y-78347201D01*
X164067580Y-78345997D01*
X164967582Y-78345997D01*
X164992086Y-78347201D01*
X164992086Y-78347201D01*
G37*
D14*
X164517581Y-78920997D03*
D13*
G36*
X164992086Y-80397201D02*
G01*
X165016354Y-80400801D01*
X165040153Y-80406762D01*
X165063252Y-80415027D01*
X165085431Y-80425517D01*
X165106474Y-80438129D01*
X165126180Y-80452744D01*
X165144358Y-80469220D01*
X165160834Y-80487398D01*
X165175449Y-80507104D01*
X165188061Y-80528147D01*
X165198551Y-80550326D01*
X165206816Y-80573425D01*
X165212777Y-80597224D01*
X165216377Y-80621492D01*
X165217581Y-80645996D01*
X165217581Y-81295998D01*
X165216377Y-81320502D01*
X165212777Y-81344770D01*
X165206816Y-81368569D01*
X165198551Y-81391668D01*
X165188061Y-81413847D01*
X165175449Y-81434890D01*
X165160834Y-81454596D01*
X165144358Y-81472774D01*
X165126180Y-81489250D01*
X165106474Y-81503865D01*
X165085431Y-81516477D01*
X165063252Y-81526967D01*
X165040153Y-81535232D01*
X165016354Y-81541193D01*
X164992086Y-81544793D01*
X164967582Y-81545997D01*
X164067580Y-81545997D01*
X164043076Y-81544793D01*
X164018808Y-81541193D01*
X163995009Y-81535232D01*
X163971910Y-81526967D01*
X163949731Y-81516477D01*
X163928688Y-81503865D01*
X163908982Y-81489250D01*
X163890804Y-81472774D01*
X163874328Y-81454596D01*
X163859713Y-81434890D01*
X163847101Y-81413847D01*
X163836611Y-81391668D01*
X163828346Y-81368569D01*
X163822385Y-81344770D01*
X163818785Y-81320502D01*
X163817581Y-81295998D01*
X163817581Y-80645996D01*
X163818785Y-80621492D01*
X163822385Y-80597224D01*
X163828346Y-80573425D01*
X163836611Y-80550326D01*
X163847101Y-80528147D01*
X163859713Y-80507104D01*
X163874328Y-80487398D01*
X163890804Y-80469220D01*
X163908982Y-80452744D01*
X163928688Y-80438129D01*
X163949731Y-80425517D01*
X163971910Y-80415027D01*
X163995009Y-80406762D01*
X164018808Y-80400801D01*
X164043076Y-80397201D01*
X164067580Y-80395997D01*
X164967582Y-80395997D01*
X164992086Y-80397201D01*
X164992086Y-80397201D01*
G37*
D14*
X164517581Y-80970997D03*
D13*
G36*
X153356881Y-80966390D02*
G01*
X153381149Y-80969990D01*
X153404948Y-80975951D01*
X153428047Y-80984216D01*
X153450226Y-80994706D01*
X153471269Y-81007318D01*
X153490975Y-81021933D01*
X153509153Y-81038409D01*
X154145550Y-81674806D01*
X154162026Y-81692984D01*
X154176641Y-81712690D01*
X154189253Y-81733733D01*
X154199743Y-81755912D01*
X154208008Y-81779011D01*
X154213969Y-81802810D01*
X154217569Y-81827078D01*
X154218773Y-81851582D01*
X154217569Y-81876086D01*
X154213969Y-81900354D01*
X154208008Y-81924153D01*
X154199743Y-81947252D01*
X154189253Y-81969431D01*
X154176641Y-81990474D01*
X154162026Y-82010180D01*
X154145550Y-82028358D01*
X153685929Y-82487979D01*
X153667751Y-82504455D01*
X153648045Y-82519070D01*
X153627002Y-82531682D01*
X153604823Y-82542172D01*
X153581724Y-82550437D01*
X153557925Y-82556398D01*
X153533657Y-82559998D01*
X153509153Y-82561202D01*
X153484649Y-82559998D01*
X153460381Y-82556398D01*
X153436582Y-82550437D01*
X153413483Y-82542172D01*
X153391304Y-82531682D01*
X153370261Y-82519070D01*
X153350555Y-82504455D01*
X153332377Y-82487979D01*
X152695980Y-81851582D01*
X152679504Y-81833404D01*
X152664889Y-81813698D01*
X152652277Y-81792655D01*
X152641787Y-81770476D01*
X152633522Y-81747377D01*
X152627561Y-81723578D01*
X152623961Y-81699310D01*
X152622757Y-81674806D01*
X152623961Y-81650302D01*
X152627561Y-81626034D01*
X152633522Y-81602235D01*
X152641787Y-81579136D01*
X152652277Y-81556957D01*
X152664889Y-81535914D01*
X152679504Y-81516208D01*
X152695980Y-81498030D01*
X153155601Y-81038409D01*
X153173779Y-81021933D01*
X153193485Y-81007318D01*
X153214528Y-80994706D01*
X153236707Y-80984216D01*
X153259806Y-80975951D01*
X153283605Y-80969990D01*
X153307873Y-80966390D01*
X153332377Y-80965186D01*
X153356881Y-80966390D01*
X153356881Y-80966390D01*
G37*
D14*
X153420765Y-81763194D03*
D13*
G36*
X151907313Y-82415958D02*
G01*
X151931581Y-82419558D01*
X151955380Y-82425519D01*
X151978479Y-82433784D01*
X152000658Y-82444274D01*
X152021701Y-82456886D01*
X152041407Y-82471501D01*
X152059585Y-82487977D01*
X152695982Y-83124374D01*
X152712458Y-83142552D01*
X152727073Y-83162258D01*
X152739685Y-83183301D01*
X152750175Y-83205480D01*
X152758440Y-83228579D01*
X152764401Y-83252378D01*
X152768001Y-83276646D01*
X152769205Y-83301150D01*
X152768001Y-83325654D01*
X152764401Y-83349922D01*
X152758440Y-83373721D01*
X152750175Y-83396820D01*
X152739685Y-83418999D01*
X152727073Y-83440042D01*
X152712458Y-83459748D01*
X152695982Y-83477926D01*
X152236361Y-83937547D01*
X152218183Y-83954023D01*
X152198477Y-83968638D01*
X152177434Y-83981250D01*
X152155255Y-83991740D01*
X152132156Y-84000005D01*
X152108357Y-84005966D01*
X152084089Y-84009566D01*
X152059585Y-84010770D01*
X152035081Y-84009566D01*
X152010813Y-84005966D01*
X151987014Y-84000005D01*
X151963915Y-83991740D01*
X151941736Y-83981250D01*
X151920693Y-83968638D01*
X151900987Y-83954023D01*
X151882809Y-83937547D01*
X151246412Y-83301150D01*
X151229936Y-83282972D01*
X151215321Y-83263266D01*
X151202709Y-83242223D01*
X151192219Y-83220044D01*
X151183954Y-83196945D01*
X151177993Y-83173146D01*
X151174393Y-83148878D01*
X151173189Y-83124374D01*
X151174393Y-83099870D01*
X151177993Y-83075602D01*
X151183954Y-83051803D01*
X151192219Y-83028704D01*
X151202709Y-83006525D01*
X151215321Y-82985482D01*
X151229936Y-82965776D01*
X151246412Y-82947598D01*
X151706033Y-82487977D01*
X151724211Y-82471501D01*
X151743917Y-82456886D01*
X151764960Y-82444274D01*
X151787139Y-82433784D01*
X151810238Y-82425519D01*
X151834037Y-82419558D01*
X151858305Y-82415958D01*
X151882809Y-82414754D01*
X151907313Y-82415958D01*
X151907313Y-82415958D01*
G37*
D14*
X151971197Y-83212762D03*
D13*
G36*
X142699310Y-70615958D02*
G01*
X142723578Y-70619558D01*
X142747377Y-70625519D01*
X142770476Y-70633784D01*
X142792655Y-70644274D01*
X142813698Y-70656886D01*
X142833404Y-70671501D01*
X142851582Y-70687977D01*
X143487979Y-71324374D01*
X143504455Y-71342552D01*
X143519070Y-71362258D01*
X143531682Y-71383301D01*
X143542172Y-71405480D01*
X143550437Y-71428579D01*
X143556398Y-71452378D01*
X143559998Y-71476646D01*
X143561202Y-71501150D01*
X143559998Y-71525654D01*
X143556398Y-71549922D01*
X143550437Y-71573721D01*
X143542172Y-71596820D01*
X143531682Y-71618999D01*
X143519070Y-71640042D01*
X143504455Y-71659748D01*
X143487979Y-71677926D01*
X143028358Y-72137547D01*
X143010180Y-72154023D01*
X142990474Y-72168638D01*
X142969431Y-72181250D01*
X142947252Y-72191740D01*
X142924153Y-72200005D01*
X142900354Y-72205966D01*
X142876086Y-72209566D01*
X142851582Y-72210770D01*
X142827078Y-72209566D01*
X142802810Y-72205966D01*
X142779011Y-72200005D01*
X142755912Y-72191740D01*
X142733733Y-72181250D01*
X142712690Y-72168638D01*
X142692984Y-72154023D01*
X142674806Y-72137547D01*
X142038409Y-71501150D01*
X142021933Y-71482972D01*
X142007318Y-71463266D01*
X141994706Y-71442223D01*
X141984216Y-71420044D01*
X141975951Y-71396945D01*
X141969990Y-71373146D01*
X141966390Y-71348878D01*
X141965186Y-71324374D01*
X141966390Y-71299870D01*
X141969990Y-71275602D01*
X141975951Y-71251803D01*
X141984216Y-71228704D01*
X141994706Y-71206525D01*
X142007318Y-71185482D01*
X142021933Y-71165776D01*
X142038409Y-71147598D01*
X142498030Y-70687977D01*
X142516208Y-70671501D01*
X142535914Y-70656886D01*
X142556957Y-70644274D01*
X142579136Y-70633784D01*
X142602235Y-70625519D01*
X142626034Y-70619558D01*
X142650302Y-70615958D01*
X142674806Y-70614754D01*
X142699310Y-70615958D01*
X142699310Y-70615958D01*
G37*
D14*
X142763194Y-71412762D03*
D13*
G36*
X144148878Y-69166390D02*
G01*
X144173146Y-69169990D01*
X144196945Y-69175951D01*
X144220044Y-69184216D01*
X144242223Y-69194706D01*
X144263266Y-69207318D01*
X144282972Y-69221933D01*
X144301150Y-69238409D01*
X144937547Y-69874806D01*
X144954023Y-69892984D01*
X144968638Y-69912690D01*
X144981250Y-69933733D01*
X144991740Y-69955912D01*
X145000005Y-69979011D01*
X145005966Y-70002810D01*
X145009566Y-70027078D01*
X145010770Y-70051582D01*
X145009566Y-70076086D01*
X145005966Y-70100354D01*
X145000005Y-70124153D01*
X144991740Y-70147252D01*
X144981250Y-70169431D01*
X144968638Y-70190474D01*
X144954023Y-70210180D01*
X144937547Y-70228358D01*
X144477926Y-70687979D01*
X144459748Y-70704455D01*
X144440042Y-70719070D01*
X144418999Y-70731682D01*
X144396820Y-70742172D01*
X144373721Y-70750437D01*
X144349922Y-70756398D01*
X144325654Y-70759998D01*
X144301150Y-70761202D01*
X144276646Y-70759998D01*
X144252378Y-70756398D01*
X144228579Y-70750437D01*
X144205480Y-70742172D01*
X144183301Y-70731682D01*
X144162258Y-70719070D01*
X144142552Y-70704455D01*
X144124374Y-70687979D01*
X143487977Y-70051582D01*
X143471501Y-70033404D01*
X143456886Y-70013698D01*
X143444274Y-69992655D01*
X143433784Y-69970476D01*
X143425519Y-69947377D01*
X143419558Y-69923578D01*
X143415958Y-69899310D01*
X143414754Y-69874806D01*
X143415958Y-69850302D01*
X143419558Y-69826034D01*
X143425519Y-69802235D01*
X143433784Y-69779136D01*
X143444274Y-69756957D01*
X143456886Y-69735914D01*
X143471501Y-69716208D01*
X143487977Y-69698030D01*
X143947598Y-69238409D01*
X143965776Y-69221933D01*
X143985482Y-69207318D01*
X144006525Y-69194706D01*
X144028704Y-69184216D01*
X144051803Y-69175951D01*
X144075602Y-69169990D01*
X144099870Y-69166390D01*
X144124374Y-69165186D01*
X144148878Y-69166390D01*
X144148878Y-69166390D01*
G37*
D14*
X144212762Y-69963194D03*
M02*
